G04 #@! TF.GenerationSoftware,KiCad,Pcbnew,(5.1.4)-1*
G04 #@! TF.CreationDate,2021-09-17T13:15:57-05:00*
G04 #@! TF.ProjectId,CareMate,43617265-4d61-4746-952e-6b696361645f,rev?*
G04 #@! TF.SameCoordinates,Original*
G04 #@! TF.FileFunction,Paste,Top*
G04 #@! TF.FilePolarity,Positive*
%FSLAX46Y46*%
G04 Gerber Fmt 4.6, Leading zero omitted, Abs format (unit mm)*
G04 Created by KiCad (PCBNEW (5.1.4)-1) date 2021-09-17 13:15:57*
%MOMM*%
%LPD*%
G04 APERTURE LIST*
%ADD10C,0.100000*%
%ADD11C,0.950000*%
%ADD12R,1.910000X1.370000*%
G04 APERTURE END LIST*
D10*
G36*
X111512779Y-49034144D02*
G01*
X111535834Y-49037563D01*
X111558443Y-49043227D01*
X111580387Y-49051079D01*
X111601457Y-49061044D01*
X111621448Y-49073026D01*
X111640168Y-49086910D01*
X111657438Y-49102562D01*
X111673090Y-49119832D01*
X111686974Y-49138552D01*
X111698956Y-49158543D01*
X111708921Y-49179613D01*
X111716773Y-49201557D01*
X111722437Y-49224166D01*
X111725856Y-49247221D01*
X111727000Y-49270500D01*
X111727000Y-49845500D01*
X111725856Y-49868779D01*
X111722437Y-49891834D01*
X111716773Y-49914443D01*
X111708921Y-49936387D01*
X111698956Y-49957457D01*
X111686974Y-49977448D01*
X111673090Y-49996168D01*
X111657438Y-50013438D01*
X111640168Y-50029090D01*
X111621448Y-50042974D01*
X111601457Y-50054956D01*
X111580387Y-50064921D01*
X111558443Y-50072773D01*
X111535834Y-50078437D01*
X111512779Y-50081856D01*
X111489500Y-50083000D01*
X111014500Y-50083000D01*
X110991221Y-50081856D01*
X110968166Y-50078437D01*
X110945557Y-50072773D01*
X110923613Y-50064921D01*
X110902543Y-50054956D01*
X110882552Y-50042974D01*
X110863832Y-50029090D01*
X110846562Y-50013438D01*
X110830910Y-49996168D01*
X110817026Y-49977448D01*
X110805044Y-49957457D01*
X110795079Y-49936387D01*
X110787227Y-49914443D01*
X110781563Y-49891834D01*
X110778144Y-49868779D01*
X110777000Y-49845500D01*
X110777000Y-49270500D01*
X110778144Y-49247221D01*
X110781563Y-49224166D01*
X110787227Y-49201557D01*
X110795079Y-49179613D01*
X110805044Y-49158543D01*
X110817026Y-49138552D01*
X110830910Y-49119832D01*
X110846562Y-49102562D01*
X110863832Y-49086910D01*
X110882552Y-49073026D01*
X110902543Y-49061044D01*
X110923613Y-49051079D01*
X110945557Y-49043227D01*
X110968166Y-49037563D01*
X110991221Y-49034144D01*
X111014500Y-49033000D01*
X111489500Y-49033000D01*
X111512779Y-49034144D01*
X111512779Y-49034144D01*
G37*
D11*
X111252000Y-49558000D03*
D10*
G36*
X111512779Y-50784144D02*
G01*
X111535834Y-50787563D01*
X111558443Y-50793227D01*
X111580387Y-50801079D01*
X111601457Y-50811044D01*
X111621448Y-50823026D01*
X111640168Y-50836910D01*
X111657438Y-50852562D01*
X111673090Y-50869832D01*
X111686974Y-50888552D01*
X111698956Y-50908543D01*
X111708921Y-50929613D01*
X111716773Y-50951557D01*
X111722437Y-50974166D01*
X111725856Y-50997221D01*
X111727000Y-51020500D01*
X111727000Y-51595500D01*
X111725856Y-51618779D01*
X111722437Y-51641834D01*
X111716773Y-51664443D01*
X111708921Y-51686387D01*
X111698956Y-51707457D01*
X111686974Y-51727448D01*
X111673090Y-51746168D01*
X111657438Y-51763438D01*
X111640168Y-51779090D01*
X111621448Y-51792974D01*
X111601457Y-51804956D01*
X111580387Y-51814921D01*
X111558443Y-51822773D01*
X111535834Y-51828437D01*
X111512779Y-51831856D01*
X111489500Y-51833000D01*
X111014500Y-51833000D01*
X110991221Y-51831856D01*
X110968166Y-51828437D01*
X110945557Y-51822773D01*
X110923613Y-51814921D01*
X110902543Y-51804956D01*
X110882552Y-51792974D01*
X110863832Y-51779090D01*
X110846562Y-51763438D01*
X110830910Y-51746168D01*
X110817026Y-51727448D01*
X110805044Y-51707457D01*
X110795079Y-51686387D01*
X110787227Y-51664443D01*
X110781563Y-51641834D01*
X110778144Y-51618779D01*
X110777000Y-51595500D01*
X110777000Y-51020500D01*
X110778144Y-50997221D01*
X110781563Y-50974166D01*
X110787227Y-50951557D01*
X110795079Y-50929613D01*
X110805044Y-50908543D01*
X110817026Y-50888552D01*
X110830910Y-50869832D01*
X110846562Y-50852562D01*
X110863832Y-50836910D01*
X110882552Y-50823026D01*
X110902543Y-50811044D01*
X110923613Y-50801079D01*
X110945557Y-50793227D01*
X110968166Y-50787563D01*
X110991221Y-50784144D01*
X111014500Y-50783000D01*
X111489500Y-50783000D01*
X111512779Y-50784144D01*
X111512779Y-50784144D01*
G37*
D11*
X111252000Y-51308000D03*
D10*
G36*
X111512779Y-53211144D02*
G01*
X111535834Y-53214563D01*
X111558443Y-53220227D01*
X111580387Y-53228079D01*
X111601457Y-53238044D01*
X111621448Y-53250026D01*
X111640168Y-53263910D01*
X111657438Y-53279562D01*
X111673090Y-53296832D01*
X111686974Y-53315552D01*
X111698956Y-53335543D01*
X111708921Y-53356613D01*
X111716773Y-53378557D01*
X111722437Y-53401166D01*
X111725856Y-53424221D01*
X111727000Y-53447500D01*
X111727000Y-54022500D01*
X111725856Y-54045779D01*
X111722437Y-54068834D01*
X111716773Y-54091443D01*
X111708921Y-54113387D01*
X111698956Y-54134457D01*
X111686974Y-54154448D01*
X111673090Y-54173168D01*
X111657438Y-54190438D01*
X111640168Y-54206090D01*
X111621448Y-54219974D01*
X111601457Y-54231956D01*
X111580387Y-54241921D01*
X111558443Y-54249773D01*
X111535834Y-54255437D01*
X111512779Y-54258856D01*
X111489500Y-54260000D01*
X111014500Y-54260000D01*
X110991221Y-54258856D01*
X110968166Y-54255437D01*
X110945557Y-54249773D01*
X110923613Y-54241921D01*
X110902543Y-54231956D01*
X110882552Y-54219974D01*
X110863832Y-54206090D01*
X110846562Y-54190438D01*
X110830910Y-54173168D01*
X110817026Y-54154448D01*
X110805044Y-54134457D01*
X110795079Y-54113387D01*
X110787227Y-54091443D01*
X110781563Y-54068834D01*
X110778144Y-54045779D01*
X110777000Y-54022500D01*
X110777000Y-53447500D01*
X110778144Y-53424221D01*
X110781563Y-53401166D01*
X110787227Y-53378557D01*
X110795079Y-53356613D01*
X110805044Y-53335543D01*
X110817026Y-53315552D01*
X110830910Y-53296832D01*
X110846562Y-53279562D01*
X110863832Y-53263910D01*
X110882552Y-53250026D01*
X110902543Y-53238044D01*
X110923613Y-53228079D01*
X110945557Y-53220227D01*
X110968166Y-53214563D01*
X110991221Y-53211144D01*
X111014500Y-53210000D01*
X111489500Y-53210000D01*
X111512779Y-53211144D01*
X111512779Y-53211144D01*
G37*
D11*
X111252000Y-53735000D03*
D10*
G36*
X111512779Y-54961144D02*
G01*
X111535834Y-54964563D01*
X111558443Y-54970227D01*
X111580387Y-54978079D01*
X111601457Y-54988044D01*
X111621448Y-55000026D01*
X111640168Y-55013910D01*
X111657438Y-55029562D01*
X111673090Y-55046832D01*
X111686974Y-55065552D01*
X111698956Y-55085543D01*
X111708921Y-55106613D01*
X111716773Y-55128557D01*
X111722437Y-55151166D01*
X111725856Y-55174221D01*
X111727000Y-55197500D01*
X111727000Y-55772500D01*
X111725856Y-55795779D01*
X111722437Y-55818834D01*
X111716773Y-55841443D01*
X111708921Y-55863387D01*
X111698956Y-55884457D01*
X111686974Y-55904448D01*
X111673090Y-55923168D01*
X111657438Y-55940438D01*
X111640168Y-55956090D01*
X111621448Y-55969974D01*
X111601457Y-55981956D01*
X111580387Y-55991921D01*
X111558443Y-55999773D01*
X111535834Y-56005437D01*
X111512779Y-56008856D01*
X111489500Y-56010000D01*
X111014500Y-56010000D01*
X110991221Y-56008856D01*
X110968166Y-56005437D01*
X110945557Y-55999773D01*
X110923613Y-55991921D01*
X110902543Y-55981956D01*
X110882552Y-55969974D01*
X110863832Y-55956090D01*
X110846562Y-55940438D01*
X110830910Y-55923168D01*
X110817026Y-55904448D01*
X110805044Y-55884457D01*
X110795079Y-55863387D01*
X110787227Y-55841443D01*
X110781563Y-55818834D01*
X110778144Y-55795779D01*
X110777000Y-55772500D01*
X110777000Y-55197500D01*
X110778144Y-55174221D01*
X110781563Y-55151166D01*
X110787227Y-55128557D01*
X110795079Y-55106613D01*
X110805044Y-55085543D01*
X110817026Y-55065552D01*
X110830910Y-55046832D01*
X110846562Y-55029562D01*
X110863832Y-55013910D01*
X110882552Y-55000026D01*
X110902543Y-54988044D01*
X110923613Y-54978079D01*
X110945557Y-54970227D01*
X110968166Y-54964563D01*
X110991221Y-54961144D01*
X111014500Y-54960000D01*
X111489500Y-54960000D01*
X111512779Y-54961144D01*
X111512779Y-54961144D01*
G37*
D11*
X111252000Y-55485000D03*
D10*
G36*
X116592779Y-42628144D02*
G01*
X116615834Y-42631563D01*
X116638443Y-42637227D01*
X116660387Y-42645079D01*
X116681457Y-42655044D01*
X116701448Y-42667026D01*
X116720168Y-42680910D01*
X116737438Y-42696562D01*
X116753090Y-42713832D01*
X116766974Y-42732552D01*
X116778956Y-42752543D01*
X116788921Y-42773613D01*
X116796773Y-42795557D01*
X116802437Y-42818166D01*
X116805856Y-42841221D01*
X116807000Y-42864500D01*
X116807000Y-43439500D01*
X116805856Y-43462779D01*
X116802437Y-43485834D01*
X116796773Y-43508443D01*
X116788921Y-43530387D01*
X116778956Y-43551457D01*
X116766974Y-43571448D01*
X116753090Y-43590168D01*
X116737438Y-43607438D01*
X116720168Y-43623090D01*
X116701448Y-43636974D01*
X116681457Y-43648956D01*
X116660387Y-43658921D01*
X116638443Y-43666773D01*
X116615834Y-43672437D01*
X116592779Y-43675856D01*
X116569500Y-43677000D01*
X116094500Y-43677000D01*
X116071221Y-43675856D01*
X116048166Y-43672437D01*
X116025557Y-43666773D01*
X116003613Y-43658921D01*
X115982543Y-43648956D01*
X115962552Y-43636974D01*
X115943832Y-43623090D01*
X115926562Y-43607438D01*
X115910910Y-43590168D01*
X115897026Y-43571448D01*
X115885044Y-43551457D01*
X115875079Y-43530387D01*
X115867227Y-43508443D01*
X115861563Y-43485834D01*
X115858144Y-43462779D01*
X115857000Y-43439500D01*
X115857000Y-42864500D01*
X115858144Y-42841221D01*
X115861563Y-42818166D01*
X115867227Y-42795557D01*
X115875079Y-42773613D01*
X115885044Y-42752543D01*
X115897026Y-42732552D01*
X115910910Y-42713832D01*
X115926562Y-42696562D01*
X115943832Y-42680910D01*
X115962552Y-42667026D01*
X115982543Y-42655044D01*
X116003613Y-42645079D01*
X116025557Y-42637227D01*
X116048166Y-42631563D01*
X116071221Y-42628144D01*
X116094500Y-42627000D01*
X116569500Y-42627000D01*
X116592779Y-42628144D01*
X116592779Y-42628144D01*
G37*
D11*
X116332000Y-43152000D03*
D10*
G36*
X116592779Y-40878144D02*
G01*
X116615834Y-40881563D01*
X116638443Y-40887227D01*
X116660387Y-40895079D01*
X116681457Y-40905044D01*
X116701448Y-40917026D01*
X116720168Y-40930910D01*
X116737438Y-40946562D01*
X116753090Y-40963832D01*
X116766974Y-40982552D01*
X116778956Y-41002543D01*
X116788921Y-41023613D01*
X116796773Y-41045557D01*
X116802437Y-41068166D01*
X116805856Y-41091221D01*
X116807000Y-41114500D01*
X116807000Y-41689500D01*
X116805856Y-41712779D01*
X116802437Y-41735834D01*
X116796773Y-41758443D01*
X116788921Y-41780387D01*
X116778956Y-41801457D01*
X116766974Y-41821448D01*
X116753090Y-41840168D01*
X116737438Y-41857438D01*
X116720168Y-41873090D01*
X116701448Y-41886974D01*
X116681457Y-41898956D01*
X116660387Y-41908921D01*
X116638443Y-41916773D01*
X116615834Y-41922437D01*
X116592779Y-41925856D01*
X116569500Y-41927000D01*
X116094500Y-41927000D01*
X116071221Y-41925856D01*
X116048166Y-41922437D01*
X116025557Y-41916773D01*
X116003613Y-41908921D01*
X115982543Y-41898956D01*
X115962552Y-41886974D01*
X115943832Y-41873090D01*
X115926562Y-41857438D01*
X115910910Y-41840168D01*
X115897026Y-41821448D01*
X115885044Y-41801457D01*
X115875079Y-41780387D01*
X115867227Y-41758443D01*
X115861563Y-41735834D01*
X115858144Y-41712779D01*
X115857000Y-41689500D01*
X115857000Y-41114500D01*
X115858144Y-41091221D01*
X115861563Y-41068166D01*
X115867227Y-41045557D01*
X115875079Y-41023613D01*
X115885044Y-41002543D01*
X115897026Y-40982552D01*
X115910910Y-40963832D01*
X115926562Y-40946562D01*
X115943832Y-40930910D01*
X115962552Y-40917026D01*
X115982543Y-40905044D01*
X116003613Y-40895079D01*
X116025557Y-40887227D01*
X116048166Y-40881563D01*
X116071221Y-40878144D01*
X116094500Y-40877000D01*
X116569500Y-40877000D01*
X116592779Y-40878144D01*
X116592779Y-40878144D01*
G37*
D11*
X116332000Y-41402000D03*
D10*
G36*
X122964779Y-27212144D02*
G01*
X122987834Y-27215563D01*
X123010443Y-27221227D01*
X123032387Y-27229079D01*
X123053457Y-27239044D01*
X123073448Y-27251026D01*
X123092168Y-27264910D01*
X123109438Y-27280562D01*
X123125090Y-27297832D01*
X123138974Y-27316552D01*
X123150956Y-27336543D01*
X123160921Y-27357613D01*
X123168773Y-27379557D01*
X123174437Y-27402166D01*
X123177856Y-27425221D01*
X123179000Y-27448500D01*
X123179000Y-27923500D01*
X123177856Y-27946779D01*
X123174437Y-27969834D01*
X123168773Y-27992443D01*
X123160921Y-28014387D01*
X123150956Y-28035457D01*
X123138974Y-28055448D01*
X123125090Y-28074168D01*
X123109438Y-28091438D01*
X123092168Y-28107090D01*
X123073448Y-28120974D01*
X123053457Y-28132956D01*
X123032387Y-28142921D01*
X123010443Y-28150773D01*
X122987834Y-28156437D01*
X122964779Y-28159856D01*
X122941500Y-28161000D01*
X122366500Y-28161000D01*
X122343221Y-28159856D01*
X122320166Y-28156437D01*
X122297557Y-28150773D01*
X122275613Y-28142921D01*
X122254543Y-28132956D01*
X122234552Y-28120974D01*
X122215832Y-28107090D01*
X122198562Y-28091438D01*
X122182910Y-28074168D01*
X122169026Y-28055448D01*
X122157044Y-28035457D01*
X122147079Y-28014387D01*
X122139227Y-27992443D01*
X122133563Y-27969834D01*
X122130144Y-27946779D01*
X122129000Y-27923500D01*
X122129000Y-27448500D01*
X122130144Y-27425221D01*
X122133563Y-27402166D01*
X122139227Y-27379557D01*
X122147079Y-27357613D01*
X122157044Y-27336543D01*
X122169026Y-27316552D01*
X122182910Y-27297832D01*
X122198562Y-27280562D01*
X122215832Y-27264910D01*
X122234552Y-27251026D01*
X122254543Y-27239044D01*
X122275613Y-27229079D01*
X122297557Y-27221227D01*
X122320166Y-27215563D01*
X122343221Y-27212144D01*
X122366500Y-27211000D01*
X122941500Y-27211000D01*
X122964779Y-27212144D01*
X122964779Y-27212144D01*
G37*
D11*
X122654000Y-27686000D03*
D10*
G36*
X121214779Y-27212144D02*
G01*
X121237834Y-27215563D01*
X121260443Y-27221227D01*
X121282387Y-27229079D01*
X121303457Y-27239044D01*
X121323448Y-27251026D01*
X121342168Y-27264910D01*
X121359438Y-27280562D01*
X121375090Y-27297832D01*
X121388974Y-27316552D01*
X121400956Y-27336543D01*
X121410921Y-27357613D01*
X121418773Y-27379557D01*
X121424437Y-27402166D01*
X121427856Y-27425221D01*
X121429000Y-27448500D01*
X121429000Y-27923500D01*
X121427856Y-27946779D01*
X121424437Y-27969834D01*
X121418773Y-27992443D01*
X121410921Y-28014387D01*
X121400956Y-28035457D01*
X121388974Y-28055448D01*
X121375090Y-28074168D01*
X121359438Y-28091438D01*
X121342168Y-28107090D01*
X121323448Y-28120974D01*
X121303457Y-28132956D01*
X121282387Y-28142921D01*
X121260443Y-28150773D01*
X121237834Y-28156437D01*
X121214779Y-28159856D01*
X121191500Y-28161000D01*
X120616500Y-28161000D01*
X120593221Y-28159856D01*
X120570166Y-28156437D01*
X120547557Y-28150773D01*
X120525613Y-28142921D01*
X120504543Y-28132956D01*
X120484552Y-28120974D01*
X120465832Y-28107090D01*
X120448562Y-28091438D01*
X120432910Y-28074168D01*
X120419026Y-28055448D01*
X120407044Y-28035457D01*
X120397079Y-28014387D01*
X120389227Y-27992443D01*
X120383563Y-27969834D01*
X120380144Y-27946779D01*
X120379000Y-27923500D01*
X120379000Y-27448500D01*
X120380144Y-27425221D01*
X120383563Y-27402166D01*
X120389227Y-27379557D01*
X120397079Y-27357613D01*
X120407044Y-27336543D01*
X120419026Y-27316552D01*
X120432910Y-27297832D01*
X120448562Y-27280562D01*
X120465832Y-27264910D01*
X120484552Y-27251026D01*
X120504543Y-27239044D01*
X120525613Y-27229079D01*
X120547557Y-27221227D01*
X120570166Y-27215563D01*
X120593221Y-27212144D01*
X120616500Y-27211000D01*
X121191500Y-27211000D01*
X121214779Y-27212144D01*
X121214779Y-27212144D01*
G37*
D11*
X120904000Y-27686000D03*
D12*
X126746000Y-31242000D03*
X126746000Y-28400000D03*
D10*
G36*
X124770779Y-42706144D02*
G01*
X124793834Y-42709563D01*
X124816443Y-42715227D01*
X124838387Y-42723079D01*
X124859457Y-42733044D01*
X124879448Y-42745026D01*
X124898168Y-42758910D01*
X124915438Y-42774562D01*
X124931090Y-42791832D01*
X124944974Y-42810552D01*
X124956956Y-42830543D01*
X124966921Y-42851613D01*
X124974773Y-42873557D01*
X124980437Y-42896166D01*
X124983856Y-42919221D01*
X124985000Y-42942500D01*
X124985000Y-43417500D01*
X124983856Y-43440779D01*
X124980437Y-43463834D01*
X124974773Y-43486443D01*
X124966921Y-43508387D01*
X124956956Y-43529457D01*
X124944974Y-43549448D01*
X124931090Y-43568168D01*
X124915438Y-43585438D01*
X124898168Y-43601090D01*
X124879448Y-43614974D01*
X124859457Y-43626956D01*
X124838387Y-43636921D01*
X124816443Y-43644773D01*
X124793834Y-43650437D01*
X124770779Y-43653856D01*
X124747500Y-43655000D01*
X124172500Y-43655000D01*
X124149221Y-43653856D01*
X124126166Y-43650437D01*
X124103557Y-43644773D01*
X124081613Y-43636921D01*
X124060543Y-43626956D01*
X124040552Y-43614974D01*
X124021832Y-43601090D01*
X124004562Y-43585438D01*
X123988910Y-43568168D01*
X123975026Y-43549448D01*
X123963044Y-43529457D01*
X123953079Y-43508387D01*
X123945227Y-43486443D01*
X123939563Y-43463834D01*
X123936144Y-43440779D01*
X123935000Y-43417500D01*
X123935000Y-42942500D01*
X123936144Y-42919221D01*
X123939563Y-42896166D01*
X123945227Y-42873557D01*
X123953079Y-42851613D01*
X123963044Y-42830543D01*
X123975026Y-42810552D01*
X123988910Y-42791832D01*
X124004562Y-42774562D01*
X124021832Y-42758910D01*
X124040552Y-42745026D01*
X124060543Y-42733044D01*
X124081613Y-42723079D01*
X124103557Y-42715227D01*
X124126166Y-42709563D01*
X124149221Y-42706144D01*
X124172500Y-42705000D01*
X124747500Y-42705000D01*
X124770779Y-42706144D01*
X124770779Y-42706144D01*
G37*
D11*
X124460000Y-43180000D03*
D10*
G36*
X123020779Y-42706144D02*
G01*
X123043834Y-42709563D01*
X123066443Y-42715227D01*
X123088387Y-42723079D01*
X123109457Y-42733044D01*
X123129448Y-42745026D01*
X123148168Y-42758910D01*
X123165438Y-42774562D01*
X123181090Y-42791832D01*
X123194974Y-42810552D01*
X123206956Y-42830543D01*
X123216921Y-42851613D01*
X123224773Y-42873557D01*
X123230437Y-42896166D01*
X123233856Y-42919221D01*
X123235000Y-42942500D01*
X123235000Y-43417500D01*
X123233856Y-43440779D01*
X123230437Y-43463834D01*
X123224773Y-43486443D01*
X123216921Y-43508387D01*
X123206956Y-43529457D01*
X123194974Y-43549448D01*
X123181090Y-43568168D01*
X123165438Y-43585438D01*
X123148168Y-43601090D01*
X123129448Y-43614974D01*
X123109457Y-43626956D01*
X123088387Y-43636921D01*
X123066443Y-43644773D01*
X123043834Y-43650437D01*
X123020779Y-43653856D01*
X122997500Y-43655000D01*
X122422500Y-43655000D01*
X122399221Y-43653856D01*
X122376166Y-43650437D01*
X122353557Y-43644773D01*
X122331613Y-43636921D01*
X122310543Y-43626956D01*
X122290552Y-43614974D01*
X122271832Y-43601090D01*
X122254562Y-43585438D01*
X122238910Y-43568168D01*
X122225026Y-43549448D01*
X122213044Y-43529457D01*
X122203079Y-43508387D01*
X122195227Y-43486443D01*
X122189563Y-43463834D01*
X122186144Y-43440779D01*
X122185000Y-43417500D01*
X122185000Y-42942500D01*
X122186144Y-42919221D01*
X122189563Y-42896166D01*
X122195227Y-42873557D01*
X122203079Y-42851613D01*
X122213044Y-42830543D01*
X122225026Y-42810552D01*
X122238910Y-42791832D01*
X122254562Y-42774562D01*
X122271832Y-42758910D01*
X122290552Y-42745026D01*
X122310543Y-42733044D01*
X122331613Y-42723079D01*
X122353557Y-42715227D01*
X122376166Y-42709563D01*
X122399221Y-42706144D01*
X122422500Y-42705000D01*
X122997500Y-42705000D01*
X123020779Y-42706144D01*
X123020779Y-42706144D01*
G37*
D11*
X122710000Y-43180000D03*
D10*
G36*
X118420779Y-27212144D02*
G01*
X118443834Y-27215563D01*
X118466443Y-27221227D01*
X118488387Y-27229079D01*
X118509457Y-27239044D01*
X118529448Y-27251026D01*
X118548168Y-27264910D01*
X118565438Y-27280562D01*
X118581090Y-27297832D01*
X118594974Y-27316552D01*
X118606956Y-27336543D01*
X118616921Y-27357613D01*
X118624773Y-27379557D01*
X118630437Y-27402166D01*
X118633856Y-27425221D01*
X118635000Y-27448500D01*
X118635000Y-27923500D01*
X118633856Y-27946779D01*
X118630437Y-27969834D01*
X118624773Y-27992443D01*
X118616921Y-28014387D01*
X118606956Y-28035457D01*
X118594974Y-28055448D01*
X118581090Y-28074168D01*
X118565438Y-28091438D01*
X118548168Y-28107090D01*
X118529448Y-28120974D01*
X118509457Y-28132956D01*
X118488387Y-28142921D01*
X118466443Y-28150773D01*
X118443834Y-28156437D01*
X118420779Y-28159856D01*
X118397500Y-28161000D01*
X117822500Y-28161000D01*
X117799221Y-28159856D01*
X117776166Y-28156437D01*
X117753557Y-28150773D01*
X117731613Y-28142921D01*
X117710543Y-28132956D01*
X117690552Y-28120974D01*
X117671832Y-28107090D01*
X117654562Y-28091438D01*
X117638910Y-28074168D01*
X117625026Y-28055448D01*
X117613044Y-28035457D01*
X117603079Y-28014387D01*
X117595227Y-27992443D01*
X117589563Y-27969834D01*
X117586144Y-27946779D01*
X117585000Y-27923500D01*
X117585000Y-27448500D01*
X117586144Y-27425221D01*
X117589563Y-27402166D01*
X117595227Y-27379557D01*
X117603079Y-27357613D01*
X117613044Y-27336543D01*
X117625026Y-27316552D01*
X117638910Y-27297832D01*
X117654562Y-27280562D01*
X117671832Y-27264910D01*
X117690552Y-27251026D01*
X117710543Y-27239044D01*
X117731613Y-27229079D01*
X117753557Y-27221227D01*
X117776166Y-27215563D01*
X117799221Y-27212144D01*
X117822500Y-27211000D01*
X118397500Y-27211000D01*
X118420779Y-27212144D01*
X118420779Y-27212144D01*
G37*
D11*
X118110000Y-27686000D03*
D10*
G36*
X116670779Y-27212144D02*
G01*
X116693834Y-27215563D01*
X116716443Y-27221227D01*
X116738387Y-27229079D01*
X116759457Y-27239044D01*
X116779448Y-27251026D01*
X116798168Y-27264910D01*
X116815438Y-27280562D01*
X116831090Y-27297832D01*
X116844974Y-27316552D01*
X116856956Y-27336543D01*
X116866921Y-27357613D01*
X116874773Y-27379557D01*
X116880437Y-27402166D01*
X116883856Y-27425221D01*
X116885000Y-27448500D01*
X116885000Y-27923500D01*
X116883856Y-27946779D01*
X116880437Y-27969834D01*
X116874773Y-27992443D01*
X116866921Y-28014387D01*
X116856956Y-28035457D01*
X116844974Y-28055448D01*
X116831090Y-28074168D01*
X116815438Y-28091438D01*
X116798168Y-28107090D01*
X116779448Y-28120974D01*
X116759457Y-28132956D01*
X116738387Y-28142921D01*
X116716443Y-28150773D01*
X116693834Y-28156437D01*
X116670779Y-28159856D01*
X116647500Y-28161000D01*
X116072500Y-28161000D01*
X116049221Y-28159856D01*
X116026166Y-28156437D01*
X116003557Y-28150773D01*
X115981613Y-28142921D01*
X115960543Y-28132956D01*
X115940552Y-28120974D01*
X115921832Y-28107090D01*
X115904562Y-28091438D01*
X115888910Y-28074168D01*
X115875026Y-28055448D01*
X115863044Y-28035457D01*
X115853079Y-28014387D01*
X115845227Y-27992443D01*
X115839563Y-27969834D01*
X115836144Y-27946779D01*
X115835000Y-27923500D01*
X115835000Y-27448500D01*
X115836144Y-27425221D01*
X115839563Y-27402166D01*
X115845227Y-27379557D01*
X115853079Y-27357613D01*
X115863044Y-27336543D01*
X115875026Y-27316552D01*
X115888910Y-27297832D01*
X115904562Y-27280562D01*
X115921832Y-27264910D01*
X115940552Y-27251026D01*
X115960543Y-27239044D01*
X115981613Y-27229079D01*
X116003557Y-27221227D01*
X116026166Y-27215563D01*
X116049221Y-27212144D01*
X116072500Y-27211000D01*
X116647500Y-27211000D01*
X116670779Y-27212144D01*
X116670779Y-27212144D01*
G37*
D11*
X116360000Y-27686000D03*
M02*
