G04 #@! TF.GenerationSoftware,KiCad,Pcbnew,(5.1.4)-1*
G04 #@! TF.CreationDate,2021-11-04T16:38:15-05:00*
G04 #@! TF.ProjectId,CareMate,43617265-4d61-4746-952e-6b696361645f,rev?*
G04 #@! TF.SameCoordinates,Original*
G04 #@! TF.FileFunction,Copper,L1,Top*
G04 #@! TF.FilePolarity,Positive*
%FSLAX46Y46*%
G04 Gerber Fmt 4.6, Leading zero omitted, Abs format (unit mm)*
G04 Created by KiCad (PCBNEW (5.1.4)-1) date 2021-11-04 16:38:15*
%MOMM*%
%LPD*%
G04 APERTURE LIST*
%ADD10C,1.560000*%
%ADD11R,1.560000X1.560000*%
%ADD12C,2.700000*%
%ADD13C,0.100000*%
%ADD14C,0.950000*%
%ADD15R,1.910000X1.370000*%
%ADD16R,3.500000X3.500000*%
%ADD17C,3.000000*%
%ADD18C,3.500001*%
%ADD19C,1.524000*%
%ADD20O,3.048000X1.524000*%
%ADD21R,1.130000X1.130000*%
%ADD22C,1.130000*%
%ADD23C,0.800000*%
%ADD24C,1.016000*%
%ADD25C,0.381000*%
%ADD26C,0.635000*%
G04 APERTURE END LIST*
D10*
X60960000Y-28396000D03*
X60960000Y-30936000D03*
X60960000Y-33476000D03*
X60960000Y-36016000D03*
X60960000Y-38556000D03*
X60960000Y-41096000D03*
X60960000Y-43636000D03*
X60960000Y-46176000D03*
X60960000Y-48716000D03*
X60960000Y-51256000D03*
X60960000Y-53796000D03*
X60960000Y-56336000D03*
X60960000Y-58876000D03*
X60960000Y-61416000D03*
X60960000Y-63956000D03*
X60960000Y-66496000D03*
X60960000Y-69036000D03*
X60960000Y-71576000D03*
X60960000Y-74116000D03*
X82804000Y-30936000D03*
X82804000Y-33476000D03*
X82804000Y-36016000D03*
X82804000Y-38556000D03*
X82804000Y-41096000D03*
X82804000Y-43636000D03*
X82804000Y-46176000D03*
X82804000Y-48716000D03*
X82804000Y-51256000D03*
X82804000Y-53796000D03*
X82804000Y-56336000D03*
X82804000Y-58876000D03*
X82804000Y-61416000D03*
X82804000Y-63956000D03*
X82804000Y-66496000D03*
X82804000Y-69036000D03*
X82804000Y-28396000D03*
X82804000Y-71576000D03*
D11*
X82804000Y-74116000D03*
D12*
X62738000Y-88968000D03*
X66938000Y-88968000D03*
X71138000Y-88968000D03*
X75338000Y-88968000D03*
X79538000Y-88968000D03*
X83738000Y-88968000D03*
X87938000Y-88968000D03*
X92138000Y-88968000D03*
X62738000Y-94488000D03*
X66802000Y-94488000D03*
X71138000Y-94488000D03*
X75338000Y-94488000D03*
X79538000Y-94488000D03*
X83738000Y-94488000D03*
X87938000Y-94488000D03*
X92138000Y-94488000D03*
D13*
G36*
X96780779Y-48272144D02*
G01*
X96803834Y-48275563D01*
X96826443Y-48281227D01*
X96848387Y-48289079D01*
X96869457Y-48299044D01*
X96889448Y-48311026D01*
X96908168Y-48324910D01*
X96925438Y-48340562D01*
X96941090Y-48357832D01*
X96954974Y-48376552D01*
X96966956Y-48396543D01*
X96976921Y-48417613D01*
X96984773Y-48439557D01*
X96990437Y-48462166D01*
X96993856Y-48485221D01*
X96995000Y-48508500D01*
X96995000Y-49083500D01*
X96993856Y-49106779D01*
X96990437Y-49129834D01*
X96984773Y-49152443D01*
X96976921Y-49174387D01*
X96966956Y-49195457D01*
X96954974Y-49215448D01*
X96941090Y-49234168D01*
X96925438Y-49251438D01*
X96908168Y-49267090D01*
X96889448Y-49280974D01*
X96869457Y-49292956D01*
X96848387Y-49302921D01*
X96826443Y-49310773D01*
X96803834Y-49316437D01*
X96780779Y-49319856D01*
X96757500Y-49321000D01*
X96282500Y-49321000D01*
X96259221Y-49319856D01*
X96236166Y-49316437D01*
X96213557Y-49310773D01*
X96191613Y-49302921D01*
X96170543Y-49292956D01*
X96150552Y-49280974D01*
X96131832Y-49267090D01*
X96114562Y-49251438D01*
X96098910Y-49234168D01*
X96085026Y-49215448D01*
X96073044Y-49195457D01*
X96063079Y-49174387D01*
X96055227Y-49152443D01*
X96049563Y-49129834D01*
X96046144Y-49106779D01*
X96045000Y-49083500D01*
X96045000Y-48508500D01*
X96046144Y-48485221D01*
X96049563Y-48462166D01*
X96055227Y-48439557D01*
X96063079Y-48417613D01*
X96073044Y-48396543D01*
X96085026Y-48376552D01*
X96098910Y-48357832D01*
X96114562Y-48340562D01*
X96131832Y-48324910D01*
X96150552Y-48311026D01*
X96170543Y-48299044D01*
X96191613Y-48289079D01*
X96213557Y-48281227D01*
X96236166Y-48275563D01*
X96259221Y-48272144D01*
X96282500Y-48271000D01*
X96757500Y-48271000D01*
X96780779Y-48272144D01*
X96780779Y-48272144D01*
G37*
D14*
X96520000Y-48796000D03*
D13*
G36*
X96780779Y-50022144D02*
G01*
X96803834Y-50025563D01*
X96826443Y-50031227D01*
X96848387Y-50039079D01*
X96869457Y-50049044D01*
X96889448Y-50061026D01*
X96908168Y-50074910D01*
X96925438Y-50090562D01*
X96941090Y-50107832D01*
X96954974Y-50126552D01*
X96966956Y-50146543D01*
X96976921Y-50167613D01*
X96984773Y-50189557D01*
X96990437Y-50212166D01*
X96993856Y-50235221D01*
X96995000Y-50258500D01*
X96995000Y-50833500D01*
X96993856Y-50856779D01*
X96990437Y-50879834D01*
X96984773Y-50902443D01*
X96976921Y-50924387D01*
X96966956Y-50945457D01*
X96954974Y-50965448D01*
X96941090Y-50984168D01*
X96925438Y-51001438D01*
X96908168Y-51017090D01*
X96889448Y-51030974D01*
X96869457Y-51042956D01*
X96848387Y-51052921D01*
X96826443Y-51060773D01*
X96803834Y-51066437D01*
X96780779Y-51069856D01*
X96757500Y-51071000D01*
X96282500Y-51071000D01*
X96259221Y-51069856D01*
X96236166Y-51066437D01*
X96213557Y-51060773D01*
X96191613Y-51052921D01*
X96170543Y-51042956D01*
X96150552Y-51030974D01*
X96131832Y-51017090D01*
X96114562Y-51001438D01*
X96098910Y-50984168D01*
X96085026Y-50965448D01*
X96073044Y-50945457D01*
X96063079Y-50924387D01*
X96055227Y-50902443D01*
X96049563Y-50879834D01*
X96046144Y-50856779D01*
X96045000Y-50833500D01*
X96045000Y-50258500D01*
X96046144Y-50235221D01*
X96049563Y-50212166D01*
X96055227Y-50189557D01*
X96063079Y-50167613D01*
X96073044Y-50146543D01*
X96085026Y-50126552D01*
X96098910Y-50107832D01*
X96114562Y-50090562D01*
X96131832Y-50074910D01*
X96150552Y-50061026D01*
X96170543Y-50049044D01*
X96191613Y-50039079D01*
X96213557Y-50031227D01*
X96236166Y-50025563D01*
X96259221Y-50022144D01*
X96282500Y-50021000D01*
X96757500Y-50021000D01*
X96780779Y-50022144D01*
X96780779Y-50022144D01*
G37*
D14*
X96520000Y-50546000D03*
D13*
G36*
X96780779Y-52957144D02*
G01*
X96803834Y-52960563D01*
X96826443Y-52966227D01*
X96848387Y-52974079D01*
X96869457Y-52984044D01*
X96889448Y-52996026D01*
X96908168Y-53009910D01*
X96925438Y-53025562D01*
X96941090Y-53042832D01*
X96954974Y-53061552D01*
X96966956Y-53081543D01*
X96976921Y-53102613D01*
X96984773Y-53124557D01*
X96990437Y-53147166D01*
X96993856Y-53170221D01*
X96995000Y-53193500D01*
X96995000Y-53768500D01*
X96993856Y-53791779D01*
X96990437Y-53814834D01*
X96984773Y-53837443D01*
X96976921Y-53859387D01*
X96966956Y-53880457D01*
X96954974Y-53900448D01*
X96941090Y-53919168D01*
X96925438Y-53936438D01*
X96908168Y-53952090D01*
X96889448Y-53965974D01*
X96869457Y-53977956D01*
X96848387Y-53987921D01*
X96826443Y-53995773D01*
X96803834Y-54001437D01*
X96780779Y-54004856D01*
X96757500Y-54006000D01*
X96282500Y-54006000D01*
X96259221Y-54004856D01*
X96236166Y-54001437D01*
X96213557Y-53995773D01*
X96191613Y-53987921D01*
X96170543Y-53977956D01*
X96150552Y-53965974D01*
X96131832Y-53952090D01*
X96114562Y-53936438D01*
X96098910Y-53919168D01*
X96085026Y-53900448D01*
X96073044Y-53880457D01*
X96063079Y-53859387D01*
X96055227Y-53837443D01*
X96049563Y-53814834D01*
X96046144Y-53791779D01*
X96045000Y-53768500D01*
X96045000Y-53193500D01*
X96046144Y-53170221D01*
X96049563Y-53147166D01*
X96055227Y-53124557D01*
X96063079Y-53102613D01*
X96073044Y-53081543D01*
X96085026Y-53061552D01*
X96098910Y-53042832D01*
X96114562Y-53025562D01*
X96131832Y-53009910D01*
X96150552Y-52996026D01*
X96170543Y-52984044D01*
X96191613Y-52974079D01*
X96213557Y-52966227D01*
X96236166Y-52960563D01*
X96259221Y-52957144D01*
X96282500Y-52956000D01*
X96757500Y-52956000D01*
X96780779Y-52957144D01*
X96780779Y-52957144D01*
G37*
D14*
X96520000Y-53481000D03*
D13*
G36*
X96780779Y-54707144D02*
G01*
X96803834Y-54710563D01*
X96826443Y-54716227D01*
X96848387Y-54724079D01*
X96869457Y-54734044D01*
X96889448Y-54746026D01*
X96908168Y-54759910D01*
X96925438Y-54775562D01*
X96941090Y-54792832D01*
X96954974Y-54811552D01*
X96966956Y-54831543D01*
X96976921Y-54852613D01*
X96984773Y-54874557D01*
X96990437Y-54897166D01*
X96993856Y-54920221D01*
X96995000Y-54943500D01*
X96995000Y-55518500D01*
X96993856Y-55541779D01*
X96990437Y-55564834D01*
X96984773Y-55587443D01*
X96976921Y-55609387D01*
X96966956Y-55630457D01*
X96954974Y-55650448D01*
X96941090Y-55669168D01*
X96925438Y-55686438D01*
X96908168Y-55702090D01*
X96889448Y-55715974D01*
X96869457Y-55727956D01*
X96848387Y-55737921D01*
X96826443Y-55745773D01*
X96803834Y-55751437D01*
X96780779Y-55754856D01*
X96757500Y-55756000D01*
X96282500Y-55756000D01*
X96259221Y-55754856D01*
X96236166Y-55751437D01*
X96213557Y-55745773D01*
X96191613Y-55737921D01*
X96170543Y-55727956D01*
X96150552Y-55715974D01*
X96131832Y-55702090D01*
X96114562Y-55686438D01*
X96098910Y-55669168D01*
X96085026Y-55650448D01*
X96073044Y-55630457D01*
X96063079Y-55609387D01*
X96055227Y-55587443D01*
X96049563Y-55564834D01*
X96046144Y-55541779D01*
X96045000Y-55518500D01*
X96045000Y-54943500D01*
X96046144Y-54920221D01*
X96049563Y-54897166D01*
X96055227Y-54874557D01*
X96063079Y-54852613D01*
X96073044Y-54831543D01*
X96085026Y-54811552D01*
X96098910Y-54792832D01*
X96114562Y-54775562D01*
X96131832Y-54759910D01*
X96150552Y-54746026D01*
X96170543Y-54734044D01*
X96191613Y-54724079D01*
X96213557Y-54716227D01*
X96236166Y-54710563D01*
X96259221Y-54707144D01*
X96282500Y-54706000D01*
X96757500Y-54706000D01*
X96780779Y-54707144D01*
X96780779Y-54707144D01*
G37*
D14*
X96520000Y-55231000D03*
D13*
G36*
X111512779Y-42628144D02*
G01*
X111535834Y-42631563D01*
X111558443Y-42637227D01*
X111580387Y-42645079D01*
X111601457Y-42655044D01*
X111621448Y-42667026D01*
X111640168Y-42680910D01*
X111657438Y-42696562D01*
X111673090Y-42713832D01*
X111686974Y-42732552D01*
X111698956Y-42752543D01*
X111708921Y-42773613D01*
X111716773Y-42795557D01*
X111722437Y-42818166D01*
X111725856Y-42841221D01*
X111727000Y-42864500D01*
X111727000Y-43439500D01*
X111725856Y-43462779D01*
X111722437Y-43485834D01*
X111716773Y-43508443D01*
X111708921Y-43530387D01*
X111698956Y-43551457D01*
X111686974Y-43571448D01*
X111673090Y-43590168D01*
X111657438Y-43607438D01*
X111640168Y-43623090D01*
X111621448Y-43636974D01*
X111601457Y-43648956D01*
X111580387Y-43658921D01*
X111558443Y-43666773D01*
X111535834Y-43672437D01*
X111512779Y-43675856D01*
X111489500Y-43677000D01*
X111014500Y-43677000D01*
X110991221Y-43675856D01*
X110968166Y-43672437D01*
X110945557Y-43666773D01*
X110923613Y-43658921D01*
X110902543Y-43648956D01*
X110882552Y-43636974D01*
X110863832Y-43623090D01*
X110846562Y-43607438D01*
X110830910Y-43590168D01*
X110817026Y-43571448D01*
X110805044Y-43551457D01*
X110795079Y-43530387D01*
X110787227Y-43508443D01*
X110781563Y-43485834D01*
X110778144Y-43462779D01*
X110777000Y-43439500D01*
X110777000Y-42864500D01*
X110778144Y-42841221D01*
X110781563Y-42818166D01*
X110787227Y-42795557D01*
X110795079Y-42773613D01*
X110805044Y-42752543D01*
X110817026Y-42732552D01*
X110830910Y-42713832D01*
X110846562Y-42696562D01*
X110863832Y-42680910D01*
X110882552Y-42667026D01*
X110902543Y-42655044D01*
X110923613Y-42645079D01*
X110945557Y-42637227D01*
X110968166Y-42631563D01*
X110991221Y-42628144D01*
X111014500Y-42627000D01*
X111489500Y-42627000D01*
X111512779Y-42628144D01*
X111512779Y-42628144D01*
G37*
D14*
X111252000Y-43152000D03*
D13*
G36*
X111512779Y-40878144D02*
G01*
X111535834Y-40881563D01*
X111558443Y-40887227D01*
X111580387Y-40895079D01*
X111601457Y-40905044D01*
X111621448Y-40917026D01*
X111640168Y-40930910D01*
X111657438Y-40946562D01*
X111673090Y-40963832D01*
X111686974Y-40982552D01*
X111698956Y-41002543D01*
X111708921Y-41023613D01*
X111716773Y-41045557D01*
X111722437Y-41068166D01*
X111725856Y-41091221D01*
X111727000Y-41114500D01*
X111727000Y-41689500D01*
X111725856Y-41712779D01*
X111722437Y-41735834D01*
X111716773Y-41758443D01*
X111708921Y-41780387D01*
X111698956Y-41801457D01*
X111686974Y-41821448D01*
X111673090Y-41840168D01*
X111657438Y-41857438D01*
X111640168Y-41873090D01*
X111621448Y-41886974D01*
X111601457Y-41898956D01*
X111580387Y-41908921D01*
X111558443Y-41916773D01*
X111535834Y-41922437D01*
X111512779Y-41925856D01*
X111489500Y-41927000D01*
X111014500Y-41927000D01*
X110991221Y-41925856D01*
X110968166Y-41922437D01*
X110945557Y-41916773D01*
X110923613Y-41908921D01*
X110902543Y-41898956D01*
X110882552Y-41886974D01*
X110863832Y-41873090D01*
X110846562Y-41857438D01*
X110830910Y-41840168D01*
X110817026Y-41821448D01*
X110805044Y-41801457D01*
X110795079Y-41780387D01*
X110787227Y-41758443D01*
X110781563Y-41735834D01*
X110778144Y-41712779D01*
X110777000Y-41689500D01*
X110777000Y-41114500D01*
X110778144Y-41091221D01*
X110781563Y-41068166D01*
X110787227Y-41045557D01*
X110795079Y-41023613D01*
X110805044Y-41002543D01*
X110817026Y-40982552D01*
X110830910Y-40963832D01*
X110846562Y-40946562D01*
X110863832Y-40930910D01*
X110882552Y-40917026D01*
X110902543Y-40905044D01*
X110923613Y-40895079D01*
X110945557Y-40887227D01*
X110968166Y-40881563D01*
X110991221Y-40878144D01*
X111014500Y-40877000D01*
X111489500Y-40877000D01*
X111512779Y-40878144D01*
X111512779Y-40878144D01*
G37*
D14*
X111252000Y-41402000D03*
D13*
G36*
X117884779Y-27212144D02*
G01*
X117907834Y-27215563D01*
X117930443Y-27221227D01*
X117952387Y-27229079D01*
X117973457Y-27239044D01*
X117993448Y-27251026D01*
X118012168Y-27264910D01*
X118029438Y-27280562D01*
X118045090Y-27297832D01*
X118058974Y-27316552D01*
X118070956Y-27336543D01*
X118080921Y-27357613D01*
X118088773Y-27379557D01*
X118094437Y-27402166D01*
X118097856Y-27425221D01*
X118099000Y-27448500D01*
X118099000Y-27923500D01*
X118097856Y-27946779D01*
X118094437Y-27969834D01*
X118088773Y-27992443D01*
X118080921Y-28014387D01*
X118070956Y-28035457D01*
X118058974Y-28055448D01*
X118045090Y-28074168D01*
X118029438Y-28091438D01*
X118012168Y-28107090D01*
X117993448Y-28120974D01*
X117973457Y-28132956D01*
X117952387Y-28142921D01*
X117930443Y-28150773D01*
X117907834Y-28156437D01*
X117884779Y-28159856D01*
X117861500Y-28161000D01*
X117286500Y-28161000D01*
X117263221Y-28159856D01*
X117240166Y-28156437D01*
X117217557Y-28150773D01*
X117195613Y-28142921D01*
X117174543Y-28132956D01*
X117154552Y-28120974D01*
X117135832Y-28107090D01*
X117118562Y-28091438D01*
X117102910Y-28074168D01*
X117089026Y-28055448D01*
X117077044Y-28035457D01*
X117067079Y-28014387D01*
X117059227Y-27992443D01*
X117053563Y-27969834D01*
X117050144Y-27946779D01*
X117049000Y-27923500D01*
X117049000Y-27448500D01*
X117050144Y-27425221D01*
X117053563Y-27402166D01*
X117059227Y-27379557D01*
X117067079Y-27357613D01*
X117077044Y-27336543D01*
X117089026Y-27316552D01*
X117102910Y-27297832D01*
X117118562Y-27280562D01*
X117135832Y-27264910D01*
X117154552Y-27251026D01*
X117174543Y-27239044D01*
X117195613Y-27229079D01*
X117217557Y-27221227D01*
X117240166Y-27215563D01*
X117263221Y-27212144D01*
X117286500Y-27211000D01*
X117861500Y-27211000D01*
X117884779Y-27212144D01*
X117884779Y-27212144D01*
G37*
D14*
X117574000Y-27686000D03*
D13*
G36*
X116134779Y-27212144D02*
G01*
X116157834Y-27215563D01*
X116180443Y-27221227D01*
X116202387Y-27229079D01*
X116223457Y-27239044D01*
X116243448Y-27251026D01*
X116262168Y-27264910D01*
X116279438Y-27280562D01*
X116295090Y-27297832D01*
X116308974Y-27316552D01*
X116320956Y-27336543D01*
X116330921Y-27357613D01*
X116338773Y-27379557D01*
X116344437Y-27402166D01*
X116347856Y-27425221D01*
X116349000Y-27448500D01*
X116349000Y-27923500D01*
X116347856Y-27946779D01*
X116344437Y-27969834D01*
X116338773Y-27992443D01*
X116330921Y-28014387D01*
X116320956Y-28035457D01*
X116308974Y-28055448D01*
X116295090Y-28074168D01*
X116279438Y-28091438D01*
X116262168Y-28107090D01*
X116243448Y-28120974D01*
X116223457Y-28132956D01*
X116202387Y-28142921D01*
X116180443Y-28150773D01*
X116157834Y-28156437D01*
X116134779Y-28159856D01*
X116111500Y-28161000D01*
X115536500Y-28161000D01*
X115513221Y-28159856D01*
X115490166Y-28156437D01*
X115467557Y-28150773D01*
X115445613Y-28142921D01*
X115424543Y-28132956D01*
X115404552Y-28120974D01*
X115385832Y-28107090D01*
X115368562Y-28091438D01*
X115352910Y-28074168D01*
X115339026Y-28055448D01*
X115327044Y-28035457D01*
X115317079Y-28014387D01*
X115309227Y-27992443D01*
X115303563Y-27969834D01*
X115300144Y-27946779D01*
X115299000Y-27923500D01*
X115299000Y-27448500D01*
X115300144Y-27425221D01*
X115303563Y-27402166D01*
X115309227Y-27379557D01*
X115317079Y-27357613D01*
X115327044Y-27336543D01*
X115339026Y-27316552D01*
X115352910Y-27297832D01*
X115368562Y-27280562D01*
X115385832Y-27264910D01*
X115404552Y-27251026D01*
X115424543Y-27239044D01*
X115445613Y-27229079D01*
X115467557Y-27221227D01*
X115490166Y-27215563D01*
X115513221Y-27212144D01*
X115536500Y-27211000D01*
X116111500Y-27211000D01*
X116134779Y-27212144D01*
X116134779Y-27212144D01*
G37*
D14*
X115824000Y-27686000D03*
D15*
X121666000Y-31242000D03*
X121666000Y-28400000D03*
D16*
X101092000Y-39878000D03*
D13*
G36*
X102165513Y-32381611D02*
G01*
X102238318Y-32392411D01*
X102309714Y-32410295D01*
X102379013Y-32435090D01*
X102445548Y-32466559D01*
X102508678Y-32504398D01*
X102567795Y-32548242D01*
X102622330Y-32597670D01*
X102671758Y-32652205D01*
X102715602Y-32711322D01*
X102753441Y-32774452D01*
X102784910Y-32840987D01*
X102809705Y-32910286D01*
X102827589Y-32981682D01*
X102838389Y-33054487D01*
X102842000Y-33128000D01*
X102842000Y-34628000D01*
X102838389Y-34701513D01*
X102827589Y-34774318D01*
X102809705Y-34845714D01*
X102784910Y-34915013D01*
X102753441Y-34981548D01*
X102715602Y-35044678D01*
X102671758Y-35103795D01*
X102622330Y-35158330D01*
X102567795Y-35207758D01*
X102508678Y-35251602D01*
X102445548Y-35289441D01*
X102379013Y-35320910D01*
X102309714Y-35345705D01*
X102238318Y-35363589D01*
X102165513Y-35374389D01*
X102092000Y-35378000D01*
X100092000Y-35378000D01*
X100018487Y-35374389D01*
X99945682Y-35363589D01*
X99874286Y-35345705D01*
X99804987Y-35320910D01*
X99738452Y-35289441D01*
X99675322Y-35251602D01*
X99616205Y-35207758D01*
X99561670Y-35158330D01*
X99512242Y-35103795D01*
X99468398Y-35044678D01*
X99430559Y-34981548D01*
X99399090Y-34915013D01*
X99374295Y-34845714D01*
X99356411Y-34774318D01*
X99345611Y-34701513D01*
X99342000Y-34628000D01*
X99342000Y-33128000D01*
X99345611Y-33054487D01*
X99356411Y-32981682D01*
X99374295Y-32910286D01*
X99399090Y-32840987D01*
X99430559Y-32774452D01*
X99468398Y-32711322D01*
X99512242Y-32652205D01*
X99561670Y-32597670D01*
X99616205Y-32548242D01*
X99675322Y-32504398D01*
X99738452Y-32466559D01*
X99804987Y-32435090D01*
X99874286Y-32410295D01*
X99945682Y-32392411D01*
X100018487Y-32381611D01*
X100092000Y-32378000D01*
X102092000Y-32378000D01*
X102165513Y-32381611D01*
X102165513Y-32381611D01*
G37*
D17*
X101092000Y-33878000D03*
D13*
G36*
X97352765Y-35132213D02*
G01*
X97437704Y-35144813D01*
X97520999Y-35165677D01*
X97601848Y-35194605D01*
X97679472Y-35231319D01*
X97753124Y-35275464D01*
X97822094Y-35326616D01*
X97885718Y-35384282D01*
X97943384Y-35447906D01*
X97994536Y-35516876D01*
X98038681Y-35590528D01*
X98075395Y-35668152D01*
X98104323Y-35749001D01*
X98125187Y-35832296D01*
X98137787Y-35917235D01*
X98142000Y-36003000D01*
X98142000Y-37753000D01*
X98137787Y-37838765D01*
X98125187Y-37923704D01*
X98104323Y-38006999D01*
X98075395Y-38087848D01*
X98038681Y-38165472D01*
X97994536Y-38239124D01*
X97943384Y-38308094D01*
X97885718Y-38371718D01*
X97822094Y-38429384D01*
X97753124Y-38480536D01*
X97679472Y-38524681D01*
X97601848Y-38561395D01*
X97520999Y-38590323D01*
X97437704Y-38611187D01*
X97352765Y-38623787D01*
X97267000Y-38628000D01*
X95517000Y-38628000D01*
X95431235Y-38623787D01*
X95346296Y-38611187D01*
X95263001Y-38590323D01*
X95182152Y-38561395D01*
X95104528Y-38524681D01*
X95030876Y-38480536D01*
X94961906Y-38429384D01*
X94898282Y-38371718D01*
X94840616Y-38308094D01*
X94789464Y-38239124D01*
X94745319Y-38165472D01*
X94708605Y-38087848D01*
X94679677Y-38006999D01*
X94658813Y-37923704D01*
X94646213Y-37838765D01*
X94642000Y-37753000D01*
X94642000Y-36003000D01*
X94646213Y-35917235D01*
X94658813Y-35832296D01*
X94679677Y-35749001D01*
X94708605Y-35668152D01*
X94745319Y-35590528D01*
X94789464Y-35516876D01*
X94840616Y-35447906D01*
X94898282Y-35384282D01*
X94961906Y-35326616D01*
X95030876Y-35275464D01*
X95104528Y-35231319D01*
X95182152Y-35194605D01*
X95263001Y-35165677D01*
X95346296Y-35144813D01*
X95431235Y-35132213D01*
X95517000Y-35128000D01*
X97267000Y-35128000D01*
X97352765Y-35132213D01*
X97352765Y-35132213D01*
G37*
D18*
X96392000Y-36878000D03*
D19*
X91694000Y-65024000D03*
X91694000Y-67564000D03*
X91694000Y-70104000D03*
X91694000Y-72644000D03*
X91694000Y-75184000D03*
X91694000Y-77724000D03*
D13*
G36*
X119690779Y-42706144D02*
G01*
X119713834Y-42709563D01*
X119736443Y-42715227D01*
X119758387Y-42723079D01*
X119779457Y-42733044D01*
X119799448Y-42745026D01*
X119818168Y-42758910D01*
X119835438Y-42774562D01*
X119851090Y-42791832D01*
X119864974Y-42810552D01*
X119876956Y-42830543D01*
X119886921Y-42851613D01*
X119894773Y-42873557D01*
X119900437Y-42896166D01*
X119903856Y-42919221D01*
X119905000Y-42942500D01*
X119905000Y-43417500D01*
X119903856Y-43440779D01*
X119900437Y-43463834D01*
X119894773Y-43486443D01*
X119886921Y-43508387D01*
X119876956Y-43529457D01*
X119864974Y-43549448D01*
X119851090Y-43568168D01*
X119835438Y-43585438D01*
X119818168Y-43601090D01*
X119799448Y-43614974D01*
X119779457Y-43626956D01*
X119758387Y-43636921D01*
X119736443Y-43644773D01*
X119713834Y-43650437D01*
X119690779Y-43653856D01*
X119667500Y-43655000D01*
X119092500Y-43655000D01*
X119069221Y-43653856D01*
X119046166Y-43650437D01*
X119023557Y-43644773D01*
X119001613Y-43636921D01*
X118980543Y-43626956D01*
X118960552Y-43614974D01*
X118941832Y-43601090D01*
X118924562Y-43585438D01*
X118908910Y-43568168D01*
X118895026Y-43549448D01*
X118883044Y-43529457D01*
X118873079Y-43508387D01*
X118865227Y-43486443D01*
X118859563Y-43463834D01*
X118856144Y-43440779D01*
X118855000Y-43417500D01*
X118855000Y-42942500D01*
X118856144Y-42919221D01*
X118859563Y-42896166D01*
X118865227Y-42873557D01*
X118873079Y-42851613D01*
X118883044Y-42830543D01*
X118895026Y-42810552D01*
X118908910Y-42791832D01*
X118924562Y-42774562D01*
X118941832Y-42758910D01*
X118960552Y-42745026D01*
X118980543Y-42733044D01*
X119001613Y-42723079D01*
X119023557Y-42715227D01*
X119046166Y-42709563D01*
X119069221Y-42706144D01*
X119092500Y-42705000D01*
X119667500Y-42705000D01*
X119690779Y-42706144D01*
X119690779Y-42706144D01*
G37*
D14*
X119380000Y-43180000D03*
D13*
G36*
X117940779Y-42706144D02*
G01*
X117963834Y-42709563D01*
X117986443Y-42715227D01*
X118008387Y-42723079D01*
X118029457Y-42733044D01*
X118049448Y-42745026D01*
X118068168Y-42758910D01*
X118085438Y-42774562D01*
X118101090Y-42791832D01*
X118114974Y-42810552D01*
X118126956Y-42830543D01*
X118136921Y-42851613D01*
X118144773Y-42873557D01*
X118150437Y-42896166D01*
X118153856Y-42919221D01*
X118155000Y-42942500D01*
X118155000Y-43417500D01*
X118153856Y-43440779D01*
X118150437Y-43463834D01*
X118144773Y-43486443D01*
X118136921Y-43508387D01*
X118126956Y-43529457D01*
X118114974Y-43549448D01*
X118101090Y-43568168D01*
X118085438Y-43585438D01*
X118068168Y-43601090D01*
X118049448Y-43614974D01*
X118029457Y-43626956D01*
X118008387Y-43636921D01*
X117986443Y-43644773D01*
X117963834Y-43650437D01*
X117940779Y-43653856D01*
X117917500Y-43655000D01*
X117342500Y-43655000D01*
X117319221Y-43653856D01*
X117296166Y-43650437D01*
X117273557Y-43644773D01*
X117251613Y-43636921D01*
X117230543Y-43626956D01*
X117210552Y-43614974D01*
X117191832Y-43601090D01*
X117174562Y-43585438D01*
X117158910Y-43568168D01*
X117145026Y-43549448D01*
X117133044Y-43529457D01*
X117123079Y-43508387D01*
X117115227Y-43486443D01*
X117109563Y-43463834D01*
X117106144Y-43440779D01*
X117105000Y-43417500D01*
X117105000Y-42942500D01*
X117106144Y-42919221D01*
X117109563Y-42896166D01*
X117115227Y-42873557D01*
X117123079Y-42851613D01*
X117133044Y-42830543D01*
X117145026Y-42810552D01*
X117158910Y-42791832D01*
X117174562Y-42774562D01*
X117191832Y-42758910D01*
X117210552Y-42745026D01*
X117230543Y-42733044D01*
X117251613Y-42723079D01*
X117273557Y-42715227D01*
X117296166Y-42709563D01*
X117319221Y-42706144D01*
X117342500Y-42705000D01*
X117917500Y-42705000D01*
X117940779Y-42706144D01*
X117940779Y-42706144D01*
G37*
D14*
X117630000Y-43180000D03*
D13*
G36*
X113340779Y-27212144D02*
G01*
X113363834Y-27215563D01*
X113386443Y-27221227D01*
X113408387Y-27229079D01*
X113429457Y-27239044D01*
X113449448Y-27251026D01*
X113468168Y-27264910D01*
X113485438Y-27280562D01*
X113501090Y-27297832D01*
X113514974Y-27316552D01*
X113526956Y-27336543D01*
X113536921Y-27357613D01*
X113544773Y-27379557D01*
X113550437Y-27402166D01*
X113553856Y-27425221D01*
X113555000Y-27448500D01*
X113555000Y-27923500D01*
X113553856Y-27946779D01*
X113550437Y-27969834D01*
X113544773Y-27992443D01*
X113536921Y-28014387D01*
X113526956Y-28035457D01*
X113514974Y-28055448D01*
X113501090Y-28074168D01*
X113485438Y-28091438D01*
X113468168Y-28107090D01*
X113449448Y-28120974D01*
X113429457Y-28132956D01*
X113408387Y-28142921D01*
X113386443Y-28150773D01*
X113363834Y-28156437D01*
X113340779Y-28159856D01*
X113317500Y-28161000D01*
X112742500Y-28161000D01*
X112719221Y-28159856D01*
X112696166Y-28156437D01*
X112673557Y-28150773D01*
X112651613Y-28142921D01*
X112630543Y-28132956D01*
X112610552Y-28120974D01*
X112591832Y-28107090D01*
X112574562Y-28091438D01*
X112558910Y-28074168D01*
X112545026Y-28055448D01*
X112533044Y-28035457D01*
X112523079Y-28014387D01*
X112515227Y-27992443D01*
X112509563Y-27969834D01*
X112506144Y-27946779D01*
X112505000Y-27923500D01*
X112505000Y-27448500D01*
X112506144Y-27425221D01*
X112509563Y-27402166D01*
X112515227Y-27379557D01*
X112523079Y-27357613D01*
X112533044Y-27336543D01*
X112545026Y-27316552D01*
X112558910Y-27297832D01*
X112574562Y-27280562D01*
X112591832Y-27264910D01*
X112610552Y-27251026D01*
X112630543Y-27239044D01*
X112651613Y-27229079D01*
X112673557Y-27221227D01*
X112696166Y-27215563D01*
X112719221Y-27212144D01*
X112742500Y-27211000D01*
X113317500Y-27211000D01*
X113340779Y-27212144D01*
X113340779Y-27212144D01*
G37*
D14*
X113030000Y-27686000D03*
D13*
G36*
X111590779Y-27212144D02*
G01*
X111613834Y-27215563D01*
X111636443Y-27221227D01*
X111658387Y-27229079D01*
X111679457Y-27239044D01*
X111699448Y-27251026D01*
X111718168Y-27264910D01*
X111735438Y-27280562D01*
X111751090Y-27297832D01*
X111764974Y-27316552D01*
X111776956Y-27336543D01*
X111786921Y-27357613D01*
X111794773Y-27379557D01*
X111800437Y-27402166D01*
X111803856Y-27425221D01*
X111805000Y-27448500D01*
X111805000Y-27923500D01*
X111803856Y-27946779D01*
X111800437Y-27969834D01*
X111794773Y-27992443D01*
X111786921Y-28014387D01*
X111776956Y-28035457D01*
X111764974Y-28055448D01*
X111751090Y-28074168D01*
X111735438Y-28091438D01*
X111718168Y-28107090D01*
X111699448Y-28120974D01*
X111679457Y-28132956D01*
X111658387Y-28142921D01*
X111636443Y-28150773D01*
X111613834Y-28156437D01*
X111590779Y-28159856D01*
X111567500Y-28161000D01*
X110992500Y-28161000D01*
X110969221Y-28159856D01*
X110946166Y-28156437D01*
X110923557Y-28150773D01*
X110901613Y-28142921D01*
X110880543Y-28132956D01*
X110860552Y-28120974D01*
X110841832Y-28107090D01*
X110824562Y-28091438D01*
X110808910Y-28074168D01*
X110795026Y-28055448D01*
X110783044Y-28035457D01*
X110773079Y-28014387D01*
X110765227Y-27992443D01*
X110759563Y-27969834D01*
X110756144Y-27946779D01*
X110755000Y-27923500D01*
X110755000Y-27448500D01*
X110756144Y-27425221D01*
X110759563Y-27402166D01*
X110765227Y-27379557D01*
X110773079Y-27357613D01*
X110783044Y-27336543D01*
X110795026Y-27316552D01*
X110808910Y-27297832D01*
X110824562Y-27280562D01*
X110841832Y-27264910D01*
X110860552Y-27251026D01*
X110880543Y-27239044D01*
X110901613Y-27229079D01*
X110923557Y-27221227D01*
X110946166Y-27215563D01*
X110969221Y-27212144D01*
X110992500Y-27211000D01*
X111567500Y-27211000D01*
X111590779Y-27212144D01*
X111590779Y-27212144D01*
G37*
D14*
X111280000Y-27686000D03*
D20*
X101092000Y-50546000D03*
X101092000Y-53086000D03*
X101092000Y-55626000D03*
D21*
X119286000Y-39116000D03*
D22*
X119286000Y-36576000D03*
X119286000Y-34036000D03*
X119286000Y-31496000D03*
X111346000Y-31496000D03*
X111346000Y-34036000D03*
X111346000Y-36576000D03*
X111346000Y-39116000D03*
D19*
X127762000Y-69342000D03*
X127762000Y-71882000D03*
X127762000Y-74422000D03*
X127762000Y-60198000D03*
X127762000Y-62738000D03*
X127762000Y-65278000D03*
X127762000Y-37592000D03*
X127762000Y-40132000D03*
X127762000Y-42672000D03*
X127762000Y-32004000D03*
X127762000Y-34544000D03*
X127762000Y-56134000D03*
X127762000Y-53594000D03*
X127762000Y-46990000D03*
X127762000Y-49530000D03*
D23*
X93980000Y-49784000D03*
X119380000Y-26670000D03*
X123190000Y-55626000D03*
X87376000Y-55626000D03*
X77470000Y-54864000D03*
X73152000Y-56388000D03*
X68834000Y-71628000D03*
X65024000Y-50800000D03*
X88900000Y-83820000D03*
X56388000Y-83820000D03*
X77978000Y-43688000D03*
X74422000Y-41148000D03*
X71120000Y-59944000D03*
X66802000Y-53086000D03*
X97536000Y-74168000D03*
X97282000Y-58166000D03*
X91440000Y-58166000D03*
X91186000Y-49022000D03*
X68326000Y-62738000D03*
X68326000Y-69342000D03*
X89154000Y-74168000D03*
X54864000Y-67818000D03*
X80518000Y-70358000D03*
X77978000Y-46228000D03*
X78486000Y-72898000D03*
X76200000Y-75692000D03*
X76708000Y-45212000D03*
X120142000Y-51816000D03*
X120904000Y-37338000D03*
X121920000Y-54356000D03*
X108204000Y-53086000D03*
X107442000Y-61214000D03*
X89662000Y-46990000D03*
X89154000Y-64008000D03*
X58166000Y-94488000D03*
X91948000Y-81280000D03*
X64008000Y-80010000D03*
D24*
X101092000Y-39878000D02*
X101092000Y-50546000D01*
X98326000Y-39878000D02*
X101092000Y-39878000D01*
X96520000Y-41684000D02*
X98326000Y-39878000D01*
X96520000Y-48796000D02*
X96520000Y-41684000D01*
D25*
X96520000Y-50546000D02*
X96520000Y-53481000D01*
X100697000Y-53481000D02*
X101092000Y-53086000D01*
X96520000Y-53481000D02*
X100697000Y-53481000D01*
X95758000Y-49784000D02*
X96520000Y-50546000D01*
X93980000Y-49784000D02*
X95758000Y-49784000D01*
X118364000Y-27686000D02*
X119380000Y-26670000D01*
X117574000Y-27686000D02*
X118364000Y-27686000D01*
D26*
X123190000Y-55626000D02*
X123190000Y-47244000D01*
X123190000Y-47244000D02*
X127762000Y-42672000D01*
X123190000Y-64770000D02*
X127762000Y-69342000D01*
X123190000Y-55626000D02*
X123190000Y-64770000D01*
X96915000Y-55626000D02*
X96520000Y-55231000D01*
X101092000Y-55626000D02*
X96915000Y-55626000D01*
X87376000Y-55626000D02*
X87376000Y-31242000D01*
X84530000Y-28396000D02*
X82804000Y-28396000D01*
X87376000Y-31242000D02*
X84530000Y-28396000D01*
X86588001Y-93138001D02*
X87938000Y-94488000D01*
X86070499Y-92620499D02*
X86588001Y-93138001D01*
X86070499Y-87665501D02*
X86070499Y-92620499D01*
X87376000Y-86360000D02*
X86070499Y-87665501D01*
X87376000Y-55626000D02*
X87376000Y-86360000D01*
D25*
X117602000Y-43152000D02*
X117630000Y-43180000D01*
X111252000Y-43152000D02*
X117602000Y-43152000D01*
X111252000Y-39210000D02*
X111346000Y-39116000D01*
X111252000Y-41402000D02*
X111252000Y-39210000D01*
X113030000Y-27686000D02*
X115824000Y-27686000D01*
X127000001Y-31242001D02*
X127762000Y-32004000D01*
X121666000Y-31242000D02*
X127000001Y-31242001D01*
X111346000Y-27752000D02*
X111280000Y-27686000D01*
X120330000Y-28400000D02*
X121666000Y-28400000D01*
X119680000Y-29050000D02*
X120330000Y-28400000D01*
X111346000Y-29050000D02*
X119680000Y-29050000D01*
X111346000Y-29050000D02*
X111346000Y-27752000D01*
X111346000Y-31496000D02*
X111346000Y-29050000D01*
X79538000Y-92578812D02*
X77470000Y-90510812D01*
X79538000Y-94488000D02*
X79538000Y-92578812D01*
X77470000Y-90510812D02*
X77470000Y-54864000D01*
X75338000Y-94488000D02*
X73152000Y-92302000D01*
X73152000Y-92302000D02*
X73152000Y-56388000D01*
X71138000Y-94488000D02*
X68834000Y-92184000D01*
X68834000Y-92184000D02*
X68834000Y-71628000D01*
X65024000Y-89629942D02*
X65024000Y-50800000D01*
X66802000Y-94488000D02*
X65024000Y-92710000D01*
X65024000Y-92710000D02*
X65024000Y-89629942D01*
X89287999Y-84207999D02*
X88900000Y-83820000D01*
X87938000Y-88968000D02*
X89287999Y-87618001D01*
X89287999Y-87618001D02*
X89287999Y-84207999D01*
X56388000Y-43128000D02*
X60960000Y-38556000D01*
X56388000Y-83820000D02*
X56388000Y-43128000D01*
X84530000Y-56336000D02*
X82804000Y-56336000D01*
X85598000Y-57404000D02*
X84530000Y-56336000D01*
X85598000Y-85198812D02*
X85598000Y-57404000D01*
X83738000Y-88968000D02*
X83738000Y-87058812D01*
X83738000Y-87058812D02*
X85598000Y-85198812D01*
X79538000Y-88968000D02*
X79538000Y-45248000D01*
X79538000Y-45248000D02*
X77978000Y-43688000D01*
X75338000Y-87058812D02*
X74422000Y-86142812D01*
X75338000Y-88968000D02*
X75338000Y-87058812D01*
X74422000Y-86142812D02*
X74422000Y-41148000D01*
X71138000Y-87058812D02*
X71120000Y-87040812D01*
X71138000Y-88968000D02*
X71138000Y-87058812D01*
X71120000Y-87040812D02*
X71120000Y-59944000D01*
X66938000Y-88968000D02*
X66938000Y-53222000D01*
X66938000Y-53222000D02*
X66802000Y-53086000D01*
X61739999Y-46955999D02*
X60960000Y-46176000D01*
X97536000Y-74168000D02*
X97536000Y-58420000D01*
X97536000Y-58420000D02*
X97282000Y-58166000D01*
X91440000Y-58166000D02*
X91440000Y-49276000D01*
X91440000Y-49276000D02*
X91186000Y-49022000D01*
X68326000Y-62738000D02*
X68326000Y-69342000D01*
X90616370Y-65024000D02*
X91694000Y-65024000D01*
X90170000Y-65470370D02*
X90616370Y-65024000D01*
X90170000Y-65532000D02*
X90170000Y-65470370D01*
X89154000Y-66548000D02*
X90170000Y-65532000D01*
X89154000Y-74168000D02*
X89154000Y-66548000D01*
X54864000Y-42112000D02*
X60960000Y-36016000D01*
X54864000Y-67818000D02*
X54864000Y-42112000D01*
X82602000Y-38556000D02*
X82804000Y-38556000D01*
X80518000Y-70358000D02*
X80518000Y-40640000D01*
X80518000Y-40640000D02*
X82602000Y-38556000D01*
X77978000Y-46228000D02*
X78486000Y-46736000D01*
X78486000Y-46736000D02*
X78486000Y-72898000D01*
X76200000Y-75692000D02*
X76200000Y-45720000D01*
X76200000Y-45720000D02*
X76708000Y-45212000D01*
X120142000Y-51816000D02*
X120904000Y-51054000D01*
X120904000Y-51054000D02*
X120904000Y-37338000D01*
X119380000Y-39210000D02*
X119286000Y-39116000D01*
X119380000Y-43180000D02*
X119380000Y-39210000D01*
X120142000Y-34036000D02*
X119286000Y-34036000D01*
X121920000Y-54356000D02*
X121920000Y-35814000D01*
X121920000Y-35814000D02*
X120142000Y-34036000D01*
X108204000Y-53086000D02*
X108204000Y-60452000D01*
X108204000Y-60452000D02*
X107442000Y-61214000D01*
X89662000Y-46990000D02*
X89662000Y-63500000D01*
X89662000Y-63500000D02*
X89154000Y-64008000D01*
X58166000Y-64210000D02*
X60960000Y-61416000D01*
X58166000Y-94488000D02*
X58166000Y-64210000D01*
X92138000Y-88968000D02*
X92138000Y-81470000D01*
X92138000Y-81470000D02*
X91948000Y-81280000D01*
X64008000Y-49224000D02*
X60960000Y-46176000D01*
X64008000Y-80010000D02*
X64008000Y-49224000D01*
M02*
