M48
; DRILL file {KiCad (5.1.4)-1} date 11/4/2021 8:36:02 PM
; FORMAT={-:-/ absolute / inch / decimal}
; #@! TF.CreationDate,2021-11-04T20:36:02-05:00
; #@! TF.GenerationSoftware,Kicad,Pcbnew,(5.1.4)-1
; #@! TF.FileFunction,Plated,1,2,PTH
FMAT,2
INCH
T1C0.0157
T2C0.0291
T3C0.0300
T4C0.0394
T5C0.0400
T6C0.0409
T7C0.0709
%
G90
G05
T1
X2.16Y-2.67
X2.22Y-3.3
X2.29Y-3.72
X2.52Y-3.15
X2.56Y-2.0
X2.63Y-2.09
X2.69Y-2.47
X2.69Y-2.73
X2.71Y-2.82
X2.8Y-2.36
X2.88Y-2.22
X2.93Y-1.62
X3.0Y-2.98
X3.02Y-1.78
X3.05Y-2.16
X3.07Y-1.72
X3.07Y-1.82
X3.09Y-2.87
X3.17Y-2.77
X3.44Y-2.19
X3.5Y-3.3
X3.51Y-2.52
X3.51Y-2.92
X3.53Y-1.85
X3.59Y-1.93
X3.6Y-2.29
X3.62Y-3.2
X3.7Y-1.96
X3.83Y-2.29
X3.84Y-2.92
X4.23Y-2.41
X4.26Y-2.09
X4.7Y-1.05
X4.73Y-2.04
X4.76Y-1.47
X4.8Y-2.14
X4.85Y-2.19
T2
X4.3837Y-1.24
X4.3837Y-1.34
X4.3837Y-1.44
X4.3837Y-1.54
X4.6963Y-1.24
X4.6963Y-1.34
X4.6963Y-1.44
X4.6963Y-1.54
T3
X5.03Y-2.37
X5.03Y-2.47
X5.03Y-2.57
X5.03Y-2.73
X5.03Y-2.83
X5.03Y-2.93
X5.03Y-2.11
X5.03Y-2.21
X5.03Y-1.85
X5.03Y-1.95
X5.03Y-1.26
X5.03Y-1.36
X5.03Y-1.48
X5.03Y-1.58
X5.03Y-1.68
X3.61Y-2.56
X3.61Y-2.66
X3.61Y-2.76
X3.61Y-2.86
X3.61Y-2.96
X3.61Y-3.06
T5
X3.98Y-1.99
X3.98Y-2.09
X3.98Y-2.19
T6
X2.4Y-1.118
X2.4Y-1.218
X2.4Y-1.318
X2.4Y-1.418
X2.4Y-1.518
X2.4Y-1.618
X2.4Y-1.718
X2.4Y-1.818
X2.4Y-1.918
X2.4Y-2.018
X2.4Y-2.118
X2.4Y-2.218
X2.4Y-2.318
X2.4Y-2.418
X2.4Y-2.518
X2.4Y-2.618
X2.4Y-2.718
X2.4Y-2.818
X2.4Y-2.918
X3.26Y-1.118
X3.26Y-1.218
X3.26Y-1.318
X3.26Y-1.418
X3.26Y-1.518
X3.26Y-1.618
X3.26Y-1.718
X3.26Y-1.818
X3.26Y-1.918
X3.26Y-2.018
X3.26Y-2.118
X3.26Y-2.218
X3.26Y-2.318
X3.26Y-2.418
X3.26Y-2.518
X3.26Y-2.618
X3.26Y-2.718
X3.26Y-2.818
X3.26Y-2.918
T7
X2.47Y-3.5027
X2.47Y-3.72
X2.63Y-3.72
X2.6354Y-3.5027
X2.8007Y-3.5027
X2.8007Y-3.72
X2.9661Y-3.5027
X2.9661Y-3.72
X3.1314Y-3.5027
X3.1314Y-3.72
X3.2968Y-3.5027
X3.2968Y-3.72
X3.4621Y-3.5027
X3.4621Y-3.72
X3.6275Y-3.5027
X3.6275Y-3.72
T4
G00X3.795Y-1.4125
M15
G01X3.795Y-1.4913
M16
G05
G00X4.0194Y-1.3338
M15
G01X3.9406Y-1.3338
M16
G05
G00X4.0194Y-1.57
M15
G01X3.9406Y-1.57
M16
G05
T0
M30
