M48
; DRILL file {KiCad (5.1.4)-1} date 9/17/2021 1:17:07 PM
; FORMAT={-:-/ absolute / inch / decimal}
; #@! TF.CreationDate,2021-09-17T13:17:07-05:00
; #@! TF.GenerationSoftware,Kicad,Pcbnew,(5.1.4)-1
; #@! TF.FileFunction,Plated,1,2,PTH
FMAT,2
INCH
T1C0.0157
T2C0.0290
T3C0.0291
T4C0.0300
T5C0.0339
T6C0.0394
T7C0.0400
T8C0.0409
T9C0.0709
%
G90
G05
T1
X1.97Y-2.15
X2.11Y-2.7
X2.42Y-2.39
X2.49Y-1.73
X2.5Y-1.92
X2.5Y-2.85
X2.5Y-3.25
X2.55Y-2.69
X2.77Y-2.41
X2.82Y-2.9
X2.88Y-1.93
X2.89Y-2.94
X2.9Y-1.2
X2.98Y-2.72
X2.9861Y-3.6327
X2.99Y-2.79
X3.03Y-2.63
X3.15Y-2.51
X3.31Y-2.59
X3.48Y-2.23
X3.5Y-1.91
X3.5Y-2.08
X3.54Y-2.14
X3.77Y-1.73
X3.77Y-2.89
X3.83Y-3.44
X3.83Y-3.9
X3.84Y-2.22
X3.88Y-1.33
X3.89Y-2.03
X3.89Y-2.51
X3.8943Y-1.632
X3.9Y-3.03
X3.9Y-3.95
X3.99Y-2.43
X4.07Y-1.87
X4.14Y-2.34
X4.19Y-1.79
X4.23Y-2.29
X4.46Y-2.06
X4.9Y-1.07
X5.05Y-2.51
X5.1Y-2.1
X5.2Y-2.89
X5.28Y-1.76
X5.29Y-3.27
X5.34Y-1.67
X5.35Y-2.96
T2
X1.98Y-2.7319
X1.98Y-2.7909
X1.98Y-2.85
X5.2Y-1.9719
X5.2Y-2.0309
X5.2Y-2.09
X5.2Y-2.2619
X5.2Y-2.3209
X5.2Y-2.38
X5.2Y-1.6719
X5.2Y-1.7309
X5.2Y-1.79
T3
X4.5837Y-1.24
X4.5837Y-1.34
X4.5837Y-1.44
X4.5837Y-1.54
X4.8963Y-1.24
X4.8963Y-1.34
X4.8963Y-1.44
X4.8963Y-1.54
T4
X4.07Y-2.96
X4.07Y-3.06
X4.07Y-3.16
X4.07Y-3.26
X4.07Y-3.36
X4.07Y-3.46
T5
X5.2517Y-1.41
X5.2517Y-1.4887
T7
X4.18Y-1.99
X4.18Y-2.09
X4.18Y-2.19
T8
X2.66Y-1.532
X2.66Y-1.632
X2.66Y-1.732
X2.66Y-1.832
X2.66Y-1.932
X2.66Y-2.032
X2.66Y-2.132
X2.66Y-2.232
X2.66Y-2.332
X2.66Y-2.432
X2.66Y-2.532
X2.66Y-2.632
X2.66Y-2.732
X2.66Y-2.832
X2.66Y-2.932
X2.66Y-3.032
X2.66Y-3.132
X2.66Y-3.232
X2.66Y-3.332
X3.66Y-1.532
X3.66Y-1.632
X3.66Y-1.732
X3.66Y-1.832
X3.66Y-1.932
X3.66Y-2.032
X3.66Y-2.132
X3.66Y-2.232
X3.66Y-2.332
X3.66Y-2.432
X3.66Y-2.532
X3.66Y-2.632
X3.66Y-2.732
X3.66Y-2.832
X3.66Y-2.932
X3.66Y-3.032
X3.66Y-3.132
X3.66Y-3.232
X3.66Y-3.332
T9
X2.1295Y-1.4
X2.1295Y-1.5654
X2.1295Y-1.7307
X2.1295Y-1.8961
X2.1295Y-2.0614
X2.1295Y-2.2268
X2.1295Y-2.3921
X2.1295Y-2.5575
X2.2673Y-1.4
X2.2673Y-1.5654
X2.2673Y-1.7307
X2.2673Y-1.8961
X2.2673Y-2.0614
X2.2673Y-2.2268
X2.2673Y-2.3921
X2.2673Y-2.5575
X2.49Y-3.6327
X2.49Y-3.7705
X2.6554Y-3.6327
X2.6554Y-3.7705
X2.8207Y-3.6327
X2.8207Y-3.7705
X2.9861Y-3.6327
X2.9861Y-3.7705
X3.1514Y-3.6327
X3.1514Y-3.7705
X3.3168Y-3.6327
X3.3168Y-3.7705
X3.4821Y-3.6327
X3.4821Y-3.7705
X3.6475Y-3.6327
X3.6475Y-3.7705
T6
G00X3.995Y-1.4125
M15
G01X3.995Y-1.4913
M16
G05
G00X4.2194Y-1.3338
M15
G01X4.1406Y-1.3338
M16
G05
G00X4.2194Y-1.57
M15
G01X4.1406Y-1.57
M16
G05
T0
M30
