G04 #@! TF.GenerationSoftware,KiCad,Pcbnew,(5.1.4)-1*
G04 #@! TF.CreationDate,2021-11-04T16:38:15-05:00*
G04 #@! TF.ProjectId,CareMate,43617265-4d61-4746-952e-6b696361645f,rev?*
G04 #@! TF.SameCoordinates,Original*
G04 #@! TF.FileFunction,Copper,L2,Bot*
G04 #@! TF.FilePolarity,Positive*
%FSLAX46Y46*%
G04 Gerber Fmt 4.6, Leading zero omitted, Abs format (unit mm)*
G04 Created by KiCad (PCBNEW (5.1.4)-1) date 2021-11-04 16:38:15*
%MOMM*%
%LPD*%
G04 APERTURE LIST*
%ADD10C,1.560000*%
%ADD11R,1.560000X1.560000*%
%ADD12C,2.700000*%
%ADD13R,3.500000X3.500000*%
%ADD14C,0.100000*%
%ADD15C,3.000000*%
%ADD16C,3.500001*%
%ADD17C,1.524000*%
%ADD18O,3.048000X1.524000*%
%ADD19R,1.130000X1.130000*%
%ADD20C,1.130000*%
%ADD21C,0.800000*%
%ADD22C,1.016000*%
%ADD23C,0.635000*%
%ADD24C,0.381000*%
%ADD25C,0.254000*%
G04 APERTURE END LIST*
D10*
X60960000Y-28396000D03*
X60960000Y-30936000D03*
X60960000Y-33476000D03*
X60960000Y-36016000D03*
X60960000Y-38556000D03*
X60960000Y-41096000D03*
X60960000Y-43636000D03*
X60960000Y-46176000D03*
X60960000Y-48716000D03*
X60960000Y-51256000D03*
X60960000Y-53796000D03*
X60960000Y-56336000D03*
X60960000Y-58876000D03*
X60960000Y-61416000D03*
X60960000Y-63956000D03*
X60960000Y-66496000D03*
X60960000Y-69036000D03*
X60960000Y-71576000D03*
X60960000Y-74116000D03*
X82804000Y-30936000D03*
X82804000Y-33476000D03*
X82804000Y-36016000D03*
X82804000Y-38556000D03*
X82804000Y-41096000D03*
X82804000Y-43636000D03*
X82804000Y-46176000D03*
X82804000Y-48716000D03*
X82804000Y-51256000D03*
X82804000Y-53796000D03*
X82804000Y-56336000D03*
X82804000Y-58876000D03*
X82804000Y-61416000D03*
X82804000Y-63956000D03*
X82804000Y-66496000D03*
X82804000Y-69036000D03*
X82804000Y-28396000D03*
X82804000Y-71576000D03*
D11*
X82804000Y-74116000D03*
D12*
X62738000Y-88968000D03*
X66938000Y-88968000D03*
X71138000Y-88968000D03*
X75338000Y-88968000D03*
X79538000Y-88968000D03*
X83738000Y-88968000D03*
X87938000Y-88968000D03*
X92138000Y-88968000D03*
X62738000Y-94488000D03*
X66802000Y-94488000D03*
X71138000Y-94488000D03*
X75338000Y-94488000D03*
X79538000Y-94488000D03*
X83738000Y-94488000D03*
X87938000Y-94488000D03*
X92138000Y-94488000D03*
D13*
X101092000Y-39878000D03*
D14*
G36*
X102165513Y-32381611D02*
G01*
X102238318Y-32392411D01*
X102309714Y-32410295D01*
X102379013Y-32435090D01*
X102445548Y-32466559D01*
X102508678Y-32504398D01*
X102567795Y-32548242D01*
X102622330Y-32597670D01*
X102671758Y-32652205D01*
X102715602Y-32711322D01*
X102753441Y-32774452D01*
X102784910Y-32840987D01*
X102809705Y-32910286D01*
X102827589Y-32981682D01*
X102838389Y-33054487D01*
X102842000Y-33128000D01*
X102842000Y-34628000D01*
X102838389Y-34701513D01*
X102827589Y-34774318D01*
X102809705Y-34845714D01*
X102784910Y-34915013D01*
X102753441Y-34981548D01*
X102715602Y-35044678D01*
X102671758Y-35103795D01*
X102622330Y-35158330D01*
X102567795Y-35207758D01*
X102508678Y-35251602D01*
X102445548Y-35289441D01*
X102379013Y-35320910D01*
X102309714Y-35345705D01*
X102238318Y-35363589D01*
X102165513Y-35374389D01*
X102092000Y-35378000D01*
X100092000Y-35378000D01*
X100018487Y-35374389D01*
X99945682Y-35363589D01*
X99874286Y-35345705D01*
X99804987Y-35320910D01*
X99738452Y-35289441D01*
X99675322Y-35251602D01*
X99616205Y-35207758D01*
X99561670Y-35158330D01*
X99512242Y-35103795D01*
X99468398Y-35044678D01*
X99430559Y-34981548D01*
X99399090Y-34915013D01*
X99374295Y-34845714D01*
X99356411Y-34774318D01*
X99345611Y-34701513D01*
X99342000Y-34628000D01*
X99342000Y-33128000D01*
X99345611Y-33054487D01*
X99356411Y-32981682D01*
X99374295Y-32910286D01*
X99399090Y-32840987D01*
X99430559Y-32774452D01*
X99468398Y-32711322D01*
X99512242Y-32652205D01*
X99561670Y-32597670D01*
X99616205Y-32548242D01*
X99675322Y-32504398D01*
X99738452Y-32466559D01*
X99804987Y-32435090D01*
X99874286Y-32410295D01*
X99945682Y-32392411D01*
X100018487Y-32381611D01*
X100092000Y-32378000D01*
X102092000Y-32378000D01*
X102165513Y-32381611D01*
X102165513Y-32381611D01*
G37*
D15*
X101092000Y-33878000D03*
D14*
G36*
X97352765Y-35132213D02*
G01*
X97437704Y-35144813D01*
X97520999Y-35165677D01*
X97601848Y-35194605D01*
X97679472Y-35231319D01*
X97753124Y-35275464D01*
X97822094Y-35326616D01*
X97885718Y-35384282D01*
X97943384Y-35447906D01*
X97994536Y-35516876D01*
X98038681Y-35590528D01*
X98075395Y-35668152D01*
X98104323Y-35749001D01*
X98125187Y-35832296D01*
X98137787Y-35917235D01*
X98142000Y-36003000D01*
X98142000Y-37753000D01*
X98137787Y-37838765D01*
X98125187Y-37923704D01*
X98104323Y-38006999D01*
X98075395Y-38087848D01*
X98038681Y-38165472D01*
X97994536Y-38239124D01*
X97943384Y-38308094D01*
X97885718Y-38371718D01*
X97822094Y-38429384D01*
X97753124Y-38480536D01*
X97679472Y-38524681D01*
X97601848Y-38561395D01*
X97520999Y-38590323D01*
X97437704Y-38611187D01*
X97352765Y-38623787D01*
X97267000Y-38628000D01*
X95517000Y-38628000D01*
X95431235Y-38623787D01*
X95346296Y-38611187D01*
X95263001Y-38590323D01*
X95182152Y-38561395D01*
X95104528Y-38524681D01*
X95030876Y-38480536D01*
X94961906Y-38429384D01*
X94898282Y-38371718D01*
X94840616Y-38308094D01*
X94789464Y-38239124D01*
X94745319Y-38165472D01*
X94708605Y-38087848D01*
X94679677Y-38006999D01*
X94658813Y-37923704D01*
X94646213Y-37838765D01*
X94642000Y-37753000D01*
X94642000Y-36003000D01*
X94646213Y-35917235D01*
X94658813Y-35832296D01*
X94679677Y-35749001D01*
X94708605Y-35668152D01*
X94745319Y-35590528D01*
X94789464Y-35516876D01*
X94840616Y-35447906D01*
X94898282Y-35384282D01*
X94961906Y-35326616D01*
X95030876Y-35275464D01*
X95104528Y-35231319D01*
X95182152Y-35194605D01*
X95263001Y-35165677D01*
X95346296Y-35144813D01*
X95431235Y-35132213D01*
X95517000Y-35128000D01*
X97267000Y-35128000D01*
X97352765Y-35132213D01*
X97352765Y-35132213D01*
G37*
D16*
X96392000Y-36878000D03*
D17*
X91694000Y-65024000D03*
X91694000Y-67564000D03*
X91694000Y-70104000D03*
X91694000Y-72644000D03*
X91694000Y-75184000D03*
X91694000Y-77724000D03*
D18*
X101092000Y-50546000D03*
X101092000Y-53086000D03*
X101092000Y-55626000D03*
D19*
X119286000Y-39116000D03*
D20*
X119286000Y-36576000D03*
X119286000Y-34036000D03*
X119286000Y-31496000D03*
X111346000Y-31496000D03*
X111346000Y-34036000D03*
X111346000Y-36576000D03*
X111346000Y-39116000D03*
D17*
X127762000Y-69342000D03*
X127762000Y-71882000D03*
X127762000Y-74422000D03*
X127762000Y-60198000D03*
X127762000Y-62738000D03*
X127762000Y-65278000D03*
X127762000Y-37592000D03*
X127762000Y-40132000D03*
X127762000Y-42672000D03*
X127762000Y-32004000D03*
X127762000Y-34544000D03*
X127762000Y-56134000D03*
X127762000Y-53594000D03*
X127762000Y-46990000D03*
X127762000Y-49530000D03*
D21*
X93980000Y-49784000D03*
X119380000Y-26670000D03*
X123190000Y-55626000D03*
X87376000Y-55626000D03*
X77470000Y-54864000D03*
X73152000Y-56388000D03*
X68834000Y-71628000D03*
X65024000Y-50800000D03*
X88900000Y-83820000D03*
X56388000Y-83820000D03*
X77978000Y-43688000D03*
X74422000Y-41148000D03*
X71120000Y-59944000D03*
X66802000Y-53086000D03*
X97536000Y-74168000D03*
X97282000Y-58166000D03*
X91440000Y-58166000D03*
X91186000Y-49022000D03*
X68326000Y-62738000D03*
X68326000Y-69342000D03*
X89154000Y-74168000D03*
X54864000Y-67818000D03*
X80518000Y-70358000D03*
X77978000Y-46228000D03*
X78486000Y-72898000D03*
X76200000Y-75692000D03*
X76708000Y-45212000D03*
X120142000Y-51816000D03*
X120904000Y-37338000D03*
X121920000Y-54356000D03*
X108204000Y-53086000D03*
X107442000Y-61214000D03*
X89662000Y-46990000D03*
X89154000Y-64008000D03*
X58166000Y-94488000D03*
X91948000Y-81280000D03*
X64008000Y-80010000D03*
D22*
X105504000Y-39878000D02*
X111346000Y-34036000D01*
X101092000Y-39878000D02*
X105504000Y-39878000D01*
D23*
X101092000Y-55626000D02*
X123190000Y-55626000D01*
X101092000Y-55626000D02*
X98933000Y-55626000D01*
X98933000Y-55626000D02*
X87376000Y-55626000D01*
D24*
X62028000Y-54864000D02*
X60960000Y-53796000D01*
X77470000Y-54864000D02*
X62028000Y-54864000D01*
X61012000Y-56388000D02*
X60960000Y-56336000D01*
X73152000Y-56388000D02*
X61012000Y-56388000D01*
X61012000Y-71628000D02*
X60960000Y-71576000D01*
X68834000Y-71628000D02*
X61012000Y-71628000D01*
X63044000Y-50800000D02*
X60960000Y-48716000D01*
X65024000Y-50800000D02*
X63044000Y-50800000D01*
X88900000Y-83820000D02*
X56388000Y-83820000D01*
X61012000Y-43688000D02*
X60960000Y-43636000D01*
X77978000Y-43688000D02*
X61012000Y-43688000D01*
X61012000Y-41148000D02*
X60960000Y-41096000D01*
X74422000Y-41148000D02*
X61012000Y-41148000D01*
X81736000Y-59944000D02*
X82804000Y-58876000D01*
X71120000Y-59944000D02*
X81736000Y-59944000D01*
X61739999Y-52035999D02*
X60960000Y-51256000D01*
X62390001Y-52686001D02*
X61739999Y-52035999D01*
X66402001Y-52686001D02*
X62390001Y-52686001D01*
X66802000Y-53086000D02*
X66402001Y-52686001D01*
X127762000Y-74422000D02*
X97790000Y-74422000D01*
X97790000Y-74422000D02*
X97536000Y-74168000D01*
X97282000Y-58166000D02*
X91440000Y-58166000D01*
X83110000Y-49022000D02*
X82804000Y-48716000D01*
X91186000Y-49022000D02*
X83110000Y-49022000D01*
X79763672Y-62738000D02*
X68326000Y-62738000D01*
X127762000Y-60198000D02*
X125222000Y-62738000D01*
X125222000Y-62738000D02*
X79763672Y-62738000D01*
X61266000Y-69342000D02*
X60960000Y-69036000D01*
X68326000Y-69342000D02*
X61266000Y-69342000D01*
X82804000Y-74116000D02*
X89102000Y-74116000D01*
X89102000Y-74116000D02*
X89154000Y-74168000D01*
X127508000Y-65024000D02*
X127762000Y-65278000D01*
X91694000Y-65024000D02*
X127508000Y-65024000D01*
X83214342Y-67818000D02*
X54864000Y-67818000D01*
X91694000Y-67564000D02*
X83468342Y-67564000D01*
X83468342Y-67564000D02*
X83214342Y-67818000D01*
X83214342Y-70358000D02*
X80518000Y-70358000D01*
X91694000Y-70104000D02*
X83468342Y-70104000D01*
X83468342Y-70104000D02*
X83214342Y-70358000D01*
X82804000Y-46176000D02*
X78030000Y-46176000D01*
X78030000Y-46176000D02*
X77978000Y-46228000D01*
X91440000Y-72898000D02*
X91694000Y-72644000D01*
X78486000Y-72898000D02*
X91440000Y-72898000D01*
X83466501Y-75692000D02*
X76200000Y-75692000D01*
X91694000Y-75184000D02*
X83974501Y-75184000D01*
X83974501Y-75184000D02*
X83466501Y-75692000D01*
X82024001Y-44415999D02*
X82804000Y-43636000D01*
X81627999Y-44812001D02*
X82024001Y-44415999D01*
X77107999Y-44812001D02*
X81627999Y-44812001D01*
X76708000Y-45212000D02*
X77107999Y-44812001D01*
X84467086Y-51816000D02*
X120142000Y-51816000D01*
X82804000Y-51256000D02*
X83907086Y-51256000D01*
X83907086Y-51256000D02*
X84467086Y-51816000D01*
X127508000Y-37338000D02*
X127762000Y-37592000D01*
X120904000Y-37338000D02*
X127508000Y-37338000D01*
X84467086Y-54356000D02*
X121920000Y-54356000D01*
X82804000Y-53796000D02*
X83907086Y-53796000D01*
X83907086Y-53796000D02*
X84467086Y-54356000D01*
X121819942Y-53086000D02*
X108204000Y-53086000D01*
X127762000Y-53594000D02*
X122327942Y-53594000D01*
X122327942Y-53594000D02*
X121819942Y-53086000D01*
X83006000Y-61214000D02*
X82804000Y-61416000D01*
X107442000Y-61214000D02*
X83006000Y-61214000D01*
X127762000Y-46990000D02*
X89662000Y-46990000D01*
X82856000Y-64008000D02*
X82804000Y-63956000D01*
X89154000Y-64008000D02*
X82856000Y-64008000D01*
X62738000Y-94488000D02*
X60828812Y-94488000D01*
X60828812Y-94488000D02*
X58166000Y-94488000D01*
X91948000Y-81280000D02*
X90678000Y-80010000D01*
X90678000Y-80010000D02*
X64008000Y-80010000D01*
D25*
G36*
X134984545Y-26098909D02*
G01*
X135335208Y-26204780D01*
X135658625Y-26376744D01*
X135942484Y-26608254D01*
X136175965Y-26890486D01*
X136350183Y-27212695D01*
X136458502Y-27562614D01*
X136500001Y-27957452D01*
X136500000Y-99027721D01*
X136461091Y-99424545D01*
X136355220Y-99775206D01*
X136183257Y-100098623D01*
X135951748Y-100382482D01*
X135669514Y-100615965D01*
X135347304Y-100790184D01*
X134997385Y-100898502D01*
X134602557Y-100940000D01*
X50832279Y-100940000D01*
X50435455Y-100901091D01*
X50084794Y-100795220D01*
X49761377Y-100623257D01*
X49477518Y-100391748D01*
X49244035Y-100109514D01*
X49069816Y-99787304D01*
X48961498Y-99437385D01*
X48920000Y-99042557D01*
X48920000Y-97619117D01*
X50335000Y-97619117D01*
X50335000Y-97960883D01*
X50401675Y-98296081D01*
X50532463Y-98611831D01*
X50722337Y-98895998D01*
X50964002Y-99137663D01*
X51248169Y-99327537D01*
X51563919Y-99458325D01*
X51899117Y-99525000D01*
X52240883Y-99525000D01*
X52576081Y-99458325D01*
X52891831Y-99327537D01*
X53175998Y-99137663D01*
X53417663Y-98895998D01*
X53607537Y-98611831D01*
X53738325Y-98296081D01*
X53805000Y-97960883D01*
X53805000Y-97619117D01*
X53738325Y-97283919D01*
X53666749Y-97111117D01*
X131107000Y-97111117D01*
X131107000Y-97452883D01*
X131173675Y-97788081D01*
X131304463Y-98103831D01*
X131494337Y-98387998D01*
X131736002Y-98629663D01*
X132020169Y-98819537D01*
X132335919Y-98950325D01*
X132671117Y-99017000D01*
X133012883Y-99017000D01*
X133348081Y-98950325D01*
X133663831Y-98819537D01*
X133947998Y-98629663D01*
X134189663Y-98387998D01*
X134379537Y-98103831D01*
X134510325Y-97788081D01*
X134577000Y-97452883D01*
X134577000Y-97111117D01*
X134510325Y-96775919D01*
X134379537Y-96460169D01*
X134189663Y-96176002D01*
X133947998Y-95934337D01*
X133663831Y-95744463D01*
X133348081Y-95613675D01*
X133012883Y-95547000D01*
X132671117Y-95547000D01*
X132335919Y-95613675D01*
X132020169Y-95744463D01*
X131736002Y-95934337D01*
X131494337Y-96176002D01*
X131304463Y-96460169D01*
X131173675Y-96775919D01*
X131107000Y-97111117D01*
X53666749Y-97111117D01*
X53607537Y-96968169D01*
X53417663Y-96684002D01*
X53175998Y-96442337D01*
X52891831Y-96252463D01*
X52576081Y-96121675D01*
X52240883Y-96055000D01*
X51899117Y-96055000D01*
X51563919Y-96121675D01*
X51248169Y-96252463D01*
X50964002Y-96442337D01*
X50722337Y-96684002D01*
X50532463Y-96968169D01*
X50401675Y-97283919D01*
X50335000Y-97619117D01*
X48920000Y-97619117D01*
X48920000Y-94386061D01*
X57131000Y-94386061D01*
X57131000Y-94589939D01*
X57170774Y-94789898D01*
X57248795Y-94978256D01*
X57362063Y-95147774D01*
X57506226Y-95291937D01*
X57675744Y-95405205D01*
X57864102Y-95483226D01*
X58064061Y-95523000D01*
X58267939Y-95523000D01*
X58467898Y-95483226D01*
X58656256Y-95405205D01*
X58793503Y-95313500D01*
X60931384Y-95313500D01*
X60978915Y-95428250D01*
X61196149Y-95753364D01*
X61472636Y-96029851D01*
X61797750Y-96247085D01*
X62158997Y-96396718D01*
X62542495Y-96473000D01*
X62933505Y-96473000D01*
X63317003Y-96396718D01*
X63678250Y-96247085D01*
X64003364Y-96029851D01*
X64279851Y-95753364D01*
X64497085Y-95428250D01*
X64646718Y-95067003D01*
X64723000Y-94683505D01*
X64723000Y-94292495D01*
X64817000Y-94292495D01*
X64817000Y-94683505D01*
X64893282Y-95067003D01*
X65042915Y-95428250D01*
X65260149Y-95753364D01*
X65536636Y-96029851D01*
X65861750Y-96247085D01*
X66222997Y-96396718D01*
X66606495Y-96473000D01*
X66997505Y-96473000D01*
X67381003Y-96396718D01*
X67742250Y-96247085D01*
X68067364Y-96029851D01*
X68343851Y-95753364D01*
X68561085Y-95428250D01*
X68710718Y-95067003D01*
X68787000Y-94683505D01*
X68787000Y-94292495D01*
X69153000Y-94292495D01*
X69153000Y-94683505D01*
X69229282Y-95067003D01*
X69378915Y-95428250D01*
X69596149Y-95753364D01*
X69872636Y-96029851D01*
X70197750Y-96247085D01*
X70558997Y-96396718D01*
X70942495Y-96473000D01*
X71333505Y-96473000D01*
X71717003Y-96396718D01*
X72078250Y-96247085D01*
X72403364Y-96029851D01*
X72679851Y-95753364D01*
X72897085Y-95428250D01*
X73046718Y-95067003D01*
X73123000Y-94683505D01*
X73123000Y-94292495D01*
X73353000Y-94292495D01*
X73353000Y-94683505D01*
X73429282Y-95067003D01*
X73578915Y-95428250D01*
X73796149Y-95753364D01*
X74072636Y-96029851D01*
X74397750Y-96247085D01*
X74758997Y-96396718D01*
X75142495Y-96473000D01*
X75533505Y-96473000D01*
X75917003Y-96396718D01*
X76278250Y-96247085D01*
X76603364Y-96029851D01*
X76879851Y-95753364D01*
X77097085Y-95428250D01*
X77246718Y-95067003D01*
X77323000Y-94683505D01*
X77323000Y-94292495D01*
X77553000Y-94292495D01*
X77553000Y-94683505D01*
X77629282Y-95067003D01*
X77778915Y-95428250D01*
X77996149Y-95753364D01*
X78272636Y-96029851D01*
X78597750Y-96247085D01*
X78958997Y-96396718D01*
X79342495Y-96473000D01*
X79733505Y-96473000D01*
X80117003Y-96396718D01*
X80478250Y-96247085D01*
X80803364Y-96029851D01*
X81079851Y-95753364D01*
X81297085Y-95428250D01*
X81446718Y-95067003D01*
X81523000Y-94683505D01*
X81523000Y-94292495D01*
X81753000Y-94292495D01*
X81753000Y-94683505D01*
X81829282Y-95067003D01*
X81978915Y-95428250D01*
X82196149Y-95753364D01*
X82472636Y-96029851D01*
X82797750Y-96247085D01*
X83158997Y-96396718D01*
X83542495Y-96473000D01*
X83933505Y-96473000D01*
X84317003Y-96396718D01*
X84678250Y-96247085D01*
X85003364Y-96029851D01*
X85279851Y-95753364D01*
X85497085Y-95428250D01*
X85646718Y-95067003D01*
X85723000Y-94683505D01*
X85723000Y-94292495D01*
X85953000Y-94292495D01*
X85953000Y-94683505D01*
X86029282Y-95067003D01*
X86178915Y-95428250D01*
X86396149Y-95753364D01*
X86672636Y-96029851D01*
X86997750Y-96247085D01*
X87358997Y-96396718D01*
X87742495Y-96473000D01*
X88133505Y-96473000D01*
X88517003Y-96396718D01*
X88878250Y-96247085D01*
X89203364Y-96029851D01*
X89360377Y-95872838D01*
X90932767Y-95872838D01*
X91070724Y-96173044D01*
X91419967Y-96348882D01*
X91796804Y-96453207D01*
X92186753Y-96482009D01*
X92574828Y-96434184D01*
X92946116Y-96311568D01*
X93205276Y-96173044D01*
X93343233Y-95872838D01*
X92138000Y-94667605D01*
X90932767Y-95872838D01*
X89360377Y-95872838D01*
X89479851Y-95753364D01*
X89697085Y-95428250D01*
X89846718Y-95067003D01*
X89923000Y-94683505D01*
X89923000Y-94536753D01*
X90143991Y-94536753D01*
X90191816Y-94924828D01*
X90314432Y-95296116D01*
X90452956Y-95555276D01*
X90753162Y-95693233D01*
X91958395Y-94488000D01*
X92317605Y-94488000D01*
X93522838Y-95693233D01*
X93823044Y-95555276D01*
X93998882Y-95206033D01*
X94103207Y-94829196D01*
X94132009Y-94439247D01*
X94084184Y-94051172D01*
X93961568Y-93679884D01*
X93823044Y-93420724D01*
X93522838Y-93282767D01*
X92317605Y-94488000D01*
X91958395Y-94488000D01*
X90753162Y-93282767D01*
X90452956Y-93420724D01*
X90277118Y-93769967D01*
X90172793Y-94146804D01*
X90143991Y-94536753D01*
X89923000Y-94536753D01*
X89923000Y-94292495D01*
X89846718Y-93908997D01*
X89697085Y-93547750D01*
X89479851Y-93222636D01*
X89360377Y-93103162D01*
X90932767Y-93103162D01*
X92138000Y-94308395D01*
X93343233Y-93103162D01*
X93205276Y-92802956D01*
X92856033Y-92627118D01*
X92479196Y-92522793D01*
X92089247Y-92493991D01*
X91701172Y-92541816D01*
X91329884Y-92664432D01*
X91070724Y-92802956D01*
X90932767Y-93103162D01*
X89360377Y-93103162D01*
X89203364Y-92946149D01*
X88878250Y-92728915D01*
X88517003Y-92579282D01*
X88133505Y-92503000D01*
X87742495Y-92503000D01*
X87358997Y-92579282D01*
X86997750Y-92728915D01*
X86672636Y-92946149D01*
X86396149Y-93222636D01*
X86178915Y-93547750D01*
X86029282Y-93908997D01*
X85953000Y-94292495D01*
X85723000Y-94292495D01*
X85646718Y-93908997D01*
X85497085Y-93547750D01*
X85279851Y-93222636D01*
X85003364Y-92946149D01*
X84678250Y-92728915D01*
X84317003Y-92579282D01*
X83933505Y-92503000D01*
X83542495Y-92503000D01*
X83158997Y-92579282D01*
X82797750Y-92728915D01*
X82472636Y-92946149D01*
X82196149Y-93222636D01*
X81978915Y-93547750D01*
X81829282Y-93908997D01*
X81753000Y-94292495D01*
X81523000Y-94292495D01*
X81446718Y-93908997D01*
X81297085Y-93547750D01*
X81079851Y-93222636D01*
X80803364Y-92946149D01*
X80478250Y-92728915D01*
X80117003Y-92579282D01*
X79733505Y-92503000D01*
X79342495Y-92503000D01*
X78958997Y-92579282D01*
X78597750Y-92728915D01*
X78272636Y-92946149D01*
X77996149Y-93222636D01*
X77778915Y-93547750D01*
X77629282Y-93908997D01*
X77553000Y-94292495D01*
X77323000Y-94292495D01*
X77246718Y-93908997D01*
X77097085Y-93547750D01*
X76879851Y-93222636D01*
X76603364Y-92946149D01*
X76278250Y-92728915D01*
X75917003Y-92579282D01*
X75533505Y-92503000D01*
X75142495Y-92503000D01*
X74758997Y-92579282D01*
X74397750Y-92728915D01*
X74072636Y-92946149D01*
X73796149Y-93222636D01*
X73578915Y-93547750D01*
X73429282Y-93908997D01*
X73353000Y-94292495D01*
X73123000Y-94292495D01*
X73046718Y-93908997D01*
X72897085Y-93547750D01*
X72679851Y-93222636D01*
X72403364Y-92946149D01*
X72078250Y-92728915D01*
X71717003Y-92579282D01*
X71333505Y-92503000D01*
X70942495Y-92503000D01*
X70558997Y-92579282D01*
X70197750Y-92728915D01*
X69872636Y-92946149D01*
X69596149Y-93222636D01*
X69378915Y-93547750D01*
X69229282Y-93908997D01*
X69153000Y-94292495D01*
X68787000Y-94292495D01*
X68710718Y-93908997D01*
X68561085Y-93547750D01*
X68343851Y-93222636D01*
X68067364Y-92946149D01*
X67742250Y-92728915D01*
X67381003Y-92579282D01*
X66997505Y-92503000D01*
X66606495Y-92503000D01*
X66222997Y-92579282D01*
X65861750Y-92728915D01*
X65536636Y-92946149D01*
X65260149Y-93222636D01*
X65042915Y-93547750D01*
X64893282Y-93908997D01*
X64817000Y-94292495D01*
X64723000Y-94292495D01*
X64646718Y-93908997D01*
X64497085Y-93547750D01*
X64279851Y-93222636D01*
X64003364Y-92946149D01*
X63678250Y-92728915D01*
X63317003Y-92579282D01*
X62933505Y-92503000D01*
X62542495Y-92503000D01*
X62158997Y-92579282D01*
X61797750Y-92728915D01*
X61472636Y-92946149D01*
X61196149Y-93222636D01*
X60978915Y-93547750D01*
X60931384Y-93662500D01*
X58793503Y-93662500D01*
X58656256Y-93570795D01*
X58467898Y-93492774D01*
X58267939Y-93453000D01*
X58064061Y-93453000D01*
X57864102Y-93492774D01*
X57675744Y-93570795D01*
X57506226Y-93684063D01*
X57362063Y-93828226D01*
X57248795Y-93997744D01*
X57170774Y-94186102D01*
X57131000Y-94386061D01*
X48920000Y-94386061D01*
X48920000Y-88772495D01*
X60753000Y-88772495D01*
X60753000Y-89163505D01*
X60829282Y-89547003D01*
X60978915Y-89908250D01*
X61196149Y-90233364D01*
X61472636Y-90509851D01*
X61797750Y-90727085D01*
X62158997Y-90876718D01*
X62542495Y-90953000D01*
X62933505Y-90953000D01*
X63317003Y-90876718D01*
X63678250Y-90727085D01*
X64003364Y-90509851D01*
X64279851Y-90233364D01*
X64497085Y-89908250D01*
X64646718Y-89547003D01*
X64723000Y-89163505D01*
X64723000Y-88772495D01*
X64953000Y-88772495D01*
X64953000Y-89163505D01*
X65029282Y-89547003D01*
X65178915Y-89908250D01*
X65396149Y-90233364D01*
X65672636Y-90509851D01*
X65997750Y-90727085D01*
X66358997Y-90876718D01*
X66742495Y-90953000D01*
X67133505Y-90953000D01*
X67517003Y-90876718D01*
X67878250Y-90727085D01*
X68203364Y-90509851D01*
X68479851Y-90233364D01*
X68697085Y-89908250D01*
X68846718Y-89547003D01*
X68923000Y-89163505D01*
X68923000Y-88772495D01*
X69153000Y-88772495D01*
X69153000Y-89163505D01*
X69229282Y-89547003D01*
X69378915Y-89908250D01*
X69596149Y-90233364D01*
X69872636Y-90509851D01*
X70197750Y-90727085D01*
X70558997Y-90876718D01*
X70942495Y-90953000D01*
X71333505Y-90953000D01*
X71717003Y-90876718D01*
X72078250Y-90727085D01*
X72403364Y-90509851D01*
X72679851Y-90233364D01*
X72897085Y-89908250D01*
X73046718Y-89547003D01*
X73123000Y-89163505D01*
X73123000Y-88772495D01*
X73353000Y-88772495D01*
X73353000Y-89163505D01*
X73429282Y-89547003D01*
X73578915Y-89908250D01*
X73796149Y-90233364D01*
X74072636Y-90509851D01*
X74397750Y-90727085D01*
X74758997Y-90876718D01*
X75142495Y-90953000D01*
X75533505Y-90953000D01*
X75917003Y-90876718D01*
X76278250Y-90727085D01*
X76603364Y-90509851D01*
X76879851Y-90233364D01*
X77097085Y-89908250D01*
X77246718Y-89547003D01*
X77323000Y-89163505D01*
X77323000Y-88772495D01*
X77553000Y-88772495D01*
X77553000Y-89163505D01*
X77629282Y-89547003D01*
X77778915Y-89908250D01*
X77996149Y-90233364D01*
X78272636Y-90509851D01*
X78597750Y-90727085D01*
X78958997Y-90876718D01*
X79342495Y-90953000D01*
X79733505Y-90953000D01*
X80117003Y-90876718D01*
X80478250Y-90727085D01*
X80803364Y-90509851D01*
X81079851Y-90233364D01*
X81297085Y-89908250D01*
X81446718Y-89547003D01*
X81523000Y-89163505D01*
X81523000Y-88772495D01*
X81753000Y-88772495D01*
X81753000Y-89163505D01*
X81829282Y-89547003D01*
X81978915Y-89908250D01*
X82196149Y-90233364D01*
X82472636Y-90509851D01*
X82797750Y-90727085D01*
X83158997Y-90876718D01*
X83542495Y-90953000D01*
X83933505Y-90953000D01*
X84317003Y-90876718D01*
X84678250Y-90727085D01*
X85003364Y-90509851D01*
X85279851Y-90233364D01*
X85497085Y-89908250D01*
X85646718Y-89547003D01*
X85723000Y-89163505D01*
X85723000Y-88772495D01*
X85953000Y-88772495D01*
X85953000Y-89163505D01*
X86029282Y-89547003D01*
X86178915Y-89908250D01*
X86396149Y-90233364D01*
X86672636Y-90509851D01*
X86997750Y-90727085D01*
X87358997Y-90876718D01*
X87742495Y-90953000D01*
X88133505Y-90953000D01*
X88517003Y-90876718D01*
X88878250Y-90727085D01*
X89203364Y-90509851D01*
X89479851Y-90233364D01*
X89697085Y-89908250D01*
X89846718Y-89547003D01*
X89923000Y-89163505D01*
X89923000Y-88772495D01*
X90153000Y-88772495D01*
X90153000Y-89163505D01*
X90229282Y-89547003D01*
X90378915Y-89908250D01*
X90596149Y-90233364D01*
X90872636Y-90509851D01*
X91197750Y-90727085D01*
X91558997Y-90876718D01*
X91942495Y-90953000D01*
X92333505Y-90953000D01*
X92717003Y-90876718D01*
X93078250Y-90727085D01*
X93403364Y-90509851D01*
X93679851Y-90233364D01*
X93897085Y-89908250D01*
X94046718Y-89547003D01*
X94123000Y-89163505D01*
X94123000Y-88772495D01*
X94046718Y-88388997D01*
X93897085Y-88027750D01*
X93679851Y-87702636D01*
X93403364Y-87426149D01*
X93078250Y-87208915D01*
X92717003Y-87059282D01*
X92333505Y-86983000D01*
X91942495Y-86983000D01*
X91558997Y-87059282D01*
X91197750Y-87208915D01*
X90872636Y-87426149D01*
X90596149Y-87702636D01*
X90378915Y-88027750D01*
X90229282Y-88388997D01*
X90153000Y-88772495D01*
X89923000Y-88772495D01*
X89846718Y-88388997D01*
X89697085Y-88027750D01*
X89479851Y-87702636D01*
X89203364Y-87426149D01*
X88878250Y-87208915D01*
X88517003Y-87059282D01*
X88133505Y-86983000D01*
X87742495Y-86983000D01*
X87358997Y-87059282D01*
X86997750Y-87208915D01*
X86672636Y-87426149D01*
X86396149Y-87702636D01*
X86178915Y-88027750D01*
X86029282Y-88388997D01*
X85953000Y-88772495D01*
X85723000Y-88772495D01*
X85646718Y-88388997D01*
X85497085Y-88027750D01*
X85279851Y-87702636D01*
X85003364Y-87426149D01*
X84678250Y-87208915D01*
X84317003Y-87059282D01*
X83933505Y-86983000D01*
X83542495Y-86983000D01*
X83158997Y-87059282D01*
X82797750Y-87208915D01*
X82472636Y-87426149D01*
X82196149Y-87702636D01*
X81978915Y-88027750D01*
X81829282Y-88388997D01*
X81753000Y-88772495D01*
X81523000Y-88772495D01*
X81446718Y-88388997D01*
X81297085Y-88027750D01*
X81079851Y-87702636D01*
X80803364Y-87426149D01*
X80478250Y-87208915D01*
X80117003Y-87059282D01*
X79733505Y-86983000D01*
X79342495Y-86983000D01*
X78958997Y-87059282D01*
X78597750Y-87208915D01*
X78272636Y-87426149D01*
X77996149Y-87702636D01*
X77778915Y-88027750D01*
X77629282Y-88388997D01*
X77553000Y-88772495D01*
X77323000Y-88772495D01*
X77246718Y-88388997D01*
X77097085Y-88027750D01*
X76879851Y-87702636D01*
X76603364Y-87426149D01*
X76278250Y-87208915D01*
X75917003Y-87059282D01*
X75533505Y-86983000D01*
X75142495Y-86983000D01*
X74758997Y-87059282D01*
X74397750Y-87208915D01*
X74072636Y-87426149D01*
X73796149Y-87702636D01*
X73578915Y-88027750D01*
X73429282Y-88388997D01*
X73353000Y-88772495D01*
X73123000Y-88772495D01*
X73046718Y-88388997D01*
X72897085Y-88027750D01*
X72679851Y-87702636D01*
X72403364Y-87426149D01*
X72078250Y-87208915D01*
X71717003Y-87059282D01*
X71333505Y-86983000D01*
X70942495Y-86983000D01*
X70558997Y-87059282D01*
X70197750Y-87208915D01*
X69872636Y-87426149D01*
X69596149Y-87702636D01*
X69378915Y-88027750D01*
X69229282Y-88388997D01*
X69153000Y-88772495D01*
X68923000Y-88772495D01*
X68846718Y-88388997D01*
X68697085Y-88027750D01*
X68479851Y-87702636D01*
X68203364Y-87426149D01*
X67878250Y-87208915D01*
X67517003Y-87059282D01*
X67133505Y-86983000D01*
X66742495Y-86983000D01*
X66358997Y-87059282D01*
X65997750Y-87208915D01*
X65672636Y-87426149D01*
X65396149Y-87702636D01*
X65178915Y-88027750D01*
X65029282Y-88388997D01*
X64953000Y-88772495D01*
X64723000Y-88772495D01*
X64646718Y-88388997D01*
X64497085Y-88027750D01*
X64279851Y-87702636D01*
X64003364Y-87426149D01*
X63678250Y-87208915D01*
X63317003Y-87059282D01*
X62933505Y-86983000D01*
X62542495Y-86983000D01*
X62158997Y-87059282D01*
X61797750Y-87208915D01*
X61472636Y-87426149D01*
X61196149Y-87702636D01*
X60978915Y-88027750D01*
X60829282Y-88388997D01*
X60753000Y-88772495D01*
X48920000Y-88772495D01*
X48920000Y-83718061D01*
X55353000Y-83718061D01*
X55353000Y-83921939D01*
X55392774Y-84121898D01*
X55470795Y-84310256D01*
X55584063Y-84479774D01*
X55728226Y-84623937D01*
X55897744Y-84737205D01*
X56086102Y-84815226D01*
X56286061Y-84855000D01*
X56489939Y-84855000D01*
X56689898Y-84815226D01*
X56878256Y-84737205D01*
X57015503Y-84645500D01*
X88272497Y-84645500D01*
X88409744Y-84737205D01*
X88598102Y-84815226D01*
X88798061Y-84855000D01*
X89001939Y-84855000D01*
X89201898Y-84815226D01*
X89390256Y-84737205D01*
X89559774Y-84623937D01*
X89703937Y-84479774D01*
X89817205Y-84310256D01*
X89895226Y-84121898D01*
X89935000Y-83921939D01*
X89935000Y-83718061D01*
X89895226Y-83518102D01*
X89817205Y-83329744D01*
X89703937Y-83160226D01*
X89559774Y-83016063D01*
X89390256Y-82902795D01*
X89201898Y-82824774D01*
X89001939Y-82785000D01*
X88798061Y-82785000D01*
X88598102Y-82824774D01*
X88409744Y-82902795D01*
X88272497Y-82994500D01*
X57015503Y-82994500D01*
X56878256Y-82902795D01*
X56689898Y-82824774D01*
X56489939Y-82785000D01*
X56286061Y-82785000D01*
X56086102Y-82824774D01*
X55897744Y-82902795D01*
X55728226Y-83016063D01*
X55584063Y-83160226D01*
X55470795Y-83329744D01*
X55392774Y-83518102D01*
X55353000Y-83718061D01*
X48920000Y-83718061D01*
X48920000Y-79908061D01*
X62973000Y-79908061D01*
X62973000Y-80111939D01*
X63012774Y-80311898D01*
X63090795Y-80500256D01*
X63204063Y-80669774D01*
X63348226Y-80813937D01*
X63517744Y-80927205D01*
X63706102Y-81005226D01*
X63906061Y-81045000D01*
X64109939Y-81045000D01*
X64309898Y-81005226D01*
X64498256Y-80927205D01*
X64635503Y-80835500D01*
X90336068Y-80835500D01*
X90920572Y-81420004D01*
X90952774Y-81581898D01*
X91030795Y-81770256D01*
X91144063Y-81939774D01*
X91288226Y-82083937D01*
X91457744Y-82197205D01*
X91646102Y-82275226D01*
X91846061Y-82315000D01*
X92049939Y-82315000D01*
X92249898Y-82275226D01*
X92438256Y-82197205D01*
X92607774Y-82083937D01*
X92751937Y-81939774D01*
X92865205Y-81770256D01*
X92943226Y-81581898D01*
X92983000Y-81381939D01*
X92983000Y-81178061D01*
X92943226Y-80978102D01*
X92865205Y-80789744D01*
X92751937Y-80620226D01*
X92607774Y-80476063D01*
X92438256Y-80362795D01*
X92249898Y-80284774D01*
X92088004Y-80252572D01*
X91290398Y-79454966D01*
X91264541Y-79423459D01*
X91138842Y-79320301D01*
X90995434Y-79243647D01*
X90839826Y-79196444D01*
X90718553Y-79184500D01*
X90718550Y-79184500D01*
X90678000Y-79180506D01*
X90637450Y-79184500D01*
X64635503Y-79184500D01*
X64498256Y-79092795D01*
X64309898Y-79014774D01*
X64109939Y-78975000D01*
X63906061Y-78975000D01*
X63706102Y-79014774D01*
X63517744Y-79092795D01*
X63348226Y-79206063D01*
X63204063Y-79350226D01*
X63090795Y-79519744D01*
X63012774Y-79708102D01*
X62973000Y-79908061D01*
X48920000Y-79908061D01*
X48920000Y-78689565D01*
X90908040Y-78689565D01*
X90975020Y-78929656D01*
X91224048Y-79046756D01*
X91491135Y-79113023D01*
X91766017Y-79125910D01*
X92038133Y-79084922D01*
X92297023Y-78991636D01*
X92412980Y-78929656D01*
X92479960Y-78689565D01*
X91694000Y-77903605D01*
X90908040Y-78689565D01*
X48920000Y-78689565D01*
X48920000Y-77796017D01*
X90292090Y-77796017D01*
X90333078Y-78068133D01*
X90426364Y-78327023D01*
X90488344Y-78442980D01*
X90728435Y-78509960D01*
X91514395Y-77724000D01*
X91873605Y-77724000D01*
X92659565Y-78509960D01*
X92899656Y-78442980D01*
X93016756Y-78193952D01*
X93083023Y-77926865D01*
X93095910Y-77651983D01*
X93054922Y-77379867D01*
X92961636Y-77120977D01*
X92899656Y-77005020D01*
X92659565Y-76938040D01*
X91873605Y-77724000D01*
X91514395Y-77724000D01*
X90728435Y-76938040D01*
X90488344Y-77005020D01*
X90371244Y-77254048D01*
X90304977Y-77521135D01*
X90292090Y-77796017D01*
X48920000Y-77796017D01*
X48920000Y-75094421D01*
X60161184Y-75094421D01*
X60230345Y-75336349D01*
X60482443Y-75455248D01*
X60752894Y-75522681D01*
X61031303Y-75536057D01*
X61306972Y-75494860D01*
X61569308Y-75400675D01*
X61689655Y-75336349D01*
X61758816Y-75094421D01*
X60960000Y-74295605D01*
X60161184Y-75094421D01*
X48920000Y-75094421D01*
X48920000Y-74187303D01*
X59539943Y-74187303D01*
X59581140Y-74462972D01*
X59675325Y-74725308D01*
X59739651Y-74845655D01*
X59981579Y-74914816D01*
X60780395Y-74116000D01*
X61139605Y-74116000D01*
X61938421Y-74914816D01*
X62180349Y-74845655D01*
X62299248Y-74593557D01*
X62366681Y-74323106D01*
X62380057Y-74044697D01*
X62338860Y-73769028D01*
X62244675Y-73506692D01*
X62180349Y-73386345D01*
X61938421Y-73317184D01*
X61139605Y-74116000D01*
X60780395Y-74116000D01*
X59981579Y-73317184D01*
X59739651Y-73386345D01*
X59620752Y-73638443D01*
X59553319Y-73908894D01*
X59539943Y-74187303D01*
X48920000Y-74187303D01*
X48920000Y-67716061D01*
X53829000Y-67716061D01*
X53829000Y-67919939D01*
X53868774Y-68119898D01*
X53946795Y-68308256D01*
X54060063Y-68477774D01*
X54204226Y-68621937D01*
X54373744Y-68735205D01*
X54562102Y-68813226D01*
X54762061Y-68853000D01*
X54965939Y-68853000D01*
X55165898Y-68813226D01*
X55354256Y-68735205D01*
X55491503Y-68643500D01*
X59595351Y-68643500D01*
X59545000Y-68896635D01*
X59545000Y-69175365D01*
X59599377Y-69448740D01*
X59706043Y-69706254D01*
X59860897Y-69938010D01*
X60057990Y-70135103D01*
X60289746Y-70289957D01*
X60328477Y-70306000D01*
X60289746Y-70322043D01*
X60057990Y-70476897D01*
X59860897Y-70673990D01*
X59706043Y-70905746D01*
X59599377Y-71163260D01*
X59545000Y-71436635D01*
X59545000Y-71715365D01*
X59599377Y-71988740D01*
X59706043Y-72246254D01*
X59860897Y-72478010D01*
X60057990Y-72675103D01*
X60289746Y-72829957D01*
X60325525Y-72844777D01*
X60230345Y-72895651D01*
X60161184Y-73137579D01*
X60960000Y-73936395D01*
X61758816Y-73137579D01*
X61689655Y-72895651D01*
X61587721Y-72847575D01*
X61630254Y-72829957D01*
X61862010Y-72675103D01*
X62059103Y-72478010D01*
X62075480Y-72453500D01*
X68206497Y-72453500D01*
X68343744Y-72545205D01*
X68532102Y-72623226D01*
X68732061Y-72663000D01*
X68935939Y-72663000D01*
X69135898Y-72623226D01*
X69324256Y-72545205D01*
X69493774Y-72431937D01*
X69637937Y-72287774D01*
X69751205Y-72118256D01*
X69829226Y-71929898D01*
X69869000Y-71729939D01*
X69869000Y-71526061D01*
X69829226Y-71326102D01*
X69751205Y-71137744D01*
X69637937Y-70968226D01*
X69493774Y-70824063D01*
X69324256Y-70710795D01*
X69135898Y-70632774D01*
X68935939Y-70593000D01*
X68732061Y-70593000D01*
X68532102Y-70632774D01*
X68343744Y-70710795D01*
X68206497Y-70802500D01*
X62144970Y-70802500D01*
X62059103Y-70673990D01*
X61862010Y-70476897D01*
X61630254Y-70322043D01*
X61591523Y-70306000D01*
X61630254Y-70289957D01*
X61813524Y-70167500D01*
X67698497Y-70167500D01*
X67835744Y-70259205D01*
X68024102Y-70337226D01*
X68224061Y-70377000D01*
X68427939Y-70377000D01*
X68627898Y-70337226D01*
X68816256Y-70259205D01*
X68985774Y-70145937D01*
X69129937Y-70001774D01*
X69243205Y-69832256D01*
X69321226Y-69643898D01*
X69361000Y-69443939D01*
X69361000Y-69240061D01*
X69321226Y-69040102D01*
X69243205Y-68851744D01*
X69129937Y-68682226D01*
X69091211Y-68643500D01*
X81439351Y-68643500D01*
X81389000Y-68896635D01*
X81389000Y-69175365D01*
X81443377Y-69448740D01*
X81478072Y-69532500D01*
X81145503Y-69532500D01*
X81008256Y-69440795D01*
X80819898Y-69362774D01*
X80619939Y-69323000D01*
X80416061Y-69323000D01*
X80216102Y-69362774D01*
X80027744Y-69440795D01*
X79858226Y-69554063D01*
X79714063Y-69698226D01*
X79600795Y-69867744D01*
X79522774Y-70056102D01*
X79483000Y-70256061D01*
X79483000Y-70459939D01*
X79522774Y-70659898D01*
X79600795Y-70848256D01*
X79714063Y-71017774D01*
X79858226Y-71161937D01*
X80027744Y-71275205D01*
X80216102Y-71353226D01*
X80416061Y-71393000D01*
X80619939Y-71393000D01*
X80819898Y-71353226D01*
X81008256Y-71275205D01*
X81145503Y-71183500D01*
X81439351Y-71183500D01*
X81389000Y-71436635D01*
X81389000Y-71715365D01*
X81443377Y-71988740D01*
X81478072Y-72072500D01*
X79113503Y-72072500D01*
X78976256Y-71980795D01*
X78787898Y-71902774D01*
X78587939Y-71863000D01*
X78384061Y-71863000D01*
X78184102Y-71902774D01*
X77995744Y-71980795D01*
X77826226Y-72094063D01*
X77682063Y-72238226D01*
X77568795Y-72407744D01*
X77490774Y-72596102D01*
X77451000Y-72796061D01*
X77451000Y-72999939D01*
X77490774Y-73199898D01*
X77568795Y-73388256D01*
X77682063Y-73557774D01*
X77826226Y-73701937D01*
X77995744Y-73815205D01*
X78184102Y-73893226D01*
X78384061Y-73933000D01*
X78587939Y-73933000D01*
X78787898Y-73893226D01*
X78976256Y-73815205D01*
X79113503Y-73723500D01*
X81385928Y-73723500D01*
X81385928Y-74866500D01*
X76827503Y-74866500D01*
X76690256Y-74774795D01*
X76501898Y-74696774D01*
X76301939Y-74657000D01*
X76098061Y-74657000D01*
X75898102Y-74696774D01*
X75709744Y-74774795D01*
X75540226Y-74888063D01*
X75396063Y-75032226D01*
X75282795Y-75201744D01*
X75204774Y-75390102D01*
X75165000Y-75590061D01*
X75165000Y-75793939D01*
X75204774Y-75993898D01*
X75282795Y-76182256D01*
X75396063Y-76351774D01*
X75540226Y-76495937D01*
X75709744Y-76609205D01*
X75898102Y-76687226D01*
X76098061Y-76727000D01*
X76301939Y-76727000D01*
X76501898Y-76687226D01*
X76690256Y-76609205D01*
X76827503Y-76517500D01*
X83425951Y-76517500D01*
X83466501Y-76521494D01*
X83507051Y-76517500D01*
X83507054Y-76517500D01*
X83628327Y-76505556D01*
X83783935Y-76458353D01*
X83927343Y-76381699D01*
X84053042Y-76278541D01*
X84078899Y-76247034D01*
X84316433Y-76009500D01*
X90565425Y-76009500D01*
X90608880Y-76074535D01*
X90803465Y-76269120D01*
X91032273Y-76422005D01*
X91103943Y-76451692D01*
X91090977Y-76456364D01*
X90975020Y-76518344D01*
X90908040Y-76758435D01*
X91694000Y-77544395D01*
X92479960Y-76758435D01*
X92412980Y-76518344D01*
X92277240Y-76454515D01*
X92355727Y-76422005D01*
X92584535Y-76269120D01*
X92779120Y-76074535D01*
X92932005Y-75845727D01*
X93037314Y-75591490D01*
X93091000Y-75321592D01*
X93091000Y-75046408D01*
X93037314Y-74776510D01*
X92932005Y-74522273D01*
X92779120Y-74293465D01*
X92584535Y-74098880D01*
X92535419Y-74066061D01*
X96501000Y-74066061D01*
X96501000Y-74269939D01*
X96540774Y-74469898D01*
X96618795Y-74658256D01*
X96732063Y-74827774D01*
X96876226Y-74971937D01*
X97045744Y-75085205D01*
X97234102Y-75163226D01*
X97434061Y-75203000D01*
X97520851Y-75203000D01*
X97628174Y-75235556D01*
X97749447Y-75247500D01*
X97749449Y-75247500D01*
X97789999Y-75251494D01*
X97830550Y-75247500D01*
X126633425Y-75247500D01*
X126676880Y-75312535D01*
X126871465Y-75507120D01*
X127100273Y-75660005D01*
X127354510Y-75765314D01*
X127624408Y-75819000D01*
X127899592Y-75819000D01*
X128169490Y-75765314D01*
X128423727Y-75660005D01*
X128652535Y-75507120D01*
X128847120Y-75312535D01*
X129000005Y-75083727D01*
X129105314Y-74829490D01*
X129159000Y-74559592D01*
X129159000Y-74284408D01*
X129105314Y-74014510D01*
X129000005Y-73760273D01*
X128847120Y-73531465D01*
X128652535Y-73336880D01*
X128423727Y-73183995D01*
X128352057Y-73154308D01*
X128365023Y-73149636D01*
X128480980Y-73087656D01*
X128547960Y-72847565D01*
X127762000Y-72061605D01*
X126976040Y-72847565D01*
X127043020Y-73087656D01*
X127178760Y-73151485D01*
X127100273Y-73183995D01*
X126871465Y-73336880D01*
X126676880Y-73531465D01*
X126633425Y-73596500D01*
X98398920Y-73596500D01*
X98339937Y-73508226D01*
X98195774Y-73364063D01*
X98026256Y-73250795D01*
X97837898Y-73172774D01*
X97637939Y-73133000D01*
X97434061Y-73133000D01*
X97234102Y-73172774D01*
X97045744Y-73250795D01*
X96876226Y-73364063D01*
X96732063Y-73508226D01*
X96618795Y-73677744D01*
X96540774Y-73866102D01*
X96501000Y-74066061D01*
X92535419Y-74066061D01*
X92355727Y-73945995D01*
X92278485Y-73914000D01*
X92355727Y-73882005D01*
X92584535Y-73729120D01*
X92779120Y-73534535D01*
X92932005Y-73305727D01*
X93037314Y-73051490D01*
X93091000Y-72781592D01*
X93091000Y-72506408D01*
X93037314Y-72236510D01*
X92932005Y-71982273D01*
X92913125Y-71954017D01*
X126360090Y-71954017D01*
X126401078Y-72226133D01*
X126494364Y-72485023D01*
X126556344Y-72600980D01*
X126796435Y-72667960D01*
X127582395Y-71882000D01*
X127941605Y-71882000D01*
X128727565Y-72667960D01*
X128967656Y-72600980D01*
X129084756Y-72351952D01*
X129151023Y-72084865D01*
X129163910Y-71809983D01*
X129122922Y-71537867D01*
X129029636Y-71278977D01*
X128967656Y-71163020D01*
X128727565Y-71096040D01*
X127941605Y-71882000D01*
X127582395Y-71882000D01*
X126796435Y-71096040D01*
X126556344Y-71163020D01*
X126439244Y-71412048D01*
X126372977Y-71679135D01*
X126360090Y-71954017D01*
X92913125Y-71954017D01*
X92779120Y-71753465D01*
X92584535Y-71558880D01*
X92355727Y-71405995D01*
X92278485Y-71374000D01*
X92355727Y-71342005D01*
X92584535Y-71189120D01*
X92779120Y-70994535D01*
X92932005Y-70765727D01*
X93037314Y-70511490D01*
X93091000Y-70241592D01*
X93091000Y-69966408D01*
X93037314Y-69696510D01*
X92932005Y-69442273D01*
X92779120Y-69213465D01*
X92770063Y-69204408D01*
X126365000Y-69204408D01*
X126365000Y-69479592D01*
X126418686Y-69749490D01*
X126523995Y-70003727D01*
X126676880Y-70232535D01*
X126871465Y-70427120D01*
X127100273Y-70580005D01*
X127171943Y-70609692D01*
X127158977Y-70614364D01*
X127043020Y-70676344D01*
X126976040Y-70916435D01*
X127762000Y-71702395D01*
X128547960Y-70916435D01*
X128480980Y-70676344D01*
X128345240Y-70612515D01*
X128423727Y-70580005D01*
X128652535Y-70427120D01*
X128847120Y-70232535D01*
X129000005Y-70003727D01*
X129105314Y-69749490D01*
X129159000Y-69479592D01*
X129159000Y-69204408D01*
X129105314Y-68934510D01*
X129000005Y-68680273D01*
X128847120Y-68451465D01*
X128652535Y-68256880D01*
X128423727Y-68103995D01*
X128169490Y-67998686D01*
X127899592Y-67945000D01*
X127624408Y-67945000D01*
X127354510Y-67998686D01*
X127100273Y-68103995D01*
X126871465Y-68256880D01*
X126676880Y-68451465D01*
X126523995Y-68680273D01*
X126418686Y-68934510D01*
X126365000Y-69204408D01*
X92770063Y-69204408D01*
X92584535Y-69018880D01*
X92355727Y-68865995D01*
X92278485Y-68834000D01*
X92355727Y-68802005D01*
X92584535Y-68649120D01*
X92779120Y-68454535D01*
X92932005Y-68225727D01*
X93037314Y-67971490D01*
X93091000Y-67701592D01*
X93091000Y-67426408D01*
X93037314Y-67156510D01*
X92932005Y-66902273D01*
X92779120Y-66673465D01*
X92584535Y-66478880D01*
X92355727Y-66325995D01*
X92278485Y-66294000D01*
X92355727Y-66262005D01*
X92584535Y-66109120D01*
X92779120Y-65914535D01*
X92822575Y-65849500D01*
X126486622Y-65849500D01*
X126523995Y-65939727D01*
X126676880Y-66168535D01*
X126871465Y-66363120D01*
X127100273Y-66516005D01*
X127354510Y-66621314D01*
X127624408Y-66675000D01*
X127899592Y-66675000D01*
X128169490Y-66621314D01*
X128423727Y-66516005D01*
X128652535Y-66363120D01*
X128847120Y-66168535D01*
X129000005Y-65939727D01*
X129105314Y-65685490D01*
X129159000Y-65415592D01*
X129159000Y-65140408D01*
X129105314Y-64870510D01*
X129000005Y-64616273D01*
X128847120Y-64387465D01*
X128652535Y-64192880D01*
X128423727Y-64039995D01*
X128346485Y-64008000D01*
X128423727Y-63976005D01*
X128652535Y-63823120D01*
X128847120Y-63628535D01*
X129000005Y-63399727D01*
X129105314Y-63145490D01*
X129159000Y-62875592D01*
X129159000Y-62600408D01*
X129105314Y-62330510D01*
X129000005Y-62076273D01*
X128847120Y-61847465D01*
X128652535Y-61652880D01*
X128423727Y-61499995D01*
X128346485Y-61468000D01*
X128423727Y-61436005D01*
X128652535Y-61283120D01*
X128847120Y-61088535D01*
X129000005Y-60859727D01*
X129105314Y-60605490D01*
X129159000Y-60335592D01*
X129159000Y-60060408D01*
X129105314Y-59790510D01*
X129000005Y-59536273D01*
X128847120Y-59307465D01*
X128652535Y-59112880D01*
X128423727Y-58959995D01*
X128169490Y-58854686D01*
X127899592Y-58801000D01*
X127624408Y-58801000D01*
X127354510Y-58854686D01*
X127100273Y-58959995D01*
X126871465Y-59112880D01*
X126676880Y-59307465D01*
X126523995Y-59536273D01*
X126418686Y-59790510D01*
X126365000Y-60060408D01*
X126365000Y-60335592D01*
X126380260Y-60412308D01*
X124880068Y-61912500D01*
X108207211Y-61912500D01*
X108245937Y-61873774D01*
X108359205Y-61704256D01*
X108437226Y-61515898D01*
X108477000Y-61315939D01*
X108477000Y-61112061D01*
X108437226Y-60912102D01*
X108359205Y-60723744D01*
X108245937Y-60554226D01*
X108101774Y-60410063D01*
X107932256Y-60296795D01*
X107743898Y-60218774D01*
X107543939Y-60179000D01*
X107340061Y-60179000D01*
X107140102Y-60218774D01*
X106951744Y-60296795D01*
X106814497Y-60388500D01*
X83777613Y-60388500D01*
X83706010Y-60316897D01*
X83474254Y-60162043D01*
X83435523Y-60146000D01*
X83474254Y-60129957D01*
X83706010Y-59975103D01*
X83903103Y-59778010D01*
X84057957Y-59546254D01*
X84164623Y-59288740D01*
X84219000Y-59015365D01*
X84219000Y-58736635D01*
X84164623Y-58463260D01*
X84057957Y-58205746D01*
X83963287Y-58064061D01*
X90405000Y-58064061D01*
X90405000Y-58267939D01*
X90444774Y-58467898D01*
X90522795Y-58656256D01*
X90636063Y-58825774D01*
X90780226Y-58969937D01*
X90949744Y-59083205D01*
X91138102Y-59161226D01*
X91338061Y-59201000D01*
X91541939Y-59201000D01*
X91741898Y-59161226D01*
X91930256Y-59083205D01*
X92067503Y-58991500D01*
X96654497Y-58991500D01*
X96791744Y-59083205D01*
X96980102Y-59161226D01*
X97180061Y-59201000D01*
X97383939Y-59201000D01*
X97583898Y-59161226D01*
X97772256Y-59083205D01*
X97941774Y-58969937D01*
X98085937Y-58825774D01*
X98199205Y-58656256D01*
X98277226Y-58467898D01*
X98317000Y-58267939D01*
X98317000Y-58064061D01*
X98277226Y-57864102D01*
X98199205Y-57675744D01*
X98085937Y-57506226D01*
X97941774Y-57362063D01*
X97772256Y-57248795D01*
X97583898Y-57170774D01*
X97383939Y-57131000D01*
X97180061Y-57131000D01*
X96980102Y-57170774D01*
X96791744Y-57248795D01*
X96654497Y-57340500D01*
X92067503Y-57340500D01*
X91930256Y-57248795D01*
X91741898Y-57170774D01*
X91541939Y-57131000D01*
X91338061Y-57131000D01*
X91138102Y-57170774D01*
X90949744Y-57248795D01*
X90780226Y-57362063D01*
X90636063Y-57506226D01*
X90522795Y-57675744D01*
X90444774Y-57864102D01*
X90405000Y-58064061D01*
X83963287Y-58064061D01*
X83903103Y-57973990D01*
X83706010Y-57776897D01*
X83474254Y-57622043D01*
X83435523Y-57606000D01*
X83474254Y-57589957D01*
X83706010Y-57435103D01*
X83903103Y-57238010D01*
X83995608Y-57099565D01*
X126976040Y-57099565D01*
X127043020Y-57339656D01*
X127292048Y-57456756D01*
X127559135Y-57523023D01*
X127834017Y-57535910D01*
X128106133Y-57494922D01*
X128365023Y-57401636D01*
X128480980Y-57339656D01*
X128547960Y-57099565D01*
X127762000Y-56313605D01*
X126976040Y-57099565D01*
X83995608Y-57099565D01*
X84057957Y-57006254D01*
X84164623Y-56748740D01*
X84219000Y-56475365D01*
X84219000Y-56196635D01*
X84164623Y-55923260D01*
X84057957Y-55665746D01*
X83903103Y-55433990D01*
X83706010Y-55236897D01*
X83474254Y-55082043D01*
X83435523Y-55066000D01*
X83474254Y-55049957D01*
X83706010Y-54895103D01*
X83772383Y-54828730D01*
X83854696Y-54911044D01*
X83880545Y-54942541D01*
X83912041Y-54968389D01*
X83912044Y-54968392D01*
X84006243Y-55045699D01*
X84097092Y-55094259D01*
X84149652Y-55122353D01*
X84305260Y-55169556D01*
X84426533Y-55181500D01*
X84426535Y-55181500D01*
X84467086Y-55185494D01*
X84507636Y-55181500D01*
X86439842Y-55181500D01*
X86380774Y-55324102D01*
X86341000Y-55524061D01*
X86341000Y-55727939D01*
X86380774Y-55927898D01*
X86458795Y-56116256D01*
X86572063Y-56285774D01*
X86716226Y-56429937D01*
X86885744Y-56543205D01*
X87074102Y-56621226D01*
X87274061Y-56661000D01*
X87477939Y-56661000D01*
X87677898Y-56621226D01*
X87781047Y-56578500D01*
X99304476Y-56578500D01*
X99337392Y-56618608D01*
X99550113Y-56793183D01*
X99792805Y-56922904D01*
X100056140Y-57002786D01*
X100261375Y-57023000D01*
X101922625Y-57023000D01*
X102127860Y-57002786D01*
X102391195Y-56922904D01*
X102633887Y-56793183D01*
X102846608Y-56618608D01*
X102879524Y-56578500D01*
X122784953Y-56578500D01*
X122888102Y-56621226D01*
X123088061Y-56661000D01*
X123291939Y-56661000D01*
X123491898Y-56621226D01*
X123680256Y-56543205D01*
X123849774Y-56429937D01*
X123993937Y-56285774D01*
X124047228Y-56206017D01*
X126360090Y-56206017D01*
X126401078Y-56478133D01*
X126494364Y-56737023D01*
X126556344Y-56852980D01*
X126796435Y-56919960D01*
X127582395Y-56134000D01*
X127941605Y-56134000D01*
X128727565Y-56919960D01*
X128967656Y-56852980D01*
X129084756Y-56603952D01*
X129151023Y-56336865D01*
X129163910Y-56061983D01*
X129122922Y-55789867D01*
X129029636Y-55530977D01*
X128967656Y-55415020D01*
X128727565Y-55348040D01*
X127941605Y-56134000D01*
X127582395Y-56134000D01*
X126796435Y-55348040D01*
X126556344Y-55415020D01*
X126439244Y-55664048D01*
X126372977Y-55931135D01*
X126360090Y-56206017D01*
X124047228Y-56206017D01*
X124107205Y-56116256D01*
X124185226Y-55927898D01*
X124225000Y-55727939D01*
X124225000Y-55524061D01*
X124185226Y-55324102D01*
X124107205Y-55135744D01*
X123993937Y-54966226D01*
X123849774Y-54822063D01*
X123680256Y-54708795D01*
X123491898Y-54630774D01*
X123291939Y-54591000D01*
X123088061Y-54591000D01*
X122921961Y-54624039D01*
X122955000Y-54457939D01*
X122955000Y-54419500D01*
X126633425Y-54419500D01*
X126676880Y-54484535D01*
X126871465Y-54679120D01*
X127100273Y-54832005D01*
X127171943Y-54861692D01*
X127158977Y-54866364D01*
X127043020Y-54928344D01*
X126976040Y-55168435D01*
X127762000Y-55954395D01*
X128547960Y-55168435D01*
X128480980Y-54928344D01*
X128345240Y-54864515D01*
X128423727Y-54832005D01*
X128652535Y-54679120D01*
X128847120Y-54484535D01*
X129000005Y-54255727D01*
X129105314Y-54001490D01*
X129159000Y-53731592D01*
X129159000Y-53456408D01*
X129105314Y-53186510D01*
X129000005Y-52932273D01*
X128847120Y-52703465D01*
X128652535Y-52508880D01*
X128423727Y-52355995D01*
X128169490Y-52250686D01*
X127899592Y-52197000D01*
X127624408Y-52197000D01*
X127354510Y-52250686D01*
X127100273Y-52355995D01*
X126871465Y-52508880D01*
X126676880Y-52703465D01*
X126633425Y-52768500D01*
X122669874Y-52768500D01*
X122432340Y-52530966D01*
X122406483Y-52499459D01*
X122280784Y-52396301D01*
X122137376Y-52319647D01*
X121981768Y-52272444D01*
X121860495Y-52260500D01*
X121860492Y-52260500D01*
X121819942Y-52256506D01*
X121779392Y-52260500D01*
X121078158Y-52260500D01*
X121137226Y-52117898D01*
X121177000Y-51917939D01*
X121177000Y-51714061D01*
X121137226Y-51514102D01*
X121059205Y-51325744D01*
X120945937Y-51156226D01*
X120801774Y-51012063D01*
X120632256Y-50898795D01*
X120443898Y-50820774D01*
X120243939Y-50781000D01*
X120040061Y-50781000D01*
X119840102Y-50820774D01*
X119651744Y-50898795D01*
X119514497Y-50990500D01*
X103179023Y-50990500D01*
X103230786Y-50819860D01*
X103257759Y-50546000D01*
X103252792Y-50495565D01*
X126976040Y-50495565D01*
X127043020Y-50735656D01*
X127292048Y-50852756D01*
X127559135Y-50919023D01*
X127834017Y-50931910D01*
X128106133Y-50890922D01*
X128365023Y-50797636D01*
X128480980Y-50735656D01*
X128547960Y-50495565D01*
X127762000Y-49709605D01*
X126976040Y-50495565D01*
X103252792Y-50495565D01*
X103230786Y-50272140D01*
X103150904Y-50008805D01*
X103021183Y-49766113D01*
X102886514Y-49602017D01*
X126360090Y-49602017D01*
X126401078Y-49874133D01*
X126494364Y-50133023D01*
X126556344Y-50248980D01*
X126796435Y-50315960D01*
X127582395Y-49530000D01*
X127941605Y-49530000D01*
X128727565Y-50315960D01*
X128967656Y-50248980D01*
X129084756Y-49999952D01*
X129151023Y-49732865D01*
X129163910Y-49457983D01*
X129122922Y-49185867D01*
X129029636Y-48926977D01*
X128967656Y-48811020D01*
X128727565Y-48744040D01*
X127941605Y-49530000D01*
X127582395Y-49530000D01*
X126796435Y-48744040D01*
X126556344Y-48811020D01*
X126439244Y-49060048D01*
X126372977Y-49327135D01*
X126360090Y-49602017D01*
X102886514Y-49602017D01*
X102846608Y-49553392D01*
X102633887Y-49378817D01*
X102391195Y-49249096D01*
X102127860Y-49169214D01*
X101922625Y-49149000D01*
X100261375Y-49149000D01*
X100056140Y-49169214D01*
X99792805Y-49249096D01*
X99550113Y-49378817D01*
X99337392Y-49553392D01*
X99162817Y-49766113D01*
X99033096Y-50008805D01*
X98953214Y-50272140D01*
X98926241Y-50546000D01*
X98953214Y-50819860D01*
X99004977Y-50990500D01*
X84809019Y-50990500D01*
X84519483Y-50700965D01*
X84493627Y-50669459D01*
X84367928Y-50566301D01*
X84224520Y-50489647D01*
X84068912Y-50442444D01*
X83954689Y-50431194D01*
X83903103Y-50353990D01*
X83706010Y-50156897D01*
X83474254Y-50002043D01*
X83435523Y-49986000D01*
X83474254Y-49969957D01*
X83657524Y-49847500D01*
X90558497Y-49847500D01*
X90695744Y-49939205D01*
X90884102Y-50017226D01*
X91084061Y-50057000D01*
X91287939Y-50057000D01*
X91487898Y-50017226D01*
X91676256Y-49939205D01*
X91845774Y-49825937D01*
X91989937Y-49681774D01*
X92103205Y-49512256D01*
X92181226Y-49323898D01*
X92221000Y-49123939D01*
X92221000Y-48920061D01*
X92181226Y-48720102D01*
X92103205Y-48531744D01*
X91989937Y-48362226D01*
X91845774Y-48218063D01*
X91676256Y-48104795D01*
X91487898Y-48026774D01*
X91287939Y-47987000D01*
X91084061Y-47987000D01*
X90884102Y-48026774D01*
X90695744Y-48104795D01*
X90558497Y-48196500D01*
X84120401Y-48196500D01*
X84057957Y-48045746D01*
X83903103Y-47813990D01*
X83706010Y-47616897D01*
X83474254Y-47462043D01*
X83435523Y-47446000D01*
X83474254Y-47429957D01*
X83706010Y-47275103D01*
X83903103Y-47078010D01*
X84030022Y-46888061D01*
X88627000Y-46888061D01*
X88627000Y-47091939D01*
X88666774Y-47291898D01*
X88744795Y-47480256D01*
X88858063Y-47649774D01*
X89002226Y-47793937D01*
X89171744Y-47907205D01*
X89360102Y-47985226D01*
X89560061Y-48025000D01*
X89763939Y-48025000D01*
X89963898Y-47985226D01*
X90152256Y-47907205D01*
X90289503Y-47815500D01*
X126633425Y-47815500D01*
X126676880Y-47880535D01*
X126871465Y-48075120D01*
X127100273Y-48228005D01*
X127171943Y-48257692D01*
X127158977Y-48262364D01*
X127043020Y-48324344D01*
X126976040Y-48564435D01*
X127762000Y-49350395D01*
X128547960Y-48564435D01*
X128480980Y-48324344D01*
X128345240Y-48260515D01*
X128423727Y-48228005D01*
X128652535Y-48075120D01*
X128847120Y-47880535D01*
X129000005Y-47651727D01*
X129105314Y-47397490D01*
X129159000Y-47127592D01*
X129159000Y-46852408D01*
X129105314Y-46582510D01*
X129000005Y-46328273D01*
X128847120Y-46099465D01*
X128652535Y-45904880D01*
X128423727Y-45751995D01*
X128169490Y-45646686D01*
X127899592Y-45593000D01*
X127624408Y-45593000D01*
X127354510Y-45646686D01*
X127100273Y-45751995D01*
X126871465Y-45904880D01*
X126676880Y-46099465D01*
X126633425Y-46164500D01*
X90289503Y-46164500D01*
X90152256Y-46072795D01*
X89963898Y-45994774D01*
X89763939Y-45955000D01*
X89560061Y-45955000D01*
X89360102Y-45994774D01*
X89171744Y-46072795D01*
X89002226Y-46186063D01*
X88858063Y-46330226D01*
X88744795Y-46499744D01*
X88666774Y-46688102D01*
X88627000Y-46888061D01*
X84030022Y-46888061D01*
X84057957Y-46846254D01*
X84164623Y-46588740D01*
X84219000Y-46315365D01*
X84219000Y-46036635D01*
X84164623Y-45763260D01*
X84057957Y-45505746D01*
X83903103Y-45273990D01*
X83706010Y-45076897D01*
X83474254Y-44922043D01*
X83435523Y-44906000D01*
X83474254Y-44889957D01*
X83706010Y-44735103D01*
X83903103Y-44538010D01*
X84057957Y-44306254D01*
X84164623Y-44048740D01*
X84219000Y-43775365D01*
X84219000Y-43496635D01*
X84164623Y-43223260D01*
X84057957Y-42965746D01*
X83903103Y-42733990D01*
X83706010Y-42536897D01*
X83702285Y-42534408D01*
X126365000Y-42534408D01*
X126365000Y-42809592D01*
X126418686Y-43079490D01*
X126523995Y-43333727D01*
X126676880Y-43562535D01*
X126871465Y-43757120D01*
X127100273Y-43910005D01*
X127354510Y-44015314D01*
X127624408Y-44069000D01*
X127899592Y-44069000D01*
X128169490Y-44015314D01*
X128423727Y-43910005D01*
X128652535Y-43757120D01*
X128847120Y-43562535D01*
X129000005Y-43333727D01*
X129105314Y-43079490D01*
X129159000Y-42809592D01*
X129159000Y-42534408D01*
X129105314Y-42264510D01*
X129000005Y-42010273D01*
X128847120Y-41781465D01*
X128652535Y-41586880D01*
X128423727Y-41433995D01*
X128352057Y-41404308D01*
X128365023Y-41399636D01*
X128480980Y-41337656D01*
X128547960Y-41097565D01*
X127762000Y-40311605D01*
X126976040Y-41097565D01*
X127043020Y-41337656D01*
X127178760Y-41401485D01*
X127100273Y-41433995D01*
X126871465Y-41586880D01*
X126676880Y-41781465D01*
X126523995Y-42010273D01*
X126418686Y-42264510D01*
X126365000Y-42534408D01*
X83702285Y-42534408D01*
X83474254Y-42382043D01*
X83435523Y-42366000D01*
X83474254Y-42349957D01*
X83706010Y-42195103D01*
X83903103Y-41998010D01*
X84057957Y-41766254D01*
X84164623Y-41508740D01*
X84219000Y-41235365D01*
X84219000Y-40956635D01*
X84164623Y-40683260D01*
X84057957Y-40425746D01*
X83903103Y-40193990D01*
X83706010Y-39996897D01*
X83474254Y-39842043D01*
X83435523Y-39826000D01*
X83474254Y-39809957D01*
X83706010Y-39655103D01*
X83903103Y-39458010D01*
X84057957Y-39226254D01*
X84164623Y-38968740D01*
X84219000Y-38695365D01*
X84219000Y-38416635D01*
X84164623Y-38143260D01*
X84057957Y-37885746D01*
X83903103Y-37653990D01*
X83706010Y-37456897D01*
X83474254Y-37302043D01*
X83435523Y-37286000D01*
X83474254Y-37269957D01*
X83706010Y-37115103D01*
X83903103Y-36918010D01*
X84057957Y-36686254D01*
X84164623Y-36428740D01*
X84219000Y-36155365D01*
X84219000Y-36003000D01*
X94003928Y-36003000D01*
X94003928Y-37753000D01*
X94033001Y-38048186D01*
X94119104Y-38332028D01*
X94258927Y-38593618D01*
X94447097Y-38822903D01*
X94676382Y-39011073D01*
X94937972Y-39150896D01*
X95221814Y-39236999D01*
X95517000Y-39266072D01*
X97267000Y-39266072D01*
X97562186Y-39236999D01*
X97846028Y-39150896D01*
X98107618Y-39011073D01*
X98336903Y-38822903D01*
X98525073Y-38593618D01*
X98664896Y-38332028D01*
X98703928Y-38203357D01*
X98703928Y-41628000D01*
X98716188Y-41752482D01*
X98752498Y-41872180D01*
X98811463Y-41982494D01*
X98890815Y-42079185D01*
X98987506Y-42158537D01*
X99097820Y-42217502D01*
X99217518Y-42253812D01*
X99342000Y-42266072D01*
X102842000Y-42266072D01*
X102966482Y-42253812D01*
X103086180Y-42217502D01*
X103196494Y-42158537D01*
X103293185Y-42079185D01*
X103372537Y-41982494D01*
X103431502Y-41872180D01*
X103467812Y-41752482D01*
X103480072Y-41628000D01*
X103480072Y-41021000D01*
X105447861Y-41021000D01*
X105504000Y-41026529D01*
X105560139Y-41021000D01*
X105560146Y-41021000D01*
X105728067Y-41004461D01*
X105943523Y-40939103D01*
X106142089Y-40832968D01*
X106316133Y-40690133D01*
X106351928Y-40646518D01*
X108000636Y-38997810D01*
X110146000Y-38997810D01*
X110146000Y-39234190D01*
X110192116Y-39466027D01*
X110282574Y-39684413D01*
X110413899Y-39880955D01*
X110581045Y-40048101D01*
X110777587Y-40179426D01*
X110995973Y-40269884D01*
X111227810Y-40316000D01*
X111464190Y-40316000D01*
X111696027Y-40269884D01*
X111914413Y-40179426D01*
X112110955Y-40048101D01*
X112278101Y-39880955D01*
X112409426Y-39684413D01*
X112499884Y-39466027D01*
X112546000Y-39234190D01*
X112546000Y-38997810D01*
X112499884Y-38765973D01*
X112410840Y-38551000D01*
X118082928Y-38551000D01*
X118082928Y-39681000D01*
X118095188Y-39805482D01*
X118131498Y-39925180D01*
X118190463Y-40035494D01*
X118269815Y-40132185D01*
X118366506Y-40211537D01*
X118476820Y-40270502D01*
X118596518Y-40306812D01*
X118721000Y-40319072D01*
X119851000Y-40319072D01*
X119975482Y-40306812D01*
X120095180Y-40270502D01*
X120205494Y-40211537D01*
X120214657Y-40204017D01*
X126360090Y-40204017D01*
X126401078Y-40476133D01*
X126494364Y-40735023D01*
X126556344Y-40850980D01*
X126796435Y-40917960D01*
X127582395Y-40132000D01*
X127941605Y-40132000D01*
X128727565Y-40917960D01*
X128967656Y-40850980D01*
X129084756Y-40601952D01*
X129151023Y-40334865D01*
X129163910Y-40059983D01*
X129122922Y-39787867D01*
X129029636Y-39528977D01*
X128967656Y-39413020D01*
X128727565Y-39346040D01*
X127941605Y-40132000D01*
X127582395Y-40132000D01*
X126796435Y-39346040D01*
X126556344Y-39413020D01*
X126439244Y-39662048D01*
X126372977Y-39929135D01*
X126360090Y-40204017D01*
X120214657Y-40204017D01*
X120302185Y-40132185D01*
X120381537Y-40035494D01*
X120440502Y-39925180D01*
X120476812Y-39805482D01*
X120489072Y-39681000D01*
X120489072Y-38551000D01*
X120476812Y-38426518D01*
X120440502Y-38306820D01*
X120412451Y-38254341D01*
X120413744Y-38255205D01*
X120602102Y-38333226D01*
X120802061Y-38373000D01*
X121005939Y-38373000D01*
X121205898Y-38333226D01*
X121394256Y-38255205D01*
X121531503Y-38163500D01*
X126486622Y-38163500D01*
X126523995Y-38253727D01*
X126676880Y-38482535D01*
X126871465Y-38677120D01*
X127100273Y-38830005D01*
X127171943Y-38859692D01*
X127158977Y-38864364D01*
X127043020Y-38926344D01*
X126976040Y-39166435D01*
X127762000Y-39952395D01*
X128547960Y-39166435D01*
X128480980Y-38926344D01*
X128345240Y-38862515D01*
X128423727Y-38830005D01*
X128652535Y-38677120D01*
X128847120Y-38482535D01*
X129000005Y-38253727D01*
X129105314Y-37999490D01*
X129159000Y-37729592D01*
X129159000Y-37454408D01*
X129105314Y-37184510D01*
X129000005Y-36930273D01*
X128847120Y-36701465D01*
X128652535Y-36506880D01*
X128423727Y-36353995D01*
X128169490Y-36248686D01*
X127899592Y-36195000D01*
X127624408Y-36195000D01*
X127354510Y-36248686D01*
X127100273Y-36353995D01*
X126871465Y-36506880D01*
X126865845Y-36512500D01*
X121531503Y-36512500D01*
X121394256Y-36420795D01*
X121205898Y-36342774D01*
X121005939Y-36303000D01*
X120802061Y-36303000D01*
X120602102Y-36342774D01*
X120472607Y-36396413D01*
X120450468Y-36262983D01*
X120367027Y-36041821D01*
X120330740Y-35973933D01*
X120110716Y-35930889D01*
X119465605Y-36576000D01*
X119479748Y-36590143D01*
X119300143Y-36769748D01*
X119286000Y-36755605D01*
X118640889Y-37400716D01*
X118683933Y-37620740D01*
X118899320Y-37718123D01*
X119129567Y-37771615D01*
X119365826Y-37779160D01*
X119599017Y-37740468D01*
X119820179Y-37657027D01*
X119888067Y-37620740D01*
X119896445Y-37577915D01*
X119908774Y-37639898D01*
X119986795Y-37828256D01*
X120070904Y-37954134D01*
X119975482Y-37925188D01*
X119851000Y-37912928D01*
X118721000Y-37912928D01*
X118596518Y-37925188D01*
X118476820Y-37961498D01*
X118366506Y-38020463D01*
X118269815Y-38099815D01*
X118190463Y-38196506D01*
X118131498Y-38306820D01*
X118095188Y-38426518D01*
X118082928Y-38551000D01*
X112410840Y-38551000D01*
X112409426Y-38547587D01*
X112278101Y-38351045D01*
X112110955Y-38183899D01*
X111914413Y-38052574D01*
X111696027Y-37962116D01*
X111464190Y-37916000D01*
X111227810Y-37916000D01*
X110995973Y-37962116D01*
X110777587Y-38052574D01*
X110581045Y-38183899D01*
X110413899Y-38351045D01*
X110282574Y-38547587D01*
X110192116Y-38765973D01*
X110146000Y-38997810D01*
X108000636Y-38997810D01*
X110172257Y-36826189D01*
X110192116Y-36926027D01*
X110282574Y-37144413D01*
X110413899Y-37340955D01*
X110581045Y-37508101D01*
X110777587Y-37639426D01*
X110995973Y-37729884D01*
X111227810Y-37776000D01*
X111464190Y-37776000D01*
X111696027Y-37729884D01*
X111914413Y-37639426D01*
X112110955Y-37508101D01*
X112278101Y-37340955D01*
X112409426Y-37144413D01*
X112499884Y-36926027D01*
X112546000Y-36694190D01*
X112546000Y-36655826D01*
X118082840Y-36655826D01*
X118121532Y-36889017D01*
X118204973Y-37110179D01*
X118241260Y-37178067D01*
X118461284Y-37221111D01*
X119106395Y-36576000D01*
X118461284Y-35930889D01*
X118241260Y-35973933D01*
X118143877Y-36189320D01*
X118090385Y-36419567D01*
X118082840Y-36655826D01*
X112546000Y-36655826D01*
X112546000Y-36457810D01*
X112499884Y-36225973D01*
X112409426Y-36007587D01*
X112278101Y-35811045D01*
X112218340Y-35751284D01*
X118640889Y-35751284D01*
X119286000Y-36396395D01*
X119931111Y-35751284D01*
X119888067Y-35531260D01*
X119840084Y-35509565D01*
X126976040Y-35509565D01*
X127043020Y-35749656D01*
X127292048Y-35866756D01*
X127559135Y-35933023D01*
X127834017Y-35945910D01*
X128106133Y-35904922D01*
X128365023Y-35811636D01*
X128480980Y-35749656D01*
X128547960Y-35509565D01*
X127762000Y-34723605D01*
X126976040Y-35509565D01*
X119840084Y-35509565D01*
X119672680Y-35433877D01*
X119442433Y-35380385D01*
X119206174Y-35372840D01*
X118972983Y-35411532D01*
X118751821Y-35494973D01*
X118683933Y-35531260D01*
X118640889Y-35751284D01*
X112218340Y-35751284D01*
X112110955Y-35643899D01*
X111914413Y-35512574D01*
X111696027Y-35422116D01*
X111596189Y-35402257D01*
X111888136Y-35110310D01*
X111914413Y-35099426D01*
X112110955Y-34968101D01*
X112278101Y-34800955D01*
X112409426Y-34604413D01*
X112499884Y-34386027D01*
X112546000Y-34154190D01*
X112546000Y-33917810D01*
X118086000Y-33917810D01*
X118086000Y-34154190D01*
X118132116Y-34386027D01*
X118222574Y-34604413D01*
X118353899Y-34800955D01*
X118521045Y-34968101D01*
X118717587Y-35099426D01*
X118935973Y-35189884D01*
X119167810Y-35236000D01*
X119404190Y-35236000D01*
X119636027Y-35189884D01*
X119854413Y-35099426D01*
X120050955Y-34968101D01*
X120218101Y-34800955D01*
X120341672Y-34616017D01*
X126360090Y-34616017D01*
X126401078Y-34888133D01*
X126494364Y-35147023D01*
X126556344Y-35262980D01*
X126796435Y-35329960D01*
X127582395Y-34544000D01*
X127941605Y-34544000D01*
X128727565Y-35329960D01*
X128967656Y-35262980D01*
X129084756Y-35013952D01*
X129151023Y-34746865D01*
X129163910Y-34471983D01*
X129122922Y-34199867D01*
X129029636Y-33940977D01*
X128967656Y-33825020D01*
X128727565Y-33758040D01*
X127941605Y-34544000D01*
X127582395Y-34544000D01*
X126796435Y-33758040D01*
X126556344Y-33825020D01*
X126439244Y-34074048D01*
X126372977Y-34341135D01*
X126360090Y-34616017D01*
X120341672Y-34616017D01*
X120349426Y-34604413D01*
X120439884Y-34386027D01*
X120486000Y-34154190D01*
X120486000Y-33917810D01*
X120439884Y-33685973D01*
X120349426Y-33467587D01*
X120218101Y-33271045D01*
X120050955Y-33103899D01*
X119854413Y-32972574D01*
X119636027Y-32882116D01*
X119404190Y-32836000D01*
X119167810Y-32836000D01*
X118935973Y-32882116D01*
X118717587Y-32972574D01*
X118521045Y-33103899D01*
X118353899Y-33271045D01*
X118222574Y-33467587D01*
X118132116Y-33685973D01*
X118086000Y-33917810D01*
X112546000Y-33917810D01*
X112499884Y-33685973D01*
X112409426Y-33467587D01*
X112278101Y-33271045D01*
X112110955Y-33103899D01*
X111914413Y-32972574D01*
X111696027Y-32882116D01*
X111464190Y-32836000D01*
X111227810Y-32836000D01*
X110995973Y-32882116D01*
X110777587Y-32972574D01*
X110581045Y-33103899D01*
X110413899Y-33271045D01*
X110282574Y-33467587D01*
X110271690Y-33493864D01*
X105030555Y-38735000D01*
X103480072Y-38735000D01*
X103480072Y-38128000D01*
X103467812Y-38003518D01*
X103431502Y-37883820D01*
X103372537Y-37773506D01*
X103293185Y-37676815D01*
X103196494Y-37597463D01*
X103086180Y-37538498D01*
X102966482Y-37502188D01*
X102842000Y-37489928D01*
X99342000Y-37489928D01*
X99217518Y-37502188D01*
X99097820Y-37538498D01*
X98987506Y-37597463D01*
X98890815Y-37676815D01*
X98811463Y-37773506D01*
X98770506Y-37850131D01*
X98780072Y-37753000D01*
X98780072Y-36003000D01*
X98750999Y-35707814D01*
X98664896Y-35423972D01*
X98640324Y-35378000D01*
X98703928Y-35378000D01*
X98716188Y-35502482D01*
X98752498Y-35622180D01*
X98811463Y-35732494D01*
X98890815Y-35829185D01*
X98987506Y-35908537D01*
X99097820Y-35967502D01*
X99217518Y-36003812D01*
X99342000Y-36016072D01*
X100806250Y-36013000D01*
X100965000Y-35854250D01*
X100965000Y-34005000D01*
X101219000Y-34005000D01*
X101219000Y-35854250D01*
X101377750Y-36013000D01*
X102842000Y-36016072D01*
X102966482Y-36003812D01*
X103086180Y-35967502D01*
X103196494Y-35908537D01*
X103293185Y-35829185D01*
X103372537Y-35732494D01*
X103431502Y-35622180D01*
X103467812Y-35502482D01*
X103480072Y-35378000D01*
X103477000Y-34163750D01*
X103318250Y-34005000D01*
X101219000Y-34005000D01*
X100965000Y-34005000D01*
X98865750Y-34005000D01*
X98707000Y-34163750D01*
X98703928Y-35378000D01*
X98640324Y-35378000D01*
X98525073Y-35162382D01*
X98336903Y-34933097D01*
X98107618Y-34744927D01*
X97846028Y-34605104D01*
X97562186Y-34519001D01*
X97267000Y-34489928D01*
X95517000Y-34489928D01*
X95221814Y-34519001D01*
X94937972Y-34605104D01*
X94676382Y-34744927D01*
X94447097Y-34933097D01*
X94258927Y-35162382D01*
X94119104Y-35423972D01*
X94033001Y-35707814D01*
X94003928Y-36003000D01*
X84219000Y-36003000D01*
X84219000Y-35876635D01*
X84164623Y-35603260D01*
X84057957Y-35345746D01*
X83903103Y-35113990D01*
X83706010Y-34916897D01*
X83474254Y-34762043D01*
X83435523Y-34746000D01*
X83474254Y-34729957D01*
X83706010Y-34575103D01*
X83903103Y-34378010D01*
X84057957Y-34146254D01*
X84164623Y-33888740D01*
X84219000Y-33615365D01*
X84219000Y-33336635D01*
X84164623Y-33063260D01*
X84057957Y-32805746D01*
X83903103Y-32573990D01*
X83707113Y-32378000D01*
X98703928Y-32378000D01*
X98707000Y-33592250D01*
X98865750Y-33751000D01*
X100965000Y-33751000D01*
X100965000Y-31901750D01*
X101219000Y-31901750D01*
X101219000Y-33751000D01*
X103318250Y-33751000D01*
X103477000Y-33592250D01*
X103480072Y-32378000D01*
X103467812Y-32253518D01*
X103431502Y-32133820D01*
X103372537Y-32023506D01*
X103293185Y-31926815D01*
X103196494Y-31847463D01*
X103086180Y-31788498D01*
X102966482Y-31752188D01*
X102842000Y-31739928D01*
X101377750Y-31743000D01*
X101219000Y-31901750D01*
X100965000Y-31901750D01*
X100806250Y-31743000D01*
X99342000Y-31739928D01*
X99217518Y-31752188D01*
X99097820Y-31788498D01*
X98987506Y-31847463D01*
X98890815Y-31926815D01*
X98811463Y-32023506D01*
X98752498Y-32133820D01*
X98716188Y-32253518D01*
X98703928Y-32378000D01*
X83707113Y-32378000D01*
X83706010Y-32376897D01*
X83474254Y-32222043D01*
X83435523Y-32206000D01*
X83474254Y-32189957D01*
X83706010Y-32035103D01*
X83903103Y-31838010D01*
X84057957Y-31606254D01*
X84152581Y-31377810D01*
X110146000Y-31377810D01*
X110146000Y-31614190D01*
X110192116Y-31846027D01*
X110282574Y-32064413D01*
X110413899Y-32260955D01*
X110581045Y-32428101D01*
X110777587Y-32559426D01*
X110995973Y-32649884D01*
X111227810Y-32696000D01*
X111464190Y-32696000D01*
X111696027Y-32649884D01*
X111914413Y-32559426D01*
X112110955Y-32428101D01*
X112218340Y-32320716D01*
X118640889Y-32320716D01*
X118683933Y-32540740D01*
X118899320Y-32638123D01*
X119129567Y-32691615D01*
X119365826Y-32699160D01*
X119599017Y-32660468D01*
X119820179Y-32577027D01*
X119888067Y-32540740D01*
X119931111Y-32320716D01*
X119286000Y-31675605D01*
X118640889Y-32320716D01*
X112218340Y-32320716D01*
X112278101Y-32260955D01*
X112409426Y-32064413D01*
X112499884Y-31846027D01*
X112546000Y-31614190D01*
X112546000Y-31575826D01*
X118082840Y-31575826D01*
X118121532Y-31809017D01*
X118204973Y-32030179D01*
X118241260Y-32098067D01*
X118461284Y-32141111D01*
X119106395Y-31496000D01*
X119465605Y-31496000D01*
X120110716Y-32141111D01*
X120330740Y-32098067D01*
X120428123Y-31882680D01*
X120431903Y-31866408D01*
X126365000Y-31866408D01*
X126365000Y-32141592D01*
X126418686Y-32411490D01*
X126523995Y-32665727D01*
X126676880Y-32894535D01*
X126871465Y-33089120D01*
X127100273Y-33242005D01*
X127171943Y-33271692D01*
X127158977Y-33276364D01*
X127043020Y-33338344D01*
X126976040Y-33578435D01*
X127762000Y-34364395D01*
X128547960Y-33578435D01*
X128480980Y-33338344D01*
X128345240Y-33274515D01*
X128423727Y-33242005D01*
X128652535Y-33089120D01*
X128847120Y-32894535D01*
X129000005Y-32665727D01*
X129105314Y-32411490D01*
X129159000Y-32141592D01*
X129159000Y-31866408D01*
X129105314Y-31596510D01*
X129000005Y-31342273D01*
X128847120Y-31113465D01*
X128652535Y-30918880D01*
X128423727Y-30765995D01*
X128169490Y-30660686D01*
X127899592Y-30607000D01*
X127624408Y-30607000D01*
X127354510Y-30660686D01*
X127100273Y-30765995D01*
X126871465Y-30918880D01*
X126676880Y-31113465D01*
X126523995Y-31342273D01*
X126418686Y-31596510D01*
X126365000Y-31866408D01*
X120431903Y-31866408D01*
X120481615Y-31652433D01*
X120489160Y-31416174D01*
X120450468Y-31182983D01*
X120367027Y-30961821D01*
X120330740Y-30893933D01*
X120110716Y-30850889D01*
X119465605Y-31496000D01*
X119106395Y-31496000D01*
X118461284Y-30850889D01*
X118241260Y-30893933D01*
X118143877Y-31109320D01*
X118090385Y-31339567D01*
X118082840Y-31575826D01*
X112546000Y-31575826D01*
X112546000Y-31377810D01*
X112499884Y-31145973D01*
X112409426Y-30927587D01*
X112278101Y-30731045D01*
X112218340Y-30671284D01*
X118640889Y-30671284D01*
X119286000Y-31316395D01*
X119931111Y-30671284D01*
X119888067Y-30451260D01*
X119672680Y-30353877D01*
X119442433Y-30300385D01*
X119206174Y-30292840D01*
X118972983Y-30331532D01*
X118751821Y-30414973D01*
X118683933Y-30451260D01*
X118640889Y-30671284D01*
X112218340Y-30671284D01*
X112110955Y-30563899D01*
X111914413Y-30432574D01*
X111696027Y-30342116D01*
X111464190Y-30296000D01*
X111227810Y-30296000D01*
X110995973Y-30342116D01*
X110777587Y-30432574D01*
X110581045Y-30563899D01*
X110413899Y-30731045D01*
X110282574Y-30927587D01*
X110192116Y-31145973D01*
X110146000Y-31377810D01*
X84152581Y-31377810D01*
X84164623Y-31348740D01*
X84219000Y-31075365D01*
X84219000Y-30796635D01*
X84164623Y-30523260D01*
X84057957Y-30265746D01*
X83903103Y-30033990D01*
X83706010Y-29836897D01*
X83474254Y-29682043D01*
X83435523Y-29666000D01*
X83474254Y-29649957D01*
X83628165Y-29547117D01*
X131107000Y-29547117D01*
X131107000Y-29888883D01*
X131173675Y-30224081D01*
X131304463Y-30539831D01*
X131494337Y-30823998D01*
X131736002Y-31065663D01*
X132020169Y-31255537D01*
X132335919Y-31386325D01*
X132671117Y-31453000D01*
X133012883Y-31453000D01*
X133348081Y-31386325D01*
X133663831Y-31255537D01*
X133947998Y-31065663D01*
X134189663Y-30823998D01*
X134379537Y-30539831D01*
X134510325Y-30224081D01*
X134577000Y-29888883D01*
X134577000Y-29547117D01*
X134510325Y-29211919D01*
X134379537Y-28896169D01*
X134189663Y-28612002D01*
X133947998Y-28370337D01*
X133663831Y-28180463D01*
X133348081Y-28049675D01*
X133012883Y-27983000D01*
X132671117Y-27983000D01*
X132335919Y-28049675D01*
X132020169Y-28180463D01*
X131736002Y-28370337D01*
X131494337Y-28612002D01*
X131304463Y-28896169D01*
X131173675Y-29211919D01*
X131107000Y-29547117D01*
X83628165Y-29547117D01*
X83706010Y-29495103D01*
X83903103Y-29298010D01*
X84057957Y-29066254D01*
X84164623Y-28808740D01*
X84219000Y-28535365D01*
X84219000Y-28256635D01*
X84164623Y-27983260D01*
X84057957Y-27725746D01*
X83903103Y-27493990D01*
X83706010Y-27296897D01*
X83474254Y-27142043D01*
X83216740Y-27035377D01*
X82943365Y-26981000D01*
X82664635Y-26981000D01*
X82391260Y-27035377D01*
X82133746Y-27142043D01*
X81901990Y-27296897D01*
X81704897Y-27493990D01*
X81550043Y-27725746D01*
X81443377Y-27983260D01*
X81389000Y-28256635D01*
X81389000Y-28535365D01*
X81443377Y-28808740D01*
X81550043Y-29066254D01*
X81704897Y-29298010D01*
X81901990Y-29495103D01*
X82133746Y-29649957D01*
X82172477Y-29666000D01*
X82133746Y-29682043D01*
X81901990Y-29836897D01*
X81704897Y-30033990D01*
X81550043Y-30265746D01*
X81443377Y-30523260D01*
X81389000Y-30796635D01*
X81389000Y-31075365D01*
X81443377Y-31348740D01*
X81550043Y-31606254D01*
X81704897Y-31838010D01*
X81901990Y-32035103D01*
X82133746Y-32189957D01*
X82172477Y-32206000D01*
X82133746Y-32222043D01*
X81901990Y-32376897D01*
X81704897Y-32573990D01*
X81550043Y-32805746D01*
X81443377Y-33063260D01*
X81389000Y-33336635D01*
X81389000Y-33615365D01*
X81443377Y-33888740D01*
X81550043Y-34146254D01*
X81704897Y-34378010D01*
X81901990Y-34575103D01*
X82133746Y-34729957D01*
X82172477Y-34746000D01*
X82133746Y-34762043D01*
X81901990Y-34916897D01*
X81704897Y-35113990D01*
X81550043Y-35345746D01*
X81443377Y-35603260D01*
X81389000Y-35876635D01*
X81389000Y-36155365D01*
X81443377Y-36428740D01*
X81550043Y-36686254D01*
X81704897Y-36918010D01*
X81901990Y-37115103D01*
X82133746Y-37269957D01*
X82172477Y-37286000D01*
X82133746Y-37302043D01*
X81901990Y-37456897D01*
X81704897Y-37653990D01*
X81550043Y-37885746D01*
X81443377Y-38143260D01*
X81389000Y-38416635D01*
X81389000Y-38695365D01*
X81443377Y-38968740D01*
X81550043Y-39226254D01*
X81704897Y-39458010D01*
X81901990Y-39655103D01*
X82133746Y-39809957D01*
X82172477Y-39826000D01*
X82133746Y-39842043D01*
X81901990Y-39996897D01*
X81704897Y-40193990D01*
X81550043Y-40425746D01*
X81443377Y-40683260D01*
X81389000Y-40956635D01*
X81389000Y-41235365D01*
X81443377Y-41508740D01*
X81550043Y-41766254D01*
X81704897Y-41998010D01*
X81901990Y-42195103D01*
X82133746Y-42349957D01*
X82172477Y-42366000D01*
X82133746Y-42382043D01*
X81901990Y-42536897D01*
X81704897Y-42733990D01*
X81550043Y-42965746D01*
X81443377Y-43223260D01*
X81389000Y-43496635D01*
X81389000Y-43775365D01*
X81406952Y-43865616D01*
X81286067Y-43986501D01*
X78973902Y-43986501D01*
X79013000Y-43789939D01*
X79013000Y-43586061D01*
X78973226Y-43386102D01*
X78895205Y-43197744D01*
X78781937Y-43028226D01*
X78637774Y-42884063D01*
X78468256Y-42770795D01*
X78279898Y-42692774D01*
X78079939Y-42653000D01*
X77876061Y-42653000D01*
X77676102Y-42692774D01*
X77487744Y-42770795D01*
X77350497Y-42862500D01*
X62144970Y-42862500D01*
X62059103Y-42733990D01*
X61862010Y-42536897D01*
X61630254Y-42382043D01*
X61591523Y-42366000D01*
X61630254Y-42349957D01*
X61862010Y-42195103D01*
X62059103Y-41998010D01*
X62075480Y-41973500D01*
X73794497Y-41973500D01*
X73931744Y-42065205D01*
X74120102Y-42143226D01*
X74320061Y-42183000D01*
X74523939Y-42183000D01*
X74723898Y-42143226D01*
X74912256Y-42065205D01*
X75081774Y-41951937D01*
X75225937Y-41807774D01*
X75339205Y-41638256D01*
X75417226Y-41449898D01*
X75457000Y-41249939D01*
X75457000Y-41046061D01*
X75417226Y-40846102D01*
X75339205Y-40657744D01*
X75225937Y-40488226D01*
X75081774Y-40344063D01*
X74912256Y-40230795D01*
X74723898Y-40152774D01*
X74523939Y-40113000D01*
X74320061Y-40113000D01*
X74120102Y-40152774D01*
X73931744Y-40230795D01*
X73794497Y-40322500D01*
X62144970Y-40322500D01*
X62059103Y-40193990D01*
X61862010Y-39996897D01*
X61630254Y-39842043D01*
X61591523Y-39826000D01*
X61630254Y-39809957D01*
X61862010Y-39655103D01*
X62059103Y-39458010D01*
X62213957Y-39226254D01*
X62320623Y-38968740D01*
X62375000Y-38695365D01*
X62375000Y-38416635D01*
X62320623Y-38143260D01*
X62213957Y-37885746D01*
X62059103Y-37653990D01*
X61862010Y-37456897D01*
X61630254Y-37302043D01*
X61591523Y-37286000D01*
X61630254Y-37269957D01*
X61862010Y-37115103D01*
X62059103Y-36918010D01*
X62213957Y-36686254D01*
X62320623Y-36428740D01*
X62375000Y-36155365D01*
X62375000Y-35876635D01*
X62320623Y-35603260D01*
X62213957Y-35345746D01*
X62059103Y-35113990D01*
X61862010Y-34916897D01*
X61630254Y-34762043D01*
X61591523Y-34746000D01*
X61630254Y-34729957D01*
X61862010Y-34575103D01*
X62059103Y-34378010D01*
X62213957Y-34146254D01*
X62320623Y-33888740D01*
X62375000Y-33615365D01*
X62375000Y-33336635D01*
X62320623Y-33063260D01*
X62213957Y-32805746D01*
X62059103Y-32573990D01*
X61862010Y-32376897D01*
X61630254Y-32222043D01*
X61591523Y-32206000D01*
X61630254Y-32189957D01*
X61862010Y-32035103D01*
X62059103Y-31838010D01*
X62213957Y-31606254D01*
X62320623Y-31348740D01*
X62375000Y-31075365D01*
X62375000Y-30796635D01*
X62320623Y-30523260D01*
X62213957Y-30265746D01*
X62059103Y-30033990D01*
X61862010Y-29836897D01*
X61630254Y-29682043D01*
X61591523Y-29666000D01*
X61630254Y-29649957D01*
X61862010Y-29495103D01*
X62059103Y-29298010D01*
X62213957Y-29066254D01*
X62320623Y-28808740D01*
X62375000Y-28535365D01*
X62375000Y-28256635D01*
X62320623Y-27983260D01*
X62213957Y-27725746D01*
X62059103Y-27493990D01*
X61862010Y-27296897D01*
X61630254Y-27142043D01*
X61372740Y-27035377D01*
X61099365Y-26981000D01*
X60820635Y-26981000D01*
X60547260Y-27035377D01*
X60289746Y-27142043D01*
X60057990Y-27296897D01*
X59860897Y-27493990D01*
X59706043Y-27725746D01*
X59599377Y-27983260D01*
X59545000Y-28256635D01*
X59545000Y-28535365D01*
X59599377Y-28808740D01*
X59706043Y-29066254D01*
X59860897Y-29298010D01*
X60057990Y-29495103D01*
X60289746Y-29649957D01*
X60328477Y-29666000D01*
X60289746Y-29682043D01*
X60057990Y-29836897D01*
X59860897Y-30033990D01*
X59706043Y-30265746D01*
X59599377Y-30523260D01*
X59545000Y-30796635D01*
X59545000Y-31075365D01*
X59599377Y-31348740D01*
X59706043Y-31606254D01*
X59860897Y-31838010D01*
X60057990Y-32035103D01*
X60289746Y-32189957D01*
X60328477Y-32206000D01*
X60289746Y-32222043D01*
X60057990Y-32376897D01*
X59860897Y-32573990D01*
X59706043Y-32805746D01*
X59599377Y-33063260D01*
X59545000Y-33336635D01*
X59545000Y-33615365D01*
X59599377Y-33888740D01*
X59706043Y-34146254D01*
X59860897Y-34378010D01*
X60057990Y-34575103D01*
X60289746Y-34729957D01*
X60328477Y-34746000D01*
X60289746Y-34762043D01*
X60057990Y-34916897D01*
X59860897Y-35113990D01*
X59706043Y-35345746D01*
X59599377Y-35603260D01*
X59545000Y-35876635D01*
X59545000Y-36155365D01*
X59599377Y-36428740D01*
X59706043Y-36686254D01*
X59860897Y-36918010D01*
X60057990Y-37115103D01*
X60289746Y-37269957D01*
X60328477Y-37286000D01*
X60289746Y-37302043D01*
X60057990Y-37456897D01*
X59860897Y-37653990D01*
X59706043Y-37885746D01*
X59599377Y-38143260D01*
X59545000Y-38416635D01*
X59545000Y-38695365D01*
X59599377Y-38968740D01*
X59706043Y-39226254D01*
X59860897Y-39458010D01*
X60057990Y-39655103D01*
X60289746Y-39809957D01*
X60328477Y-39826000D01*
X60289746Y-39842043D01*
X60057990Y-39996897D01*
X59860897Y-40193990D01*
X59706043Y-40425746D01*
X59599377Y-40683260D01*
X59545000Y-40956635D01*
X59545000Y-41235365D01*
X59599377Y-41508740D01*
X59706043Y-41766254D01*
X59860897Y-41998010D01*
X60057990Y-42195103D01*
X60289746Y-42349957D01*
X60328477Y-42366000D01*
X60289746Y-42382043D01*
X60057990Y-42536897D01*
X59860897Y-42733990D01*
X59706043Y-42965746D01*
X59599377Y-43223260D01*
X59545000Y-43496635D01*
X59545000Y-43775365D01*
X59599377Y-44048740D01*
X59706043Y-44306254D01*
X59860897Y-44538010D01*
X60057990Y-44735103D01*
X60289746Y-44889957D01*
X60328477Y-44906000D01*
X60289746Y-44922043D01*
X60057990Y-45076897D01*
X59860897Y-45273990D01*
X59706043Y-45505746D01*
X59599377Y-45763260D01*
X59545000Y-46036635D01*
X59545000Y-46315365D01*
X59599377Y-46588740D01*
X59706043Y-46846254D01*
X59860897Y-47078010D01*
X60057990Y-47275103D01*
X60289746Y-47429957D01*
X60328477Y-47446000D01*
X60289746Y-47462043D01*
X60057990Y-47616897D01*
X59860897Y-47813990D01*
X59706043Y-48045746D01*
X59599377Y-48303260D01*
X59545000Y-48576635D01*
X59545000Y-48855365D01*
X59599377Y-49128740D01*
X59706043Y-49386254D01*
X59860897Y-49618010D01*
X60057990Y-49815103D01*
X60289746Y-49969957D01*
X60328477Y-49986000D01*
X60289746Y-50002043D01*
X60057990Y-50156897D01*
X59860897Y-50353990D01*
X59706043Y-50585746D01*
X59599377Y-50843260D01*
X59545000Y-51116635D01*
X59545000Y-51395365D01*
X59599377Y-51668740D01*
X59706043Y-51926254D01*
X59860897Y-52158010D01*
X60057990Y-52355103D01*
X60289746Y-52509957D01*
X60328477Y-52526000D01*
X60289746Y-52542043D01*
X60057990Y-52696897D01*
X59860897Y-52893990D01*
X59706043Y-53125746D01*
X59599377Y-53383260D01*
X59545000Y-53656635D01*
X59545000Y-53935365D01*
X59599377Y-54208740D01*
X59706043Y-54466254D01*
X59860897Y-54698010D01*
X60057990Y-54895103D01*
X60289746Y-55049957D01*
X60328477Y-55066000D01*
X60289746Y-55082043D01*
X60057990Y-55236897D01*
X59860897Y-55433990D01*
X59706043Y-55665746D01*
X59599377Y-55923260D01*
X59545000Y-56196635D01*
X59545000Y-56475365D01*
X59599377Y-56748740D01*
X59706043Y-57006254D01*
X59860897Y-57238010D01*
X60057990Y-57435103D01*
X60289746Y-57589957D01*
X60325525Y-57604777D01*
X60230345Y-57655651D01*
X60161184Y-57897579D01*
X60960000Y-58696395D01*
X61758816Y-57897579D01*
X61689655Y-57655651D01*
X61587721Y-57607575D01*
X61630254Y-57589957D01*
X61862010Y-57435103D01*
X62059103Y-57238010D01*
X62075480Y-57213500D01*
X72524497Y-57213500D01*
X72661744Y-57305205D01*
X72850102Y-57383226D01*
X73050061Y-57423000D01*
X73253939Y-57423000D01*
X73453898Y-57383226D01*
X73642256Y-57305205D01*
X73811774Y-57191937D01*
X73955937Y-57047774D01*
X74069205Y-56878256D01*
X74147226Y-56689898D01*
X74187000Y-56489939D01*
X74187000Y-56286061D01*
X74147226Y-56086102D01*
X74069205Y-55897744D01*
X73955937Y-55728226D01*
X73917211Y-55689500D01*
X76842497Y-55689500D01*
X76979744Y-55781205D01*
X77168102Y-55859226D01*
X77368061Y-55899000D01*
X77571939Y-55899000D01*
X77771898Y-55859226D01*
X77960256Y-55781205D01*
X78129774Y-55667937D01*
X78273937Y-55523774D01*
X78387205Y-55354256D01*
X78465226Y-55165898D01*
X78505000Y-54965939D01*
X78505000Y-54762061D01*
X78465226Y-54562102D01*
X78387205Y-54373744D01*
X78273937Y-54204226D01*
X78129774Y-54060063D01*
X77960256Y-53946795D01*
X77771898Y-53868774D01*
X77571939Y-53829000D01*
X77368061Y-53829000D01*
X77168102Y-53868774D01*
X76979744Y-53946795D01*
X76842497Y-54038500D01*
X67207047Y-54038500D01*
X67292256Y-54003205D01*
X67461774Y-53889937D01*
X67605937Y-53745774D01*
X67719205Y-53576256D01*
X67797226Y-53387898D01*
X67837000Y-53187939D01*
X67837000Y-52984061D01*
X67797226Y-52784102D01*
X67719205Y-52595744D01*
X67605937Y-52426226D01*
X67461774Y-52282063D01*
X67292256Y-52168795D01*
X67103898Y-52090774D01*
X66937668Y-52057709D01*
X66862843Y-51996302D01*
X66719435Y-51919648D01*
X66563827Y-51872445D01*
X66442554Y-51860501D01*
X66442551Y-51860501D01*
X66402001Y-51856507D01*
X66361451Y-51860501D01*
X62731934Y-51860501D01*
X62357048Y-51485616D01*
X62375000Y-51395365D01*
X62375000Y-51298433D01*
X62431606Y-51355039D01*
X62457459Y-51386541D01*
X62521596Y-51439177D01*
X62583157Y-51489699D01*
X62628812Y-51514102D01*
X62726566Y-51566353D01*
X62882174Y-51613556D01*
X63003447Y-51625500D01*
X63003449Y-51625500D01*
X63043999Y-51629494D01*
X63084550Y-51625500D01*
X64396497Y-51625500D01*
X64533744Y-51717205D01*
X64722102Y-51795226D01*
X64922061Y-51835000D01*
X65125939Y-51835000D01*
X65325898Y-51795226D01*
X65514256Y-51717205D01*
X65683774Y-51603937D01*
X65827937Y-51459774D01*
X65941205Y-51290256D01*
X66019226Y-51101898D01*
X66059000Y-50901939D01*
X66059000Y-50698061D01*
X66019226Y-50498102D01*
X65941205Y-50309744D01*
X65827937Y-50140226D01*
X65683774Y-49996063D01*
X65514256Y-49882795D01*
X65325898Y-49804774D01*
X65125939Y-49765000D01*
X64922061Y-49765000D01*
X64722102Y-49804774D01*
X64533744Y-49882795D01*
X64396497Y-49974500D01*
X63385933Y-49974500D01*
X62357048Y-48945616D01*
X62375000Y-48855365D01*
X62375000Y-48576635D01*
X62320623Y-48303260D01*
X62213957Y-48045746D01*
X62059103Y-47813990D01*
X61862010Y-47616897D01*
X61630254Y-47462043D01*
X61591523Y-47446000D01*
X61630254Y-47429957D01*
X61862010Y-47275103D01*
X62059103Y-47078010D01*
X62213957Y-46846254D01*
X62320623Y-46588740D01*
X62375000Y-46315365D01*
X62375000Y-46036635D01*
X62320623Y-45763260D01*
X62213957Y-45505746D01*
X62059103Y-45273990D01*
X61862010Y-45076897D01*
X61630254Y-44922043D01*
X61591523Y-44906000D01*
X61630254Y-44889957D01*
X61862010Y-44735103D01*
X62059103Y-44538010D01*
X62075480Y-44513500D01*
X75942789Y-44513500D01*
X75904063Y-44552226D01*
X75790795Y-44721744D01*
X75712774Y-44910102D01*
X75673000Y-45110061D01*
X75673000Y-45313939D01*
X75712774Y-45513898D01*
X75790795Y-45702256D01*
X75904063Y-45871774D01*
X76048226Y-46015937D01*
X76217744Y-46129205D01*
X76406102Y-46207226D01*
X76606061Y-46247000D01*
X76809939Y-46247000D01*
X76943000Y-46220533D01*
X76943000Y-46329939D01*
X76982774Y-46529898D01*
X77060795Y-46718256D01*
X77174063Y-46887774D01*
X77318226Y-47031937D01*
X77487744Y-47145205D01*
X77676102Y-47223226D01*
X77876061Y-47263000D01*
X78079939Y-47263000D01*
X78279898Y-47223226D01*
X78468256Y-47145205D01*
X78637774Y-47031937D01*
X78668211Y-47001500D01*
X81653775Y-47001500D01*
X81704897Y-47078010D01*
X81901990Y-47275103D01*
X82133746Y-47429957D01*
X82172477Y-47446000D01*
X82133746Y-47462043D01*
X81901990Y-47616897D01*
X81704897Y-47813990D01*
X81550043Y-48045746D01*
X81443377Y-48303260D01*
X81389000Y-48576635D01*
X81389000Y-48855365D01*
X81443377Y-49128740D01*
X81550043Y-49386254D01*
X81704897Y-49618010D01*
X81901990Y-49815103D01*
X82133746Y-49969957D01*
X82172477Y-49986000D01*
X82133746Y-50002043D01*
X81901990Y-50156897D01*
X81704897Y-50353990D01*
X81550043Y-50585746D01*
X81443377Y-50843260D01*
X81389000Y-51116635D01*
X81389000Y-51395365D01*
X81443377Y-51668740D01*
X81550043Y-51926254D01*
X81704897Y-52158010D01*
X81901990Y-52355103D01*
X82133746Y-52509957D01*
X82172477Y-52526000D01*
X82133746Y-52542043D01*
X81901990Y-52696897D01*
X81704897Y-52893990D01*
X81550043Y-53125746D01*
X81443377Y-53383260D01*
X81389000Y-53656635D01*
X81389000Y-53935365D01*
X81443377Y-54208740D01*
X81550043Y-54466254D01*
X81704897Y-54698010D01*
X81901990Y-54895103D01*
X82133746Y-55049957D01*
X82172477Y-55066000D01*
X82133746Y-55082043D01*
X81901990Y-55236897D01*
X81704897Y-55433990D01*
X81550043Y-55665746D01*
X81443377Y-55923260D01*
X81389000Y-56196635D01*
X81389000Y-56475365D01*
X81443377Y-56748740D01*
X81550043Y-57006254D01*
X81704897Y-57238010D01*
X81901990Y-57435103D01*
X82133746Y-57589957D01*
X82172477Y-57606000D01*
X82133746Y-57622043D01*
X81901990Y-57776897D01*
X81704897Y-57973990D01*
X81550043Y-58205746D01*
X81443377Y-58463260D01*
X81389000Y-58736635D01*
X81389000Y-59015365D01*
X81406952Y-59105616D01*
X81394068Y-59118500D01*
X71747503Y-59118500D01*
X71610256Y-59026795D01*
X71421898Y-58948774D01*
X71221939Y-58909000D01*
X71018061Y-58909000D01*
X70818102Y-58948774D01*
X70629744Y-59026795D01*
X70460226Y-59140063D01*
X70316063Y-59284226D01*
X70202795Y-59453744D01*
X70124774Y-59642102D01*
X70085000Y-59842061D01*
X70085000Y-60045939D01*
X70124774Y-60245898D01*
X70202795Y-60434256D01*
X70316063Y-60603774D01*
X70460226Y-60747937D01*
X70629744Y-60861205D01*
X70818102Y-60939226D01*
X71018061Y-60979000D01*
X71221939Y-60979000D01*
X71421898Y-60939226D01*
X71610256Y-60861205D01*
X71747503Y-60769500D01*
X81540204Y-60769500D01*
X81443377Y-61003260D01*
X81389000Y-61276635D01*
X81389000Y-61555365D01*
X81443377Y-61828740D01*
X81478072Y-61912500D01*
X68953503Y-61912500D01*
X68816256Y-61820795D01*
X68627898Y-61742774D01*
X68427939Y-61703000D01*
X68224061Y-61703000D01*
X68024102Y-61742774D01*
X67835744Y-61820795D01*
X67666226Y-61934063D01*
X67522063Y-62078226D01*
X67408795Y-62247744D01*
X67330774Y-62436102D01*
X67291000Y-62636061D01*
X67291000Y-62839939D01*
X67330774Y-63039898D01*
X67408795Y-63228256D01*
X67522063Y-63397774D01*
X67666226Y-63541937D01*
X67835744Y-63655205D01*
X68024102Y-63733226D01*
X68224061Y-63773000D01*
X68427939Y-63773000D01*
X68627898Y-63733226D01*
X68816256Y-63655205D01*
X68953503Y-63563500D01*
X81439351Y-63563500D01*
X81389000Y-63816635D01*
X81389000Y-64095365D01*
X81443377Y-64368740D01*
X81550043Y-64626254D01*
X81704897Y-64858010D01*
X81901990Y-65055103D01*
X82133746Y-65209957D01*
X82172477Y-65226000D01*
X82133746Y-65242043D01*
X81901990Y-65396897D01*
X81704897Y-65593990D01*
X81550043Y-65825746D01*
X81443377Y-66083260D01*
X81389000Y-66356635D01*
X81389000Y-66635365D01*
X81443377Y-66908740D01*
X81478072Y-66992500D01*
X62285928Y-66992500D01*
X62320623Y-66908740D01*
X62375000Y-66635365D01*
X62375000Y-66356635D01*
X62320623Y-66083260D01*
X62213957Y-65825746D01*
X62059103Y-65593990D01*
X61862010Y-65396897D01*
X61630254Y-65242043D01*
X61591523Y-65226000D01*
X61630254Y-65209957D01*
X61862010Y-65055103D01*
X62059103Y-64858010D01*
X62213957Y-64626254D01*
X62320623Y-64368740D01*
X62375000Y-64095365D01*
X62375000Y-63816635D01*
X62320623Y-63543260D01*
X62213957Y-63285746D01*
X62059103Y-63053990D01*
X61862010Y-62856897D01*
X61630254Y-62702043D01*
X61591523Y-62686000D01*
X61630254Y-62669957D01*
X61862010Y-62515103D01*
X62059103Y-62318010D01*
X62213957Y-62086254D01*
X62320623Y-61828740D01*
X62375000Y-61555365D01*
X62375000Y-61276635D01*
X62320623Y-61003260D01*
X62213957Y-60745746D01*
X62059103Y-60513990D01*
X61862010Y-60316897D01*
X61630254Y-60162043D01*
X61594475Y-60147223D01*
X61689655Y-60096349D01*
X61758816Y-59854421D01*
X60960000Y-59055605D01*
X60161184Y-59854421D01*
X60230345Y-60096349D01*
X60332279Y-60144425D01*
X60289746Y-60162043D01*
X60057990Y-60316897D01*
X59860897Y-60513990D01*
X59706043Y-60745746D01*
X59599377Y-61003260D01*
X59545000Y-61276635D01*
X59545000Y-61555365D01*
X59599377Y-61828740D01*
X59706043Y-62086254D01*
X59860897Y-62318010D01*
X60057990Y-62515103D01*
X60289746Y-62669957D01*
X60328477Y-62686000D01*
X60289746Y-62702043D01*
X60057990Y-62856897D01*
X59860897Y-63053990D01*
X59706043Y-63285746D01*
X59599377Y-63543260D01*
X59545000Y-63816635D01*
X59545000Y-64095365D01*
X59599377Y-64368740D01*
X59706043Y-64626254D01*
X59860897Y-64858010D01*
X60057990Y-65055103D01*
X60289746Y-65209957D01*
X60328477Y-65226000D01*
X60289746Y-65242043D01*
X60057990Y-65396897D01*
X59860897Y-65593990D01*
X59706043Y-65825746D01*
X59599377Y-66083260D01*
X59545000Y-66356635D01*
X59545000Y-66635365D01*
X59599377Y-66908740D01*
X59634072Y-66992500D01*
X55491503Y-66992500D01*
X55354256Y-66900795D01*
X55165898Y-66822774D01*
X54965939Y-66783000D01*
X54762061Y-66783000D01*
X54562102Y-66822774D01*
X54373744Y-66900795D01*
X54204226Y-67014063D01*
X54060063Y-67158226D01*
X53946795Y-67327744D01*
X53868774Y-67516102D01*
X53829000Y-67716061D01*
X48920000Y-67716061D01*
X48920000Y-58947303D01*
X59539943Y-58947303D01*
X59581140Y-59222972D01*
X59675325Y-59485308D01*
X59739651Y-59605655D01*
X59981579Y-59674816D01*
X60780395Y-58876000D01*
X61139605Y-58876000D01*
X61938421Y-59674816D01*
X62180349Y-59605655D01*
X62299248Y-59353557D01*
X62366681Y-59083106D01*
X62380057Y-58804697D01*
X62338860Y-58529028D01*
X62244675Y-58266692D01*
X62180349Y-58146345D01*
X61938421Y-58077184D01*
X61139605Y-58876000D01*
X60780395Y-58876000D01*
X59981579Y-58077184D01*
X59739651Y-58146345D01*
X59620752Y-58398443D01*
X59553319Y-58668894D01*
X59539943Y-58947303D01*
X48920000Y-58947303D01*
X48920000Y-29547117D01*
X50843000Y-29547117D01*
X50843000Y-29888883D01*
X50909675Y-30224081D01*
X51040463Y-30539831D01*
X51230337Y-30823998D01*
X51472002Y-31065663D01*
X51756169Y-31255537D01*
X52071919Y-31386325D01*
X52407117Y-31453000D01*
X52748883Y-31453000D01*
X53084081Y-31386325D01*
X53399831Y-31255537D01*
X53683998Y-31065663D01*
X53925663Y-30823998D01*
X54115537Y-30539831D01*
X54246325Y-30224081D01*
X54313000Y-29888883D01*
X54313000Y-29547117D01*
X54246325Y-29211919D01*
X54115537Y-28896169D01*
X53925663Y-28612002D01*
X53683998Y-28370337D01*
X53399831Y-28180463D01*
X53084081Y-28049675D01*
X52748883Y-27983000D01*
X52407117Y-27983000D01*
X52071919Y-28049675D01*
X51756169Y-28180463D01*
X51472002Y-28370337D01*
X51230337Y-28612002D01*
X51040463Y-28896169D01*
X50909675Y-29211919D01*
X50843000Y-29547117D01*
X48920000Y-29547117D01*
X48920000Y-27972279D01*
X48958909Y-27575455D01*
X49064780Y-27224792D01*
X49236744Y-26901375D01*
X49468254Y-26617516D01*
X49750486Y-26384035D01*
X50072695Y-26209817D01*
X50422614Y-26101498D01*
X50817443Y-26060000D01*
X134587721Y-26060000D01*
X134984545Y-26098909D01*
X134984545Y-26098909D01*
G37*
X134984545Y-26098909D02*
X135335208Y-26204780D01*
X135658625Y-26376744D01*
X135942484Y-26608254D01*
X136175965Y-26890486D01*
X136350183Y-27212695D01*
X136458502Y-27562614D01*
X136500001Y-27957452D01*
X136500000Y-99027721D01*
X136461091Y-99424545D01*
X136355220Y-99775206D01*
X136183257Y-100098623D01*
X135951748Y-100382482D01*
X135669514Y-100615965D01*
X135347304Y-100790184D01*
X134997385Y-100898502D01*
X134602557Y-100940000D01*
X50832279Y-100940000D01*
X50435455Y-100901091D01*
X50084794Y-100795220D01*
X49761377Y-100623257D01*
X49477518Y-100391748D01*
X49244035Y-100109514D01*
X49069816Y-99787304D01*
X48961498Y-99437385D01*
X48920000Y-99042557D01*
X48920000Y-97619117D01*
X50335000Y-97619117D01*
X50335000Y-97960883D01*
X50401675Y-98296081D01*
X50532463Y-98611831D01*
X50722337Y-98895998D01*
X50964002Y-99137663D01*
X51248169Y-99327537D01*
X51563919Y-99458325D01*
X51899117Y-99525000D01*
X52240883Y-99525000D01*
X52576081Y-99458325D01*
X52891831Y-99327537D01*
X53175998Y-99137663D01*
X53417663Y-98895998D01*
X53607537Y-98611831D01*
X53738325Y-98296081D01*
X53805000Y-97960883D01*
X53805000Y-97619117D01*
X53738325Y-97283919D01*
X53666749Y-97111117D01*
X131107000Y-97111117D01*
X131107000Y-97452883D01*
X131173675Y-97788081D01*
X131304463Y-98103831D01*
X131494337Y-98387998D01*
X131736002Y-98629663D01*
X132020169Y-98819537D01*
X132335919Y-98950325D01*
X132671117Y-99017000D01*
X133012883Y-99017000D01*
X133348081Y-98950325D01*
X133663831Y-98819537D01*
X133947998Y-98629663D01*
X134189663Y-98387998D01*
X134379537Y-98103831D01*
X134510325Y-97788081D01*
X134577000Y-97452883D01*
X134577000Y-97111117D01*
X134510325Y-96775919D01*
X134379537Y-96460169D01*
X134189663Y-96176002D01*
X133947998Y-95934337D01*
X133663831Y-95744463D01*
X133348081Y-95613675D01*
X133012883Y-95547000D01*
X132671117Y-95547000D01*
X132335919Y-95613675D01*
X132020169Y-95744463D01*
X131736002Y-95934337D01*
X131494337Y-96176002D01*
X131304463Y-96460169D01*
X131173675Y-96775919D01*
X131107000Y-97111117D01*
X53666749Y-97111117D01*
X53607537Y-96968169D01*
X53417663Y-96684002D01*
X53175998Y-96442337D01*
X52891831Y-96252463D01*
X52576081Y-96121675D01*
X52240883Y-96055000D01*
X51899117Y-96055000D01*
X51563919Y-96121675D01*
X51248169Y-96252463D01*
X50964002Y-96442337D01*
X50722337Y-96684002D01*
X50532463Y-96968169D01*
X50401675Y-97283919D01*
X50335000Y-97619117D01*
X48920000Y-97619117D01*
X48920000Y-94386061D01*
X57131000Y-94386061D01*
X57131000Y-94589939D01*
X57170774Y-94789898D01*
X57248795Y-94978256D01*
X57362063Y-95147774D01*
X57506226Y-95291937D01*
X57675744Y-95405205D01*
X57864102Y-95483226D01*
X58064061Y-95523000D01*
X58267939Y-95523000D01*
X58467898Y-95483226D01*
X58656256Y-95405205D01*
X58793503Y-95313500D01*
X60931384Y-95313500D01*
X60978915Y-95428250D01*
X61196149Y-95753364D01*
X61472636Y-96029851D01*
X61797750Y-96247085D01*
X62158997Y-96396718D01*
X62542495Y-96473000D01*
X62933505Y-96473000D01*
X63317003Y-96396718D01*
X63678250Y-96247085D01*
X64003364Y-96029851D01*
X64279851Y-95753364D01*
X64497085Y-95428250D01*
X64646718Y-95067003D01*
X64723000Y-94683505D01*
X64723000Y-94292495D01*
X64817000Y-94292495D01*
X64817000Y-94683505D01*
X64893282Y-95067003D01*
X65042915Y-95428250D01*
X65260149Y-95753364D01*
X65536636Y-96029851D01*
X65861750Y-96247085D01*
X66222997Y-96396718D01*
X66606495Y-96473000D01*
X66997505Y-96473000D01*
X67381003Y-96396718D01*
X67742250Y-96247085D01*
X68067364Y-96029851D01*
X68343851Y-95753364D01*
X68561085Y-95428250D01*
X68710718Y-95067003D01*
X68787000Y-94683505D01*
X68787000Y-94292495D01*
X69153000Y-94292495D01*
X69153000Y-94683505D01*
X69229282Y-95067003D01*
X69378915Y-95428250D01*
X69596149Y-95753364D01*
X69872636Y-96029851D01*
X70197750Y-96247085D01*
X70558997Y-96396718D01*
X70942495Y-96473000D01*
X71333505Y-96473000D01*
X71717003Y-96396718D01*
X72078250Y-96247085D01*
X72403364Y-96029851D01*
X72679851Y-95753364D01*
X72897085Y-95428250D01*
X73046718Y-95067003D01*
X73123000Y-94683505D01*
X73123000Y-94292495D01*
X73353000Y-94292495D01*
X73353000Y-94683505D01*
X73429282Y-95067003D01*
X73578915Y-95428250D01*
X73796149Y-95753364D01*
X74072636Y-96029851D01*
X74397750Y-96247085D01*
X74758997Y-96396718D01*
X75142495Y-96473000D01*
X75533505Y-96473000D01*
X75917003Y-96396718D01*
X76278250Y-96247085D01*
X76603364Y-96029851D01*
X76879851Y-95753364D01*
X77097085Y-95428250D01*
X77246718Y-95067003D01*
X77323000Y-94683505D01*
X77323000Y-94292495D01*
X77553000Y-94292495D01*
X77553000Y-94683505D01*
X77629282Y-95067003D01*
X77778915Y-95428250D01*
X77996149Y-95753364D01*
X78272636Y-96029851D01*
X78597750Y-96247085D01*
X78958997Y-96396718D01*
X79342495Y-96473000D01*
X79733505Y-96473000D01*
X80117003Y-96396718D01*
X80478250Y-96247085D01*
X80803364Y-96029851D01*
X81079851Y-95753364D01*
X81297085Y-95428250D01*
X81446718Y-95067003D01*
X81523000Y-94683505D01*
X81523000Y-94292495D01*
X81753000Y-94292495D01*
X81753000Y-94683505D01*
X81829282Y-95067003D01*
X81978915Y-95428250D01*
X82196149Y-95753364D01*
X82472636Y-96029851D01*
X82797750Y-96247085D01*
X83158997Y-96396718D01*
X83542495Y-96473000D01*
X83933505Y-96473000D01*
X84317003Y-96396718D01*
X84678250Y-96247085D01*
X85003364Y-96029851D01*
X85279851Y-95753364D01*
X85497085Y-95428250D01*
X85646718Y-95067003D01*
X85723000Y-94683505D01*
X85723000Y-94292495D01*
X85953000Y-94292495D01*
X85953000Y-94683505D01*
X86029282Y-95067003D01*
X86178915Y-95428250D01*
X86396149Y-95753364D01*
X86672636Y-96029851D01*
X86997750Y-96247085D01*
X87358997Y-96396718D01*
X87742495Y-96473000D01*
X88133505Y-96473000D01*
X88517003Y-96396718D01*
X88878250Y-96247085D01*
X89203364Y-96029851D01*
X89360377Y-95872838D01*
X90932767Y-95872838D01*
X91070724Y-96173044D01*
X91419967Y-96348882D01*
X91796804Y-96453207D01*
X92186753Y-96482009D01*
X92574828Y-96434184D01*
X92946116Y-96311568D01*
X93205276Y-96173044D01*
X93343233Y-95872838D01*
X92138000Y-94667605D01*
X90932767Y-95872838D01*
X89360377Y-95872838D01*
X89479851Y-95753364D01*
X89697085Y-95428250D01*
X89846718Y-95067003D01*
X89923000Y-94683505D01*
X89923000Y-94536753D01*
X90143991Y-94536753D01*
X90191816Y-94924828D01*
X90314432Y-95296116D01*
X90452956Y-95555276D01*
X90753162Y-95693233D01*
X91958395Y-94488000D01*
X92317605Y-94488000D01*
X93522838Y-95693233D01*
X93823044Y-95555276D01*
X93998882Y-95206033D01*
X94103207Y-94829196D01*
X94132009Y-94439247D01*
X94084184Y-94051172D01*
X93961568Y-93679884D01*
X93823044Y-93420724D01*
X93522838Y-93282767D01*
X92317605Y-94488000D01*
X91958395Y-94488000D01*
X90753162Y-93282767D01*
X90452956Y-93420724D01*
X90277118Y-93769967D01*
X90172793Y-94146804D01*
X90143991Y-94536753D01*
X89923000Y-94536753D01*
X89923000Y-94292495D01*
X89846718Y-93908997D01*
X89697085Y-93547750D01*
X89479851Y-93222636D01*
X89360377Y-93103162D01*
X90932767Y-93103162D01*
X92138000Y-94308395D01*
X93343233Y-93103162D01*
X93205276Y-92802956D01*
X92856033Y-92627118D01*
X92479196Y-92522793D01*
X92089247Y-92493991D01*
X91701172Y-92541816D01*
X91329884Y-92664432D01*
X91070724Y-92802956D01*
X90932767Y-93103162D01*
X89360377Y-93103162D01*
X89203364Y-92946149D01*
X88878250Y-92728915D01*
X88517003Y-92579282D01*
X88133505Y-92503000D01*
X87742495Y-92503000D01*
X87358997Y-92579282D01*
X86997750Y-92728915D01*
X86672636Y-92946149D01*
X86396149Y-93222636D01*
X86178915Y-93547750D01*
X86029282Y-93908997D01*
X85953000Y-94292495D01*
X85723000Y-94292495D01*
X85646718Y-93908997D01*
X85497085Y-93547750D01*
X85279851Y-93222636D01*
X85003364Y-92946149D01*
X84678250Y-92728915D01*
X84317003Y-92579282D01*
X83933505Y-92503000D01*
X83542495Y-92503000D01*
X83158997Y-92579282D01*
X82797750Y-92728915D01*
X82472636Y-92946149D01*
X82196149Y-93222636D01*
X81978915Y-93547750D01*
X81829282Y-93908997D01*
X81753000Y-94292495D01*
X81523000Y-94292495D01*
X81446718Y-93908997D01*
X81297085Y-93547750D01*
X81079851Y-93222636D01*
X80803364Y-92946149D01*
X80478250Y-92728915D01*
X80117003Y-92579282D01*
X79733505Y-92503000D01*
X79342495Y-92503000D01*
X78958997Y-92579282D01*
X78597750Y-92728915D01*
X78272636Y-92946149D01*
X77996149Y-93222636D01*
X77778915Y-93547750D01*
X77629282Y-93908997D01*
X77553000Y-94292495D01*
X77323000Y-94292495D01*
X77246718Y-93908997D01*
X77097085Y-93547750D01*
X76879851Y-93222636D01*
X76603364Y-92946149D01*
X76278250Y-92728915D01*
X75917003Y-92579282D01*
X75533505Y-92503000D01*
X75142495Y-92503000D01*
X74758997Y-92579282D01*
X74397750Y-92728915D01*
X74072636Y-92946149D01*
X73796149Y-93222636D01*
X73578915Y-93547750D01*
X73429282Y-93908997D01*
X73353000Y-94292495D01*
X73123000Y-94292495D01*
X73046718Y-93908997D01*
X72897085Y-93547750D01*
X72679851Y-93222636D01*
X72403364Y-92946149D01*
X72078250Y-92728915D01*
X71717003Y-92579282D01*
X71333505Y-92503000D01*
X70942495Y-92503000D01*
X70558997Y-92579282D01*
X70197750Y-92728915D01*
X69872636Y-92946149D01*
X69596149Y-93222636D01*
X69378915Y-93547750D01*
X69229282Y-93908997D01*
X69153000Y-94292495D01*
X68787000Y-94292495D01*
X68710718Y-93908997D01*
X68561085Y-93547750D01*
X68343851Y-93222636D01*
X68067364Y-92946149D01*
X67742250Y-92728915D01*
X67381003Y-92579282D01*
X66997505Y-92503000D01*
X66606495Y-92503000D01*
X66222997Y-92579282D01*
X65861750Y-92728915D01*
X65536636Y-92946149D01*
X65260149Y-93222636D01*
X65042915Y-93547750D01*
X64893282Y-93908997D01*
X64817000Y-94292495D01*
X64723000Y-94292495D01*
X64646718Y-93908997D01*
X64497085Y-93547750D01*
X64279851Y-93222636D01*
X64003364Y-92946149D01*
X63678250Y-92728915D01*
X63317003Y-92579282D01*
X62933505Y-92503000D01*
X62542495Y-92503000D01*
X62158997Y-92579282D01*
X61797750Y-92728915D01*
X61472636Y-92946149D01*
X61196149Y-93222636D01*
X60978915Y-93547750D01*
X60931384Y-93662500D01*
X58793503Y-93662500D01*
X58656256Y-93570795D01*
X58467898Y-93492774D01*
X58267939Y-93453000D01*
X58064061Y-93453000D01*
X57864102Y-93492774D01*
X57675744Y-93570795D01*
X57506226Y-93684063D01*
X57362063Y-93828226D01*
X57248795Y-93997744D01*
X57170774Y-94186102D01*
X57131000Y-94386061D01*
X48920000Y-94386061D01*
X48920000Y-88772495D01*
X60753000Y-88772495D01*
X60753000Y-89163505D01*
X60829282Y-89547003D01*
X60978915Y-89908250D01*
X61196149Y-90233364D01*
X61472636Y-90509851D01*
X61797750Y-90727085D01*
X62158997Y-90876718D01*
X62542495Y-90953000D01*
X62933505Y-90953000D01*
X63317003Y-90876718D01*
X63678250Y-90727085D01*
X64003364Y-90509851D01*
X64279851Y-90233364D01*
X64497085Y-89908250D01*
X64646718Y-89547003D01*
X64723000Y-89163505D01*
X64723000Y-88772495D01*
X64953000Y-88772495D01*
X64953000Y-89163505D01*
X65029282Y-89547003D01*
X65178915Y-89908250D01*
X65396149Y-90233364D01*
X65672636Y-90509851D01*
X65997750Y-90727085D01*
X66358997Y-90876718D01*
X66742495Y-90953000D01*
X67133505Y-90953000D01*
X67517003Y-90876718D01*
X67878250Y-90727085D01*
X68203364Y-90509851D01*
X68479851Y-90233364D01*
X68697085Y-89908250D01*
X68846718Y-89547003D01*
X68923000Y-89163505D01*
X68923000Y-88772495D01*
X69153000Y-88772495D01*
X69153000Y-89163505D01*
X69229282Y-89547003D01*
X69378915Y-89908250D01*
X69596149Y-90233364D01*
X69872636Y-90509851D01*
X70197750Y-90727085D01*
X70558997Y-90876718D01*
X70942495Y-90953000D01*
X71333505Y-90953000D01*
X71717003Y-90876718D01*
X72078250Y-90727085D01*
X72403364Y-90509851D01*
X72679851Y-90233364D01*
X72897085Y-89908250D01*
X73046718Y-89547003D01*
X73123000Y-89163505D01*
X73123000Y-88772495D01*
X73353000Y-88772495D01*
X73353000Y-89163505D01*
X73429282Y-89547003D01*
X73578915Y-89908250D01*
X73796149Y-90233364D01*
X74072636Y-90509851D01*
X74397750Y-90727085D01*
X74758997Y-90876718D01*
X75142495Y-90953000D01*
X75533505Y-90953000D01*
X75917003Y-90876718D01*
X76278250Y-90727085D01*
X76603364Y-90509851D01*
X76879851Y-90233364D01*
X77097085Y-89908250D01*
X77246718Y-89547003D01*
X77323000Y-89163505D01*
X77323000Y-88772495D01*
X77553000Y-88772495D01*
X77553000Y-89163505D01*
X77629282Y-89547003D01*
X77778915Y-89908250D01*
X77996149Y-90233364D01*
X78272636Y-90509851D01*
X78597750Y-90727085D01*
X78958997Y-90876718D01*
X79342495Y-90953000D01*
X79733505Y-90953000D01*
X80117003Y-90876718D01*
X80478250Y-90727085D01*
X80803364Y-90509851D01*
X81079851Y-90233364D01*
X81297085Y-89908250D01*
X81446718Y-89547003D01*
X81523000Y-89163505D01*
X81523000Y-88772495D01*
X81753000Y-88772495D01*
X81753000Y-89163505D01*
X81829282Y-89547003D01*
X81978915Y-89908250D01*
X82196149Y-90233364D01*
X82472636Y-90509851D01*
X82797750Y-90727085D01*
X83158997Y-90876718D01*
X83542495Y-90953000D01*
X83933505Y-90953000D01*
X84317003Y-90876718D01*
X84678250Y-90727085D01*
X85003364Y-90509851D01*
X85279851Y-90233364D01*
X85497085Y-89908250D01*
X85646718Y-89547003D01*
X85723000Y-89163505D01*
X85723000Y-88772495D01*
X85953000Y-88772495D01*
X85953000Y-89163505D01*
X86029282Y-89547003D01*
X86178915Y-89908250D01*
X86396149Y-90233364D01*
X86672636Y-90509851D01*
X86997750Y-90727085D01*
X87358997Y-90876718D01*
X87742495Y-90953000D01*
X88133505Y-90953000D01*
X88517003Y-90876718D01*
X88878250Y-90727085D01*
X89203364Y-90509851D01*
X89479851Y-90233364D01*
X89697085Y-89908250D01*
X89846718Y-89547003D01*
X89923000Y-89163505D01*
X89923000Y-88772495D01*
X90153000Y-88772495D01*
X90153000Y-89163505D01*
X90229282Y-89547003D01*
X90378915Y-89908250D01*
X90596149Y-90233364D01*
X90872636Y-90509851D01*
X91197750Y-90727085D01*
X91558997Y-90876718D01*
X91942495Y-90953000D01*
X92333505Y-90953000D01*
X92717003Y-90876718D01*
X93078250Y-90727085D01*
X93403364Y-90509851D01*
X93679851Y-90233364D01*
X93897085Y-89908250D01*
X94046718Y-89547003D01*
X94123000Y-89163505D01*
X94123000Y-88772495D01*
X94046718Y-88388997D01*
X93897085Y-88027750D01*
X93679851Y-87702636D01*
X93403364Y-87426149D01*
X93078250Y-87208915D01*
X92717003Y-87059282D01*
X92333505Y-86983000D01*
X91942495Y-86983000D01*
X91558997Y-87059282D01*
X91197750Y-87208915D01*
X90872636Y-87426149D01*
X90596149Y-87702636D01*
X90378915Y-88027750D01*
X90229282Y-88388997D01*
X90153000Y-88772495D01*
X89923000Y-88772495D01*
X89846718Y-88388997D01*
X89697085Y-88027750D01*
X89479851Y-87702636D01*
X89203364Y-87426149D01*
X88878250Y-87208915D01*
X88517003Y-87059282D01*
X88133505Y-86983000D01*
X87742495Y-86983000D01*
X87358997Y-87059282D01*
X86997750Y-87208915D01*
X86672636Y-87426149D01*
X86396149Y-87702636D01*
X86178915Y-88027750D01*
X86029282Y-88388997D01*
X85953000Y-88772495D01*
X85723000Y-88772495D01*
X85646718Y-88388997D01*
X85497085Y-88027750D01*
X85279851Y-87702636D01*
X85003364Y-87426149D01*
X84678250Y-87208915D01*
X84317003Y-87059282D01*
X83933505Y-86983000D01*
X83542495Y-86983000D01*
X83158997Y-87059282D01*
X82797750Y-87208915D01*
X82472636Y-87426149D01*
X82196149Y-87702636D01*
X81978915Y-88027750D01*
X81829282Y-88388997D01*
X81753000Y-88772495D01*
X81523000Y-88772495D01*
X81446718Y-88388997D01*
X81297085Y-88027750D01*
X81079851Y-87702636D01*
X80803364Y-87426149D01*
X80478250Y-87208915D01*
X80117003Y-87059282D01*
X79733505Y-86983000D01*
X79342495Y-86983000D01*
X78958997Y-87059282D01*
X78597750Y-87208915D01*
X78272636Y-87426149D01*
X77996149Y-87702636D01*
X77778915Y-88027750D01*
X77629282Y-88388997D01*
X77553000Y-88772495D01*
X77323000Y-88772495D01*
X77246718Y-88388997D01*
X77097085Y-88027750D01*
X76879851Y-87702636D01*
X76603364Y-87426149D01*
X76278250Y-87208915D01*
X75917003Y-87059282D01*
X75533505Y-86983000D01*
X75142495Y-86983000D01*
X74758997Y-87059282D01*
X74397750Y-87208915D01*
X74072636Y-87426149D01*
X73796149Y-87702636D01*
X73578915Y-88027750D01*
X73429282Y-88388997D01*
X73353000Y-88772495D01*
X73123000Y-88772495D01*
X73046718Y-88388997D01*
X72897085Y-88027750D01*
X72679851Y-87702636D01*
X72403364Y-87426149D01*
X72078250Y-87208915D01*
X71717003Y-87059282D01*
X71333505Y-86983000D01*
X70942495Y-86983000D01*
X70558997Y-87059282D01*
X70197750Y-87208915D01*
X69872636Y-87426149D01*
X69596149Y-87702636D01*
X69378915Y-88027750D01*
X69229282Y-88388997D01*
X69153000Y-88772495D01*
X68923000Y-88772495D01*
X68846718Y-88388997D01*
X68697085Y-88027750D01*
X68479851Y-87702636D01*
X68203364Y-87426149D01*
X67878250Y-87208915D01*
X67517003Y-87059282D01*
X67133505Y-86983000D01*
X66742495Y-86983000D01*
X66358997Y-87059282D01*
X65997750Y-87208915D01*
X65672636Y-87426149D01*
X65396149Y-87702636D01*
X65178915Y-88027750D01*
X65029282Y-88388997D01*
X64953000Y-88772495D01*
X64723000Y-88772495D01*
X64646718Y-88388997D01*
X64497085Y-88027750D01*
X64279851Y-87702636D01*
X64003364Y-87426149D01*
X63678250Y-87208915D01*
X63317003Y-87059282D01*
X62933505Y-86983000D01*
X62542495Y-86983000D01*
X62158997Y-87059282D01*
X61797750Y-87208915D01*
X61472636Y-87426149D01*
X61196149Y-87702636D01*
X60978915Y-88027750D01*
X60829282Y-88388997D01*
X60753000Y-88772495D01*
X48920000Y-88772495D01*
X48920000Y-83718061D01*
X55353000Y-83718061D01*
X55353000Y-83921939D01*
X55392774Y-84121898D01*
X55470795Y-84310256D01*
X55584063Y-84479774D01*
X55728226Y-84623937D01*
X55897744Y-84737205D01*
X56086102Y-84815226D01*
X56286061Y-84855000D01*
X56489939Y-84855000D01*
X56689898Y-84815226D01*
X56878256Y-84737205D01*
X57015503Y-84645500D01*
X88272497Y-84645500D01*
X88409744Y-84737205D01*
X88598102Y-84815226D01*
X88798061Y-84855000D01*
X89001939Y-84855000D01*
X89201898Y-84815226D01*
X89390256Y-84737205D01*
X89559774Y-84623937D01*
X89703937Y-84479774D01*
X89817205Y-84310256D01*
X89895226Y-84121898D01*
X89935000Y-83921939D01*
X89935000Y-83718061D01*
X89895226Y-83518102D01*
X89817205Y-83329744D01*
X89703937Y-83160226D01*
X89559774Y-83016063D01*
X89390256Y-82902795D01*
X89201898Y-82824774D01*
X89001939Y-82785000D01*
X88798061Y-82785000D01*
X88598102Y-82824774D01*
X88409744Y-82902795D01*
X88272497Y-82994500D01*
X57015503Y-82994500D01*
X56878256Y-82902795D01*
X56689898Y-82824774D01*
X56489939Y-82785000D01*
X56286061Y-82785000D01*
X56086102Y-82824774D01*
X55897744Y-82902795D01*
X55728226Y-83016063D01*
X55584063Y-83160226D01*
X55470795Y-83329744D01*
X55392774Y-83518102D01*
X55353000Y-83718061D01*
X48920000Y-83718061D01*
X48920000Y-79908061D01*
X62973000Y-79908061D01*
X62973000Y-80111939D01*
X63012774Y-80311898D01*
X63090795Y-80500256D01*
X63204063Y-80669774D01*
X63348226Y-80813937D01*
X63517744Y-80927205D01*
X63706102Y-81005226D01*
X63906061Y-81045000D01*
X64109939Y-81045000D01*
X64309898Y-81005226D01*
X64498256Y-80927205D01*
X64635503Y-80835500D01*
X90336068Y-80835500D01*
X90920572Y-81420004D01*
X90952774Y-81581898D01*
X91030795Y-81770256D01*
X91144063Y-81939774D01*
X91288226Y-82083937D01*
X91457744Y-82197205D01*
X91646102Y-82275226D01*
X91846061Y-82315000D01*
X92049939Y-82315000D01*
X92249898Y-82275226D01*
X92438256Y-82197205D01*
X92607774Y-82083937D01*
X92751937Y-81939774D01*
X92865205Y-81770256D01*
X92943226Y-81581898D01*
X92983000Y-81381939D01*
X92983000Y-81178061D01*
X92943226Y-80978102D01*
X92865205Y-80789744D01*
X92751937Y-80620226D01*
X92607774Y-80476063D01*
X92438256Y-80362795D01*
X92249898Y-80284774D01*
X92088004Y-80252572D01*
X91290398Y-79454966D01*
X91264541Y-79423459D01*
X91138842Y-79320301D01*
X90995434Y-79243647D01*
X90839826Y-79196444D01*
X90718553Y-79184500D01*
X90718550Y-79184500D01*
X90678000Y-79180506D01*
X90637450Y-79184500D01*
X64635503Y-79184500D01*
X64498256Y-79092795D01*
X64309898Y-79014774D01*
X64109939Y-78975000D01*
X63906061Y-78975000D01*
X63706102Y-79014774D01*
X63517744Y-79092795D01*
X63348226Y-79206063D01*
X63204063Y-79350226D01*
X63090795Y-79519744D01*
X63012774Y-79708102D01*
X62973000Y-79908061D01*
X48920000Y-79908061D01*
X48920000Y-78689565D01*
X90908040Y-78689565D01*
X90975020Y-78929656D01*
X91224048Y-79046756D01*
X91491135Y-79113023D01*
X91766017Y-79125910D01*
X92038133Y-79084922D01*
X92297023Y-78991636D01*
X92412980Y-78929656D01*
X92479960Y-78689565D01*
X91694000Y-77903605D01*
X90908040Y-78689565D01*
X48920000Y-78689565D01*
X48920000Y-77796017D01*
X90292090Y-77796017D01*
X90333078Y-78068133D01*
X90426364Y-78327023D01*
X90488344Y-78442980D01*
X90728435Y-78509960D01*
X91514395Y-77724000D01*
X91873605Y-77724000D01*
X92659565Y-78509960D01*
X92899656Y-78442980D01*
X93016756Y-78193952D01*
X93083023Y-77926865D01*
X93095910Y-77651983D01*
X93054922Y-77379867D01*
X92961636Y-77120977D01*
X92899656Y-77005020D01*
X92659565Y-76938040D01*
X91873605Y-77724000D01*
X91514395Y-77724000D01*
X90728435Y-76938040D01*
X90488344Y-77005020D01*
X90371244Y-77254048D01*
X90304977Y-77521135D01*
X90292090Y-77796017D01*
X48920000Y-77796017D01*
X48920000Y-75094421D01*
X60161184Y-75094421D01*
X60230345Y-75336349D01*
X60482443Y-75455248D01*
X60752894Y-75522681D01*
X61031303Y-75536057D01*
X61306972Y-75494860D01*
X61569308Y-75400675D01*
X61689655Y-75336349D01*
X61758816Y-75094421D01*
X60960000Y-74295605D01*
X60161184Y-75094421D01*
X48920000Y-75094421D01*
X48920000Y-74187303D01*
X59539943Y-74187303D01*
X59581140Y-74462972D01*
X59675325Y-74725308D01*
X59739651Y-74845655D01*
X59981579Y-74914816D01*
X60780395Y-74116000D01*
X61139605Y-74116000D01*
X61938421Y-74914816D01*
X62180349Y-74845655D01*
X62299248Y-74593557D01*
X62366681Y-74323106D01*
X62380057Y-74044697D01*
X62338860Y-73769028D01*
X62244675Y-73506692D01*
X62180349Y-73386345D01*
X61938421Y-73317184D01*
X61139605Y-74116000D01*
X60780395Y-74116000D01*
X59981579Y-73317184D01*
X59739651Y-73386345D01*
X59620752Y-73638443D01*
X59553319Y-73908894D01*
X59539943Y-74187303D01*
X48920000Y-74187303D01*
X48920000Y-67716061D01*
X53829000Y-67716061D01*
X53829000Y-67919939D01*
X53868774Y-68119898D01*
X53946795Y-68308256D01*
X54060063Y-68477774D01*
X54204226Y-68621937D01*
X54373744Y-68735205D01*
X54562102Y-68813226D01*
X54762061Y-68853000D01*
X54965939Y-68853000D01*
X55165898Y-68813226D01*
X55354256Y-68735205D01*
X55491503Y-68643500D01*
X59595351Y-68643500D01*
X59545000Y-68896635D01*
X59545000Y-69175365D01*
X59599377Y-69448740D01*
X59706043Y-69706254D01*
X59860897Y-69938010D01*
X60057990Y-70135103D01*
X60289746Y-70289957D01*
X60328477Y-70306000D01*
X60289746Y-70322043D01*
X60057990Y-70476897D01*
X59860897Y-70673990D01*
X59706043Y-70905746D01*
X59599377Y-71163260D01*
X59545000Y-71436635D01*
X59545000Y-71715365D01*
X59599377Y-71988740D01*
X59706043Y-72246254D01*
X59860897Y-72478010D01*
X60057990Y-72675103D01*
X60289746Y-72829957D01*
X60325525Y-72844777D01*
X60230345Y-72895651D01*
X60161184Y-73137579D01*
X60960000Y-73936395D01*
X61758816Y-73137579D01*
X61689655Y-72895651D01*
X61587721Y-72847575D01*
X61630254Y-72829957D01*
X61862010Y-72675103D01*
X62059103Y-72478010D01*
X62075480Y-72453500D01*
X68206497Y-72453500D01*
X68343744Y-72545205D01*
X68532102Y-72623226D01*
X68732061Y-72663000D01*
X68935939Y-72663000D01*
X69135898Y-72623226D01*
X69324256Y-72545205D01*
X69493774Y-72431937D01*
X69637937Y-72287774D01*
X69751205Y-72118256D01*
X69829226Y-71929898D01*
X69869000Y-71729939D01*
X69869000Y-71526061D01*
X69829226Y-71326102D01*
X69751205Y-71137744D01*
X69637937Y-70968226D01*
X69493774Y-70824063D01*
X69324256Y-70710795D01*
X69135898Y-70632774D01*
X68935939Y-70593000D01*
X68732061Y-70593000D01*
X68532102Y-70632774D01*
X68343744Y-70710795D01*
X68206497Y-70802500D01*
X62144970Y-70802500D01*
X62059103Y-70673990D01*
X61862010Y-70476897D01*
X61630254Y-70322043D01*
X61591523Y-70306000D01*
X61630254Y-70289957D01*
X61813524Y-70167500D01*
X67698497Y-70167500D01*
X67835744Y-70259205D01*
X68024102Y-70337226D01*
X68224061Y-70377000D01*
X68427939Y-70377000D01*
X68627898Y-70337226D01*
X68816256Y-70259205D01*
X68985774Y-70145937D01*
X69129937Y-70001774D01*
X69243205Y-69832256D01*
X69321226Y-69643898D01*
X69361000Y-69443939D01*
X69361000Y-69240061D01*
X69321226Y-69040102D01*
X69243205Y-68851744D01*
X69129937Y-68682226D01*
X69091211Y-68643500D01*
X81439351Y-68643500D01*
X81389000Y-68896635D01*
X81389000Y-69175365D01*
X81443377Y-69448740D01*
X81478072Y-69532500D01*
X81145503Y-69532500D01*
X81008256Y-69440795D01*
X80819898Y-69362774D01*
X80619939Y-69323000D01*
X80416061Y-69323000D01*
X80216102Y-69362774D01*
X80027744Y-69440795D01*
X79858226Y-69554063D01*
X79714063Y-69698226D01*
X79600795Y-69867744D01*
X79522774Y-70056102D01*
X79483000Y-70256061D01*
X79483000Y-70459939D01*
X79522774Y-70659898D01*
X79600795Y-70848256D01*
X79714063Y-71017774D01*
X79858226Y-71161937D01*
X80027744Y-71275205D01*
X80216102Y-71353226D01*
X80416061Y-71393000D01*
X80619939Y-71393000D01*
X80819898Y-71353226D01*
X81008256Y-71275205D01*
X81145503Y-71183500D01*
X81439351Y-71183500D01*
X81389000Y-71436635D01*
X81389000Y-71715365D01*
X81443377Y-71988740D01*
X81478072Y-72072500D01*
X79113503Y-72072500D01*
X78976256Y-71980795D01*
X78787898Y-71902774D01*
X78587939Y-71863000D01*
X78384061Y-71863000D01*
X78184102Y-71902774D01*
X77995744Y-71980795D01*
X77826226Y-72094063D01*
X77682063Y-72238226D01*
X77568795Y-72407744D01*
X77490774Y-72596102D01*
X77451000Y-72796061D01*
X77451000Y-72999939D01*
X77490774Y-73199898D01*
X77568795Y-73388256D01*
X77682063Y-73557774D01*
X77826226Y-73701937D01*
X77995744Y-73815205D01*
X78184102Y-73893226D01*
X78384061Y-73933000D01*
X78587939Y-73933000D01*
X78787898Y-73893226D01*
X78976256Y-73815205D01*
X79113503Y-73723500D01*
X81385928Y-73723500D01*
X81385928Y-74866500D01*
X76827503Y-74866500D01*
X76690256Y-74774795D01*
X76501898Y-74696774D01*
X76301939Y-74657000D01*
X76098061Y-74657000D01*
X75898102Y-74696774D01*
X75709744Y-74774795D01*
X75540226Y-74888063D01*
X75396063Y-75032226D01*
X75282795Y-75201744D01*
X75204774Y-75390102D01*
X75165000Y-75590061D01*
X75165000Y-75793939D01*
X75204774Y-75993898D01*
X75282795Y-76182256D01*
X75396063Y-76351774D01*
X75540226Y-76495937D01*
X75709744Y-76609205D01*
X75898102Y-76687226D01*
X76098061Y-76727000D01*
X76301939Y-76727000D01*
X76501898Y-76687226D01*
X76690256Y-76609205D01*
X76827503Y-76517500D01*
X83425951Y-76517500D01*
X83466501Y-76521494D01*
X83507051Y-76517500D01*
X83507054Y-76517500D01*
X83628327Y-76505556D01*
X83783935Y-76458353D01*
X83927343Y-76381699D01*
X84053042Y-76278541D01*
X84078899Y-76247034D01*
X84316433Y-76009500D01*
X90565425Y-76009500D01*
X90608880Y-76074535D01*
X90803465Y-76269120D01*
X91032273Y-76422005D01*
X91103943Y-76451692D01*
X91090977Y-76456364D01*
X90975020Y-76518344D01*
X90908040Y-76758435D01*
X91694000Y-77544395D01*
X92479960Y-76758435D01*
X92412980Y-76518344D01*
X92277240Y-76454515D01*
X92355727Y-76422005D01*
X92584535Y-76269120D01*
X92779120Y-76074535D01*
X92932005Y-75845727D01*
X93037314Y-75591490D01*
X93091000Y-75321592D01*
X93091000Y-75046408D01*
X93037314Y-74776510D01*
X92932005Y-74522273D01*
X92779120Y-74293465D01*
X92584535Y-74098880D01*
X92535419Y-74066061D01*
X96501000Y-74066061D01*
X96501000Y-74269939D01*
X96540774Y-74469898D01*
X96618795Y-74658256D01*
X96732063Y-74827774D01*
X96876226Y-74971937D01*
X97045744Y-75085205D01*
X97234102Y-75163226D01*
X97434061Y-75203000D01*
X97520851Y-75203000D01*
X97628174Y-75235556D01*
X97749447Y-75247500D01*
X97749449Y-75247500D01*
X97789999Y-75251494D01*
X97830550Y-75247500D01*
X126633425Y-75247500D01*
X126676880Y-75312535D01*
X126871465Y-75507120D01*
X127100273Y-75660005D01*
X127354510Y-75765314D01*
X127624408Y-75819000D01*
X127899592Y-75819000D01*
X128169490Y-75765314D01*
X128423727Y-75660005D01*
X128652535Y-75507120D01*
X128847120Y-75312535D01*
X129000005Y-75083727D01*
X129105314Y-74829490D01*
X129159000Y-74559592D01*
X129159000Y-74284408D01*
X129105314Y-74014510D01*
X129000005Y-73760273D01*
X128847120Y-73531465D01*
X128652535Y-73336880D01*
X128423727Y-73183995D01*
X128352057Y-73154308D01*
X128365023Y-73149636D01*
X128480980Y-73087656D01*
X128547960Y-72847565D01*
X127762000Y-72061605D01*
X126976040Y-72847565D01*
X127043020Y-73087656D01*
X127178760Y-73151485D01*
X127100273Y-73183995D01*
X126871465Y-73336880D01*
X126676880Y-73531465D01*
X126633425Y-73596500D01*
X98398920Y-73596500D01*
X98339937Y-73508226D01*
X98195774Y-73364063D01*
X98026256Y-73250795D01*
X97837898Y-73172774D01*
X97637939Y-73133000D01*
X97434061Y-73133000D01*
X97234102Y-73172774D01*
X97045744Y-73250795D01*
X96876226Y-73364063D01*
X96732063Y-73508226D01*
X96618795Y-73677744D01*
X96540774Y-73866102D01*
X96501000Y-74066061D01*
X92535419Y-74066061D01*
X92355727Y-73945995D01*
X92278485Y-73914000D01*
X92355727Y-73882005D01*
X92584535Y-73729120D01*
X92779120Y-73534535D01*
X92932005Y-73305727D01*
X93037314Y-73051490D01*
X93091000Y-72781592D01*
X93091000Y-72506408D01*
X93037314Y-72236510D01*
X92932005Y-71982273D01*
X92913125Y-71954017D01*
X126360090Y-71954017D01*
X126401078Y-72226133D01*
X126494364Y-72485023D01*
X126556344Y-72600980D01*
X126796435Y-72667960D01*
X127582395Y-71882000D01*
X127941605Y-71882000D01*
X128727565Y-72667960D01*
X128967656Y-72600980D01*
X129084756Y-72351952D01*
X129151023Y-72084865D01*
X129163910Y-71809983D01*
X129122922Y-71537867D01*
X129029636Y-71278977D01*
X128967656Y-71163020D01*
X128727565Y-71096040D01*
X127941605Y-71882000D01*
X127582395Y-71882000D01*
X126796435Y-71096040D01*
X126556344Y-71163020D01*
X126439244Y-71412048D01*
X126372977Y-71679135D01*
X126360090Y-71954017D01*
X92913125Y-71954017D01*
X92779120Y-71753465D01*
X92584535Y-71558880D01*
X92355727Y-71405995D01*
X92278485Y-71374000D01*
X92355727Y-71342005D01*
X92584535Y-71189120D01*
X92779120Y-70994535D01*
X92932005Y-70765727D01*
X93037314Y-70511490D01*
X93091000Y-70241592D01*
X93091000Y-69966408D01*
X93037314Y-69696510D01*
X92932005Y-69442273D01*
X92779120Y-69213465D01*
X92770063Y-69204408D01*
X126365000Y-69204408D01*
X126365000Y-69479592D01*
X126418686Y-69749490D01*
X126523995Y-70003727D01*
X126676880Y-70232535D01*
X126871465Y-70427120D01*
X127100273Y-70580005D01*
X127171943Y-70609692D01*
X127158977Y-70614364D01*
X127043020Y-70676344D01*
X126976040Y-70916435D01*
X127762000Y-71702395D01*
X128547960Y-70916435D01*
X128480980Y-70676344D01*
X128345240Y-70612515D01*
X128423727Y-70580005D01*
X128652535Y-70427120D01*
X128847120Y-70232535D01*
X129000005Y-70003727D01*
X129105314Y-69749490D01*
X129159000Y-69479592D01*
X129159000Y-69204408D01*
X129105314Y-68934510D01*
X129000005Y-68680273D01*
X128847120Y-68451465D01*
X128652535Y-68256880D01*
X128423727Y-68103995D01*
X128169490Y-67998686D01*
X127899592Y-67945000D01*
X127624408Y-67945000D01*
X127354510Y-67998686D01*
X127100273Y-68103995D01*
X126871465Y-68256880D01*
X126676880Y-68451465D01*
X126523995Y-68680273D01*
X126418686Y-68934510D01*
X126365000Y-69204408D01*
X92770063Y-69204408D01*
X92584535Y-69018880D01*
X92355727Y-68865995D01*
X92278485Y-68834000D01*
X92355727Y-68802005D01*
X92584535Y-68649120D01*
X92779120Y-68454535D01*
X92932005Y-68225727D01*
X93037314Y-67971490D01*
X93091000Y-67701592D01*
X93091000Y-67426408D01*
X93037314Y-67156510D01*
X92932005Y-66902273D01*
X92779120Y-66673465D01*
X92584535Y-66478880D01*
X92355727Y-66325995D01*
X92278485Y-66294000D01*
X92355727Y-66262005D01*
X92584535Y-66109120D01*
X92779120Y-65914535D01*
X92822575Y-65849500D01*
X126486622Y-65849500D01*
X126523995Y-65939727D01*
X126676880Y-66168535D01*
X126871465Y-66363120D01*
X127100273Y-66516005D01*
X127354510Y-66621314D01*
X127624408Y-66675000D01*
X127899592Y-66675000D01*
X128169490Y-66621314D01*
X128423727Y-66516005D01*
X128652535Y-66363120D01*
X128847120Y-66168535D01*
X129000005Y-65939727D01*
X129105314Y-65685490D01*
X129159000Y-65415592D01*
X129159000Y-65140408D01*
X129105314Y-64870510D01*
X129000005Y-64616273D01*
X128847120Y-64387465D01*
X128652535Y-64192880D01*
X128423727Y-64039995D01*
X128346485Y-64008000D01*
X128423727Y-63976005D01*
X128652535Y-63823120D01*
X128847120Y-63628535D01*
X129000005Y-63399727D01*
X129105314Y-63145490D01*
X129159000Y-62875592D01*
X129159000Y-62600408D01*
X129105314Y-62330510D01*
X129000005Y-62076273D01*
X128847120Y-61847465D01*
X128652535Y-61652880D01*
X128423727Y-61499995D01*
X128346485Y-61468000D01*
X128423727Y-61436005D01*
X128652535Y-61283120D01*
X128847120Y-61088535D01*
X129000005Y-60859727D01*
X129105314Y-60605490D01*
X129159000Y-60335592D01*
X129159000Y-60060408D01*
X129105314Y-59790510D01*
X129000005Y-59536273D01*
X128847120Y-59307465D01*
X128652535Y-59112880D01*
X128423727Y-58959995D01*
X128169490Y-58854686D01*
X127899592Y-58801000D01*
X127624408Y-58801000D01*
X127354510Y-58854686D01*
X127100273Y-58959995D01*
X126871465Y-59112880D01*
X126676880Y-59307465D01*
X126523995Y-59536273D01*
X126418686Y-59790510D01*
X126365000Y-60060408D01*
X126365000Y-60335592D01*
X126380260Y-60412308D01*
X124880068Y-61912500D01*
X108207211Y-61912500D01*
X108245937Y-61873774D01*
X108359205Y-61704256D01*
X108437226Y-61515898D01*
X108477000Y-61315939D01*
X108477000Y-61112061D01*
X108437226Y-60912102D01*
X108359205Y-60723744D01*
X108245937Y-60554226D01*
X108101774Y-60410063D01*
X107932256Y-60296795D01*
X107743898Y-60218774D01*
X107543939Y-60179000D01*
X107340061Y-60179000D01*
X107140102Y-60218774D01*
X106951744Y-60296795D01*
X106814497Y-60388500D01*
X83777613Y-60388500D01*
X83706010Y-60316897D01*
X83474254Y-60162043D01*
X83435523Y-60146000D01*
X83474254Y-60129957D01*
X83706010Y-59975103D01*
X83903103Y-59778010D01*
X84057957Y-59546254D01*
X84164623Y-59288740D01*
X84219000Y-59015365D01*
X84219000Y-58736635D01*
X84164623Y-58463260D01*
X84057957Y-58205746D01*
X83963287Y-58064061D01*
X90405000Y-58064061D01*
X90405000Y-58267939D01*
X90444774Y-58467898D01*
X90522795Y-58656256D01*
X90636063Y-58825774D01*
X90780226Y-58969937D01*
X90949744Y-59083205D01*
X91138102Y-59161226D01*
X91338061Y-59201000D01*
X91541939Y-59201000D01*
X91741898Y-59161226D01*
X91930256Y-59083205D01*
X92067503Y-58991500D01*
X96654497Y-58991500D01*
X96791744Y-59083205D01*
X96980102Y-59161226D01*
X97180061Y-59201000D01*
X97383939Y-59201000D01*
X97583898Y-59161226D01*
X97772256Y-59083205D01*
X97941774Y-58969937D01*
X98085937Y-58825774D01*
X98199205Y-58656256D01*
X98277226Y-58467898D01*
X98317000Y-58267939D01*
X98317000Y-58064061D01*
X98277226Y-57864102D01*
X98199205Y-57675744D01*
X98085937Y-57506226D01*
X97941774Y-57362063D01*
X97772256Y-57248795D01*
X97583898Y-57170774D01*
X97383939Y-57131000D01*
X97180061Y-57131000D01*
X96980102Y-57170774D01*
X96791744Y-57248795D01*
X96654497Y-57340500D01*
X92067503Y-57340500D01*
X91930256Y-57248795D01*
X91741898Y-57170774D01*
X91541939Y-57131000D01*
X91338061Y-57131000D01*
X91138102Y-57170774D01*
X90949744Y-57248795D01*
X90780226Y-57362063D01*
X90636063Y-57506226D01*
X90522795Y-57675744D01*
X90444774Y-57864102D01*
X90405000Y-58064061D01*
X83963287Y-58064061D01*
X83903103Y-57973990D01*
X83706010Y-57776897D01*
X83474254Y-57622043D01*
X83435523Y-57606000D01*
X83474254Y-57589957D01*
X83706010Y-57435103D01*
X83903103Y-57238010D01*
X83995608Y-57099565D01*
X126976040Y-57099565D01*
X127043020Y-57339656D01*
X127292048Y-57456756D01*
X127559135Y-57523023D01*
X127834017Y-57535910D01*
X128106133Y-57494922D01*
X128365023Y-57401636D01*
X128480980Y-57339656D01*
X128547960Y-57099565D01*
X127762000Y-56313605D01*
X126976040Y-57099565D01*
X83995608Y-57099565D01*
X84057957Y-57006254D01*
X84164623Y-56748740D01*
X84219000Y-56475365D01*
X84219000Y-56196635D01*
X84164623Y-55923260D01*
X84057957Y-55665746D01*
X83903103Y-55433990D01*
X83706010Y-55236897D01*
X83474254Y-55082043D01*
X83435523Y-55066000D01*
X83474254Y-55049957D01*
X83706010Y-54895103D01*
X83772383Y-54828730D01*
X83854696Y-54911044D01*
X83880545Y-54942541D01*
X83912041Y-54968389D01*
X83912044Y-54968392D01*
X84006243Y-55045699D01*
X84097092Y-55094259D01*
X84149652Y-55122353D01*
X84305260Y-55169556D01*
X84426533Y-55181500D01*
X84426535Y-55181500D01*
X84467086Y-55185494D01*
X84507636Y-55181500D01*
X86439842Y-55181500D01*
X86380774Y-55324102D01*
X86341000Y-55524061D01*
X86341000Y-55727939D01*
X86380774Y-55927898D01*
X86458795Y-56116256D01*
X86572063Y-56285774D01*
X86716226Y-56429937D01*
X86885744Y-56543205D01*
X87074102Y-56621226D01*
X87274061Y-56661000D01*
X87477939Y-56661000D01*
X87677898Y-56621226D01*
X87781047Y-56578500D01*
X99304476Y-56578500D01*
X99337392Y-56618608D01*
X99550113Y-56793183D01*
X99792805Y-56922904D01*
X100056140Y-57002786D01*
X100261375Y-57023000D01*
X101922625Y-57023000D01*
X102127860Y-57002786D01*
X102391195Y-56922904D01*
X102633887Y-56793183D01*
X102846608Y-56618608D01*
X102879524Y-56578500D01*
X122784953Y-56578500D01*
X122888102Y-56621226D01*
X123088061Y-56661000D01*
X123291939Y-56661000D01*
X123491898Y-56621226D01*
X123680256Y-56543205D01*
X123849774Y-56429937D01*
X123993937Y-56285774D01*
X124047228Y-56206017D01*
X126360090Y-56206017D01*
X126401078Y-56478133D01*
X126494364Y-56737023D01*
X126556344Y-56852980D01*
X126796435Y-56919960D01*
X127582395Y-56134000D01*
X127941605Y-56134000D01*
X128727565Y-56919960D01*
X128967656Y-56852980D01*
X129084756Y-56603952D01*
X129151023Y-56336865D01*
X129163910Y-56061983D01*
X129122922Y-55789867D01*
X129029636Y-55530977D01*
X128967656Y-55415020D01*
X128727565Y-55348040D01*
X127941605Y-56134000D01*
X127582395Y-56134000D01*
X126796435Y-55348040D01*
X126556344Y-55415020D01*
X126439244Y-55664048D01*
X126372977Y-55931135D01*
X126360090Y-56206017D01*
X124047228Y-56206017D01*
X124107205Y-56116256D01*
X124185226Y-55927898D01*
X124225000Y-55727939D01*
X124225000Y-55524061D01*
X124185226Y-55324102D01*
X124107205Y-55135744D01*
X123993937Y-54966226D01*
X123849774Y-54822063D01*
X123680256Y-54708795D01*
X123491898Y-54630774D01*
X123291939Y-54591000D01*
X123088061Y-54591000D01*
X122921961Y-54624039D01*
X122955000Y-54457939D01*
X122955000Y-54419500D01*
X126633425Y-54419500D01*
X126676880Y-54484535D01*
X126871465Y-54679120D01*
X127100273Y-54832005D01*
X127171943Y-54861692D01*
X127158977Y-54866364D01*
X127043020Y-54928344D01*
X126976040Y-55168435D01*
X127762000Y-55954395D01*
X128547960Y-55168435D01*
X128480980Y-54928344D01*
X128345240Y-54864515D01*
X128423727Y-54832005D01*
X128652535Y-54679120D01*
X128847120Y-54484535D01*
X129000005Y-54255727D01*
X129105314Y-54001490D01*
X129159000Y-53731592D01*
X129159000Y-53456408D01*
X129105314Y-53186510D01*
X129000005Y-52932273D01*
X128847120Y-52703465D01*
X128652535Y-52508880D01*
X128423727Y-52355995D01*
X128169490Y-52250686D01*
X127899592Y-52197000D01*
X127624408Y-52197000D01*
X127354510Y-52250686D01*
X127100273Y-52355995D01*
X126871465Y-52508880D01*
X126676880Y-52703465D01*
X126633425Y-52768500D01*
X122669874Y-52768500D01*
X122432340Y-52530966D01*
X122406483Y-52499459D01*
X122280784Y-52396301D01*
X122137376Y-52319647D01*
X121981768Y-52272444D01*
X121860495Y-52260500D01*
X121860492Y-52260500D01*
X121819942Y-52256506D01*
X121779392Y-52260500D01*
X121078158Y-52260500D01*
X121137226Y-52117898D01*
X121177000Y-51917939D01*
X121177000Y-51714061D01*
X121137226Y-51514102D01*
X121059205Y-51325744D01*
X120945937Y-51156226D01*
X120801774Y-51012063D01*
X120632256Y-50898795D01*
X120443898Y-50820774D01*
X120243939Y-50781000D01*
X120040061Y-50781000D01*
X119840102Y-50820774D01*
X119651744Y-50898795D01*
X119514497Y-50990500D01*
X103179023Y-50990500D01*
X103230786Y-50819860D01*
X103257759Y-50546000D01*
X103252792Y-50495565D01*
X126976040Y-50495565D01*
X127043020Y-50735656D01*
X127292048Y-50852756D01*
X127559135Y-50919023D01*
X127834017Y-50931910D01*
X128106133Y-50890922D01*
X128365023Y-50797636D01*
X128480980Y-50735656D01*
X128547960Y-50495565D01*
X127762000Y-49709605D01*
X126976040Y-50495565D01*
X103252792Y-50495565D01*
X103230786Y-50272140D01*
X103150904Y-50008805D01*
X103021183Y-49766113D01*
X102886514Y-49602017D01*
X126360090Y-49602017D01*
X126401078Y-49874133D01*
X126494364Y-50133023D01*
X126556344Y-50248980D01*
X126796435Y-50315960D01*
X127582395Y-49530000D01*
X127941605Y-49530000D01*
X128727565Y-50315960D01*
X128967656Y-50248980D01*
X129084756Y-49999952D01*
X129151023Y-49732865D01*
X129163910Y-49457983D01*
X129122922Y-49185867D01*
X129029636Y-48926977D01*
X128967656Y-48811020D01*
X128727565Y-48744040D01*
X127941605Y-49530000D01*
X127582395Y-49530000D01*
X126796435Y-48744040D01*
X126556344Y-48811020D01*
X126439244Y-49060048D01*
X126372977Y-49327135D01*
X126360090Y-49602017D01*
X102886514Y-49602017D01*
X102846608Y-49553392D01*
X102633887Y-49378817D01*
X102391195Y-49249096D01*
X102127860Y-49169214D01*
X101922625Y-49149000D01*
X100261375Y-49149000D01*
X100056140Y-49169214D01*
X99792805Y-49249096D01*
X99550113Y-49378817D01*
X99337392Y-49553392D01*
X99162817Y-49766113D01*
X99033096Y-50008805D01*
X98953214Y-50272140D01*
X98926241Y-50546000D01*
X98953214Y-50819860D01*
X99004977Y-50990500D01*
X84809019Y-50990500D01*
X84519483Y-50700965D01*
X84493627Y-50669459D01*
X84367928Y-50566301D01*
X84224520Y-50489647D01*
X84068912Y-50442444D01*
X83954689Y-50431194D01*
X83903103Y-50353990D01*
X83706010Y-50156897D01*
X83474254Y-50002043D01*
X83435523Y-49986000D01*
X83474254Y-49969957D01*
X83657524Y-49847500D01*
X90558497Y-49847500D01*
X90695744Y-49939205D01*
X90884102Y-50017226D01*
X91084061Y-50057000D01*
X91287939Y-50057000D01*
X91487898Y-50017226D01*
X91676256Y-49939205D01*
X91845774Y-49825937D01*
X91989937Y-49681774D01*
X92103205Y-49512256D01*
X92181226Y-49323898D01*
X92221000Y-49123939D01*
X92221000Y-48920061D01*
X92181226Y-48720102D01*
X92103205Y-48531744D01*
X91989937Y-48362226D01*
X91845774Y-48218063D01*
X91676256Y-48104795D01*
X91487898Y-48026774D01*
X91287939Y-47987000D01*
X91084061Y-47987000D01*
X90884102Y-48026774D01*
X90695744Y-48104795D01*
X90558497Y-48196500D01*
X84120401Y-48196500D01*
X84057957Y-48045746D01*
X83903103Y-47813990D01*
X83706010Y-47616897D01*
X83474254Y-47462043D01*
X83435523Y-47446000D01*
X83474254Y-47429957D01*
X83706010Y-47275103D01*
X83903103Y-47078010D01*
X84030022Y-46888061D01*
X88627000Y-46888061D01*
X88627000Y-47091939D01*
X88666774Y-47291898D01*
X88744795Y-47480256D01*
X88858063Y-47649774D01*
X89002226Y-47793937D01*
X89171744Y-47907205D01*
X89360102Y-47985226D01*
X89560061Y-48025000D01*
X89763939Y-48025000D01*
X89963898Y-47985226D01*
X90152256Y-47907205D01*
X90289503Y-47815500D01*
X126633425Y-47815500D01*
X126676880Y-47880535D01*
X126871465Y-48075120D01*
X127100273Y-48228005D01*
X127171943Y-48257692D01*
X127158977Y-48262364D01*
X127043020Y-48324344D01*
X126976040Y-48564435D01*
X127762000Y-49350395D01*
X128547960Y-48564435D01*
X128480980Y-48324344D01*
X128345240Y-48260515D01*
X128423727Y-48228005D01*
X128652535Y-48075120D01*
X128847120Y-47880535D01*
X129000005Y-47651727D01*
X129105314Y-47397490D01*
X129159000Y-47127592D01*
X129159000Y-46852408D01*
X129105314Y-46582510D01*
X129000005Y-46328273D01*
X128847120Y-46099465D01*
X128652535Y-45904880D01*
X128423727Y-45751995D01*
X128169490Y-45646686D01*
X127899592Y-45593000D01*
X127624408Y-45593000D01*
X127354510Y-45646686D01*
X127100273Y-45751995D01*
X126871465Y-45904880D01*
X126676880Y-46099465D01*
X126633425Y-46164500D01*
X90289503Y-46164500D01*
X90152256Y-46072795D01*
X89963898Y-45994774D01*
X89763939Y-45955000D01*
X89560061Y-45955000D01*
X89360102Y-45994774D01*
X89171744Y-46072795D01*
X89002226Y-46186063D01*
X88858063Y-46330226D01*
X88744795Y-46499744D01*
X88666774Y-46688102D01*
X88627000Y-46888061D01*
X84030022Y-46888061D01*
X84057957Y-46846254D01*
X84164623Y-46588740D01*
X84219000Y-46315365D01*
X84219000Y-46036635D01*
X84164623Y-45763260D01*
X84057957Y-45505746D01*
X83903103Y-45273990D01*
X83706010Y-45076897D01*
X83474254Y-44922043D01*
X83435523Y-44906000D01*
X83474254Y-44889957D01*
X83706010Y-44735103D01*
X83903103Y-44538010D01*
X84057957Y-44306254D01*
X84164623Y-44048740D01*
X84219000Y-43775365D01*
X84219000Y-43496635D01*
X84164623Y-43223260D01*
X84057957Y-42965746D01*
X83903103Y-42733990D01*
X83706010Y-42536897D01*
X83702285Y-42534408D01*
X126365000Y-42534408D01*
X126365000Y-42809592D01*
X126418686Y-43079490D01*
X126523995Y-43333727D01*
X126676880Y-43562535D01*
X126871465Y-43757120D01*
X127100273Y-43910005D01*
X127354510Y-44015314D01*
X127624408Y-44069000D01*
X127899592Y-44069000D01*
X128169490Y-44015314D01*
X128423727Y-43910005D01*
X128652535Y-43757120D01*
X128847120Y-43562535D01*
X129000005Y-43333727D01*
X129105314Y-43079490D01*
X129159000Y-42809592D01*
X129159000Y-42534408D01*
X129105314Y-42264510D01*
X129000005Y-42010273D01*
X128847120Y-41781465D01*
X128652535Y-41586880D01*
X128423727Y-41433995D01*
X128352057Y-41404308D01*
X128365023Y-41399636D01*
X128480980Y-41337656D01*
X128547960Y-41097565D01*
X127762000Y-40311605D01*
X126976040Y-41097565D01*
X127043020Y-41337656D01*
X127178760Y-41401485D01*
X127100273Y-41433995D01*
X126871465Y-41586880D01*
X126676880Y-41781465D01*
X126523995Y-42010273D01*
X126418686Y-42264510D01*
X126365000Y-42534408D01*
X83702285Y-42534408D01*
X83474254Y-42382043D01*
X83435523Y-42366000D01*
X83474254Y-42349957D01*
X83706010Y-42195103D01*
X83903103Y-41998010D01*
X84057957Y-41766254D01*
X84164623Y-41508740D01*
X84219000Y-41235365D01*
X84219000Y-40956635D01*
X84164623Y-40683260D01*
X84057957Y-40425746D01*
X83903103Y-40193990D01*
X83706010Y-39996897D01*
X83474254Y-39842043D01*
X83435523Y-39826000D01*
X83474254Y-39809957D01*
X83706010Y-39655103D01*
X83903103Y-39458010D01*
X84057957Y-39226254D01*
X84164623Y-38968740D01*
X84219000Y-38695365D01*
X84219000Y-38416635D01*
X84164623Y-38143260D01*
X84057957Y-37885746D01*
X83903103Y-37653990D01*
X83706010Y-37456897D01*
X83474254Y-37302043D01*
X83435523Y-37286000D01*
X83474254Y-37269957D01*
X83706010Y-37115103D01*
X83903103Y-36918010D01*
X84057957Y-36686254D01*
X84164623Y-36428740D01*
X84219000Y-36155365D01*
X84219000Y-36003000D01*
X94003928Y-36003000D01*
X94003928Y-37753000D01*
X94033001Y-38048186D01*
X94119104Y-38332028D01*
X94258927Y-38593618D01*
X94447097Y-38822903D01*
X94676382Y-39011073D01*
X94937972Y-39150896D01*
X95221814Y-39236999D01*
X95517000Y-39266072D01*
X97267000Y-39266072D01*
X97562186Y-39236999D01*
X97846028Y-39150896D01*
X98107618Y-39011073D01*
X98336903Y-38822903D01*
X98525073Y-38593618D01*
X98664896Y-38332028D01*
X98703928Y-38203357D01*
X98703928Y-41628000D01*
X98716188Y-41752482D01*
X98752498Y-41872180D01*
X98811463Y-41982494D01*
X98890815Y-42079185D01*
X98987506Y-42158537D01*
X99097820Y-42217502D01*
X99217518Y-42253812D01*
X99342000Y-42266072D01*
X102842000Y-42266072D01*
X102966482Y-42253812D01*
X103086180Y-42217502D01*
X103196494Y-42158537D01*
X103293185Y-42079185D01*
X103372537Y-41982494D01*
X103431502Y-41872180D01*
X103467812Y-41752482D01*
X103480072Y-41628000D01*
X103480072Y-41021000D01*
X105447861Y-41021000D01*
X105504000Y-41026529D01*
X105560139Y-41021000D01*
X105560146Y-41021000D01*
X105728067Y-41004461D01*
X105943523Y-40939103D01*
X106142089Y-40832968D01*
X106316133Y-40690133D01*
X106351928Y-40646518D01*
X108000636Y-38997810D01*
X110146000Y-38997810D01*
X110146000Y-39234190D01*
X110192116Y-39466027D01*
X110282574Y-39684413D01*
X110413899Y-39880955D01*
X110581045Y-40048101D01*
X110777587Y-40179426D01*
X110995973Y-40269884D01*
X111227810Y-40316000D01*
X111464190Y-40316000D01*
X111696027Y-40269884D01*
X111914413Y-40179426D01*
X112110955Y-40048101D01*
X112278101Y-39880955D01*
X112409426Y-39684413D01*
X112499884Y-39466027D01*
X112546000Y-39234190D01*
X112546000Y-38997810D01*
X112499884Y-38765973D01*
X112410840Y-38551000D01*
X118082928Y-38551000D01*
X118082928Y-39681000D01*
X118095188Y-39805482D01*
X118131498Y-39925180D01*
X118190463Y-40035494D01*
X118269815Y-40132185D01*
X118366506Y-40211537D01*
X118476820Y-40270502D01*
X118596518Y-40306812D01*
X118721000Y-40319072D01*
X119851000Y-40319072D01*
X119975482Y-40306812D01*
X120095180Y-40270502D01*
X120205494Y-40211537D01*
X120214657Y-40204017D01*
X126360090Y-40204017D01*
X126401078Y-40476133D01*
X126494364Y-40735023D01*
X126556344Y-40850980D01*
X126796435Y-40917960D01*
X127582395Y-40132000D01*
X127941605Y-40132000D01*
X128727565Y-40917960D01*
X128967656Y-40850980D01*
X129084756Y-40601952D01*
X129151023Y-40334865D01*
X129163910Y-40059983D01*
X129122922Y-39787867D01*
X129029636Y-39528977D01*
X128967656Y-39413020D01*
X128727565Y-39346040D01*
X127941605Y-40132000D01*
X127582395Y-40132000D01*
X126796435Y-39346040D01*
X126556344Y-39413020D01*
X126439244Y-39662048D01*
X126372977Y-39929135D01*
X126360090Y-40204017D01*
X120214657Y-40204017D01*
X120302185Y-40132185D01*
X120381537Y-40035494D01*
X120440502Y-39925180D01*
X120476812Y-39805482D01*
X120489072Y-39681000D01*
X120489072Y-38551000D01*
X120476812Y-38426518D01*
X120440502Y-38306820D01*
X120412451Y-38254341D01*
X120413744Y-38255205D01*
X120602102Y-38333226D01*
X120802061Y-38373000D01*
X121005939Y-38373000D01*
X121205898Y-38333226D01*
X121394256Y-38255205D01*
X121531503Y-38163500D01*
X126486622Y-38163500D01*
X126523995Y-38253727D01*
X126676880Y-38482535D01*
X126871465Y-38677120D01*
X127100273Y-38830005D01*
X127171943Y-38859692D01*
X127158977Y-38864364D01*
X127043020Y-38926344D01*
X126976040Y-39166435D01*
X127762000Y-39952395D01*
X128547960Y-39166435D01*
X128480980Y-38926344D01*
X128345240Y-38862515D01*
X128423727Y-38830005D01*
X128652535Y-38677120D01*
X128847120Y-38482535D01*
X129000005Y-38253727D01*
X129105314Y-37999490D01*
X129159000Y-37729592D01*
X129159000Y-37454408D01*
X129105314Y-37184510D01*
X129000005Y-36930273D01*
X128847120Y-36701465D01*
X128652535Y-36506880D01*
X128423727Y-36353995D01*
X128169490Y-36248686D01*
X127899592Y-36195000D01*
X127624408Y-36195000D01*
X127354510Y-36248686D01*
X127100273Y-36353995D01*
X126871465Y-36506880D01*
X126865845Y-36512500D01*
X121531503Y-36512500D01*
X121394256Y-36420795D01*
X121205898Y-36342774D01*
X121005939Y-36303000D01*
X120802061Y-36303000D01*
X120602102Y-36342774D01*
X120472607Y-36396413D01*
X120450468Y-36262983D01*
X120367027Y-36041821D01*
X120330740Y-35973933D01*
X120110716Y-35930889D01*
X119465605Y-36576000D01*
X119479748Y-36590143D01*
X119300143Y-36769748D01*
X119286000Y-36755605D01*
X118640889Y-37400716D01*
X118683933Y-37620740D01*
X118899320Y-37718123D01*
X119129567Y-37771615D01*
X119365826Y-37779160D01*
X119599017Y-37740468D01*
X119820179Y-37657027D01*
X119888067Y-37620740D01*
X119896445Y-37577915D01*
X119908774Y-37639898D01*
X119986795Y-37828256D01*
X120070904Y-37954134D01*
X119975482Y-37925188D01*
X119851000Y-37912928D01*
X118721000Y-37912928D01*
X118596518Y-37925188D01*
X118476820Y-37961498D01*
X118366506Y-38020463D01*
X118269815Y-38099815D01*
X118190463Y-38196506D01*
X118131498Y-38306820D01*
X118095188Y-38426518D01*
X118082928Y-38551000D01*
X112410840Y-38551000D01*
X112409426Y-38547587D01*
X112278101Y-38351045D01*
X112110955Y-38183899D01*
X111914413Y-38052574D01*
X111696027Y-37962116D01*
X111464190Y-37916000D01*
X111227810Y-37916000D01*
X110995973Y-37962116D01*
X110777587Y-38052574D01*
X110581045Y-38183899D01*
X110413899Y-38351045D01*
X110282574Y-38547587D01*
X110192116Y-38765973D01*
X110146000Y-38997810D01*
X108000636Y-38997810D01*
X110172257Y-36826189D01*
X110192116Y-36926027D01*
X110282574Y-37144413D01*
X110413899Y-37340955D01*
X110581045Y-37508101D01*
X110777587Y-37639426D01*
X110995973Y-37729884D01*
X111227810Y-37776000D01*
X111464190Y-37776000D01*
X111696027Y-37729884D01*
X111914413Y-37639426D01*
X112110955Y-37508101D01*
X112278101Y-37340955D01*
X112409426Y-37144413D01*
X112499884Y-36926027D01*
X112546000Y-36694190D01*
X112546000Y-36655826D01*
X118082840Y-36655826D01*
X118121532Y-36889017D01*
X118204973Y-37110179D01*
X118241260Y-37178067D01*
X118461284Y-37221111D01*
X119106395Y-36576000D01*
X118461284Y-35930889D01*
X118241260Y-35973933D01*
X118143877Y-36189320D01*
X118090385Y-36419567D01*
X118082840Y-36655826D01*
X112546000Y-36655826D01*
X112546000Y-36457810D01*
X112499884Y-36225973D01*
X112409426Y-36007587D01*
X112278101Y-35811045D01*
X112218340Y-35751284D01*
X118640889Y-35751284D01*
X119286000Y-36396395D01*
X119931111Y-35751284D01*
X119888067Y-35531260D01*
X119840084Y-35509565D01*
X126976040Y-35509565D01*
X127043020Y-35749656D01*
X127292048Y-35866756D01*
X127559135Y-35933023D01*
X127834017Y-35945910D01*
X128106133Y-35904922D01*
X128365023Y-35811636D01*
X128480980Y-35749656D01*
X128547960Y-35509565D01*
X127762000Y-34723605D01*
X126976040Y-35509565D01*
X119840084Y-35509565D01*
X119672680Y-35433877D01*
X119442433Y-35380385D01*
X119206174Y-35372840D01*
X118972983Y-35411532D01*
X118751821Y-35494973D01*
X118683933Y-35531260D01*
X118640889Y-35751284D01*
X112218340Y-35751284D01*
X112110955Y-35643899D01*
X111914413Y-35512574D01*
X111696027Y-35422116D01*
X111596189Y-35402257D01*
X111888136Y-35110310D01*
X111914413Y-35099426D01*
X112110955Y-34968101D01*
X112278101Y-34800955D01*
X112409426Y-34604413D01*
X112499884Y-34386027D01*
X112546000Y-34154190D01*
X112546000Y-33917810D01*
X118086000Y-33917810D01*
X118086000Y-34154190D01*
X118132116Y-34386027D01*
X118222574Y-34604413D01*
X118353899Y-34800955D01*
X118521045Y-34968101D01*
X118717587Y-35099426D01*
X118935973Y-35189884D01*
X119167810Y-35236000D01*
X119404190Y-35236000D01*
X119636027Y-35189884D01*
X119854413Y-35099426D01*
X120050955Y-34968101D01*
X120218101Y-34800955D01*
X120341672Y-34616017D01*
X126360090Y-34616017D01*
X126401078Y-34888133D01*
X126494364Y-35147023D01*
X126556344Y-35262980D01*
X126796435Y-35329960D01*
X127582395Y-34544000D01*
X127941605Y-34544000D01*
X128727565Y-35329960D01*
X128967656Y-35262980D01*
X129084756Y-35013952D01*
X129151023Y-34746865D01*
X129163910Y-34471983D01*
X129122922Y-34199867D01*
X129029636Y-33940977D01*
X128967656Y-33825020D01*
X128727565Y-33758040D01*
X127941605Y-34544000D01*
X127582395Y-34544000D01*
X126796435Y-33758040D01*
X126556344Y-33825020D01*
X126439244Y-34074048D01*
X126372977Y-34341135D01*
X126360090Y-34616017D01*
X120341672Y-34616017D01*
X120349426Y-34604413D01*
X120439884Y-34386027D01*
X120486000Y-34154190D01*
X120486000Y-33917810D01*
X120439884Y-33685973D01*
X120349426Y-33467587D01*
X120218101Y-33271045D01*
X120050955Y-33103899D01*
X119854413Y-32972574D01*
X119636027Y-32882116D01*
X119404190Y-32836000D01*
X119167810Y-32836000D01*
X118935973Y-32882116D01*
X118717587Y-32972574D01*
X118521045Y-33103899D01*
X118353899Y-33271045D01*
X118222574Y-33467587D01*
X118132116Y-33685973D01*
X118086000Y-33917810D01*
X112546000Y-33917810D01*
X112499884Y-33685973D01*
X112409426Y-33467587D01*
X112278101Y-33271045D01*
X112110955Y-33103899D01*
X111914413Y-32972574D01*
X111696027Y-32882116D01*
X111464190Y-32836000D01*
X111227810Y-32836000D01*
X110995973Y-32882116D01*
X110777587Y-32972574D01*
X110581045Y-33103899D01*
X110413899Y-33271045D01*
X110282574Y-33467587D01*
X110271690Y-33493864D01*
X105030555Y-38735000D01*
X103480072Y-38735000D01*
X103480072Y-38128000D01*
X103467812Y-38003518D01*
X103431502Y-37883820D01*
X103372537Y-37773506D01*
X103293185Y-37676815D01*
X103196494Y-37597463D01*
X103086180Y-37538498D01*
X102966482Y-37502188D01*
X102842000Y-37489928D01*
X99342000Y-37489928D01*
X99217518Y-37502188D01*
X99097820Y-37538498D01*
X98987506Y-37597463D01*
X98890815Y-37676815D01*
X98811463Y-37773506D01*
X98770506Y-37850131D01*
X98780072Y-37753000D01*
X98780072Y-36003000D01*
X98750999Y-35707814D01*
X98664896Y-35423972D01*
X98640324Y-35378000D01*
X98703928Y-35378000D01*
X98716188Y-35502482D01*
X98752498Y-35622180D01*
X98811463Y-35732494D01*
X98890815Y-35829185D01*
X98987506Y-35908537D01*
X99097820Y-35967502D01*
X99217518Y-36003812D01*
X99342000Y-36016072D01*
X100806250Y-36013000D01*
X100965000Y-35854250D01*
X100965000Y-34005000D01*
X101219000Y-34005000D01*
X101219000Y-35854250D01*
X101377750Y-36013000D01*
X102842000Y-36016072D01*
X102966482Y-36003812D01*
X103086180Y-35967502D01*
X103196494Y-35908537D01*
X103293185Y-35829185D01*
X103372537Y-35732494D01*
X103431502Y-35622180D01*
X103467812Y-35502482D01*
X103480072Y-35378000D01*
X103477000Y-34163750D01*
X103318250Y-34005000D01*
X101219000Y-34005000D01*
X100965000Y-34005000D01*
X98865750Y-34005000D01*
X98707000Y-34163750D01*
X98703928Y-35378000D01*
X98640324Y-35378000D01*
X98525073Y-35162382D01*
X98336903Y-34933097D01*
X98107618Y-34744927D01*
X97846028Y-34605104D01*
X97562186Y-34519001D01*
X97267000Y-34489928D01*
X95517000Y-34489928D01*
X95221814Y-34519001D01*
X94937972Y-34605104D01*
X94676382Y-34744927D01*
X94447097Y-34933097D01*
X94258927Y-35162382D01*
X94119104Y-35423972D01*
X94033001Y-35707814D01*
X94003928Y-36003000D01*
X84219000Y-36003000D01*
X84219000Y-35876635D01*
X84164623Y-35603260D01*
X84057957Y-35345746D01*
X83903103Y-35113990D01*
X83706010Y-34916897D01*
X83474254Y-34762043D01*
X83435523Y-34746000D01*
X83474254Y-34729957D01*
X83706010Y-34575103D01*
X83903103Y-34378010D01*
X84057957Y-34146254D01*
X84164623Y-33888740D01*
X84219000Y-33615365D01*
X84219000Y-33336635D01*
X84164623Y-33063260D01*
X84057957Y-32805746D01*
X83903103Y-32573990D01*
X83707113Y-32378000D01*
X98703928Y-32378000D01*
X98707000Y-33592250D01*
X98865750Y-33751000D01*
X100965000Y-33751000D01*
X100965000Y-31901750D01*
X101219000Y-31901750D01*
X101219000Y-33751000D01*
X103318250Y-33751000D01*
X103477000Y-33592250D01*
X103480072Y-32378000D01*
X103467812Y-32253518D01*
X103431502Y-32133820D01*
X103372537Y-32023506D01*
X103293185Y-31926815D01*
X103196494Y-31847463D01*
X103086180Y-31788498D01*
X102966482Y-31752188D01*
X102842000Y-31739928D01*
X101377750Y-31743000D01*
X101219000Y-31901750D01*
X100965000Y-31901750D01*
X100806250Y-31743000D01*
X99342000Y-31739928D01*
X99217518Y-31752188D01*
X99097820Y-31788498D01*
X98987506Y-31847463D01*
X98890815Y-31926815D01*
X98811463Y-32023506D01*
X98752498Y-32133820D01*
X98716188Y-32253518D01*
X98703928Y-32378000D01*
X83707113Y-32378000D01*
X83706010Y-32376897D01*
X83474254Y-32222043D01*
X83435523Y-32206000D01*
X83474254Y-32189957D01*
X83706010Y-32035103D01*
X83903103Y-31838010D01*
X84057957Y-31606254D01*
X84152581Y-31377810D01*
X110146000Y-31377810D01*
X110146000Y-31614190D01*
X110192116Y-31846027D01*
X110282574Y-32064413D01*
X110413899Y-32260955D01*
X110581045Y-32428101D01*
X110777587Y-32559426D01*
X110995973Y-32649884D01*
X111227810Y-32696000D01*
X111464190Y-32696000D01*
X111696027Y-32649884D01*
X111914413Y-32559426D01*
X112110955Y-32428101D01*
X112218340Y-32320716D01*
X118640889Y-32320716D01*
X118683933Y-32540740D01*
X118899320Y-32638123D01*
X119129567Y-32691615D01*
X119365826Y-32699160D01*
X119599017Y-32660468D01*
X119820179Y-32577027D01*
X119888067Y-32540740D01*
X119931111Y-32320716D01*
X119286000Y-31675605D01*
X118640889Y-32320716D01*
X112218340Y-32320716D01*
X112278101Y-32260955D01*
X112409426Y-32064413D01*
X112499884Y-31846027D01*
X112546000Y-31614190D01*
X112546000Y-31575826D01*
X118082840Y-31575826D01*
X118121532Y-31809017D01*
X118204973Y-32030179D01*
X118241260Y-32098067D01*
X118461284Y-32141111D01*
X119106395Y-31496000D01*
X119465605Y-31496000D01*
X120110716Y-32141111D01*
X120330740Y-32098067D01*
X120428123Y-31882680D01*
X120431903Y-31866408D01*
X126365000Y-31866408D01*
X126365000Y-32141592D01*
X126418686Y-32411490D01*
X126523995Y-32665727D01*
X126676880Y-32894535D01*
X126871465Y-33089120D01*
X127100273Y-33242005D01*
X127171943Y-33271692D01*
X127158977Y-33276364D01*
X127043020Y-33338344D01*
X126976040Y-33578435D01*
X127762000Y-34364395D01*
X128547960Y-33578435D01*
X128480980Y-33338344D01*
X128345240Y-33274515D01*
X128423727Y-33242005D01*
X128652535Y-33089120D01*
X128847120Y-32894535D01*
X129000005Y-32665727D01*
X129105314Y-32411490D01*
X129159000Y-32141592D01*
X129159000Y-31866408D01*
X129105314Y-31596510D01*
X129000005Y-31342273D01*
X128847120Y-31113465D01*
X128652535Y-30918880D01*
X128423727Y-30765995D01*
X128169490Y-30660686D01*
X127899592Y-30607000D01*
X127624408Y-30607000D01*
X127354510Y-30660686D01*
X127100273Y-30765995D01*
X126871465Y-30918880D01*
X126676880Y-31113465D01*
X126523995Y-31342273D01*
X126418686Y-31596510D01*
X126365000Y-31866408D01*
X120431903Y-31866408D01*
X120481615Y-31652433D01*
X120489160Y-31416174D01*
X120450468Y-31182983D01*
X120367027Y-30961821D01*
X120330740Y-30893933D01*
X120110716Y-30850889D01*
X119465605Y-31496000D01*
X119106395Y-31496000D01*
X118461284Y-30850889D01*
X118241260Y-30893933D01*
X118143877Y-31109320D01*
X118090385Y-31339567D01*
X118082840Y-31575826D01*
X112546000Y-31575826D01*
X112546000Y-31377810D01*
X112499884Y-31145973D01*
X112409426Y-30927587D01*
X112278101Y-30731045D01*
X112218340Y-30671284D01*
X118640889Y-30671284D01*
X119286000Y-31316395D01*
X119931111Y-30671284D01*
X119888067Y-30451260D01*
X119672680Y-30353877D01*
X119442433Y-30300385D01*
X119206174Y-30292840D01*
X118972983Y-30331532D01*
X118751821Y-30414973D01*
X118683933Y-30451260D01*
X118640889Y-30671284D01*
X112218340Y-30671284D01*
X112110955Y-30563899D01*
X111914413Y-30432574D01*
X111696027Y-30342116D01*
X111464190Y-30296000D01*
X111227810Y-30296000D01*
X110995973Y-30342116D01*
X110777587Y-30432574D01*
X110581045Y-30563899D01*
X110413899Y-30731045D01*
X110282574Y-30927587D01*
X110192116Y-31145973D01*
X110146000Y-31377810D01*
X84152581Y-31377810D01*
X84164623Y-31348740D01*
X84219000Y-31075365D01*
X84219000Y-30796635D01*
X84164623Y-30523260D01*
X84057957Y-30265746D01*
X83903103Y-30033990D01*
X83706010Y-29836897D01*
X83474254Y-29682043D01*
X83435523Y-29666000D01*
X83474254Y-29649957D01*
X83628165Y-29547117D01*
X131107000Y-29547117D01*
X131107000Y-29888883D01*
X131173675Y-30224081D01*
X131304463Y-30539831D01*
X131494337Y-30823998D01*
X131736002Y-31065663D01*
X132020169Y-31255537D01*
X132335919Y-31386325D01*
X132671117Y-31453000D01*
X133012883Y-31453000D01*
X133348081Y-31386325D01*
X133663831Y-31255537D01*
X133947998Y-31065663D01*
X134189663Y-30823998D01*
X134379537Y-30539831D01*
X134510325Y-30224081D01*
X134577000Y-29888883D01*
X134577000Y-29547117D01*
X134510325Y-29211919D01*
X134379537Y-28896169D01*
X134189663Y-28612002D01*
X133947998Y-28370337D01*
X133663831Y-28180463D01*
X133348081Y-28049675D01*
X133012883Y-27983000D01*
X132671117Y-27983000D01*
X132335919Y-28049675D01*
X132020169Y-28180463D01*
X131736002Y-28370337D01*
X131494337Y-28612002D01*
X131304463Y-28896169D01*
X131173675Y-29211919D01*
X131107000Y-29547117D01*
X83628165Y-29547117D01*
X83706010Y-29495103D01*
X83903103Y-29298010D01*
X84057957Y-29066254D01*
X84164623Y-28808740D01*
X84219000Y-28535365D01*
X84219000Y-28256635D01*
X84164623Y-27983260D01*
X84057957Y-27725746D01*
X83903103Y-27493990D01*
X83706010Y-27296897D01*
X83474254Y-27142043D01*
X83216740Y-27035377D01*
X82943365Y-26981000D01*
X82664635Y-26981000D01*
X82391260Y-27035377D01*
X82133746Y-27142043D01*
X81901990Y-27296897D01*
X81704897Y-27493990D01*
X81550043Y-27725746D01*
X81443377Y-27983260D01*
X81389000Y-28256635D01*
X81389000Y-28535365D01*
X81443377Y-28808740D01*
X81550043Y-29066254D01*
X81704897Y-29298010D01*
X81901990Y-29495103D01*
X82133746Y-29649957D01*
X82172477Y-29666000D01*
X82133746Y-29682043D01*
X81901990Y-29836897D01*
X81704897Y-30033990D01*
X81550043Y-30265746D01*
X81443377Y-30523260D01*
X81389000Y-30796635D01*
X81389000Y-31075365D01*
X81443377Y-31348740D01*
X81550043Y-31606254D01*
X81704897Y-31838010D01*
X81901990Y-32035103D01*
X82133746Y-32189957D01*
X82172477Y-32206000D01*
X82133746Y-32222043D01*
X81901990Y-32376897D01*
X81704897Y-32573990D01*
X81550043Y-32805746D01*
X81443377Y-33063260D01*
X81389000Y-33336635D01*
X81389000Y-33615365D01*
X81443377Y-33888740D01*
X81550043Y-34146254D01*
X81704897Y-34378010D01*
X81901990Y-34575103D01*
X82133746Y-34729957D01*
X82172477Y-34746000D01*
X82133746Y-34762043D01*
X81901990Y-34916897D01*
X81704897Y-35113990D01*
X81550043Y-35345746D01*
X81443377Y-35603260D01*
X81389000Y-35876635D01*
X81389000Y-36155365D01*
X81443377Y-36428740D01*
X81550043Y-36686254D01*
X81704897Y-36918010D01*
X81901990Y-37115103D01*
X82133746Y-37269957D01*
X82172477Y-37286000D01*
X82133746Y-37302043D01*
X81901990Y-37456897D01*
X81704897Y-37653990D01*
X81550043Y-37885746D01*
X81443377Y-38143260D01*
X81389000Y-38416635D01*
X81389000Y-38695365D01*
X81443377Y-38968740D01*
X81550043Y-39226254D01*
X81704897Y-39458010D01*
X81901990Y-39655103D01*
X82133746Y-39809957D01*
X82172477Y-39826000D01*
X82133746Y-39842043D01*
X81901990Y-39996897D01*
X81704897Y-40193990D01*
X81550043Y-40425746D01*
X81443377Y-40683260D01*
X81389000Y-40956635D01*
X81389000Y-41235365D01*
X81443377Y-41508740D01*
X81550043Y-41766254D01*
X81704897Y-41998010D01*
X81901990Y-42195103D01*
X82133746Y-42349957D01*
X82172477Y-42366000D01*
X82133746Y-42382043D01*
X81901990Y-42536897D01*
X81704897Y-42733990D01*
X81550043Y-42965746D01*
X81443377Y-43223260D01*
X81389000Y-43496635D01*
X81389000Y-43775365D01*
X81406952Y-43865616D01*
X81286067Y-43986501D01*
X78973902Y-43986501D01*
X79013000Y-43789939D01*
X79013000Y-43586061D01*
X78973226Y-43386102D01*
X78895205Y-43197744D01*
X78781937Y-43028226D01*
X78637774Y-42884063D01*
X78468256Y-42770795D01*
X78279898Y-42692774D01*
X78079939Y-42653000D01*
X77876061Y-42653000D01*
X77676102Y-42692774D01*
X77487744Y-42770795D01*
X77350497Y-42862500D01*
X62144970Y-42862500D01*
X62059103Y-42733990D01*
X61862010Y-42536897D01*
X61630254Y-42382043D01*
X61591523Y-42366000D01*
X61630254Y-42349957D01*
X61862010Y-42195103D01*
X62059103Y-41998010D01*
X62075480Y-41973500D01*
X73794497Y-41973500D01*
X73931744Y-42065205D01*
X74120102Y-42143226D01*
X74320061Y-42183000D01*
X74523939Y-42183000D01*
X74723898Y-42143226D01*
X74912256Y-42065205D01*
X75081774Y-41951937D01*
X75225937Y-41807774D01*
X75339205Y-41638256D01*
X75417226Y-41449898D01*
X75457000Y-41249939D01*
X75457000Y-41046061D01*
X75417226Y-40846102D01*
X75339205Y-40657744D01*
X75225937Y-40488226D01*
X75081774Y-40344063D01*
X74912256Y-40230795D01*
X74723898Y-40152774D01*
X74523939Y-40113000D01*
X74320061Y-40113000D01*
X74120102Y-40152774D01*
X73931744Y-40230795D01*
X73794497Y-40322500D01*
X62144970Y-40322500D01*
X62059103Y-40193990D01*
X61862010Y-39996897D01*
X61630254Y-39842043D01*
X61591523Y-39826000D01*
X61630254Y-39809957D01*
X61862010Y-39655103D01*
X62059103Y-39458010D01*
X62213957Y-39226254D01*
X62320623Y-38968740D01*
X62375000Y-38695365D01*
X62375000Y-38416635D01*
X62320623Y-38143260D01*
X62213957Y-37885746D01*
X62059103Y-37653990D01*
X61862010Y-37456897D01*
X61630254Y-37302043D01*
X61591523Y-37286000D01*
X61630254Y-37269957D01*
X61862010Y-37115103D01*
X62059103Y-36918010D01*
X62213957Y-36686254D01*
X62320623Y-36428740D01*
X62375000Y-36155365D01*
X62375000Y-35876635D01*
X62320623Y-35603260D01*
X62213957Y-35345746D01*
X62059103Y-35113990D01*
X61862010Y-34916897D01*
X61630254Y-34762043D01*
X61591523Y-34746000D01*
X61630254Y-34729957D01*
X61862010Y-34575103D01*
X62059103Y-34378010D01*
X62213957Y-34146254D01*
X62320623Y-33888740D01*
X62375000Y-33615365D01*
X62375000Y-33336635D01*
X62320623Y-33063260D01*
X62213957Y-32805746D01*
X62059103Y-32573990D01*
X61862010Y-32376897D01*
X61630254Y-32222043D01*
X61591523Y-32206000D01*
X61630254Y-32189957D01*
X61862010Y-32035103D01*
X62059103Y-31838010D01*
X62213957Y-31606254D01*
X62320623Y-31348740D01*
X62375000Y-31075365D01*
X62375000Y-30796635D01*
X62320623Y-30523260D01*
X62213957Y-30265746D01*
X62059103Y-30033990D01*
X61862010Y-29836897D01*
X61630254Y-29682043D01*
X61591523Y-29666000D01*
X61630254Y-29649957D01*
X61862010Y-29495103D01*
X62059103Y-29298010D01*
X62213957Y-29066254D01*
X62320623Y-28808740D01*
X62375000Y-28535365D01*
X62375000Y-28256635D01*
X62320623Y-27983260D01*
X62213957Y-27725746D01*
X62059103Y-27493990D01*
X61862010Y-27296897D01*
X61630254Y-27142043D01*
X61372740Y-27035377D01*
X61099365Y-26981000D01*
X60820635Y-26981000D01*
X60547260Y-27035377D01*
X60289746Y-27142043D01*
X60057990Y-27296897D01*
X59860897Y-27493990D01*
X59706043Y-27725746D01*
X59599377Y-27983260D01*
X59545000Y-28256635D01*
X59545000Y-28535365D01*
X59599377Y-28808740D01*
X59706043Y-29066254D01*
X59860897Y-29298010D01*
X60057990Y-29495103D01*
X60289746Y-29649957D01*
X60328477Y-29666000D01*
X60289746Y-29682043D01*
X60057990Y-29836897D01*
X59860897Y-30033990D01*
X59706043Y-30265746D01*
X59599377Y-30523260D01*
X59545000Y-30796635D01*
X59545000Y-31075365D01*
X59599377Y-31348740D01*
X59706043Y-31606254D01*
X59860897Y-31838010D01*
X60057990Y-32035103D01*
X60289746Y-32189957D01*
X60328477Y-32206000D01*
X60289746Y-32222043D01*
X60057990Y-32376897D01*
X59860897Y-32573990D01*
X59706043Y-32805746D01*
X59599377Y-33063260D01*
X59545000Y-33336635D01*
X59545000Y-33615365D01*
X59599377Y-33888740D01*
X59706043Y-34146254D01*
X59860897Y-34378010D01*
X60057990Y-34575103D01*
X60289746Y-34729957D01*
X60328477Y-34746000D01*
X60289746Y-34762043D01*
X60057990Y-34916897D01*
X59860897Y-35113990D01*
X59706043Y-35345746D01*
X59599377Y-35603260D01*
X59545000Y-35876635D01*
X59545000Y-36155365D01*
X59599377Y-36428740D01*
X59706043Y-36686254D01*
X59860897Y-36918010D01*
X60057990Y-37115103D01*
X60289746Y-37269957D01*
X60328477Y-37286000D01*
X60289746Y-37302043D01*
X60057990Y-37456897D01*
X59860897Y-37653990D01*
X59706043Y-37885746D01*
X59599377Y-38143260D01*
X59545000Y-38416635D01*
X59545000Y-38695365D01*
X59599377Y-38968740D01*
X59706043Y-39226254D01*
X59860897Y-39458010D01*
X60057990Y-39655103D01*
X60289746Y-39809957D01*
X60328477Y-39826000D01*
X60289746Y-39842043D01*
X60057990Y-39996897D01*
X59860897Y-40193990D01*
X59706043Y-40425746D01*
X59599377Y-40683260D01*
X59545000Y-40956635D01*
X59545000Y-41235365D01*
X59599377Y-41508740D01*
X59706043Y-41766254D01*
X59860897Y-41998010D01*
X60057990Y-42195103D01*
X60289746Y-42349957D01*
X60328477Y-42366000D01*
X60289746Y-42382043D01*
X60057990Y-42536897D01*
X59860897Y-42733990D01*
X59706043Y-42965746D01*
X59599377Y-43223260D01*
X59545000Y-43496635D01*
X59545000Y-43775365D01*
X59599377Y-44048740D01*
X59706043Y-44306254D01*
X59860897Y-44538010D01*
X60057990Y-44735103D01*
X60289746Y-44889957D01*
X60328477Y-44906000D01*
X60289746Y-44922043D01*
X60057990Y-45076897D01*
X59860897Y-45273990D01*
X59706043Y-45505746D01*
X59599377Y-45763260D01*
X59545000Y-46036635D01*
X59545000Y-46315365D01*
X59599377Y-46588740D01*
X59706043Y-46846254D01*
X59860897Y-47078010D01*
X60057990Y-47275103D01*
X60289746Y-47429957D01*
X60328477Y-47446000D01*
X60289746Y-47462043D01*
X60057990Y-47616897D01*
X59860897Y-47813990D01*
X59706043Y-48045746D01*
X59599377Y-48303260D01*
X59545000Y-48576635D01*
X59545000Y-48855365D01*
X59599377Y-49128740D01*
X59706043Y-49386254D01*
X59860897Y-49618010D01*
X60057990Y-49815103D01*
X60289746Y-49969957D01*
X60328477Y-49986000D01*
X60289746Y-50002043D01*
X60057990Y-50156897D01*
X59860897Y-50353990D01*
X59706043Y-50585746D01*
X59599377Y-50843260D01*
X59545000Y-51116635D01*
X59545000Y-51395365D01*
X59599377Y-51668740D01*
X59706043Y-51926254D01*
X59860897Y-52158010D01*
X60057990Y-52355103D01*
X60289746Y-52509957D01*
X60328477Y-52526000D01*
X60289746Y-52542043D01*
X60057990Y-52696897D01*
X59860897Y-52893990D01*
X59706043Y-53125746D01*
X59599377Y-53383260D01*
X59545000Y-53656635D01*
X59545000Y-53935365D01*
X59599377Y-54208740D01*
X59706043Y-54466254D01*
X59860897Y-54698010D01*
X60057990Y-54895103D01*
X60289746Y-55049957D01*
X60328477Y-55066000D01*
X60289746Y-55082043D01*
X60057990Y-55236897D01*
X59860897Y-55433990D01*
X59706043Y-55665746D01*
X59599377Y-55923260D01*
X59545000Y-56196635D01*
X59545000Y-56475365D01*
X59599377Y-56748740D01*
X59706043Y-57006254D01*
X59860897Y-57238010D01*
X60057990Y-57435103D01*
X60289746Y-57589957D01*
X60325525Y-57604777D01*
X60230345Y-57655651D01*
X60161184Y-57897579D01*
X60960000Y-58696395D01*
X61758816Y-57897579D01*
X61689655Y-57655651D01*
X61587721Y-57607575D01*
X61630254Y-57589957D01*
X61862010Y-57435103D01*
X62059103Y-57238010D01*
X62075480Y-57213500D01*
X72524497Y-57213500D01*
X72661744Y-57305205D01*
X72850102Y-57383226D01*
X73050061Y-57423000D01*
X73253939Y-57423000D01*
X73453898Y-57383226D01*
X73642256Y-57305205D01*
X73811774Y-57191937D01*
X73955937Y-57047774D01*
X74069205Y-56878256D01*
X74147226Y-56689898D01*
X74187000Y-56489939D01*
X74187000Y-56286061D01*
X74147226Y-56086102D01*
X74069205Y-55897744D01*
X73955937Y-55728226D01*
X73917211Y-55689500D01*
X76842497Y-55689500D01*
X76979744Y-55781205D01*
X77168102Y-55859226D01*
X77368061Y-55899000D01*
X77571939Y-55899000D01*
X77771898Y-55859226D01*
X77960256Y-55781205D01*
X78129774Y-55667937D01*
X78273937Y-55523774D01*
X78387205Y-55354256D01*
X78465226Y-55165898D01*
X78505000Y-54965939D01*
X78505000Y-54762061D01*
X78465226Y-54562102D01*
X78387205Y-54373744D01*
X78273937Y-54204226D01*
X78129774Y-54060063D01*
X77960256Y-53946795D01*
X77771898Y-53868774D01*
X77571939Y-53829000D01*
X77368061Y-53829000D01*
X77168102Y-53868774D01*
X76979744Y-53946795D01*
X76842497Y-54038500D01*
X67207047Y-54038500D01*
X67292256Y-54003205D01*
X67461774Y-53889937D01*
X67605937Y-53745774D01*
X67719205Y-53576256D01*
X67797226Y-53387898D01*
X67837000Y-53187939D01*
X67837000Y-52984061D01*
X67797226Y-52784102D01*
X67719205Y-52595744D01*
X67605937Y-52426226D01*
X67461774Y-52282063D01*
X67292256Y-52168795D01*
X67103898Y-52090774D01*
X66937668Y-52057709D01*
X66862843Y-51996302D01*
X66719435Y-51919648D01*
X66563827Y-51872445D01*
X66442554Y-51860501D01*
X66442551Y-51860501D01*
X66402001Y-51856507D01*
X66361451Y-51860501D01*
X62731934Y-51860501D01*
X62357048Y-51485616D01*
X62375000Y-51395365D01*
X62375000Y-51298433D01*
X62431606Y-51355039D01*
X62457459Y-51386541D01*
X62521596Y-51439177D01*
X62583157Y-51489699D01*
X62628812Y-51514102D01*
X62726566Y-51566353D01*
X62882174Y-51613556D01*
X63003447Y-51625500D01*
X63003449Y-51625500D01*
X63043999Y-51629494D01*
X63084550Y-51625500D01*
X64396497Y-51625500D01*
X64533744Y-51717205D01*
X64722102Y-51795226D01*
X64922061Y-51835000D01*
X65125939Y-51835000D01*
X65325898Y-51795226D01*
X65514256Y-51717205D01*
X65683774Y-51603937D01*
X65827937Y-51459774D01*
X65941205Y-51290256D01*
X66019226Y-51101898D01*
X66059000Y-50901939D01*
X66059000Y-50698061D01*
X66019226Y-50498102D01*
X65941205Y-50309744D01*
X65827937Y-50140226D01*
X65683774Y-49996063D01*
X65514256Y-49882795D01*
X65325898Y-49804774D01*
X65125939Y-49765000D01*
X64922061Y-49765000D01*
X64722102Y-49804774D01*
X64533744Y-49882795D01*
X64396497Y-49974500D01*
X63385933Y-49974500D01*
X62357048Y-48945616D01*
X62375000Y-48855365D01*
X62375000Y-48576635D01*
X62320623Y-48303260D01*
X62213957Y-48045746D01*
X62059103Y-47813990D01*
X61862010Y-47616897D01*
X61630254Y-47462043D01*
X61591523Y-47446000D01*
X61630254Y-47429957D01*
X61862010Y-47275103D01*
X62059103Y-47078010D01*
X62213957Y-46846254D01*
X62320623Y-46588740D01*
X62375000Y-46315365D01*
X62375000Y-46036635D01*
X62320623Y-45763260D01*
X62213957Y-45505746D01*
X62059103Y-45273990D01*
X61862010Y-45076897D01*
X61630254Y-44922043D01*
X61591523Y-44906000D01*
X61630254Y-44889957D01*
X61862010Y-44735103D01*
X62059103Y-44538010D01*
X62075480Y-44513500D01*
X75942789Y-44513500D01*
X75904063Y-44552226D01*
X75790795Y-44721744D01*
X75712774Y-44910102D01*
X75673000Y-45110061D01*
X75673000Y-45313939D01*
X75712774Y-45513898D01*
X75790795Y-45702256D01*
X75904063Y-45871774D01*
X76048226Y-46015937D01*
X76217744Y-46129205D01*
X76406102Y-46207226D01*
X76606061Y-46247000D01*
X76809939Y-46247000D01*
X76943000Y-46220533D01*
X76943000Y-46329939D01*
X76982774Y-46529898D01*
X77060795Y-46718256D01*
X77174063Y-46887774D01*
X77318226Y-47031937D01*
X77487744Y-47145205D01*
X77676102Y-47223226D01*
X77876061Y-47263000D01*
X78079939Y-47263000D01*
X78279898Y-47223226D01*
X78468256Y-47145205D01*
X78637774Y-47031937D01*
X78668211Y-47001500D01*
X81653775Y-47001500D01*
X81704897Y-47078010D01*
X81901990Y-47275103D01*
X82133746Y-47429957D01*
X82172477Y-47446000D01*
X82133746Y-47462043D01*
X81901990Y-47616897D01*
X81704897Y-47813990D01*
X81550043Y-48045746D01*
X81443377Y-48303260D01*
X81389000Y-48576635D01*
X81389000Y-48855365D01*
X81443377Y-49128740D01*
X81550043Y-49386254D01*
X81704897Y-49618010D01*
X81901990Y-49815103D01*
X82133746Y-49969957D01*
X82172477Y-49986000D01*
X82133746Y-50002043D01*
X81901990Y-50156897D01*
X81704897Y-50353990D01*
X81550043Y-50585746D01*
X81443377Y-50843260D01*
X81389000Y-51116635D01*
X81389000Y-51395365D01*
X81443377Y-51668740D01*
X81550043Y-51926254D01*
X81704897Y-52158010D01*
X81901990Y-52355103D01*
X82133746Y-52509957D01*
X82172477Y-52526000D01*
X82133746Y-52542043D01*
X81901990Y-52696897D01*
X81704897Y-52893990D01*
X81550043Y-53125746D01*
X81443377Y-53383260D01*
X81389000Y-53656635D01*
X81389000Y-53935365D01*
X81443377Y-54208740D01*
X81550043Y-54466254D01*
X81704897Y-54698010D01*
X81901990Y-54895103D01*
X82133746Y-55049957D01*
X82172477Y-55066000D01*
X82133746Y-55082043D01*
X81901990Y-55236897D01*
X81704897Y-55433990D01*
X81550043Y-55665746D01*
X81443377Y-55923260D01*
X81389000Y-56196635D01*
X81389000Y-56475365D01*
X81443377Y-56748740D01*
X81550043Y-57006254D01*
X81704897Y-57238010D01*
X81901990Y-57435103D01*
X82133746Y-57589957D01*
X82172477Y-57606000D01*
X82133746Y-57622043D01*
X81901990Y-57776897D01*
X81704897Y-57973990D01*
X81550043Y-58205746D01*
X81443377Y-58463260D01*
X81389000Y-58736635D01*
X81389000Y-59015365D01*
X81406952Y-59105616D01*
X81394068Y-59118500D01*
X71747503Y-59118500D01*
X71610256Y-59026795D01*
X71421898Y-58948774D01*
X71221939Y-58909000D01*
X71018061Y-58909000D01*
X70818102Y-58948774D01*
X70629744Y-59026795D01*
X70460226Y-59140063D01*
X70316063Y-59284226D01*
X70202795Y-59453744D01*
X70124774Y-59642102D01*
X70085000Y-59842061D01*
X70085000Y-60045939D01*
X70124774Y-60245898D01*
X70202795Y-60434256D01*
X70316063Y-60603774D01*
X70460226Y-60747937D01*
X70629744Y-60861205D01*
X70818102Y-60939226D01*
X71018061Y-60979000D01*
X71221939Y-60979000D01*
X71421898Y-60939226D01*
X71610256Y-60861205D01*
X71747503Y-60769500D01*
X81540204Y-60769500D01*
X81443377Y-61003260D01*
X81389000Y-61276635D01*
X81389000Y-61555365D01*
X81443377Y-61828740D01*
X81478072Y-61912500D01*
X68953503Y-61912500D01*
X68816256Y-61820795D01*
X68627898Y-61742774D01*
X68427939Y-61703000D01*
X68224061Y-61703000D01*
X68024102Y-61742774D01*
X67835744Y-61820795D01*
X67666226Y-61934063D01*
X67522063Y-62078226D01*
X67408795Y-62247744D01*
X67330774Y-62436102D01*
X67291000Y-62636061D01*
X67291000Y-62839939D01*
X67330774Y-63039898D01*
X67408795Y-63228256D01*
X67522063Y-63397774D01*
X67666226Y-63541937D01*
X67835744Y-63655205D01*
X68024102Y-63733226D01*
X68224061Y-63773000D01*
X68427939Y-63773000D01*
X68627898Y-63733226D01*
X68816256Y-63655205D01*
X68953503Y-63563500D01*
X81439351Y-63563500D01*
X81389000Y-63816635D01*
X81389000Y-64095365D01*
X81443377Y-64368740D01*
X81550043Y-64626254D01*
X81704897Y-64858010D01*
X81901990Y-65055103D01*
X82133746Y-65209957D01*
X82172477Y-65226000D01*
X82133746Y-65242043D01*
X81901990Y-65396897D01*
X81704897Y-65593990D01*
X81550043Y-65825746D01*
X81443377Y-66083260D01*
X81389000Y-66356635D01*
X81389000Y-66635365D01*
X81443377Y-66908740D01*
X81478072Y-66992500D01*
X62285928Y-66992500D01*
X62320623Y-66908740D01*
X62375000Y-66635365D01*
X62375000Y-66356635D01*
X62320623Y-66083260D01*
X62213957Y-65825746D01*
X62059103Y-65593990D01*
X61862010Y-65396897D01*
X61630254Y-65242043D01*
X61591523Y-65226000D01*
X61630254Y-65209957D01*
X61862010Y-65055103D01*
X62059103Y-64858010D01*
X62213957Y-64626254D01*
X62320623Y-64368740D01*
X62375000Y-64095365D01*
X62375000Y-63816635D01*
X62320623Y-63543260D01*
X62213957Y-63285746D01*
X62059103Y-63053990D01*
X61862010Y-62856897D01*
X61630254Y-62702043D01*
X61591523Y-62686000D01*
X61630254Y-62669957D01*
X61862010Y-62515103D01*
X62059103Y-62318010D01*
X62213957Y-62086254D01*
X62320623Y-61828740D01*
X62375000Y-61555365D01*
X62375000Y-61276635D01*
X62320623Y-61003260D01*
X62213957Y-60745746D01*
X62059103Y-60513990D01*
X61862010Y-60316897D01*
X61630254Y-60162043D01*
X61594475Y-60147223D01*
X61689655Y-60096349D01*
X61758816Y-59854421D01*
X60960000Y-59055605D01*
X60161184Y-59854421D01*
X60230345Y-60096349D01*
X60332279Y-60144425D01*
X60289746Y-60162043D01*
X60057990Y-60316897D01*
X59860897Y-60513990D01*
X59706043Y-60745746D01*
X59599377Y-61003260D01*
X59545000Y-61276635D01*
X59545000Y-61555365D01*
X59599377Y-61828740D01*
X59706043Y-62086254D01*
X59860897Y-62318010D01*
X60057990Y-62515103D01*
X60289746Y-62669957D01*
X60328477Y-62686000D01*
X60289746Y-62702043D01*
X60057990Y-62856897D01*
X59860897Y-63053990D01*
X59706043Y-63285746D01*
X59599377Y-63543260D01*
X59545000Y-63816635D01*
X59545000Y-64095365D01*
X59599377Y-64368740D01*
X59706043Y-64626254D01*
X59860897Y-64858010D01*
X60057990Y-65055103D01*
X60289746Y-65209957D01*
X60328477Y-65226000D01*
X60289746Y-65242043D01*
X60057990Y-65396897D01*
X59860897Y-65593990D01*
X59706043Y-65825746D01*
X59599377Y-66083260D01*
X59545000Y-66356635D01*
X59545000Y-66635365D01*
X59599377Y-66908740D01*
X59634072Y-66992500D01*
X55491503Y-66992500D01*
X55354256Y-66900795D01*
X55165898Y-66822774D01*
X54965939Y-66783000D01*
X54762061Y-66783000D01*
X54562102Y-66822774D01*
X54373744Y-66900795D01*
X54204226Y-67014063D01*
X54060063Y-67158226D01*
X53946795Y-67327744D01*
X53868774Y-67516102D01*
X53829000Y-67716061D01*
X48920000Y-67716061D01*
X48920000Y-58947303D01*
X59539943Y-58947303D01*
X59581140Y-59222972D01*
X59675325Y-59485308D01*
X59739651Y-59605655D01*
X59981579Y-59674816D01*
X60780395Y-58876000D01*
X61139605Y-58876000D01*
X61938421Y-59674816D01*
X62180349Y-59605655D01*
X62299248Y-59353557D01*
X62366681Y-59083106D01*
X62380057Y-58804697D01*
X62338860Y-58529028D01*
X62244675Y-58266692D01*
X62180349Y-58146345D01*
X61938421Y-58077184D01*
X61139605Y-58876000D01*
X60780395Y-58876000D01*
X59981579Y-58077184D01*
X59739651Y-58146345D01*
X59620752Y-58398443D01*
X59553319Y-58668894D01*
X59539943Y-58947303D01*
X48920000Y-58947303D01*
X48920000Y-29547117D01*
X50843000Y-29547117D01*
X50843000Y-29888883D01*
X50909675Y-30224081D01*
X51040463Y-30539831D01*
X51230337Y-30823998D01*
X51472002Y-31065663D01*
X51756169Y-31255537D01*
X52071919Y-31386325D01*
X52407117Y-31453000D01*
X52748883Y-31453000D01*
X53084081Y-31386325D01*
X53399831Y-31255537D01*
X53683998Y-31065663D01*
X53925663Y-30823998D01*
X54115537Y-30539831D01*
X54246325Y-30224081D01*
X54313000Y-29888883D01*
X54313000Y-29547117D01*
X54246325Y-29211919D01*
X54115537Y-28896169D01*
X53925663Y-28612002D01*
X53683998Y-28370337D01*
X53399831Y-28180463D01*
X53084081Y-28049675D01*
X52748883Y-27983000D01*
X52407117Y-27983000D01*
X52071919Y-28049675D01*
X51756169Y-28180463D01*
X51472002Y-28370337D01*
X51230337Y-28612002D01*
X51040463Y-28896169D01*
X50909675Y-29211919D01*
X50843000Y-29547117D01*
X48920000Y-29547117D01*
X48920000Y-27972279D01*
X48958909Y-27575455D01*
X49064780Y-27224792D01*
X49236744Y-26901375D01*
X49468254Y-26617516D01*
X49750486Y-26384035D01*
X50072695Y-26209817D01*
X50422614Y-26101498D01*
X50817443Y-26060000D01*
X134587721Y-26060000D01*
X134984545Y-26098909D01*
G36*
X83854696Y-52371044D02*
G01*
X83880545Y-52402541D01*
X83912041Y-52428389D01*
X83912044Y-52428392D01*
X84006243Y-52505699D01*
X84074238Y-52542043D01*
X84149652Y-52582353D01*
X84305260Y-52629556D01*
X84426533Y-52641500D01*
X84426535Y-52641500D01*
X84467086Y-52645494D01*
X84507636Y-52641500D01*
X99002255Y-52641500D01*
X98990738Y-52668724D01*
X98975780Y-52742930D01*
X99098280Y-52959000D01*
X100965000Y-52959000D01*
X100965000Y-52939000D01*
X101219000Y-52939000D01*
X101219000Y-52959000D01*
X103085720Y-52959000D01*
X103208220Y-52742930D01*
X103193262Y-52668724D01*
X103181745Y-52641500D01*
X107267842Y-52641500D01*
X107208774Y-52784102D01*
X107169000Y-52984061D01*
X107169000Y-53187939D01*
X107208774Y-53387898D01*
X107267842Y-53530500D01*
X103181745Y-53530500D01*
X103193262Y-53503276D01*
X103208220Y-53429070D01*
X103085720Y-53213000D01*
X101219000Y-53213000D01*
X101219000Y-53233000D01*
X100965000Y-53233000D01*
X100965000Y-53213000D01*
X99098280Y-53213000D01*
X98975780Y-53429070D01*
X98990738Y-53503276D01*
X99002255Y-53530500D01*
X84809019Y-53530500D01*
X84519483Y-53240965D01*
X84493627Y-53209459D01*
X84367928Y-53106301D01*
X84224520Y-53029647D01*
X84068912Y-52982444D01*
X83954689Y-52971194D01*
X83903103Y-52893990D01*
X83706010Y-52696897D01*
X83474254Y-52542043D01*
X83435523Y-52526000D01*
X83474254Y-52509957D01*
X83706010Y-52355103D01*
X83772383Y-52288730D01*
X83854696Y-52371044D01*
X83854696Y-52371044D01*
G37*
X83854696Y-52371044D02*
X83880545Y-52402541D01*
X83912041Y-52428389D01*
X83912044Y-52428392D01*
X84006243Y-52505699D01*
X84074238Y-52542043D01*
X84149652Y-52582353D01*
X84305260Y-52629556D01*
X84426533Y-52641500D01*
X84426535Y-52641500D01*
X84467086Y-52645494D01*
X84507636Y-52641500D01*
X99002255Y-52641500D01*
X98990738Y-52668724D01*
X98975780Y-52742930D01*
X99098280Y-52959000D01*
X100965000Y-52959000D01*
X100965000Y-52939000D01*
X101219000Y-52939000D01*
X101219000Y-52959000D01*
X103085720Y-52959000D01*
X103208220Y-52742930D01*
X103193262Y-52668724D01*
X103181745Y-52641500D01*
X107267842Y-52641500D01*
X107208774Y-52784102D01*
X107169000Y-52984061D01*
X107169000Y-53187939D01*
X107208774Y-53387898D01*
X107267842Y-53530500D01*
X103181745Y-53530500D01*
X103193262Y-53503276D01*
X103208220Y-53429070D01*
X103085720Y-53213000D01*
X101219000Y-53213000D01*
X101219000Y-53233000D01*
X100965000Y-53233000D01*
X100965000Y-53213000D01*
X99098280Y-53213000D01*
X98975780Y-53429070D01*
X98990738Y-53503276D01*
X99002255Y-53530500D01*
X84809019Y-53530500D01*
X84519483Y-53240965D01*
X84493627Y-53209459D01*
X84367928Y-53106301D01*
X84224520Y-53029647D01*
X84068912Y-52982444D01*
X83954689Y-52971194D01*
X83903103Y-52893990D01*
X83706010Y-52696897D01*
X83474254Y-52542043D01*
X83435523Y-52526000D01*
X83474254Y-52509957D01*
X83706010Y-52355103D01*
X83772383Y-52288730D01*
X83854696Y-52371044D01*
M02*
