G04 #@! TF.GenerationSoftware,KiCad,Pcbnew,(5.1.4)-1*
G04 #@! TF.CreationDate,2021-09-17T13:15:57-05:00*
G04 #@! TF.ProjectId,CareMate,43617265-4d61-4746-952e-6b696361645f,rev?*
G04 #@! TF.SameCoordinates,Original*
G04 #@! TF.FileFunction,Soldermask,Bot*
G04 #@! TF.FilePolarity,Negative*
%FSLAX46Y46*%
G04 Gerber Fmt 4.6, Leading zero omitted, Abs format (unit mm)*
G04 Created by KiCad (PCBNEW (5.1.4)-1) date 2021-09-17 13:15:57*
%MOMM*%
%LPD*%
G04 APERTURE LIST*
%ADD10C,0.100000*%
G04 APERTURE END LIST*
D10*
G36*
X132304549Y-95391116D02*
G01*
X132415734Y-95413232D01*
X132625203Y-95499997D01*
X132813720Y-95625960D01*
X132974040Y-95786280D01*
X133100003Y-95974797D01*
X133186768Y-96184266D01*
X133231000Y-96406636D01*
X133231000Y-96633364D01*
X133186768Y-96855734D01*
X133100003Y-97065203D01*
X132974040Y-97253720D01*
X132813720Y-97414040D01*
X132625203Y-97540003D01*
X132415734Y-97626768D01*
X132304549Y-97648884D01*
X132193365Y-97671000D01*
X131966635Y-97671000D01*
X131855451Y-97648884D01*
X131744266Y-97626768D01*
X131534797Y-97540003D01*
X131346280Y-97414040D01*
X131185960Y-97253720D01*
X131059997Y-97065203D01*
X130973232Y-96855734D01*
X130929000Y-96633364D01*
X130929000Y-96406636D01*
X130973232Y-96184266D01*
X131059997Y-95974797D01*
X131185960Y-95786280D01*
X131346280Y-95625960D01*
X131534797Y-95499997D01*
X131744266Y-95413232D01*
X131855451Y-95391116D01*
X131966635Y-95369000D01*
X132193365Y-95369000D01*
X132304549Y-95391116D01*
X132304549Y-95391116D01*
G37*
G36*
X53564549Y-95391116D02*
G01*
X53675734Y-95413232D01*
X53885203Y-95499997D01*
X54073720Y-95625960D01*
X54234040Y-95786280D01*
X54360003Y-95974797D01*
X54446768Y-96184266D01*
X54491000Y-96406636D01*
X54491000Y-96633364D01*
X54446768Y-96855734D01*
X54360003Y-97065203D01*
X54234040Y-97253720D01*
X54073720Y-97414040D01*
X53885203Y-97540003D01*
X53675734Y-97626768D01*
X53564549Y-97648884D01*
X53453365Y-97671000D01*
X53226635Y-97671000D01*
X53115451Y-97648884D01*
X53004266Y-97626768D01*
X52794797Y-97540003D01*
X52606280Y-97414040D01*
X52445960Y-97253720D01*
X52319997Y-97065203D01*
X52233232Y-96855734D01*
X52189000Y-96633364D01*
X52189000Y-96406636D01*
X52233232Y-96184266D01*
X52319997Y-95974797D01*
X52445960Y-95786280D01*
X52606280Y-95625960D01*
X52794797Y-95499997D01*
X53004266Y-95413232D01*
X53115451Y-95391116D01*
X53226635Y-95369000D01*
X53453365Y-95369000D01*
X53564549Y-95391116D01*
X53564549Y-95391116D01*
G37*
G36*
X63564433Y-94404893D02*
G01*
X63654657Y-94422839D01*
X63760267Y-94466585D01*
X63909621Y-94528449D01*
X63909622Y-94528450D01*
X64139086Y-94681772D01*
X64334228Y-94876914D01*
X64436675Y-95030237D01*
X64487551Y-95106379D01*
X64593161Y-95361344D01*
X64647000Y-95632012D01*
X64647000Y-95907988D01*
X64611107Y-96088433D01*
X64593161Y-96178657D01*
X64590837Y-96184267D01*
X64487551Y-96433621D01*
X64487550Y-96433622D01*
X64334228Y-96663086D01*
X64139086Y-96858228D01*
X63985763Y-96960675D01*
X63909621Y-97011551D01*
X63760267Y-97073415D01*
X63654657Y-97117161D01*
X63564433Y-97135107D01*
X63383988Y-97171000D01*
X63108012Y-97171000D01*
X62927567Y-97135107D01*
X62837343Y-97117161D01*
X62731733Y-97073415D01*
X62582379Y-97011551D01*
X62506237Y-96960675D01*
X62352914Y-96858228D01*
X62157772Y-96663086D01*
X62004450Y-96433622D01*
X62004449Y-96433621D01*
X61901163Y-96184267D01*
X61898839Y-96178657D01*
X61880893Y-96088433D01*
X61845000Y-95907988D01*
X61845000Y-95632012D01*
X61898839Y-95361344D01*
X62004449Y-95106379D01*
X62055325Y-95030237D01*
X62157772Y-94876914D01*
X62352914Y-94681772D01*
X62582378Y-94528450D01*
X62582379Y-94528449D01*
X62731733Y-94466585D01*
X62837343Y-94422839D01*
X62927567Y-94404893D01*
X63108012Y-94369000D01*
X63383988Y-94369000D01*
X63564433Y-94404893D01*
X63564433Y-94404893D01*
G37*
G36*
X80364433Y-94404893D02*
G01*
X80454657Y-94422839D01*
X80560267Y-94466585D01*
X80709621Y-94528449D01*
X80709622Y-94528450D01*
X80939086Y-94681772D01*
X81134228Y-94876914D01*
X81236675Y-95030237D01*
X81287551Y-95106379D01*
X81393161Y-95361344D01*
X81447000Y-95632012D01*
X81447000Y-95907988D01*
X81411107Y-96088433D01*
X81393161Y-96178657D01*
X81390837Y-96184267D01*
X81287551Y-96433621D01*
X81287550Y-96433622D01*
X81134228Y-96663086D01*
X80939086Y-96858228D01*
X80785763Y-96960675D01*
X80709621Y-97011551D01*
X80560267Y-97073415D01*
X80454657Y-97117161D01*
X80364433Y-97135107D01*
X80183988Y-97171000D01*
X79908012Y-97171000D01*
X79727567Y-97135107D01*
X79637343Y-97117161D01*
X79531733Y-97073415D01*
X79382379Y-97011551D01*
X79306237Y-96960675D01*
X79152914Y-96858228D01*
X78957772Y-96663086D01*
X78804450Y-96433622D01*
X78804449Y-96433621D01*
X78701163Y-96184267D01*
X78698839Y-96178657D01*
X78680893Y-96088433D01*
X78645000Y-95907988D01*
X78645000Y-95632012D01*
X78698839Y-95361344D01*
X78804449Y-95106379D01*
X78855325Y-95030237D01*
X78957772Y-94876914D01*
X79152914Y-94681772D01*
X79382378Y-94528450D01*
X79382379Y-94528449D01*
X79531733Y-94466585D01*
X79637343Y-94422839D01*
X79727567Y-94404893D01*
X79908012Y-94369000D01*
X80183988Y-94369000D01*
X80364433Y-94404893D01*
X80364433Y-94404893D01*
G37*
G36*
X92964433Y-94404893D02*
G01*
X93054657Y-94422839D01*
X93160267Y-94466585D01*
X93309621Y-94528449D01*
X93309622Y-94528450D01*
X93539086Y-94681772D01*
X93734228Y-94876914D01*
X93836675Y-95030237D01*
X93887551Y-95106379D01*
X93993161Y-95361344D01*
X94047000Y-95632012D01*
X94047000Y-95907988D01*
X94011107Y-96088433D01*
X93993161Y-96178657D01*
X93990837Y-96184267D01*
X93887551Y-96433621D01*
X93887550Y-96433622D01*
X93734228Y-96663086D01*
X93539086Y-96858228D01*
X93385763Y-96960675D01*
X93309621Y-97011551D01*
X93160267Y-97073415D01*
X93054657Y-97117161D01*
X92964433Y-97135107D01*
X92783988Y-97171000D01*
X92508012Y-97171000D01*
X92327567Y-97135107D01*
X92237343Y-97117161D01*
X92131733Y-97073415D01*
X91982379Y-97011551D01*
X91906237Y-96960675D01*
X91752914Y-96858228D01*
X91557772Y-96663086D01*
X91404450Y-96433622D01*
X91404449Y-96433621D01*
X91301163Y-96184267D01*
X91298839Y-96178657D01*
X91280893Y-96088433D01*
X91245000Y-95907988D01*
X91245000Y-95632012D01*
X91298839Y-95361344D01*
X91404449Y-95106379D01*
X91455325Y-95030237D01*
X91557772Y-94876914D01*
X91752914Y-94681772D01*
X91982378Y-94528450D01*
X91982379Y-94528449D01*
X92131733Y-94466585D01*
X92237343Y-94422839D01*
X92327567Y-94404893D01*
X92508012Y-94369000D01*
X92783988Y-94369000D01*
X92964433Y-94404893D01*
X92964433Y-94404893D01*
G37*
G36*
X88764433Y-94404893D02*
G01*
X88854657Y-94422839D01*
X88960267Y-94466585D01*
X89109621Y-94528449D01*
X89109622Y-94528450D01*
X89339086Y-94681772D01*
X89534228Y-94876914D01*
X89636675Y-95030237D01*
X89687551Y-95106379D01*
X89793161Y-95361344D01*
X89847000Y-95632012D01*
X89847000Y-95907988D01*
X89811107Y-96088433D01*
X89793161Y-96178657D01*
X89790837Y-96184267D01*
X89687551Y-96433621D01*
X89687550Y-96433622D01*
X89534228Y-96663086D01*
X89339086Y-96858228D01*
X89185763Y-96960675D01*
X89109621Y-97011551D01*
X88960267Y-97073415D01*
X88854657Y-97117161D01*
X88764433Y-97135107D01*
X88583988Y-97171000D01*
X88308012Y-97171000D01*
X88127567Y-97135107D01*
X88037343Y-97117161D01*
X87931733Y-97073415D01*
X87782379Y-97011551D01*
X87706237Y-96960675D01*
X87552914Y-96858228D01*
X87357772Y-96663086D01*
X87204450Y-96433622D01*
X87204449Y-96433621D01*
X87101163Y-96184267D01*
X87098839Y-96178657D01*
X87080893Y-96088433D01*
X87045000Y-95907988D01*
X87045000Y-95632012D01*
X87098839Y-95361344D01*
X87204449Y-95106379D01*
X87255325Y-95030237D01*
X87357772Y-94876914D01*
X87552914Y-94681772D01*
X87782378Y-94528450D01*
X87782379Y-94528449D01*
X87931733Y-94466585D01*
X88037343Y-94422839D01*
X88127567Y-94404893D01*
X88308012Y-94369000D01*
X88583988Y-94369000D01*
X88764433Y-94404893D01*
X88764433Y-94404893D01*
G37*
G36*
X84564433Y-94404893D02*
G01*
X84654657Y-94422839D01*
X84760267Y-94466585D01*
X84909621Y-94528449D01*
X84909622Y-94528450D01*
X85139086Y-94681772D01*
X85334228Y-94876914D01*
X85436675Y-95030237D01*
X85487551Y-95106379D01*
X85593161Y-95361344D01*
X85647000Y-95632012D01*
X85647000Y-95907988D01*
X85611107Y-96088433D01*
X85593161Y-96178657D01*
X85590837Y-96184267D01*
X85487551Y-96433621D01*
X85487550Y-96433622D01*
X85334228Y-96663086D01*
X85139086Y-96858228D01*
X84985763Y-96960675D01*
X84909621Y-97011551D01*
X84760267Y-97073415D01*
X84654657Y-97117161D01*
X84564433Y-97135107D01*
X84383988Y-97171000D01*
X84108012Y-97171000D01*
X83927567Y-97135107D01*
X83837343Y-97117161D01*
X83731733Y-97073415D01*
X83582379Y-97011551D01*
X83506237Y-96960675D01*
X83352914Y-96858228D01*
X83157772Y-96663086D01*
X83004450Y-96433622D01*
X83004449Y-96433621D01*
X82901163Y-96184267D01*
X82898839Y-96178657D01*
X82880893Y-96088433D01*
X82845000Y-95907988D01*
X82845000Y-95632012D01*
X82898839Y-95361344D01*
X83004449Y-95106379D01*
X83055325Y-95030237D01*
X83157772Y-94876914D01*
X83352914Y-94681772D01*
X83582378Y-94528450D01*
X83582379Y-94528449D01*
X83731733Y-94466585D01*
X83837343Y-94422839D01*
X83927567Y-94404893D01*
X84108012Y-94369000D01*
X84383988Y-94369000D01*
X84564433Y-94404893D01*
X84564433Y-94404893D01*
G37*
G36*
X71964433Y-94404893D02*
G01*
X72054657Y-94422839D01*
X72160267Y-94466585D01*
X72309621Y-94528449D01*
X72309622Y-94528450D01*
X72539086Y-94681772D01*
X72734228Y-94876914D01*
X72836675Y-95030237D01*
X72887551Y-95106379D01*
X72993161Y-95361344D01*
X73047000Y-95632012D01*
X73047000Y-95907988D01*
X73011107Y-96088433D01*
X72993161Y-96178657D01*
X72990837Y-96184267D01*
X72887551Y-96433621D01*
X72887550Y-96433622D01*
X72734228Y-96663086D01*
X72539086Y-96858228D01*
X72385763Y-96960675D01*
X72309621Y-97011551D01*
X72160267Y-97073415D01*
X72054657Y-97117161D01*
X71964433Y-97135107D01*
X71783988Y-97171000D01*
X71508012Y-97171000D01*
X71327567Y-97135107D01*
X71237343Y-97117161D01*
X71131733Y-97073415D01*
X70982379Y-97011551D01*
X70906237Y-96960675D01*
X70752914Y-96858228D01*
X70557772Y-96663086D01*
X70404450Y-96433622D01*
X70404449Y-96433621D01*
X70301163Y-96184267D01*
X70298839Y-96178657D01*
X70280893Y-96088433D01*
X70245000Y-95907988D01*
X70245000Y-95632012D01*
X70298839Y-95361344D01*
X70404449Y-95106379D01*
X70455325Y-95030237D01*
X70557772Y-94876914D01*
X70752914Y-94681772D01*
X70982378Y-94528450D01*
X70982379Y-94528449D01*
X71131733Y-94466585D01*
X71237343Y-94422839D01*
X71327567Y-94404893D01*
X71508012Y-94369000D01*
X71783988Y-94369000D01*
X71964433Y-94404893D01*
X71964433Y-94404893D01*
G37*
G36*
X67764433Y-94404893D02*
G01*
X67854657Y-94422839D01*
X67960267Y-94466585D01*
X68109621Y-94528449D01*
X68109622Y-94528450D01*
X68339086Y-94681772D01*
X68534228Y-94876914D01*
X68636675Y-95030237D01*
X68687551Y-95106379D01*
X68793161Y-95361344D01*
X68847000Y-95632012D01*
X68847000Y-95907988D01*
X68811107Y-96088433D01*
X68793161Y-96178657D01*
X68790837Y-96184267D01*
X68687551Y-96433621D01*
X68687550Y-96433622D01*
X68534228Y-96663086D01*
X68339086Y-96858228D01*
X68185763Y-96960675D01*
X68109621Y-97011551D01*
X67960267Y-97073415D01*
X67854657Y-97117161D01*
X67764433Y-97135107D01*
X67583988Y-97171000D01*
X67308012Y-97171000D01*
X67127567Y-97135107D01*
X67037343Y-97117161D01*
X66931733Y-97073415D01*
X66782379Y-97011551D01*
X66706237Y-96960675D01*
X66552914Y-96858228D01*
X66357772Y-96663086D01*
X66204450Y-96433622D01*
X66204449Y-96433621D01*
X66101163Y-96184267D01*
X66098839Y-96178657D01*
X66080893Y-96088433D01*
X66045000Y-95907988D01*
X66045000Y-95632012D01*
X66098839Y-95361344D01*
X66204449Y-95106379D01*
X66255325Y-95030237D01*
X66357772Y-94876914D01*
X66552914Y-94681772D01*
X66782378Y-94528450D01*
X66782379Y-94528449D01*
X66931733Y-94466585D01*
X67037343Y-94422839D01*
X67127567Y-94404893D01*
X67308012Y-94369000D01*
X67583988Y-94369000D01*
X67764433Y-94404893D01*
X67764433Y-94404893D01*
G37*
G36*
X76164433Y-94404893D02*
G01*
X76254657Y-94422839D01*
X76360267Y-94466585D01*
X76509621Y-94528449D01*
X76509622Y-94528450D01*
X76739086Y-94681772D01*
X76934228Y-94876914D01*
X77036675Y-95030237D01*
X77087551Y-95106379D01*
X77193161Y-95361344D01*
X77247000Y-95632012D01*
X77247000Y-95907988D01*
X77211107Y-96088433D01*
X77193161Y-96178657D01*
X77190837Y-96184267D01*
X77087551Y-96433621D01*
X77087550Y-96433622D01*
X76934228Y-96663086D01*
X76739086Y-96858228D01*
X76585763Y-96960675D01*
X76509621Y-97011551D01*
X76360267Y-97073415D01*
X76254657Y-97117161D01*
X76164433Y-97135107D01*
X75983988Y-97171000D01*
X75708012Y-97171000D01*
X75527567Y-97135107D01*
X75437343Y-97117161D01*
X75331733Y-97073415D01*
X75182379Y-97011551D01*
X75106237Y-96960675D01*
X74952914Y-96858228D01*
X74757772Y-96663086D01*
X74604450Y-96433622D01*
X74604449Y-96433621D01*
X74501163Y-96184267D01*
X74498839Y-96178657D01*
X74480893Y-96088433D01*
X74445000Y-95907988D01*
X74445000Y-95632012D01*
X74498839Y-95361344D01*
X74604449Y-95106379D01*
X74655325Y-95030237D01*
X74757772Y-94876914D01*
X74952914Y-94681772D01*
X75182378Y-94528450D01*
X75182379Y-94528449D01*
X75331733Y-94466585D01*
X75437343Y-94422839D01*
X75527567Y-94404893D01*
X75708012Y-94369000D01*
X75983988Y-94369000D01*
X76164433Y-94404893D01*
X76164433Y-94404893D01*
G37*
G36*
X67764433Y-90904893D02*
G01*
X67854657Y-90922839D01*
X67960267Y-90966585D01*
X68109621Y-91028449D01*
X68109622Y-91028450D01*
X68339086Y-91181772D01*
X68534228Y-91376914D01*
X68636675Y-91530237D01*
X68687551Y-91606379D01*
X68793161Y-91861344D01*
X68847000Y-92132012D01*
X68847000Y-92407988D01*
X68793161Y-92678656D01*
X68687551Y-92933621D01*
X68687550Y-92933622D01*
X68534228Y-93163086D01*
X68339086Y-93358228D01*
X68185763Y-93460675D01*
X68109621Y-93511551D01*
X67960267Y-93573415D01*
X67854657Y-93617161D01*
X67764433Y-93635107D01*
X67583988Y-93671000D01*
X67308012Y-93671000D01*
X67127567Y-93635107D01*
X67037343Y-93617161D01*
X66931733Y-93573415D01*
X66782379Y-93511551D01*
X66706237Y-93460675D01*
X66552914Y-93358228D01*
X66357772Y-93163086D01*
X66204450Y-92933622D01*
X66204449Y-92933621D01*
X66098839Y-92678656D01*
X66045000Y-92407988D01*
X66045000Y-92132012D01*
X66098839Y-91861344D01*
X66204449Y-91606379D01*
X66255325Y-91530237D01*
X66357772Y-91376914D01*
X66552914Y-91181772D01*
X66782378Y-91028450D01*
X66782379Y-91028449D01*
X66931733Y-90966585D01*
X67037343Y-90922839D01*
X67127567Y-90904893D01*
X67308012Y-90869000D01*
X67583988Y-90869000D01*
X67764433Y-90904893D01*
X67764433Y-90904893D01*
G37*
G36*
X76164433Y-90904893D02*
G01*
X76254657Y-90922839D01*
X76360267Y-90966585D01*
X76509621Y-91028449D01*
X76509622Y-91028450D01*
X76739086Y-91181772D01*
X76934228Y-91376914D01*
X77036675Y-91530237D01*
X77087551Y-91606379D01*
X77193161Y-91861344D01*
X77247000Y-92132012D01*
X77247000Y-92407988D01*
X77193161Y-92678656D01*
X77087551Y-92933621D01*
X77087550Y-92933622D01*
X76934228Y-93163086D01*
X76739086Y-93358228D01*
X76585763Y-93460675D01*
X76509621Y-93511551D01*
X76360267Y-93573415D01*
X76254657Y-93617161D01*
X76164433Y-93635107D01*
X75983988Y-93671000D01*
X75708012Y-93671000D01*
X75527567Y-93635107D01*
X75437343Y-93617161D01*
X75331733Y-93573415D01*
X75182379Y-93511551D01*
X75106237Y-93460675D01*
X74952914Y-93358228D01*
X74757772Y-93163086D01*
X74604450Y-92933622D01*
X74604449Y-92933621D01*
X74498839Y-92678656D01*
X74445000Y-92407988D01*
X74445000Y-92132012D01*
X74498839Y-91861344D01*
X74604449Y-91606379D01*
X74655325Y-91530237D01*
X74757772Y-91376914D01*
X74952914Y-91181772D01*
X75182378Y-91028450D01*
X75182379Y-91028449D01*
X75331733Y-90966585D01*
X75437343Y-90922839D01*
X75527567Y-90904893D01*
X75708012Y-90869000D01*
X75983988Y-90869000D01*
X76164433Y-90904893D01*
X76164433Y-90904893D01*
G37*
G36*
X71964433Y-90904893D02*
G01*
X72054657Y-90922839D01*
X72160267Y-90966585D01*
X72309621Y-91028449D01*
X72309622Y-91028450D01*
X72539086Y-91181772D01*
X72734228Y-91376914D01*
X72836675Y-91530237D01*
X72887551Y-91606379D01*
X72993161Y-91861344D01*
X73047000Y-92132012D01*
X73047000Y-92407988D01*
X72993161Y-92678656D01*
X72887551Y-92933621D01*
X72887550Y-92933622D01*
X72734228Y-93163086D01*
X72539086Y-93358228D01*
X72385763Y-93460675D01*
X72309621Y-93511551D01*
X72160267Y-93573415D01*
X72054657Y-93617161D01*
X71964433Y-93635107D01*
X71783988Y-93671000D01*
X71508012Y-93671000D01*
X71327567Y-93635107D01*
X71237343Y-93617161D01*
X71131733Y-93573415D01*
X70982379Y-93511551D01*
X70906237Y-93460675D01*
X70752914Y-93358228D01*
X70557772Y-93163086D01*
X70404450Y-92933622D01*
X70404449Y-92933621D01*
X70298839Y-92678656D01*
X70245000Y-92407988D01*
X70245000Y-92132012D01*
X70298839Y-91861344D01*
X70404449Y-91606379D01*
X70455325Y-91530237D01*
X70557772Y-91376914D01*
X70752914Y-91181772D01*
X70982378Y-91028450D01*
X70982379Y-91028449D01*
X71131733Y-90966585D01*
X71237343Y-90922839D01*
X71327567Y-90904893D01*
X71508012Y-90869000D01*
X71783988Y-90869000D01*
X71964433Y-90904893D01*
X71964433Y-90904893D01*
G37*
G36*
X80364433Y-90904893D02*
G01*
X80454657Y-90922839D01*
X80560267Y-90966585D01*
X80709621Y-91028449D01*
X80709622Y-91028450D01*
X80939086Y-91181772D01*
X81134228Y-91376914D01*
X81236675Y-91530237D01*
X81287551Y-91606379D01*
X81393161Y-91861344D01*
X81447000Y-92132012D01*
X81447000Y-92407988D01*
X81393161Y-92678656D01*
X81287551Y-92933621D01*
X81287550Y-92933622D01*
X81134228Y-93163086D01*
X80939086Y-93358228D01*
X80785763Y-93460675D01*
X80709621Y-93511551D01*
X80560267Y-93573415D01*
X80454657Y-93617161D01*
X80364433Y-93635107D01*
X80183988Y-93671000D01*
X79908012Y-93671000D01*
X79727567Y-93635107D01*
X79637343Y-93617161D01*
X79531733Y-93573415D01*
X79382379Y-93511551D01*
X79306237Y-93460675D01*
X79152914Y-93358228D01*
X78957772Y-93163086D01*
X78804450Y-92933622D01*
X78804449Y-92933621D01*
X78698839Y-92678656D01*
X78645000Y-92407988D01*
X78645000Y-92132012D01*
X78698839Y-91861344D01*
X78804449Y-91606379D01*
X78855325Y-91530237D01*
X78957772Y-91376914D01*
X79152914Y-91181772D01*
X79382378Y-91028450D01*
X79382379Y-91028449D01*
X79531733Y-90966585D01*
X79637343Y-90922839D01*
X79727567Y-90904893D01*
X79908012Y-90869000D01*
X80183988Y-90869000D01*
X80364433Y-90904893D01*
X80364433Y-90904893D01*
G37*
G36*
X84564433Y-90904893D02*
G01*
X84654657Y-90922839D01*
X84760267Y-90966585D01*
X84909621Y-91028449D01*
X84909622Y-91028450D01*
X85139086Y-91181772D01*
X85334228Y-91376914D01*
X85436675Y-91530237D01*
X85487551Y-91606379D01*
X85593161Y-91861344D01*
X85647000Y-92132012D01*
X85647000Y-92407988D01*
X85593161Y-92678656D01*
X85487551Y-92933621D01*
X85487550Y-92933622D01*
X85334228Y-93163086D01*
X85139086Y-93358228D01*
X84985763Y-93460675D01*
X84909621Y-93511551D01*
X84760267Y-93573415D01*
X84654657Y-93617161D01*
X84564433Y-93635107D01*
X84383988Y-93671000D01*
X84108012Y-93671000D01*
X83927567Y-93635107D01*
X83837343Y-93617161D01*
X83731733Y-93573415D01*
X83582379Y-93511551D01*
X83506237Y-93460675D01*
X83352914Y-93358228D01*
X83157772Y-93163086D01*
X83004450Y-92933622D01*
X83004449Y-92933621D01*
X82898839Y-92678656D01*
X82845000Y-92407988D01*
X82845000Y-92132012D01*
X82898839Y-91861344D01*
X83004449Y-91606379D01*
X83055325Y-91530237D01*
X83157772Y-91376914D01*
X83352914Y-91181772D01*
X83582378Y-91028450D01*
X83582379Y-91028449D01*
X83731733Y-90966585D01*
X83837343Y-90922839D01*
X83927567Y-90904893D01*
X84108012Y-90869000D01*
X84383988Y-90869000D01*
X84564433Y-90904893D01*
X84564433Y-90904893D01*
G37*
G36*
X88764433Y-90904893D02*
G01*
X88854657Y-90922839D01*
X88960267Y-90966585D01*
X89109621Y-91028449D01*
X89109622Y-91028450D01*
X89339086Y-91181772D01*
X89534228Y-91376914D01*
X89636675Y-91530237D01*
X89687551Y-91606379D01*
X89793161Y-91861344D01*
X89847000Y-92132012D01*
X89847000Y-92407988D01*
X89793161Y-92678656D01*
X89687551Y-92933621D01*
X89687550Y-92933622D01*
X89534228Y-93163086D01*
X89339086Y-93358228D01*
X89185763Y-93460675D01*
X89109621Y-93511551D01*
X88960267Y-93573415D01*
X88854657Y-93617161D01*
X88764433Y-93635107D01*
X88583988Y-93671000D01*
X88308012Y-93671000D01*
X88127567Y-93635107D01*
X88037343Y-93617161D01*
X87931733Y-93573415D01*
X87782379Y-93511551D01*
X87706237Y-93460675D01*
X87552914Y-93358228D01*
X87357772Y-93163086D01*
X87204450Y-92933622D01*
X87204449Y-92933621D01*
X87098839Y-92678656D01*
X87045000Y-92407988D01*
X87045000Y-92132012D01*
X87098839Y-91861344D01*
X87204449Y-91606379D01*
X87255325Y-91530237D01*
X87357772Y-91376914D01*
X87552914Y-91181772D01*
X87782378Y-91028450D01*
X87782379Y-91028449D01*
X87931733Y-90966585D01*
X88037343Y-90922839D01*
X88127567Y-90904893D01*
X88308012Y-90869000D01*
X88583988Y-90869000D01*
X88764433Y-90904893D01*
X88764433Y-90904893D01*
G37*
G36*
X92964433Y-90904893D02*
G01*
X93054657Y-90922839D01*
X93160267Y-90966585D01*
X93309621Y-91028449D01*
X93309622Y-91028450D01*
X93539086Y-91181772D01*
X93734228Y-91376914D01*
X93836675Y-91530237D01*
X93887551Y-91606379D01*
X93993161Y-91861344D01*
X94047000Y-92132012D01*
X94047000Y-92407988D01*
X93993161Y-92678656D01*
X93887551Y-92933621D01*
X93887550Y-92933622D01*
X93734228Y-93163086D01*
X93539086Y-93358228D01*
X93385763Y-93460675D01*
X93309621Y-93511551D01*
X93160267Y-93573415D01*
X93054657Y-93617161D01*
X92964433Y-93635107D01*
X92783988Y-93671000D01*
X92508012Y-93671000D01*
X92327567Y-93635107D01*
X92237343Y-93617161D01*
X92131733Y-93573415D01*
X91982379Y-93511551D01*
X91906237Y-93460675D01*
X91752914Y-93358228D01*
X91557772Y-93163086D01*
X91404450Y-92933622D01*
X91404449Y-92933621D01*
X91298839Y-92678656D01*
X91245000Y-92407988D01*
X91245000Y-92132012D01*
X91298839Y-91861344D01*
X91404449Y-91606379D01*
X91455325Y-91530237D01*
X91557772Y-91376914D01*
X91752914Y-91181772D01*
X91982378Y-91028450D01*
X91982379Y-91028449D01*
X92131733Y-90966585D01*
X92237343Y-90922839D01*
X92327567Y-90904893D01*
X92508012Y-90869000D01*
X92783988Y-90869000D01*
X92964433Y-90904893D01*
X92964433Y-90904893D01*
G37*
G36*
X63564433Y-90904893D02*
G01*
X63654657Y-90922839D01*
X63760267Y-90966585D01*
X63909621Y-91028449D01*
X63909622Y-91028450D01*
X64139086Y-91181772D01*
X64334228Y-91376914D01*
X64436675Y-91530237D01*
X64487551Y-91606379D01*
X64593161Y-91861344D01*
X64647000Y-92132012D01*
X64647000Y-92407988D01*
X64593161Y-92678656D01*
X64487551Y-92933621D01*
X64487550Y-92933622D01*
X64334228Y-93163086D01*
X64139086Y-93358228D01*
X63985763Y-93460675D01*
X63909621Y-93511551D01*
X63760267Y-93573415D01*
X63654657Y-93617161D01*
X63564433Y-93635107D01*
X63383988Y-93671000D01*
X63108012Y-93671000D01*
X62927567Y-93635107D01*
X62837343Y-93617161D01*
X62731733Y-93573415D01*
X62582379Y-93511551D01*
X62506237Y-93460675D01*
X62352914Y-93358228D01*
X62157772Y-93163086D01*
X62004450Y-92933622D01*
X62004449Y-92933621D01*
X61898839Y-92678656D01*
X61845000Y-92407988D01*
X61845000Y-92132012D01*
X61898839Y-91861344D01*
X62004449Y-91606379D01*
X62055325Y-91530237D01*
X62157772Y-91376914D01*
X62352914Y-91181772D01*
X62582378Y-91028450D01*
X62582379Y-91028449D01*
X62731733Y-90966585D01*
X62837343Y-90922839D01*
X62927567Y-90904893D01*
X63108012Y-90869000D01*
X63383988Y-90869000D01*
X63564433Y-90904893D01*
X63564433Y-90904893D01*
G37*
G36*
X103615142Y-87102242D02*
G01*
X103763101Y-87163529D01*
X103896255Y-87252499D01*
X104009501Y-87365745D01*
X104098471Y-87498899D01*
X104159758Y-87646858D01*
X104191000Y-87803925D01*
X104191000Y-87964075D01*
X104159758Y-88121142D01*
X104098471Y-88269101D01*
X104009501Y-88402255D01*
X103896255Y-88515501D01*
X103763101Y-88604471D01*
X103615142Y-88665758D01*
X103458075Y-88697000D01*
X103297925Y-88697000D01*
X103140858Y-88665758D01*
X102992899Y-88604471D01*
X102859745Y-88515501D01*
X102746499Y-88402255D01*
X102657529Y-88269101D01*
X102596242Y-88121142D01*
X102565000Y-87964075D01*
X102565000Y-87803925D01*
X102596242Y-87646858D01*
X102657529Y-87498899D01*
X102746499Y-87365745D01*
X102859745Y-87252499D01*
X102992899Y-87163529D01*
X103140858Y-87102242D01*
X103297925Y-87071000D01*
X103458075Y-87071000D01*
X103615142Y-87102242D01*
X103615142Y-87102242D01*
G37*
G36*
X103615142Y-84562242D02*
G01*
X103763101Y-84623529D01*
X103896255Y-84712499D01*
X104009501Y-84825745D01*
X104098471Y-84958899D01*
X104159758Y-85106858D01*
X104191000Y-85263925D01*
X104191000Y-85424075D01*
X104159758Y-85581142D01*
X104098471Y-85729101D01*
X104009501Y-85862255D01*
X103896255Y-85975501D01*
X103763101Y-86064471D01*
X103615142Y-86125758D01*
X103458075Y-86157000D01*
X103297925Y-86157000D01*
X103140858Y-86125758D01*
X102992899Y-86064471D01*
X102859745Y-85975501D01*
X102746499Y-85862255D01*
X102657529Y-85729101D01*
X102596242Y-85581142D01*
X102565000Y-85424075D01*
X102565000Y-85263925D01*
X102596242Y-85106858D01*
X102657529Y-84958899D01*
X102746499Y-84825745D01*
X102859745Y-84712499D01*
X102992899Y-84623529D01*
X103140858Y-84562242D01*
X103297925Y-84531000D01*
X103458075Y-84531000D01*
X103615142Y-84562242D01*
X103615142Y-84562242D01*
G37*
G36*
X93206394Y-83834934D02*
G01*
X93357624Y-83897576D01*
X93357626Y-83897577D01*
X93493732Y-83988520D01*
X93609480Y-84104268D01*
X93700423Y-84240374D01*
X93700424Y-84240376D01*
X93763066Y-84391606D01*
X93795000Y-84552152D01*
X93795000Y-84715848D01*
X93763066Y-84876394D01*
X93700424Y-85027624D01*
X93700423Y-85027626D01*
X93609480Y-85163732D01*
X93493732Y-85279480D01*
X93357626Y-85370423D01*
X93357625Y-85370424D01*
X93357624Y-85370424D01*
X93206394Y-85433066D01*
X93045848Y-85465000D01*
X92882152Y-85465000D01*
X92721606Y-85433066D01*
X92570376Y-85370424D01*
X92570375Y-85370424D01*
X92570374Y-85370423D01*
X92434268Y-85279480D01*
X92318520Y-85163732D01*
X92227577Y-85027626D01*
X92227576Y-85027624D01*
X92164934Y-84876394D01*
X92133000Y-84715848D01*
X92133000Y-84552152D01*
X92164934Y-84391606D01*
X92227576Y-84240376D01*
X92227577Y-84240374D01*
X92318520Y-84104268D01*
X92434268Y-83988520D01*
X92570374Y-83897577D01*
X92570376Y-83897576D01*
X92721606Y-83834934D01*
X92882152Y-83803000D01*
X93045848Y-83803000D01*
X93206394Y-83834934D01*
X93206394Y-83834934D01*
G37*
G36*
X67806394Y-83834934D02*
G01*
X67957624Y-83897576D01*
X67957626Y-83897577D01*
X68093732Y-83988520D01*
X68209480Y-84104268D01*
X68300423Y-84240374D01*
X68300424Y-84240376D01*
X68363066Y-84391606D01*
X68395000Y-84552152D01*
X68395000Y-84715848D01*
X68363066Y-84876394D01*
X68300424Y-85027624D01*
X68300423Y-85027626D01*
X68209480Y-85163732D01*
X68093732Y-85279480D01*
X67957626Y-85370423D01*
X67957625Y-85370424D01*
X67957624Y-85370424D01*
X67806394Y-85433066D01*
X67645848Y-85465000D01*
X67482152Y-85465000D01*
X67321606Y-85433066D01*
X67170376Y-85370424D01*
X67170375Y-85370424D01*
X67170374Y-85370423D01*
X67034268Y-85279480D01*
X66918520Y-85163732D01*
X66827577Y-85027626D01*
X66827576Y-85027624D01*
X66764934Y-84876394D01*
X66733000Y-84715848D01*
X66733000Y-84552152D01*
X66764934Y-84391606D01*
X66827576Y-84240376D01*
X66827577Y-84240374D01*
X66918520Y-84104268D01*
X67034268Y-83988520D01*
X67170374Y-83897577D01*
X67170376Y-83897576D01*
X67321606Y-83834934D01*
X67482152Y-83803000D01*
X67645848Y-83803000D01*
X67806394Y-83834934D01*
X67806394Y-83834934D01*
G37*
G36*
X103615142Y-82022242D02*
G01*
X103763101Y-82083529D01*
X103896255Y-82172499D01*
X104009501Y-82285745D01*
X104098471Y-82418899D01*
X104159758Y-82566858D01*
X104191000Y-82723925D01*
X104191000Y-82884075D01*
X104159758Y-83041142D01*
X104098471Y-83189101D01*
X104009501Y-83322255D01*
X103896255Y-83435501D01*
X103763101Y-83524471D01*
X103615142Y-83585758D01*
X103458075Y-83617000D01*
X103297925Y-83617000D01*
X103140858Y-83585758D01*
X102992899Y-83524471D01*
X102859745Y-83435501D01*
X102746499Y-83322255D01*
X102657529Y-83189101D01*
X102596242Y-83041142D01*
X102565000Y-82884075D01*
X102565000Y-82723925D01*
X102596242Y-82566858D01*
X102657529Y-82418899D01*
X102746499Y-82285745D01*
X102859745Y-82172499D01*
X102992899Y-82083529D01*
X103140858Y-82022242D01*
X103297925Y-81991000D01*
X103458075Y-81991000D01*
X103615142Y-82022242D01*
X103615142Y-82022242D01*
G37*
G36*
X67806394Y-81294934D02*
G01*
X67957624Y-81357576D01*
X67957626Y-81357577D01*
X68093732Y-81448520D01*
X68209480Y-81564268D01*
X68300423Y-81700374D01*
X68300424Y-81700376D01*
X68363066Y-81851606D01*
X68395000Y-82012152D01*
X68395000Y-82175848D01*
X68363066Y-82336394D01*
X68300424Y-82487624D01*
X68300423Y-82487626D01*
X68209480Y-82623732D01*
X68093732Y-82739480D01*
X67957626Y-82830423D01*
X67957625Y-82830424D01*
X67957624Y-82830424D01*
X67806394Y-82893066D01*
X67645848Y-82925000D01*
X67482152Y-82925000D01*
X67321606Y-82893066D01*
X67170376Y-82830424D01*
X67170375Y-82830424D01*
X67170374Y-82830423D01*
X67034268Y-82739480D01*
X66918520Y-82623732D01*
X66827577Y-82487626D01*
X66827576Y-82487624D01*
X66764934Y-82336394D01*
X66733000Y-82175848D01*
X66733000Y-82012152D01*
X66764934Y-81851606D01*
X66827576Y-81700376D01*
X66827577Y-81700374D01*
X66918520Y-81564268D01*
X67034268Y-81448520D01*
X67170374Y-81357577D01*
X67170376Y-81357576D01*
X67321606Y-81294934D01*
X67482152Y-81263000D01*
X67645848Y-81263000D01*
X67806394Y-81294934D01*
X67806394Y-81294934D01*
G37*
G36*
X93206394Y-81294934D02*
G01*
X93357624Y-81357576D01*
X93357626Y-81357577D01*
X93493732Y-81448520D01*
X93609480Y-81564268D01*
X93700423Y-81700374D01*
X93700424Y-81700376D01*
X93763066Y-81851606D01*
X93795000Y-82012152D01*
X93795000Y-82175848D01*
X93763066Y-82336394D01*
X93700424Y-82487624D01*
X93700423Y-82487626D01*
X93609480Y-82623732D01*
X93493732Y-82739480D01*
X93357626Y-82830423D01*
X93357625Y-82830424D01*
X93357624Y-82830424D01*
X93206394Y-82893066D01*
X93045848Y-82925000D01*
X92882152Y-82925000D01*
X92721606Y-82893066D01*
X92570376Y-82830424D01*
X92570375Y-82830424D01*
X92570374Y-82830423D01*
X92434268Y-82739480D01*
X92318520Y-82623732D01*
X92227577Y-82487626D01*
X92227576Y-82487624D01*
X92164934Y-82336394D01*
X92133000Y-82175848D01*
X92133000Y-82012152D01*
X92164934Y-81851606D01*
X92227576Y-81700376D01*
X92227577Y-81700374D01*
X92318520Y-81564268D01*
X92434268Y-81448520D01*
X92570374Y-81357577D01*
X92570376Y-81357576D01*
X92721606Y-81294934D01*
X92882152Y-81263000D01*
X93045848Y-81263000D01*
X93206394Y-81294934D01*
X93206394Y-81294934D01*
G37*
G36*
X103615142Y-79482242D02*
G01*
X103763101Y-79543529D01*
X103896255Y-79632499D01*
X104009501Y-79745745D01*
X104098471Y-79878899D01*
X104159758Y-80026858D01*
X104191000Y-80183925D01*
X104191000Y-80344075D01*
X104159758Y-80501142D01*
X104098471Y-80649101D01*
X104009501Y-80782255D01*
X103896255Y-80895501D01*
X103763101Y-80984471D01*
X103615142Y-81045758D01*
X103458075Y-81077000D01*
X103297925Y-81077000D01*
X103140858Y-81045758D01*
X102992899Y-80984471D01*
X102859745Y-80895501D01*
X102746499Y-80782255D01*
X102657529Y-80649101D01*
X102596242Y-80501142D01*
X102565000Y-80344075D01*
X102565000Y-80183925D01*
X102596242Y-80026858D01*
X102657529Y-79878899D01*
X102746499Y-79745745D01*
X102859745Y-79632499D01*
X102992899Y-79543529D01*
X103140858Y-79482242D01*
X103297925Y-79451000D01*
X103458075Y-79451000D01*
X103615142Y-79482242D01*
X103615142Y-79482242D01*
G37*
G36*
X67806394Y-78754934D02*
G01*
X67957624Y-78817576D01*
X67957626Y-78817577D01*
X68093732Y-78908520D01*
X68209480Y-79024268D01*
X68300423Y-79160374D01*
X68300424Y-79160376D01*
X68363066Y-79311606D01*
X68395000Y-79472152D01*
X68395000Y-79635848D01*
X68363066Y-79796394D01*
X68300424Y-79947624D01*
X68300423Y-79947626D01*
X68209480Y-80083732D01*
X68093732Y-80199480D01*
X67957626Y-80290423D01*
X67957625Y-80290424D01*
X67957624Y-80290424D01*
X67806394Y-80353066D01*
X67645848Y-80385000D01*
X67482152Y-80385000D01*
X67321606Y-80353066D01*
X67170376Y-80290424D01*
X67170375Y-80290424D01*
X67170374Y-80290423D01*
X67034268Y-80199480D01*
X66918520Y-80083732D01*
X66827577Y-79947626D01*
X66827576Y-79947624D01*
X66764934Y-79796394D01*
X66733000Y-79635848D01*
X66733000Y-79472152D01*
X66764934Y-79311606D01*
X66827576Y-79160376D01*
X66827577Y-79160374D01*
X66918520Y-79024268D01*
X67034268Y-78908520D01*
X67170374Y-78817577D01*
X67170376Y-78817576D01*
X67321606Y-78754934D01*
X67482152Y-78723000D01*
X67645848Y-78723000D01*
X67806394Y-78754934D01*
X67806394Y-78754934D01*
G37*
G36*
X93206394Y-78754934D02*
G01*
X93357624Y-78817576D01*
X93357626Y-78817577D01*
X93493732Y-78908520D01*
X93609480Y-79024268D01*
X93700423Y-79160374D01*
X93700424Y-79160376D01*
X93763066Y-79311606D01*
X93795000Y-79472152D01*
X93795000Y-79635848D01*
X93763066Y-79796394D01*
X93700424Y-79947624D01*
X93700423Y-79947626D01*
X93609480Y-80083732D01*
X93493732Y-80199480D01*
X93357626Y-80290423D01*
X93357625Y-80290424D01*
X93357624Y-80290424D01*
X93206394Y-80353066D01*
X93045848Y-80385000D01*
X92882152Y-80385000D01*
X92721606Y-80353066D01*
X92570376Y-80290424D01*
X92570375Y-80290424D01*
X92570374Y-80290423D01*
X92434268Y-80199480D01*
X92318520Y-80083732D01*
X92227577Y-79947626D01*
X92227576Y-79947624D01*
X92164934Y-79796394D01*
X92133000Y-79635848D01*
X92133000Y-79472152D01*
X92164934Y-79311606D01*
X92227576Y-79160376D01*
X92227577Y-79160374D01*
X92318520Y-79024268D01*
X92434268Y-78908520D01*
X92570374Y-78817577D01*
X92570376Y-78817576D01*
X92721606Y-78754934D01*
X92882152Y-78723000D01*
X93045848Y-78723000D01*
X93206394Y-78754934D01*
X93206394Y-78754934D01*
G37*
G36*
X103615142Y-76942242D02*
G01*
X103763101Y-77003529D01*
X103896255Y-77092499D01*
X104009501Y-77205745D01*
X104098471Y-77338899D01*
X104159758Y-77486858D01*
X104191000Y-77643925D01*
X104191000Y-77804075D01*
X104159758Y-77961142D01*
X104098471Y-78109101D01*
X104009501Y-78242255D01*
X103896255Y-78355501D01*
X103763101Y-78444471D01*
X103615142Y-78505758D01*
X103458075Y-78537000D01*
X103297925Y-78537000D01*
X103140858Y-78505758D01*
X102992899Y-78444471D01*
X102859745Y-78355501D01*
X102746499Y-78242255D01*
X102657529Y-78109101D01*
X102596242Y-77961142D01*
X102565000Y-77804075D01*
X102565000Y-77643925D01*
X102596242Y-77486858D01*
X102657529Y-77338899D01*
X102746499Y-77205745D01*
X102859745Y-77092499D01*
X102992899Y-77003529D01*
X103140858Y-76942242D01*
X103297925Y-76911000D01*
X103458075Y-76911000D01*
X103615142Y-76942242D01*
X103615142Y-76942242D01*
G37*
G36*
X93206394Y-76214934D02*
G01*
X93357624Y-76277576D01*
X93357626Y-76277577D01*
X93493732Y-76368520D01*
X93609480Y-76484268D01*
X93700423Y-76620374D01*
X93700424Y-76620376D01*
X93763066Y-76771606D01*
X93795000Y-76932152D01*
X93795000Y-77095848D01*
X93763066Y-77256394D01*
X93700424Y-77407624D01*
X93700423Y-77407626D01*
X93609480Y-77543732D01*
X93493732Y-77659480D01*
X93357626Y-77750423D01*
X93357625Y-77750424D01*
X93357624Y-77750424D01*
X93206394Y-77813066D01*
X93045848Y-77845000D01*
X92882152Y-77845000D01*
X92721606Y-77813066D01*
X92570376Y-77750424D01*
X92570375Y-77750424D01*
X92570374Y-77750423D01*
X92434268Y-77659480D01*
X92318520Y-77543732D01*
X92227577Y-77407626D01*
X92227576Y-77407624D01*
X92164934Y-77256394D01*
X92133000Y-77095848D01*
X92133000Y-76932152D01*
X92164934Y-76771606D01*
X92227576Y-76620376D01*
X92227577Y-76620374D01*
X92318520Y-76484268D01*
X92434268Y-76368520D01*
X92570374Y-76277577D01*
X92570376Y-76277576D01*
X92721606Y-76214934D01*
X92882152Y-76183000D01*
X93045848Y-76183000D01*
X93206394Y-76214934D01*
X93206394Y-76214934D01*
G37*
G36*
X67806394Y-76214934D02*
G01*
X67957624Y-76277576D01*
X67957626Y-76277577D01*
X68093732Y-76368520D01*
X68209480Y-76484268D01*
X68300423Y-76620374D01*
X68300424Y-76620376D01*
X68363066Y-76771606D01*
X68395000Y-76932152D01*
X68395000Y-77095848D01*
X68363066Y-77256394D01*
X68300424Y-77407624D01*
X68300423Y-77407626D01*
X68209480Y-77543732D01*
X68093732Y-77659480D01*
X67957626Y-77750423D01*
X67957625Y-77750424D01*
X67957624Y-77750424D01*
X67806394Y-77813066D01*
X67645848Y-77845000D01*
X67482152Y-77845000D01*
X67321606Y-77813066D01*
X67170376Y-77750424D01*
X67170375Y-77750424D01*
X67170374Y-77750423D01*
X67034268Y-77659480D01*
X66918520Y-77543732D01*
X66827577Y-77407626D01*
X66827576Y-77407624D01*
X66764934Y-77256394D01*
X66733000Y-77095848D01*
X66733000Y-76932152D01*
X66764934Y-76771606D01*
X66827576Y-76620376D01*
X66827577Y-76620374D01*
X66918520Y-76484268D01*
X67034268Y-76368520D01*
X67170374Y-76277577D01*
X67170376Y-76277576D01*
X67321606Y-76214934D01*
X67482152Y-76183000D01*
X67645848Y-76183000D01*
X67806394Y-76214934D01*
X67806394Y-76214934D01*
G37*
G36*
X103615142Y-74402242D02*
G01*
X103763101Y-74463529D01*
X103896255Y-74552499D01*
X104009501Y-74665745D01*
X104098471Y-74798899D01*
X104159758Y-74946858D01*
X104191000Y-75103925D01*
X104191000Y-75264075D01*
X104159758Y-75421142D01*
X104098471Y-75569101D01*
X104009501Y-75702255D01*
X103896255Y-75815501D01*
X103763101Y-75904471D01*
X103615142Y-75965758D01*
X103458075Y-75997000D01*
X103297925Y-75997000D01*
X103140858Y-75965758D01*
X102992899Y-75904471D01*
X102859745Y-75815501D01*
X102746499Y-75702255D01*
X102657529Y-75569101D01*
X102596242Y-75421142D01*
X102565000Y-75264075D01*
X102565000Y-75103925D01*
X102596242Y-74946858D01*
X102657529Y-74798899D01*
X102746499Y-74665745D01*
X102859745Y-74552499D01*
X102992899Y-74463529D01*
X103140858Y-74402242D01*
X103297925Y-74371000D01*
X103458075Y-74371000D01*
X103615142Y-74402242D01*
X103615142Y-74402242D01*
G37*
G36*
X93206394Y-73674934D02*
G01*
X93357624Y-73737576D01*
X93357626Y-73737577D01*
X93493732Y-73828520D01*
X93609480Y-73944268D01*
X93700423Y-74080374D01*
X93700424Y-74080376D01*
X93763066Y-74231606D01*
X93795000Y-74392152D01*
X93795000Y-74555848D01*
X93763066Y-74716394D01*
X93700424Y-74867624D01*
X93700423Y-74867626D01*
X93609480Y-75003732D01*
X93493732Y-75119480D01*
X93357626Y-75210423D01*
X93357625Y-75210424D01*
X93357624Y-75210424D01*
X93206394Y-75273066D01*
X93045848Y-75305000D01*
X92882152Y-75305000D01*
X92721606Y-75273066D01*
X92570376Y-75210424D01*
X92570375Y-75210424D01*
X92570374Y-75210423D01*
X92434268Y-75119480D01*
X92318520Y-75003732D01*
X92227577Y-74867626D01*
X92227576Y-74867624D01*
X92164934Y-74716394D01*
X92133000Y-74555848D01*
X92133000Y-74392152D01*
X92164934Y-74231606D01*
X92227576Y-74080376D01*
X92227577Y-74080374D01*
X92318520Y-73944268D01*
X92434268Y-73828520D01*
X92570374Y-73737577D01*
X92570376Y-73737576D01*
X92721606Y-73674934D01*
X92882152Y-73643000D01*
X93045848Y-73643000D01*
X93206394Y-73674934D01*
X93206394Y-73674934D01*
G37*
G36*
X67806394Y-73674934D02*
G01*
X67957624Y-73737576D01*
X67957626Y-73737577D01*
X68093732Y-73828520D01*
X68209480Y-73944268D01*
X68300423Y-74080374D01*
X68300424Y-74080376D01*
X68363066Y-74231606D01*
X68395000Y-74392152D01*
X68395000Y-74555848D01*
X68363066Y-74716394D01*
X68300424Y-74867624D01*
X68300423Y-74867626D01*
X68209480Y-75003732D01*
X68093732Y-75119480D01*
X67957626Y-75210423D01*
X67957625Y-75210424D01*
X67957624Y-75210424D01*
X67806394Y-75273066D01*
X67645848Y-75305000D01*
X67482152Y-75305000D01*
X67321606Y-75273066D01*
X67170376Y-75210424D01*
X67170375Y-75210424D01*
X67170374Y-75210423D01*
X67034268Y-75119480D01*
X66918520Y-75003732D01*
X66827577Y-74867626D01*
X66827576Y-74867624D01*
X66764934Y-74716394D01*
X66733000Y-74555848D01*
X66733000Y-74392152D01*
X66764934Y-74231606D01*
X66827576Y-74080376D01*
X66827577Y-74080374D01*
X66918520Y-73944268D01*
X67034268Y-73828520D01*
X67170374Y-73737577D01*
X67170376Y-73737576D01*
X67321606Y-73674934D01*
X67482152Y-73643000D01*
X67645848Y-73643000D01*
X67806394Y-73674934D01*
X67806394Y-73674934D01*
G37*
G36*
X50488394Y-68742574D02*
G01*
X50610927Y-68793328D01*
X50721202Y-68867012D01*
X50814988Y-68960798D01*
X50888672Y-69071073D01*
X50939426Y-69193606D01*
X50965300Y-69323684D01*
X50965300Y-69456316D01*
X50939426Y-69586394D01*
X50888672Y-69708927D01*
X50814988Y-69819202D01*
X50721202Y-69912988D01*
X50610925Y-69986673D01*
X50519562Y-70024516D01*
X50497951Y-70036067D01*
X50479009Y-70051612D01*
X50463464Y-70070554D01*
X50451912Y-70092164D01*
X50444799Y-70115613D01*
X50442397Y-70139999D01*
X50444799Y-70164385D01*
X50451912Y-70187834D01*
X50463463Y-70209445D01*
X50479008Y-70228387D01*
X50497950Y-70243932D01*
X50519562Y-70255484D01*
X50610925Y-70293327D01*
X50721202Y-70367012D01*
X50814988Y-70460798D01*
X50888672Y-70571073D01*
X50939426Y-70693606D01*
X50965300Y-70823684D01*
X50965300Y-70956316D01*
X50939426Y-71086394D01*
X50888672Y-71208927D01*
X50814988Y-71319202D01*
X50721202Y-71412988D01*
X50610925Y-71486673D01*
X50519562Y-71524516D01*
X50497951Y-71536067D01*
X50479009Y-71551612D01*
X50463464Y-71570554D01*
X50451912Y-71592164D01*
X50444799Y-71615613D01*
X50442397Y-71639999D01*
X50444799Y-71664385D01*
X50451912Y-71687834D01*
X50463463Y-71709445D01*
X50479008Y-71728387D01*
X50497950Y-71743932D01*
X50519562Y-71755484D01*
X50610925Y-71793327D01*
X50721202Y-71867012D01*
X50814988Y-71960798D01*
X50888672Y-72071073D01*
X50939426Y-72193606D01*
X50965300Y-72323684D01*
X50965300Y-72456316D01*
X50939426Y-72586394D01*
X50888672Y-72708927D01*
X50814988Y-72819202D01*
X50721202Y-72912988D01*
X50610927Y-72986672D01*
X50488394Y-73037426D01*
X50358316Y-73063300D01*
X50225684Y-73063300D01*
X50095606Y-73037426D01*
X49973073Y-72986672D01*
X49862798Y-72912988D01*
X49769012Y-72819202D01*
X49695328Y-72708927D01*
X49644574Y-72586394D01*
X49618700Y-72456316D01*
X49618700Y-72323684D01*
X49644574Y-72193606D01*
X49695328Y-72071073D01*
X49769012Y-71960798D01*
X49862798Y-71867012D01*
X49973075Y-71793327D01*
X50064438Y-71755484D01*
X50086049Y-71743933D01*
X50104991Y-71728388D01*
X50120536Y-71709446D01*
X50132088Y-71687836D01*
X50139201Y-71664387D01*
X50141603Y-71640001D01*
X50139201Y-71615615D01*
X50132088Y-71592166D01*
X50120537Y-71570555D01*
X50104992Y-71551613D01*
X50086050Y-71536068D01*
X50064438Y-71524516D01*
X49973075Y-71486673D01*
X49862798Y-71412988D01*
X49769012Y-71319202D01*
X49695328Y-71208927D01*
X49644574Y-71086394D01*
X49618700Y-70956316D01*
X49618700Y-70823684D01*
X49644574Y-70693606D01*
X49695328Y-70571073D01*
X49769012Y-70460798D01*
X49862798Y-70367012D01*
X49973075Y-70293327D01*
X50064438Y-70255484D01*
X50086049Y-70243933D01*
X50104991Y-70228388D01*
X50120536Y-70209446D01*
X50132088Y-70187836D01*
X50139201Y-70164387D01*
X50141603Y-70140001D01*
X50139201Y-70115615D01*
X50132088Y-70092166D01*
X50120537Y-70070555D01*
X50104992Y-70051613D01*
X50086050Y-70036068D01*
X50064438Y-70024516D01*
X49973075Y-69986673D01*
X49862798Y-69912988D01*
X49769012Y-69819202D01*
X49695328Y-69708927D01*
X49644574Y-69586394D01*
X49618700Y-69456316D01*
X49618700Y-69323684D01*
X49644574Y-69193606D01*
X49695328Y-69071073D01*
X49769012Y-68960798D01*
X49862798Y-68867012D01*
X49973073Y-68793328D01*
X50095606Y-68742574D01*
X50225684Y-68716700D01*
X50358316Y-68716700D01*
X50488394Y-68742574D01*
X50488394Y-68742574D01*
G37*
G36*
X93206394Y-71134934D02*
G01*
X93357624Y-71197576D01*
X93357626Y-71197577D01*
X93493732Y-71288520D01*
X93609480Y-71404268D01*
X93698453Y-71537426D01*
X93700424Y-71540376D01*
X93763066Y-71691606D01*
X93795000Y-71852152D01*
X93795000Y-72015848D01*
X93763066Y-72176394D01*
X93702056Y-72323684D01*
X93700423Y-72327626D01*
X93609480Y-72463732D01*
X93493732Y-72579480D01*
X93357626Y-72670423D01*
X93357625Y-72670424D01*
X93357624Y-72670424D01*
X93206394Y-72733066D01*
X93045848Y-72765000D01*
X92882152Y-72765000D01*
X92721606Y-72733066D01*
X92570376Y-72670424D01*
X92570375Y-72670424D01*
X92570374Y-72670423D01*
X92434268Y-72579480D01*
X92318520Y-72463732D01*
X92227577Y-72327626D01*
X92225944Y-72323684D01*
X92164934Y-72176394D01*
X92133000Y-72015848D01*
X92133000Y-71852152D01*
X92164934Y-71691606D01*
X92227576Y-71540376D01*
X92229547Y-71537426D01*
X92318520Y-71404268D01*
X92434268Y-71288520D01*
X92570374Y-71197577D01*
X92570376Y-71197576D01*
X92721606Y-71134934D01*
X92882152Y-71103000D01*
X93045848Y-71103000D01*
X93206394Y-71134934D01*
X93206394Y-71134934D01*
G37*
G36*
X67806394Y-71134934D02*
G01*
X67957624Y-71197576D01*
X67957626Y-71197577D01*
X68093732Y-71288520D01*
X68209480Y-71404268D01*
X68298453Y-71537426D01*
X68300424Y-71540376D01*
X68363066Y-71691606D01*
X68395000Y-71852152D01*
X68395000Y-72015848D01*
X68363066Y-72176394D01*
X68302056Y-72323684D01*
X68300423Y-72327626D01*
X68209480Y-72463732D01*
X68093732Y-72579480D01*
X67957626Y-72670423D01*
X67957625Y-72670424D01*
X67957624Y-72670424D01*
X67806394Y-72733066D01*
X67645848Y-72765000D01*
X67482152Y-72765000D01*
X67321606Y-72733066D01*
X67170376Y-72670424D01*
X67170375Y-72670424D01*
X67170374Y-72670423D01*
X67034268Y-72579480D01*
X66918520Y-72463732D01*
X66827577Y-72327626D01*
X66825944Y-72323684D01*
X66764934Y-72176394D01*
X66733000Y-72015848D01*
X66733000Y-71852152D01*
X66764934Y-71691606D01*
X66827576Y-71540376D01*
X66829547Y-71537426D01*
X66918520Y-71404268D01*
X67034268Y-71288520D01*
X67170374Y-71197577D01*
X67170376Y-71197576D01*
X67321606Y-71134934D01*
X67482152Y-71103000D01*
X67645848Y-71103000D01*
X67806394Y-71134934D01*
X67806394Y-71134934D01*
G37*
G36*
X67806394Y-68594934D02*
G01*
X67957624Y-68657576D01*
X67957626Y-68657577D01*
X68093732Y-68748520D01*
X68209480Y-68864268D01*
X68273979Y-68960798D01*
X68300424Y-69000376D01*
X68363066Y-69151606D01*
X68395000Y-69312152D01*
X68395000Y-69475848D01*
X68363066Y-69636394D01*
X68300424Y-69787624D01*
X68300423Y-69787626D01*
X68209480Y-69923732D01*
X68093732Y-70039480D01*
X67957626Y-70130423D01*
X67957625Y-70130424D01*
X67957624Y-70130424D01*
X67806394Y-70193066D01*
X67645848Y-70225000D01*
X67482152Y-70225000D01*
X67321606Y-70193066D01*
X67170376Y-70130424D01*
X67170375Y-70130424D01*
X67170374Y-70130423D01*
X67034268Y-70039480D01*
X66918520Y-69923732D01*
X66827577Y-69787626D01*
X66827576Y-69787624D01*
X66764934Y-69636394D01*
X66733000Y-69475848D01*
X66733000Y-69312152D01*
X66764934Y-69151606D01*
X66827576Y-69000376D01*
X66854021Y-68960798D01*
X66918520Y-68864268D01*
X67034268Y-68748520D01*
X67170374Y-68657577D01*
X67170376Y-68657576D01*
X67321606Y-68594934D01*
X67482152Y-68563000D01*
X67645848Y-68563000D01*
X67806394Y-68594934D01*
X67806394Y-68594934D01*
G37*
G36*
X93206394Y-68594934D02*
G01*
X93357624Y-68657576D01*
X93357626Y-68657577D01*
X93493732Y-68748520D01*
X93609480Y-68864268D01*
X93673979Y-68960798D01*
X93700424Y-69000376D01*
X93763066Y-69151606D01*
X93795000Y-69312152D01*
X93795000Y-69475848D01*
X93763066Y-69636394D01*
X93700424Y-69787624D01*
X93700423Y-69787626D01*
X93609480Y-69923732D01*
X93493732Y-70039480D01*
X93357626Y-70130423D01*
X93357625Y-70130424D01*
X93357624Y-70130424D01*
X93206394Y-70193066D01*
X93045848Y-70225000D01*
X92882152Y-70225000D01*
X92721606Y-70193066D01*
X92570376Y-70130424D01*
X92570375Y-70130424D01*
X92570374Y-70130423D01*
X92434268Y-70039480D01*
X92318520Y-69923732D01*
X92227577Y-69787626D01*
X92227576Y-69787624D01*
X92164934Y-69636394D01*
X92133000Y-69475848D01*
X92133000Y-69312152D01*
X92164934Y-69151606D01*
X92227576Y-69000376D01*
X92254021Y-68960798D01*
X92318520Y-68864268D01*
X92434268Y-68748520D01*
X92570374Y-68657577D01*
X92570376Y-68657576D01*
X92721606Y-68594934D01*
X92882152Y-68563000D01*
X93045848Y-68563000D01*
X93206394Y-68594934D01*
X93206394Y-68594934D01*
G37*
G36*
X67806394Y-66054934D02*
G01*
X67957624Y-66117576D01*
X67957626Y-66117577D01*
X68093732Y-66208520D01*
X68209480Y-66324268D01*
X68300423Y-66460374D01*
X68300424Y-66460376D01*
X68363066Y-66611606D01*
X68395000Y-66772152D01*
X68395000Y-66935848D01*
X68363066Y-67096394D01*
X68300424Y-67247624D01*
X68300423Y-67247626D01*
X68209480Y-67383732D01*
X68093732Y-67499480D01*
X67957626Y-67590423D01*
X67957625Y-67590424D01*
X67957624Y-67590424D01*
X67806394Y-67653066D01*
X67645848Y-67685000D01*
X67482152Y-67685000D01*
X67321606Y-67653066D01*
X67170376Y-67590424D01*
X67170375Y-67590424D01*
X67170374Y-67590423D01*
X67034268Y-67499480D01*
X66918520Y-67383732D01*
X66827577Y-67247626D01*
X66827576Y-67247624D01*
X66764934Y-67096394D01*
X66733000Y-66935848D01*
X66733000Y-66772152D01*
X66764934Y-66611606D01*
X66827576Y-66460376D01*
X66827577Y-66460374D01*
X66918520Y-66324268D01*
X67034268Y-66208520D01*
X67170374Y-66117577D01*
X67170376Y-66117576D01*
X67321606Y-66054934D01*
X67482152Y-66023000D01*
X67645848Y-66023000D01*
X67806394Y-66054934D01*
X67806394Y-66054934D01*
G37*
G36*
X93206394Y-66054934D02*
G01*
X93357624Y-66117576D01*
X93357626Y-66117577D01*
X93493732Y-66208520D01*
X93609480Y-66324268D01*
X93700423Y-66460374D01*
X93700424Y-66460376D01*
X93763066Y-66611606D01*
X93795000Y-66772152D01*
X93795000Y-66935848D01*
X93763066Y-67096394D01*
X93700424Y-67247624D01*
X93700423Y-67247626D01*
X93609480Y-67383732D01*
X93493732Y-67499480D01*
X93357626Y-67590423D01*
X93357625Y-67590424D01*
X93357624Y-67590424D01*
X93206394Y-67653066D01*
X93045848Y-67685000D01*
X92882152Y-67685000D01*
X92721606Y-67653066D01*
X92570376Y-67590424D01*
X92570375Y-67590424D01*
X92570374Y-67590423D01*
X92434268Y-67499480D01*
X92318520Y-67383732D01*
X92227577Y-67247626D01*
X92227576Y-67247624D01*
X92164934Y-67096394D01*
X92133000Y-66935848D01*
X92133000Y-66772152D01*
X92164934Y-66611606D01*
X92227576Y-66460376D01*
X92227577Y-66460374D01*
X92318520Y-66324268D01*
X92434268Y-66208520D01*
X92570374Y-66117577D01*
X92570376Y-66117576D01*
X92721606Y-66054934D01*
X92882152Y-66023000D01*
X93045848Y-66023000D01*
X93206394Y-66054934D01*
X93206394Y-66054934D01*
G37*
G36*
X57908433Y-63594893D02*
G01*
X57998657Y-63612839D01*
X58104267Y-63656585D01*
X58253621Y-63718449D01*
X58253622Y-63718450D01*
X58483086Y-63871772D01*
X58678228Y-64066914D01*
X58780675Y-64220237D01*
X58831551Y-64296379D01*
X58937161Y-64551344D01*
X58991000Y-64822012D01*
X58991000Y-65097988D01*
X58937161Y-65368656D01*
X58831551Y-65623621D01*
X58831550Y-65623622D01*
X58678228Y-65853086D01*
X58483086Y-66048228D01*
X58379297Y-66117577D01*
X58253621Y-66201551D01*
X58104267Y-66263415D01*
X57998657Y-66307161D01*
X57912653Y-66324268D01*
X57727988Y-66361000D01*
X57452012Y-66361000D01*
X57267347Y-66324268D01*
X57181343Y-66307161D01*
X57075733Y-66263415D01*
X56926379Y-66201551D01*
X56800703Y-66117577D01*
X56696914Y-66048228D01*
X56501772Y-65853086D01*
X56348450Y-65623622D01*
X56348449Y-65623621D01*
X56242839Y-65368656D01*
X56189000Y-65097988D01*
X56189000Y-64822012D01*
X56242839Y-64551344D01*
X56348449Y-64296379D01*
X56399325Y-64220237D01*
X56501772Y-64066914D01*
X56696914Y-63871772D01*
X56926378Y-63718450D01*
X56926379Y-63718449D01*
X57075733Y-63656585D01*
X57181343Y-63612839D01*
X57271567Y-63594893D01*
X57452012Y-63559000D01*
X57727988Y-63559000D01*
X57908433Y-63594893D01*
X57908433Y-63594893D01*
G37*
G36*
X54408433Y-63594893D02*
G01*
X54498657Y-63612839D01*
X54604267Y-63656585D01*
X54753621Y-63718449D01*
X54753622Y-63718450D01*
X54983086Y-63871772D01*
X55178228Y-64066914D01*
X55280675Y-64220237D01*
X55331551Y-64296379D01*
X55437161Y-64551344D01*
X55491000Y-64822012D01*
X55491000Y-65097988D01*
X55437161Y-65368656D01*
X55331551Y-65623621D01*
X55331550Y-65623622D01*
X55178228Y-65853086D01*
X54983086Y-66048228D01*
X54879297Y-66117577D01*
X54753621Y-66201551D01*
X54604267Y-66263415D01*
X54498657Y-66307161D01*
X54412653Y-66324268D01*
X54227988Y-66361000D01*
X53952012Y-66361000D01*
X53767347Y-66324268D01*
X53681343Y-66307161D01*
X53575733Y-66263415D01*
X53426379Y-66201551D01*
X53300703Y-66117577D01*
X53196914Y-66048228D01*
X53001772Y-65853086D01*
X52848450Y-65623622D01*
X52848449Y-65623621D01*
X52742839Y-65368656D01*
X52689000Y-65097988D01*
X52689000Y-64822012D01*
X52742839Y-64551344D01*
X52848449Y-64296379D01*
X52899325Y-64220237D01*
X53001772Y-64066914D01*
X53196914Y-63871772D01*
X53426378Y-63718450D01*
X53426379Y-63718449D01*
X53575733Y-63656585D01*
X53681343Y-63612839D01*
X53771567Y-63594893D01*
X53952012Y-63559000D01*
X54227988Y-63559000D01*
X54408433Y-63594893D01*
X54408433Y-63594893D01*
G37*
G36*
X93206394Y-63514934D02*
G01*
X93357624Y-63577576D01*
X93357626Y-63577577D01*
X93493732Y-63668520D01*
X93609480Y-63784268D01*
X93667948Y-63871772D01*
X93700424Y-63920376D01*
X93763066Y-64071606D01*
X93795000Y-64232152D01*
X93795000Y-64395848D01*
X93763066Y-64556394D01*
X93700424Y-64707624D01*
X93700423Y-64707626D01*
X93609480Y-64843732D01*
X93493732Y-64959480D01*
X93357626Y-65050423D01*
X93357625Y-65050424D01*
X93357624Y-65050424D01*
X93206394Y-65113066D01*
X93045848Y-65145000D01*
X92882152Y-65145000D01*
X92721606Y-65113066D01*
X92570376Y-65050424D01*
X92570375Y-65050424D01*
X92570374Y-65050423D01*
X92434268Y-64959480D01*
X92318520Y-64843732D01*
X92227577Y-64707626D01*
X92227576Y-64707624D01*
X92164934Y-64556394D01*
X92133000Y-64395848D01*
X92133000Y-64232152D01*
X92164934Y-64071606D01*
X92227576Y-63920376D01*
X92260052Y-63871772D01*
X92318520Y-63784268D01*
X92434268Y-63668520D01*
X92570374Y-63577577D01*
X92570376Y-63577576D01*
X92721606Y-63514934D01*
X92882152Y-63483000D01*
X93045848Y-63483000D01*
X93206394Y-63514934D01*
X93206394Y-63514934D01*
G37*
G36*
X67806394Y-63514934D02*
G01*
X67957624Y-63577576D01*
X67957626Y-63577577D01*
X68093732Y-63668520D01*
X68209480Y-63784268D01*
X68267948Y-63871772D01*
X68300424Y-63920376D01*
X68363066Y-64071606D01*
X68395000Y-64232152D01*
X68395000Y-64395848D01*
X68363066Y-64556394D01*
X68300424Y-64707624D01*
X68300423Y-64707626D01*
X68209480Y-64843732D01*
X68093732Y-64959480D01*
X67957626Y-65050423D01*
X67957625Y-65050424D01*
X67957624Y-65050424D01*
X67806394Y-65113066D01*
X67645848Y-65145000D01*
X67482152Y-65145000D01*
X67321606Y-65113066D01*
X67170376Y-65050424D01*
X67170375Y-65050424D01*
X67170374Y-65050423D01*
X67034268Y-64959480D01*
X66918520Y-64843732D01*
X66827577Y-64707626D01*
X66827576Y-64707624D01*
X66764934Y-64556394D01*
X66733000Y-64395848D01*
X66733000Y-64232152D01*
X66764934Y-64071606D01*
X66827576Y-63920376D01*
X66860052Y-63871772D01*
X66918520Y-63784268D01*
X67034268Y-63668520D01*
X67170374Y-63577577D01*
X67170376Y-63577576D01*
X67321606Y-63514934D01*
X67482152Y-63483000D01*
X67645848Y-63483000D01*
X67806394Y-63514934D01*
X67806394Y-63514934D01*
G37*
G36*
X67806394Y-60974934D02*
G01*
X67957624Y-61037576D01*
X67957626Y-61037577D01*
X68093732Y-61128520D01*
X68209480Y-61244268D01*
X68300423Y-61380374D01*
X68300424Y-61380376D01*
X68363066Y-61531606D01*
X68395000Y-61692152D01*
X68395000Y-61855848D01*
X68363066Y-62016394D01*
X68303168Y-62161000D01*
X68300423Y-62167626D01*
X68209480Y-62303732D01*
X68093732Y-62419480D01*
X67957626Y-62510423D01*
X67957625Y-62510424D01*
X67957624Y-62510424D01*
X67806394Y-62573066D01*
X67645848Y-62605000D01*
X67482152Y-62605000D01*
X67321606Y-62573066D01*
X67170376Y-62510424D01*
X67170375Y-62510424D01*
X67170374Y-62510423D01*
X67034268Y-62419480D01*
X66918520Y-62303732D01*
X66827577Y-62167626D01*
X66824832Y-62161000D01*
X66764934Y-62016394D01*
X66733000Y-61855848D01*
X66733000Y-61692152D01*
X66764934Y-61531606D01*
X66827576Y-61380376D01*
X66827577Y-61380374D01*
X66918520Y-61244268D01*
X67034268Y-61128520D01*
X67170374Y-61037577D01*
X67170376Y-61037576D01*
X67321606Y-60974934D01*
X67482152Y-60943000D01*
X67645848Y-60943000D01*
X67806394Y-60974934D01*
X67806394Y-60974934D01*
G37*
G36*
X93206394Y-60974934D02*
G01*
X93357624Y-61037576D01*
X93357626Y-61037577D01*
X93493732Y-61128520D01*
X93609480Y-61244268D01*
X93700423Y-61380374D01*
X93700424Y-61380376D01*
X93763066Y-61531606D01*
X93795000Y-61692152D01*
X93795000Y-61855848D01*
X93763066Y-62016394D01*
X93703168Y-62161000D01*
X93700423Y-62167626D01*
X93609480Y-62303732D01*
X93493732Y-62419480D01*
X93357626Y-62510423D01*
X93357625Y-62510424D01*
X93357624Y-62510424D01*
X93206394Y-62573066D01*
X93045848Y-62605000D01*
X92882152Y-62605000D01*
X92721606Y-62573066D01*
X92570376Y-62510424D01*
X92570375Y-62510424D01*
X92570374Y-62510423D01*
X92434268Y-62419480D01*
X92318520Y-62303732D01*
X92227577Y-62167626D01*
X92224832Y-62161000D01*
X92164934Y-62016394D01*
X92133000Y-61855848D01*
X92133000Y-61692152D01*
X92164934Y-61531606D01*
X92227576Y-61380376D01*
X92227577Y-61380374D01*
X92318520Y-61244268D01*
X92434268Y-61128520D01*
X92570374Y-61037577D01*
X92570376Y-61037576D01*
X92721606Y-60974934D01*
X92882152Y-60943000D01*
X93045848Y-60943000D01*
X93206394Y-60974934D01*
X93206394Y-60974934D01*
G37*
G36*
X54339605Y-59381202D02*
G01*
X54498657Y-59412839D01*
X54604267Y-59456585D01*
X54753621Y-59518449D01*
X54753622Y-59518450D01*
X54983086Y-59671772D01*
X55178228Y-59866914D01*
X55247390Y-59970423D01*
X55331551Y-60096379D01*
X55437161Y-60351344D01*
X55491000Y-60622012D01*
X55491000Y-60897988D01*
X55475694Y-60974935D01*
X55437161Y-61168657D01*
X55405841Y-61244269D01*
X55331551Y-61423621D01*
X55331550Y-61423622D01*
X55178228Y-61653086D01*
X54983086Y-61848228D01*
X54829763Y-61950675D01*
X54753621Y-62001551D01*
X54604267Y-62063415D01*
X54498657Y-62107161D01*
X54408433Y-62125107D01*
X54227988Y-62161000D01*
X53952012Y-62161000D01*
X53771567Y-62125107D01*
X53681343Y-62107161D01*
X53575733Y-62063415D01*
X53426379Y-62001551D01*
X53350237Y-61950675D01*
X53196914Y-61848228D01*
X53001772Y-61653086D01*
X52848450Y-61423622D01*
X52848449Y-61423621D01*
X52774159Y-61244269D01*
X52742839Y-61168657D01*
X52704306Y-60974935D01*
X52689000Y-60897988D01*
X52689000Y-60622012D01*
X52742839Y-60351344D01*
X52848449Y-60096379D01*
X52932610Y-59970423D01*
X53001772Y-59866914D01*
X53196914Y-59671772D01*
X53426378Y-59518450D01*
X53426379Y-59518449D01*
X53575733Y-59456585D01*
X53681343Y-59412839D01*
X53840395Y-59381202D01*
X53952012Y-59359000D01*
X54227988Y-59359000D01*
X54339605Y-59381202D01*
X54339605Y-59381202D01*
G37*
G36*
X57839605Y-59381202D02*
G01*
X57998657Y-59412839D01*
X58104267Y-59456585D01*
X58253621Y-59518449D01*
X58253622Y-59518450D01*
X58483086Y-59671772D01*
X58678228Y-59866914D01*
X58747390Y-59970423D01*
X58831551Y-60096379D01*
X58937161Y-60351344D01*
X58991000Y-60622012D01*
X58991000Y-60897988D01*
X58975694Y-60974935D01*
X58937161Y-61168657D01*
X58905841Y-61244269D01*
X58831551Y-61423621D01*
X58831550Y-61423622D01*
X58678228Y-61653086D01*
X58483086Y-61848228D01*
X58329763Y-61950675D01*
X58253621Y-62001551D01*
X58104267Y-62063415D01*
X57998657Y-62107161D01*
X57908433Y-62125107D01*
X57727988Y-62161000D01*
X57452012Y-62161000D01*
X57271567Y-62125107D01*
X57181343Y-62107161D01*
X57075733Y-62063415D01*
X56926379Y-62001551D01*
X56850237Y-61950675D01*
X56696914Y-61848228D01*
X56501772Y-61653086D01*
X56348450Y-61423622D01*
X56348449Y-61423621D01*
X56274159Y-61244269D01*
X56242839Y-61168657D01*
X56204306Y-60974935D01*
X56189000Y-60897988D01*
X56189000Y-60622012D01*
X56242839Y-60351344D01*
X56348449Y-60096379D01*
X56432610Y-59970423D01*
X56501772Y-59866914D01*
X56696914Y-59671772D01*
X56926378Y-59518450D01*
X56926379Y-59518449D01*
X57075733Y-59456585D01*
X57181343Y-59412839D01*
X57340395Y-59381202D01*
X57452012Y-59359000D01*
X57727988Y-59359000D01*
X57839605Y-59381202D01*
X57839605Y-59381202D01*
G37*
G36*
X132276394Y-56804574D02*
G01*
X132398927Y-56855328D01*
X132509202Y-56929012D01*
X132602988Y-57022798D01*
X132676672Y-57133073D01*
X132727426Y-57255606D01*
X132753300Y-57385684D01*
X132753300Y-57518316D01*
X132727426Y-57648394D01*
X132676672Y-57770927D01*
X132602988Y-57881202D01*
X132509202Y-57974988D01*
X132398925Y-58048673D01*
X132307562Y-58086516D01*
X132285951Y-58098067D01*
X132267009Y-58113612D01*
X132251464Y-58132554D01*
X132239912Y-58154164D01*
X132232799Y-58177613D01*
X132230397Y-58201999D01*
X132232799Y-58226385D01*
X132239912Y-58249834D01*
X132251463Y-58271445D01*
X132267008Y-58290387D01*
X132285950Y-58305932D01*
X132307562Y-58317484D01*
X132398925Y-58355327D01*
X132509202Y-58429012D01*
X132602988Y-58522798D01*
X132676672Y-58633073D01*
X132727426Y-58755606D01*
X132753300Y-58885684D01*
X132753300Y-59018316D01*
X132727426Y-59148394D01*
X132676672Y-59270927D01*
X132602988Y-59381202D01*
X132509202Y-59474988D01*
X132398925Y-59548673D01*
X132307562Y-59586516D01*
X132285951Y-59598067D01*
X132267009Y-59613612D01*
X132251464Y-59632554D01*
X132239912Y-59654164D01*
X132232799Y-59677613D01*
X132230397Y-59701999D01*
X132232799Y-59726385D01*
X132239912Y-59749834D01*
X132251463Y-59771445D01*
X132267008Y-59790387D01*
X132285950Y-59805932D01*
X132307562Y-59817484D01*
X132398925Y-59855327D01*
X132509202Y-59929012D01*
X132602988Y-60022798D01*
X132676672Y-60133073D01*
X132727426Y-60255606D01*
X132753300Y-60385684D01*
X132753300Y-60518316D01*
X132727426Y-60648394D01*
X132676672Y-60770927D01*
X132602988Y-60881202D01*
X132509202Y-60974988D01*
X132398927Y-61048672D01*
X132276394Y-61099426D01*
X132146316Y-61125300D01*
X132013684Y-61125300D01*
X131883606Y-61099426D01*
X131761073Y-61048672D01*
X131650798Y-60974988D01*
X131557012Y-60881202D01*
X131483328Y-60770927D01*
X131432574Y-60648394D01*
X131406700Y-60518316D01*
X131406700Y-60385684D01*
X131432574Y-60255606D01*
X131483328Y-60133073D01*
X131557012Y-60022798D01*
X131650798Y-59929012D01*
X131761075Y-59855327D01*
X131852438Y-59817484D01*
X131874049Y-59805933D01*
X131892991Y-59790388D01*
X131908536Y-59771446D01*
X131920088Y-59749836D01*
X131927201Y-59726387D01*
X131929603Y-59702001D01*
X131927201Y-59677615D01*
X131920088Y-59654166D01*
X131908537Y-59632555D01*
X131892992Y-59613613D01*
X131874050Y-59598068D01*
X131852438Y-59586516D01*
X131761075Y-59548673D01*
X131650798Y-59474988D01*
X131557012Y-59381202D01*
X131483328Y-59270927D01*
X131432574Y-59148394D01*
X131406700Y-59018316D01*
X131406700Y-58885684D01*
X131432574Y-58755606D01*
X131483328Y-58633073D01*
X131557012Y-58522798D01*
X131650798Y-58429012D01*
X131761075Y-58355327D01*
X131852438Y-58317484D01*
X131874049Y-58305933D01*
X131892991Y-58290388D01*
X131908536Y-58271446D01*
X131920088Y-58249836D01*
X131927201Y-58226387D01*
X131929603Y-58202001D01*
X131927201Y-58177615D01*
X131920088Y-58154166D01*
X131908537Y-58132555D01*
X131892992Y-58113613D01*
X131874050Y-58098068D01*
X131852438Y-58086516D01*
X131761075Y-58048673D01*
X131650798Y-57974988D01*
X131557012Y-57881202D01*
X131483328Y-57770927D01*
X131432574Y-57648394D01*
X131406700Y-57518316D01*
X131406700Y-57385684D01*
X131432574Y-57255606D01*
X131483328Y-57133073D01*
X131557012Y-57022798D01*
X131650798Y-56929012D01*
X131761073Y-56855328D01*
X131883606Y-56804574D01*
X132013684Y-56778700D01*
X132146316Y-56778700D01*
X132276394Y-56804574D01*
X132276394Y-56804574D01*
G37*
G36*
X67806394Y-58434934D02*
G01*
X67957624Y-58497576D01*
X67957626Y-58497577D01*
X68093732Y-58588520D01*
X68209480Y-58704268D01*
X68300423Y-58840374D01*
X68300424Y-58840376D01*
X68363066Y-58991606D01*
X68395000Y-59152152D01*
X68395000Y-59315848D01*
X68363066Y-59476394D01*
X68300424Y-59627624D01*
X68300423Y-59627626D01*
X68209480Y-59763732D01*
X68093732Y-59879480D01*
X67957626Y-59970423D01*
X67957625Y-59970424D01*
X67957624Y-59970424D01*
X67806394Y-60033066D01*
X67645848Y-60065000D01*
X67482152Y-60065000D01*
X67321606Y-60033066D01*
X67170376Y-59970424D01*
X67170375Y-59970424D01*
X67170374Y-59970423D01*
X67034268Y-59879480D01*
X66918520Y-59763732D01*
X66827577Y-59627626D01*
X66827576Y-59627624D01*
X66764934Y-59476394D01*
X66733000Y-59315848D01*
X66733000Y-59152152D01*
X66764934Y-58991606D01*
X66827576Y-58840376D01*
X66827577Y-58840374D01*
X66918520Y-58704268D01*
X67034268Y-58588520D01*
X67170374Y-58497577D01*
X67170376Y-58497576D01*
X67321606Y-58434934D01*
X67482152Y-58403000D01*
X67645848Y-58403000D01*
X67806394Y-58434934D01*
X67806394Y-58434934D01*
G37*
G36*
X93206394Y-58434934D02*
G01*
X93357624Y-58497576D01*
X93357626Y-58497577D01*
X93493732Y-58588520D01*
X93609480Y-58704268D01*
X93700423Y-58840374D01*
X93700424Y-58840376D01*
X93763066Y-58991606D01*
X93795000Y-59152152D01*
X93795000Y-59315848D01*
X93763066Y-59476394D01*
X93700424Y-59627624D01*
X93700423Y-59627626D01*
X93609480Y-59763732D01*
X93493732Y-59879480D01*
X93357626Y-59970423D01*
X93357625Y-59970424D01*
X93357624Y-59970424D01*
X93206394Y-60033066D01*
X93045848Y-60065000D01*
X92882152Y-60065000D01*
X92721606Y-60033066D01*
X92570376Y-59970424D01*
X92570375Y-59970424D01*
X92570374Y-59970423D01*
X92434268Y-59879480D01*
X92318520Y-59763732D01*
X92227577Y-59627626D01*
X92227576Y-59627624D01*
X92164934Y-59476394D01*
X92133000Y-59315848D01*
X92133000Y-59152152D01*
X92164934Y-58991606D01*
X92227576Y-58840376D01*
X92227577Y-58840374D01*
X92318520Y-58704268D01*
X92434268Y-58588520D01*
X92570374Y-58497577D01*
X92570376Y-58497576D01*
X92721606Y-58434934D01*
X92882152Y-58403000D01*
X93045848Y-58403000D01*
X93206394Y-58434934D01*
X93206394Y-58434934D01*
G37*
G36*
X54408433Y-55194893D02*
G01*
X54498657Y-55212839D01*
X54604267Y-55256585D01*
X54753621Y-55318449D01*
X54753622Y-55318450D01*
X54983086Y-55471772D01*
X55178228Y-55666914D01*
X55257380Y-55785374D01*
X55331551Y-55896379D01*
X55356900Y-55957577D01*
X55437161Y-56151343D01*
X55491000Y-56422014D01*
X55491000Y-56697986D01*
X55437161Y-56968657D01*
X55414735Y-57022798D01*
X55331551Y-57223621D01*
X55331477Y-57223732D01*
X55178228Y-57453086D01*
X54983086Y-57648228D01*
X54829763Y-57750675D01*
X54753621Y-57801551D01*
X54604267Y-57863415D01*
X54498657Y-57907161D01*
X54408433Y-57925107D01*
X54227988Y-57961000D01*
X53952012Y-57961000D01*
X53771567Y-57925107D01*
X53681343Y-57907161D01*
X53575733Y-57863415D01*
X53426379Y-57801551D01*
X53350237Y-57750675D01*
X53196914Y-57648228D01*
X53001772Y-57453086D01*
X52848523Y-57223732D01*
X52848449Y-57223621D01*
X52765265Y-57022798D01*
X52742839Y-56968657D01*
X52689000Y-56697986D01*
X52689000Y-56422014D01*
X52742839Y-56151343D01*
X52823100Y-55957577D01*
X52848449Y-55896379D01*
X52922620Y-55785374D01*
X53001772Y-55666914D01*
X53196914Y-55471772D01*
X53426378Y-55318450D01*
X53426379Y-55318449D01*
X53575733Y-55256585D01*
X53681343Y-55212839D01*
X53771567Y-55194893D01*
X53952012Y-55159000D01*
X54227988Y-55159000D01*
X54408433Y-55194893D01*
X54408433Y-55194893D01*
G37*
G36*
X57908433Y-55194893D02*
G01*
X57998657Y-55212839D01*
X58104267Y-55256585D01*
X58253621Y-55318449D01*
X58253622Y-55318450D01*
X58483086Y-55471772D01*
X58678228Y-55666914D01*
X58757380Y-55785374D01*
X58831551Y-55896379D01*
X58856900Y-55957577D01*
X58937161Y-56151343D01*
X58991000Y-56422014D01*
X58991000Y-56697986D01*
X58937161Y-56968657D01*
X58914735Y-57022798D01*
X58831551Y-57223621D01*
X58831477Y-57223732D01*
X58678228Y-57453086D01*
X58483086Y-57648228D01*
X58329763Y-57750675D01*
X58253621Y-57801551D01*
X58104267Y-57863415D01*
X57998657Y-57907161D01*
X57908433Y-57925107D01*
X57727988Y-57961000D01*
X57452012Y-57961000D01*
X57271567Y-57925107D01*
X57181343Y-57907161D01*
X57075733Y-57863415D01*
X56926379Y-57801551D01*
X56850237Y-57750675D01*
X56696914Y-57648228D01*
X56501772Y-57453086D01*
X56348523Y-57223732D01*
X56348449Y-57223621D01*
X56265265Y-57022798D01*
X56242839Y-56968657D01*
X56189000Y-56697986D01*
X56189000Y-56422014D01*
X56242839Y-56151343D01*
X56323100Y-55957577D01*
X56348449Y-55896379D01*
X56422620Y-55785374D01*
X56501772Y-55666914D01*
X56696914Y-55471772D01*
X56926378Y-55318450D01*
X56926379Y-55318449D01*
X57075733Y-55256585D01*
X57181343Y-55212839D01*
X57271567Y-55194893D01*
X57452012Y-55159000D01*
X57727988Y-55159000D01*
X57908433Y-55194893D01*
X57908433Y-55194893D01*
G37*
G36*
X67806394Y-55894934D02*
G01*
X67957624Y-55957576D01*
X67957626Y-55957577D01*
X68093732Y-56048520D01*
X68209480Y-56164268D01*
X68235800Y-56203659D01*
X68300424Y-56300376D01*
X68363066Y-56451606D01*
X68395000Y-56612152D01*
X68395000Y-56775848D01*
X68363066Y-56936394D01*
X68300424Y-57087624D01*
X68300423Y-57087626D01*
X68209480Y-57223732D01*
X68093732Y-57339480D01*
X67957626Y-57430423D01*
X67957625Y-57430424D01*
X67957624Y-57430424D01*
X67806394Y-57493066D01*
X67645848Y-57525000D01*
X67482152Y-57525000D01*
X67321606Y-57493066D01*
X67170376Y-57430424D01*
X67170375Y-57430424D01*
X67170374Y-57430423D01*
X67034268Y-57339480D01*
X66918520Y-57223732D01*
X66827577Y-57087626D01*
X66827576Y-57087624D01*
X66764934Y-56936394D01*
X66733000Y-56775848D01*
X66733000Y-56612152D01*
X66764934Y-56451606D01*
X66827576Y-56300376D01*
X66892200Y-56203659D01*
X66918520Y-56164268D01*
X67034268Y-56048520D01*
X67170374Y-55957577D01*
X67170376Y-55957576D01*
X67321606Y-55894934D01*
X67482152Y-55863000D01*
X67645848Y-55863000D01*
X67806394Y-55894934D01*
X67806394Y-55894934D01*
G37*
G36*
X93206394Y-55894934D02*
G01*
X93357624Y-55957576D01*
X93357626Y-55957577D01*
X93493732Y-56048520D01*
X93609480Y-56164268D01*
X93635800Y-56203659D01*
X93700424Y-56300376D01*
X93763066Y-56451606D01*
X93795000Y-56612152D01*
X93795000Y-56775848D01*
X93763066Y-56936394D01*
X93700424Y-57087624D01*
X93700423Y-57087626D01*
X93609480Y-57223732D01*
X93493732Y-57339480D01*
X93357626Y-57430423D01*
X93357625Y-57430424D01*
X93357624Y-57430424D01*
X93206394Y-57493066D01*
X93045848Y-57525000D01*
X92882152Y-57525000D01*
X92721606Y-57493066D01*
X92570376Y-57430424D01*
X92570375Y-57430424D01*
X92570374Y-57430423D01*
X92434268Y-57339480D01*
X92318520Y-57223732D01*
X92227577Y-57087626D01*
X92227576Y-57087624D01*
X92164934Y-56936394D01*
X92133000Y-56775848D01*
X92133000Y-56612152D01*
X92164934Y-56451606D01*
X92227576Y-56300376D01*
X92292200Y-56203659D01*
X92318520Y-56164268D01*
X92434268Y-56048520D01*
X92570374Y-55957577D01*
X92570376Y-55957576D01*
X92721606Y-55894934D01*
X92882152Y-55863000D01*
X93045848Y-55863000D01*
X93206394Y-55894934D01*
X93206394Y-55894934D01*
G37*
G36*
X107013747Y-54816921D02*
G01*
X107093376Y-54824764D01*
X107246627Y-54871252D01*
X107246630Y-54871253D01*
X107387863Y-54946744D01*
X107511659Y-55048341D01*
X107613256Y-55172137D01*
X107688747Y-55313370D01*
X107688748Y-55313373D01*
X107735236Y-55466624D01*
X107750933Y-55626000D01*
X107735236Y-55785376D01*
X107711689Y-55863000D01*
X107688747Y-55938630D01*
X107613256Y-56079863D01*
X107511659Y-56203659D01*
X107387863Y-56305256D01*
X107246630Y-56380747D01*
X107246627Y-56380748D01*
X107093376Y-56427236D01*
X107013747Y-56435079D01*
X106973934Y-56439000D01*
X105370066Y-56439000D01*
X105330253Y-56435079D01*
X105250624Y-56427236D01*
X105097373Y-56380748D01*
X105097370Y-56380747D01*
X104956137Y-56305256D01*
X104832341Y-56203659D01*
X104730744Y-56079863D01*
X104655253Y-55938630D01*
X104632311Y-55863000D01*
X104608764Y-55785376D01*
X104593067Y-55626000D01*
X104608764Y-55466624D01*
X104655252Y-55313373D01*
X104655253Y-55313370D01*
X104730744Y-55172137D01*
X104832341Y-55048341D01*
X104956137Y-54946744D01*
X105097370Y-54871253D01*
X105097373Y-54871252D01*
X105250624Y-54824764D01*
X105330253Y-54816921D01*
X105370066Y-54813000D01*
X106973934Y-54813000D01*
X107013747Y-54816921D01*
X107013747Y-54816921D01*
G37*
G36*
X67806394Y-53354934D02*
G01*
X67957624Y-53417576D01*
X67957626Y-53417577D01*
X68093732Y-53508520D01*
X68209480Y-53624268D01*
X68248504Y-53682672D01*
X68300424Y-53760376D01*
X68363066Y-53911606D01*
X68395000Y-54072152D01*
X68395000Y-54235848D01*
X68363066Y-54396394D01*
X68300424Y-54547624D01*
X68300423Y-54547626D01*
X68209480Y-54683732D01*
X68093732Y-54799480D01*
X67957626Y-54890423D01*
X67957625Y-54890424D01*
X67957624Y-54890424D01*
X67806394Y-54953066D01*
X67645848Y-54985000D01*
X67482152Y-54985000D01*
X67321606Y-54953066D01*
X67170376Y-54890424D01*
X67170375Y-54890424D01*
X67170374Y-54890423D01*
X67034268Y-54799480D01*
X66918520Y-54683732D01*
X66827577Y-54547626D01*
X66827576Y-54547624D01*
X66764934Y-54396394D01*
X66733000Y-54235848D01*
X66733000Y-54072152D01*
X66764934Y-53911606D01*
X66827576Y-53760376D01*
X66879496Y-53682672D01*
X66918520Y-53624268D01*
X67034268Y-53508520D01*
X67170374Y-53417577D01*
X67170376Y-53417576D01*
X67321606Y-53354934D01*
X67482152Y-53323000D01*
X67645848Y-53323000D01*
X67806394Y-53354934D01*
X67806394Y-53354934D01*
G37*
G36*
X93206394Y-53354934D02*
G01*
X93357624Y-53417576D01*
X93357626Y-53417577D01*
X93493732Y-53508520D01*
X93609480Y-53624268D01*
X93648504Y-53682672D01*
X93700424Y-53760376D01*
X93763066Y-53911606D01*
X93795000Y-54072152D01*
X93795000Y-54235848D01*
X93763066Y-54396394D01*
X93700424Y-54547624D01*
X93700423Y-54547626D01*
X93609480Y-54683732D01*
X93493732Y-54799480D01*
X93357626Y-54890423D01*
X93357625Y-54890424D01*
X93357624Y-54890424D01*
X93206394Y-54953066D01*
X93045848Y-54985000D01*
X92882152Y-54985000D01*
X92721606Y-54953066D01*
X92570376Y-54890424D01*
X92570375Y-54890424D01*
X92570374Y-54890423D01*
X92434268Y-54799480D01*
X92318520Y-54683732D01*
X92227577Y-54547626D01*
X92227576Y-54547624D01*
X92164934Y-54396394D01*
X92133000Y-54235848D01*
X92133000Y-54072152D01*
X92164934Y-53911606D01*
X92227576Y-53760376D01*
X92279496Y-53682672D01*
X92318520Y-53624268D01*
X92434268Y-53508520D01*
X92570374Y-53417577D01*
X92570376Y-53417576D01*
X92721606Y-53354934D01*
X92882152Y-53323000D01*
X93045848Y-53323000D01*
X93206394Y-53354934D01*
X93206394Y-53354934D01*
G37*
G36*
X107013747Y-52276921D02*
G01*
X107093376Y-52284764D01*
X107246627Y-52331252D01*
X107246630Y-52331253D01*
X107387863Y-52406744D01*
X107511659Y-52508341D01*
X107613256Y-52632137D01*
X107688747Y-52773370D01*
X107688748Y-52773373D01*
X107735236Y-52926624D01*
X107750933Y-53086000D01*
X107735236Y-53245376D01*
X107711689Y-53323000D01*
X107688747Y-53398630D01*
X107613256Y-53539863D01*
X107511659Y-53663659D01*
X107387863Y-53765256D01*
X107246630Y-53840747D01*
X107246627Y-53840748D01*
X107093376Y-53887236D01*
X107013747Y-53895079D01*
X106973934Y-53899000D01*
X105370066Y-53899000D01*
X105330253Y-53895079D01*
X105250624Y-53887236D01*
X105097373Y-53840748D01*
X105097370Y-53840747D01*
X104956137Y-53765256D01*
X104832341Y-53663659D01*
X104730744Y-53539863D01*
X104655253Y-53398630D01*
X104632311Y-53323000D01*
X104608764Y-53245376D01*
X104593067Y-53086000D01*
X104608764Y-52926624D01*
X104655252Y-52773373D01*
X104655253Y-52773370D01*
X104730744Y-52632137D01*
X104832341Y-52508341D01*
X104956137Y-52406744D01*
X105097370Y-52331253D01*
X105097373Y-52331252D01*
X105250624Y-52284764D01*
X105330253Y-52276921D01*
X105370066Y-52273000D01*
X106973934Y-52273000D01*
X107013747Y-52276921D01*
X107013747Y-52276921D01*
G37*
G36*
X57908433Y-50994893D02*
G01*
X57998657Y-51012839D01*
X58104267Y-51056585D01*
X58253621Y-51118449D01*
X58253622Y-51118450D01*
X58483086Y-51271772D01*
X58678228Y-51466914D01*
X58780675Y-51620237D01*
X58831551Y-51696379D01*
X58893415Y-51845733D01*
X58937161Y-51951343D01*
X58955107Y-52041567D01*
X58991000Y-52222012D01*
X58991000Y-52497988D01*
X58964316Y-52632136D01*
X58937161Y-52768657D01*
X58893415Y-52874267D01*
X58831551Y-53023621D01*
X58831550Y-53023622D01*
X58678228Y-53253086D01*
X58483086Y-53448228D01*
X58345944Y-53539863D01*
X58253621Y-53601551D01*
X58104267Y-53663415D01*
X57998657Y-53707161D01*
X57908433Y-53725107D01*
X57727988Y-53761000D01*
X57452012Y-53761000D01*
X57271567Y-53725107D01*
X57181343Y-53707161D01*
X57075733Y-53663415D01*
X56926379Y-53601551D01*
X56834056Y-53539863D01*
X56696914Y-53448228D01*
X56501772Y-53253086D01*
X56348450Y-53023622D01*
X56348449Y-53023621D01*
X56286585Y-52874267D01*
X56242839Y-52768657D01*
X56215684Y-52632136D01*
X56189000Y-52497988D01*
X56189000Y-52222012D01*
X56224893Y-52041567D01*
X56242839Y-51951343D01*
X56286585Y-51845733D01*
X56348449Y-51696379D01*
X56399325Y-51620237D01*
X56501772Y-51466914D01*
X56696914Y-51271772D01*
X56926378Y-51118450D01*
X56926379Y-51118449D01*
X57075733Y-51056585D01*
X57181343Y-51012839D01*
X57271567Y-50994893D01*
X57452012Y-50959000D01*
X57727988Y-50959000D01*
X57908433Y-50994893D01*
X57908433Y-50994893D01*
G37*
G36*
X54408433Y-50994893D02*
G01*
X54498657Y-51012839D01*
X54604267Y-51056585D01*
X54753621Y-51118449D01*
X54753622Y-51118450D01*
X54983086Y-51271772D01*
X55178228Y-51466914D01*
X55280675Y-51620237D01*
X55331551Y-51696379D01*
X55393415Y-51845733D01*
X55437161Y-51951343D01*
X55455107Y-52041567D01*
X55491000Y-52222012D01*
X55491000Y-52497988D01*
X55464316Y-52632136D01*
X55437161Y-52768657D01*
X55393415Y-52874267D01*
X55331551Y-53023621D01*
X55331550Y-53023622D01*
X55178228Y-53253086D01*
X54983086Y-53448228D01*
X54845944Y-53539863D01*
X54753621Y-53601551D01*
X54604267Y-53663415D01*
X54498657Y-53707161D01*
X54408433Y-53725107D01*
X54227988Y-53761000D01*
X53952012Y-53761000D01*
X53771567Y-53725107D01*
X53681343Y-53707161D01*
X53575733Y-53663415D01*
X53426379Y-53601551D01*
X53334056Y-53539863D01*
X53196914Y-53448228D01*
X53001772Y-53253086D01*
X52848450Y-53023622D01*
X52848449Y-53023621D01*
X52786585Y-52874267D01*
X52742839Y-52768657D01*
X52715684Y-52632136D01*
X52689000Y-52497988D01*
X52689000Y-52222012D01*
X52724893Y-52041567D01*
X52742839Y-51951343D01*
X52786585Y-51845733D01*
X52848449Y-51696379D01*
X52899325Y-51620237D01*
X53001772Y-51466914D01*
X53196914Y-51271772D01*
X53426378Y-51118450D01*
X53426379Y-51118449D01*
X53575733Y-51056585D01*
X53681343Y-51012839D01*
X53771567Y-50994893D01*
X53952012Y-50959000D01*
X54227988Y-50959000D01*
X54408433Y-50994893D01*
X54408433Y-50994893D01*
G37*
G36*
X132276394Y-49438574D02*
G01*
X132398927Y-49489328D01*
X132509202Y-49563012D01*
X132602988Y-49656798D01*
X132676672Y-49767073D01*
X132727426Y-49889606D01*
X132753300Y-50019684D01*
X132753300Y-50152316D01*
X132727426Y-50282394D01*
X132676672Y-50404927D01*
X132602988Y-50515202D01*
X132509202Y-50608988D01*
X132398925Y-50682673D01*
X132307562Y-50720516D01*
X132285951Y-50732067D01*
X132267009Y-50747612D01*
X132251464Y-50766554D01*
X132239912Y-50788164D01*
X132232799Y-50811613D01*
X132230397Y-50835999D01*
X132232799Y-50860385D01*
X132239912Y-50883834D01*
X132251463Y-50905445D01*
X132267008Y-50924387D01*
X132285950Y-50939932D01*
X132307562Y-50951484D01*
X132398925Y-50989327D01*
X132509202Y-51063012D01*
X132602988Y-51156798D01*
X132676672Y-51267073D01*
X132727426Y-51389606D01*
X132753300Y-51519684D01*
X132753300Y-51652316D01*
X132727426Y-51782394D01*
X132676672Y-51904927D01*
X132602988Y-52015202D01*
X132509202Y-52108988D01*
X132398925Y-52182673D01*
X132307562Y-52220516D01*
X132285951Y-52232067D01*
X132267009Y-52247612D01*
X132251464Y-52266554D01*
X132239912Y-52288164D01*
X132232799Y-52311613D01*
X132230397Y-52335999D01*
X132232799Y-52360385D01*
X132239912Y-52383834D01*
X132251463Y-52405445D01*
X132267008Y-52424387D01*
X132285950Y-52439932D01*
X132307562Y-52451484D01*
X132398925Y-52489327D01*
X132509202Y-52563012D01*
X132602988Y-52656798D01*
X132676672Y-52767073D01*
X132727426Y-52889606D01*
X132753300Y-53019684D01*
X132753300Y-53152316D01*
X132727426Y-53282394D01*
X132676672Y-53404927D01*
X132602988Y-53515202D01*
X132509202Y-53608988D01*
X132398927Y-53682672D01*
X132276394Y-53733426D01*
X132146316Y-53759300D01*
X132013684Y-53759300D01*
X131883606Y-53733426D01*
X131761073Y-53682672D01*
X131650798Y-53608988D01*
X131557012Y-53515202D01*
X131483328Y-53404927D01*
X131432574Y-53282394D01*
X131406700Y-53152316D01*
X131406700Y-53019684D01*
X131432574Y-52889606D01*
X131483328Y-52767073D01*
X131557012Y-52656798D01*
X131650798Y-52563012D01*
X131761075Y-52489327D01*
X131852438Y-52451484D01*
X131874049Y-52439933D01*
X131892991Y-52424388D01*
X131908536Y-52405446D01*
X131920088Y-52383836D01*
X131927201Y-52360387D01*
X131929603Y-52336001D01*
X131927201Y-52311615D01*
X131920088Y-52288166D01*
X131908537Y-52266555D01*
X131892992Y-52247613D01*
X131874050Y-52232068D01*
X131852438Y-52220516D01*
X131761075Y-52182673D01*
X131650798Y-52108988D01*
X131557012Y-52015202D01*
X131483328Y-51904927D01*
X131432574Y-51782394D01*
X131406700Y-51652316D01*
X131406700Y-51519684D01*
X131432574Y-51389606D01*
X131483328Y-51267073D01*
X131557012Y-51156798D01*
X131650798Y-51063012D01*
X131761075Y-50989327D01*
X131852438Y-50951484D01*
X131874049Y-50939933D01*
X131892991Y-50924388D01*
X131908536Y-50905446D01*
X131920088Y-50883836D01*
X131927201Y-50860387D01*
X131929603Y-50836001D01*
X131927201Y-50811615D01*
X131920088Y-50788166D01*
X131908537Y-50766555D01*
X131892992Y-50747613D01*
X131874050Y-50732068D01*
X131852438Y-50720516D01*
X131761075Y-50682673D01*
X131650798Y-50608988D01*
X131557012Y-50515202D01*
X131483328Y-50404927D01*
X131432574Y-50282394D01*
X131406700Y-50152316D01*
X131406700Y-50019684D01*
X131432574Y-49889606D01*
X131483328Y-49767073D01*
X131557012Y-49656798D01*
X131650798Y-49563012D01*
X131761073Y-49489328D01*
X131883606Y-49438574D01*
X132013684Y-49412700D01*
X132146316Y-49412700D01*
X132276394Y-49438574D01*
X132276394Y-49438574D01*
G37*
G36*
X67806394Y-50814934D02*
G01*
X67957624Y-50877576D01*
X67957626Y-50877577D01*
X68093732Y-50968520D01*
X68209480Y-51084268D01*
X68300423Y-51220374D01*
X68300424Y-51220376D01*
X68363066Y-51371606D01*
X68395000Y-51532152D01*
X68395000Y-51695848D01*
X68363066Y-51856394D01*
X68323736Y-51951344D01*
X68300423Y-52007626D01*
X68209480Y-52143732D01*
X68093732Y-52259480D01*
X67957626Y-52350423D01*
X67957625Y-52350424D01*
X67957624Y-52350424D01*
X67806394Y-52413066D01*
X67645848Y-52445000D01*
X67482152Y-52445000D01*
X67321606Y-52413066D01*
X67170376Y-52350424D01*
X67170375Y-52350424D01*
X67170374Y-52350423D01*
X67034268Y-52259480D01*
X66918520Y-52143732D01*
X66827577Y-52007626D01*
X66804264Y-51951344D01*
X66764934Y-51856394D01*
X66733000Y-51695848D01*
X66733000Y-51532152D01*
X66764934Y-51371606D01*
X66827576Y-51220376D01*
X66827577Y-51220374D01*
X66918520Y-51084268D01*
X67034268Y-50968520D01*
X67170374Y-50877577D01*
X67170376Y-50877576D01*
X67321606Y-50814934D01*
X67482152Y-50783000D01*
X67645848Y-50783000D01*
X67806394Y-50814934D01*
X67806394Y-50814934D01*
G37*
G36*
X93206394Y-50814934D02*
G01*
X93357624Y-50877576D01*
X93357626Y-50877577D01*
X93493732Y-50968520D01*
X93609480Y-51084268D01*
X93700423Y-51220374D01*
X93700424Y-51220376D01*
X93763066Y-51371606D01*
X93795000Y-51532152D01*
X93795000Y-51695848D01*
X93763066Y-51856394D01*
X93723736Y-51951344D01*
X93700423Y-52007626D01*
X93609480Y-52143732D01*
X93493732Y-52259480D01*
X93357626Y-52350423D01*
X93357625Y-52350424D01*
X93357624Y-52350424D01*
X93206394Y-52413066D01*
X93045848Y-52445000D01*
X92882152Y-52445000D01*
X92721606Y-52413066D01*
X92570376Y-52350424D01*
X92570375Y-52350424D01*
X92570374Y-52350423D01*
X92434268Y-52259480D01*
X92318520Y-52143732D01*
X92227577Y-52007626D01*
X92204264Y-51951344D01*
X92164934Y-51856394D01*
X92133000Y-51695848D01*
X92133000Y-51532152D01*
X92164934Y-51371606D01*
X92227576Y-51220376D01*
X92227577Y-51220374D01*
X92318520Y-51084268D01*
X92434268Y-50968520D01*
X92570374Y-50877577D01*
X92570376Y-50877576D01*
X92721606Y-50814934D01*
X92882152Y-50783000D01*
X93045848Y-50783000D01*
X93206394Y-50814934D01*
X93206394Y-50814934D01*
G37*
G36*
X107013747Y-49736921D02*
G01*
X107093376Y-49744764D01*
X107246627Y-49791252D01*
X107246630Y-49791253D01*
X107387863Y-49866744D01*
X107511659Y-49968341D01*
X107613256Y-50092137D01*
X107688747Y-50233370D01*
X107688748Y-50233373D01*
X107735236Y-50386624D01*
X107750933Y-50546000D01*
X107735236Y-50705376D01*
X107710122Y-50788166D01*
X107688747Y-50858630D01*
X107613256Y-50999863D01*
X107511659Y-51123659D01*
X107387863Y-51225256D01*
X107246630Y-51300747D01*
X107246627Y-51300748D01*
X107093376Y-51347236D01*
X107013747Y-51355079D01*
X106973934Y-51359000D01*
X105370066Y-51359000D01*
X105330253Y-51355079D01*
X105250624Y-51347236D01*
X105097373Y-51300748D01*
X105097370Y-51300747D01*
X104956137Y-51225256D01*
X104832341Y-51123659D01*
X104730744Y-50999863D01*
X104655253Y-50858630D01*
X104633878Y-50788166D01*
X104608764Y-50705376D01*
X104593067Y-50546000D01*
X104608764Y-50386624D01*
X104655252Y-50233373D01*
X104655253Y-50233370D01*
X104730744Y-50092137D01*
X104832341Y-49968341D01*
X104956137Y-49866744D01*
X105097370Y-49791253D01*
X105097373Y-49791252D01*
X105250624Y-49744764D01*
X105330253Y-49736921D01*
X105370066Y-49733000D01*
X106973934Y-49733000D01*
X107013747Y-49736921D01*
X107013747Y-49736921D01*
G37*
G36*
X93206394Y-48274934D02*
G01*
X93357624Y-48337576D01*
X93357626Y-48337577D01*
X93493732Y-48428520D01*
X93609480Y-48544268D01*
X93625776Y-48568657D01*
X93700424Y-48680376D01*
X93763066Y-48831606D01*
X93795000Y-48992152D01*
X93795000Y-49155848D01*
X93763066Y-49316394D01*
X93723174Y-49412700D01*
X93700423Y-49467626D01*
X93609480Y-49603732D01*
X93493732Y-49719480D01*
X93357626Y-49810423D01*
X93357625Y-49810424D01*
X93357624Y-49810424D01*
X93206394Y-49873066D01*
X93045848Y-49905000D01*
X92882152Y-49905000D01*
X92721606Y-49873066D01*
X92570376Y-49810424D01*
X92570375Y-49810424D01*
X92570374Y-49810423D01*
X92434268Y-49719480D01*
X92318520Y-49603732D01*
X92227577Y-49467626D01*
X92204826Y-49412700D01*
X92164934Y-49316394D01*
X92133000Y-49155848D01*
X92133000Y-48992152D01*
X92164934Y-48831606D01*
X92227576Y-48680376D01*
X92302224Y-48568657D01*
X92318520Y-48544268D01*
X92434268Y-48428520D01*
X92570374Y-48337577D01*
X92570376Y-48337576D01*
X92721606Y-48274934D01*
X92882152Y-48243000D01*
X93045848Y-48243000D01*
X93206394Y-48274934D01*
X93206394Y-48274934D01*
G37*
G36*
X67806394Y-48274934D02*
G01*
X67957624Y-48337576D01*
X67957626Y-48337577D01*
X68093732Y-48428520D01*
X68209480Y-48544268D01*
X68225776Y-48568657D01*
X68300424Y-48680376D01*
X68363066Y-48831606D01*
X68395000Y-48992152D01*
X68395000Y-49155848D01*
X68363066Y-49316394D01*
X68323174Y-49412700D01*
X68300423Y-49467626D01*
X68209480Y-49603732D01*
X68093732Y-49719480D01*
X67957626Y-49810423D01*
X67957625Y-49810424D01*
X67957624Y-49810424D01*
X67806394Y-49873066D01*
X67645848Y-49905000D01*
X67482152Y-49905000D01*
X67321606Y-49873066D01*
X67170376Y-49810424D01*
X67170375Y-49810424D01*
X67170374Y-49810423D01*
X67034268Y-49719480D01*
X66918520Y-49603732D01*
X66827577Y-49467626D01*
X66804826Y-49412700D01*
X66764934Y-49316394D01*
X66733000Y-49155848D01*
X66733000Y-48992152D01*
X66764934Y-48831606D01*
X66827576Y-48680376D01*
X66902224Y-48568657D01*
X66918520Y-48544268D01*
X67034268Y-48428520D01*
X67170374Y-48337577D01*
X67170376Y-48337576D01*
X67321606Y-48274934D01*
X67482152Y-48243000D01*
X67645848Y-48243000D01*
X67806394Y-48274934D01*
X67806394Y-48274934D01*
G37*
G36*
X54408433Y-46794893D02*
G01*
X54498657Y-46812839D01*
X54604267Y-46856585D01*
X54753621Y-46918449D01*
X54753622Y-46918450D01*
X54983086Y-47071772D01*
X55178228Y-47266914D01*
X55280675Y-47420237D01*
X55331551Y-47496379D01*
X55437161Y-47751344D01*
X55491000Y-48022012D01*
X55491000Y-48297988D01*
X55437161Y-48568656D01*
X55331551Y-48823621D01*
X55280675Y-48899763D01*
X55178228Y-49053086D01*
X54983086Y-49248228D01*
X54829763Y-49350675D01*
X54753621Y-49401551D01*
X54604267Y-49463415D01*
X54498657Y-49507161D01*
X54408433Y-49525107D01*
X54227988Y-49561000D01*
X53952012Y-49561000D01*
X53771567Y-49525107D01*
X53681343Y-49507161D01*
X53575733Y-49463415D01*
X53426379Y-49401551D01*
X53350237Y-49350675D01*
X53196914Y-49248228D01*
X53001772Y-49053086D01*
X52899325Y-48899763D01*
X52848449Y-48823621D01*
X52742839Y-48568656D01*
X52689000Y-48297988D01*
X52689000Y-48022012D01*
X52742839Y-47751344D01*
X52848449Y-47496379D01*
X52899325Y-47420237D01*
X53001772Y-47266914D01*
X53196914Y-47071772D01*
X53426378Y-46918450D01*
X53426379Y-46918449D01*
X53575733Y-46856585D01*
X53681343Y-46812839D01*
X53771567Y-46794893D01*
X53952012Y-46759000D01*
X54227988Y-46759000D01*
X54408433Y-46794893D01*
X54408433Y-46794893D01*
G37*
G36*
X57908433Y-46794893D02*
G01*
X57998657Y-46812839D01*
X58104267Y-46856585D01*
X58253621Y-46918449D01*
X58253622Y-46918450D01*
X58483086Y-47071772D01*
X58678228Y-47266914D01*
X58780675Y-47420237D01*
X58831551Y-47496379D01*
X58937161Y-47751344D01*
X58991000Y-48022012D01*
X58991000Y-48297988D01*
X58937161Y-48568656D01*
X58831551Y-48823621D01*
X58780675Y-48899763D01*
X58678228Y-49053086D01*
X58483086Y-49248228D01*
X58329763Y-49350675D01*
X58253621Y-49401551D01*
X58104267Y-49463415D01*
X57998657Y-49507161D01*
X57908433Y-49525107D01*
X57727988Y-49561000D01*
X57452012Y-49561000D01*
X57271567Y-49525107D01*
X57181343Y-49507161D01*
X57075733Y-49463415D01*
X56926379Y-49401551D01*
X56850237Y-49350675D01*
X56696914Y-49248228D01*
X56501772Y-49053086D01*
X56399325Y-48899763D01*
X56348449Y-48823621D01*
X56242839Y-48568656D01*
X56189000Y-48297988D01*
X56189000Y-48022012D01*
X56242839Y-47751344D01*
X56348449Y-47496379D01*
X56399325Y-47420237D01*
X56501772Y-47266914D01*
X56696914Y-47071772D01*
X56926378Y-46918450D01*
X56926379Y-46918449D01*
X57075733Y-46856585D01*
X57181343Y-46812839D01*
X57271567Y-46794893D01*
X57452012Y-46759000D01*
X57727988Y-46759000D01*
X57908433Y-46794893D01*
X57908433Y-46794893D01*
G37*
G36*
X93206394Y-45734934D02*
G01*
X93357624Y-45797576D01*
X93357626Y-45797577D01*
X93493732Y-45888520D01*
X93609480Y-46004268D01*
X93648504Y-46062672D01*
X93700424Y-46140376D01*
X93763066Y-46291606D01*
X93795000Y-46452152D01*
X93795000Y-46615848D01*
X93763066Y-46776394D01*
X93704224Y-46918449D01*
X93700423Y-46927626D01*
X93609480Y-47063732D01*
X93493732Y-47179480D01*
X93357626Y-47270423D01*
X93357625Y-47270424D01*
X93357624Y-47270424D01*
X93206394Y-47333066D01*
X93045848Y-47365000D01*
X92882152Y-47365000D01*
X92721606Y-47333066D01*
X92570376Y-47270424D01*
X92570375Y-47270424D01*
X92570374Y-47270423D01*
X92434268Y-47179480D01*
X92318520Y-47063732D01*
X92227577Y-46927626D01*
X92223776Y-46918449D01*
X92164934Y-46776394D01*
X92133000Y-46615848D01*
X92133000Y-46452152D01*
X92164934Y-46291606D01*
X92227576Y-46140376D01*
X92279496Y-46062672D01*
X92318520Y-46004268D01*
X92434268Y-45888520D01*
X92570374Y-45797577D01*
X92570376Y-45797576D01*
X92721606Y-45734934D01*
X92882152Y-45703000D01*
X93045848Y-45703000D01*
X93206394Y-45734934D01*
X93206394Y-45734934D01*
G37*
G36*
X67806394Y-45734934D02*
G01*
X67957624Y-45797576D01*
X67957626Y-45797577D01*
X68093732Y-45888520D01*
X68209480Y-46004268D01*
X68248504Y-46062672D01*
X68300424Y-46140376D01*
X68363066Y-46291606D01*
X68395000Y-46452152D01*
X68395000Y-46615848D01*
X68363066Y-46776394D01*
X68304224Y-46918449D01*
X68300423Y-46927626D01*
X68209480Y-47063732D01*
X68093732Y-47179480D01*
X67957626Y-47270423D01*
X67957625Y-47270424D01*
X67957624Y-47270424D01*
X67806394Y-47333066D01*
X67645848Y-47365000D01*
X67482152Y-47365000D01*
X67321606Y-47333066D01*
X67170376Y-47270424D01*
X67170375Y-47270424D01*
X67170374Y-47270423D01*
X67034268Y-47179480D01*
X66918520Y-47063732D01*
X66827577Y-46927626D01*
X66823776Y-46918449D01*
X66764934Y-46776394D01*
X66733000Y-46615848D01*
X66733000Y-46452152D01*
X66764934Y-46291606D01*
X66827576Y-46140376D01*
X66879496Y-46062672D01*
X66918520Y-46004268D01*
X67034268Y-45888520D01*
X67170374Y-45797577D01*
X67170376Y-45797576D01*
X67321606Y-45734934D01*
X67482152Y-45703000D01*
X67645848Y-45703000D01*
X67806394Y-45734934D01*
X67806394Y-45734934D01*
G37*
G36*
X132276394Y-41818574D02*
G01*
X132398927Y-41869328D01*
X132509202Y-41943012D01*
X132602988Y-42036798D01*
X132676672Y-42147073D01*
X132727426Y-42269606D01*
X132753300Y-42399684D01*
X132753300Y-42532316D01*
X132727426Y-42662394D01*
X132676672Y-42784927D01*
X132602988Y-42895202D01*
X132509202Y-42988988D01*
X132398925Y-43062673D01*
X132307562Y-43100516D01*
X132285951Y-43112067D01*
X132267009Y-43127612D01*
X132251464Y-43146554D01*
X132239912Y-43168164D01*
X132232799Y-43191613D01*
X132230397Y-43215999D01*
X132232799Y-43240385D01*
X132239912Y-43263834D01*
X132251463Y-43285445D01*
X132267008Y-43304387D01*
X132285950Y-43319932D01*
X132307562Y-43331484D01*
X132398925Y-43369327D01*
X132509202Y-43443012D01*
X132602988Y-43536798D01*
X132676672Y-43647073D01*
X132727426Y-43769606D01*
X132753300Y-43899684D01*
X132753300Y-44032316D01*
X132727426Y-44162394D01*
X132676672Y-44284927D01*
X132602988Y-44395202D01*
X132509202Y-44488988D01*
X132398925Y-44562673D01*
X132307562Y-44600516D01*
X132285951Y-44612067D01*
X132267009Y-44627612D01*
X132251464Y-44646554D01*
X132239912Y-44668164D01*
X132232799Y-44691613D01*
X132230397Y-44715999D01*
X132232799Y-44740385D01*
X132239912Y-44763834D01*
X132251463Y-44785445D01*
X132267008Y-44804387D01*
X132285950Y-44819932D01*
X132307562Y-44831484D01*
X132398925Y-44869327D01*
X132509202Y-44943012D01*
X132602988Y-45036798D01*
X132676672Y-45147073D01*
X132727426Y-45269606D01*
X132753300Y-45399684D01*
X132753300Y-45532316D01*
X132727426Y-45662394D01*
X132676672Y-45784927D01*
X132602988Y-45895202D01*
X132509202Y-45988988D01*
X132398927Y-46062672D01*
X132276394Y-46113426D01*
X132146316Y-46139300D01*
X132013684Y-46139300D01*
X131883606Y-46113426D01*
X131761073Y-46062672D01*
X131650798Y-45988988D01*
X131557012Y-45895202D01*
X131483328Y-45784927D01*
X131432574Y-45662394D01*
X131406700Y-45532316D01*
X131406700Y-45399684D01*
X131432574Y-45269606D01*
X131483328Y-45147073D01*
X131557012Y-45036798D01*
X131650798Y-44943012D01*
X131761075Y-44869327D01*
X131852438Y-44831484D01*
X131874049Y-44819933D01*
X131892991Y-44804388D01*
X131908536Y-44785446D01*
X131920088Y-44763836D01*
X131927201Y-44740387D01*
X131929603Y-44716001D01*
X131927201Y-44691615D01*
X131920088Y-44668166D01*
X131908537Y-44646555D01*
X131892992Y-44627613D01*
X131874050Y-44612068D01*
X131852438Y-44600516D01*
X131761075Y-44562673D01*
X131650798Y-44488988D01*
X131557012Y-44395202D01*
X131483328Y-44284927D01*
X131432574Y-44162394D01*
X131406700Y-44032316D01*
X131406700Y-43899684D01*
X131432574Y-43769606D01*
X131483328Y-43647073D01*
X131557012Y-43536798D01*
X131650798Y-43443012D01*
X131761075Y-43369327D01*
X131852438Y-43331484D01*
X131874049Y-43319933D01*
X131892991Y-43304388D01*
X131908536Y-43285446D01*
X131920088Y-43263836D01*
X131927201Y-43240387D01*
X131929603Y-43216001D01*
X131927201Y-43191615D01*
X131920088Y-43168166D01*
X131908537Y-43146555D01*
X131892992Y-43127613D01*
X131874050Y-43112068D01*
X131852438Y-43100516D01*
X131761075Y-43062673D01*
X131650798Y-42988988D01*
X131557012Y-42895202D01*
X131483328Y-42784927D01*
X131432574Y-42662394D01*
X131406700Y-42532316D01*
X131406700Y-42399684D01*
X131432574Y-42269606D01*
X131483328Y-42147073D01*
X131557012Y-42036798D01*
X131650798Y-41943012D01*
X131761073Y-41869328D01*
X131883606Y-41818574D01*
X132013684Y-41792700D01*
X132146316Y-41792700D01*
X132276394Y-41818574D01*
X132276394Y-41818574D01*
G37*
G36*
X54408433Y-42594893D02*
G01*
X54498657Y-42612839D01*
X54604267Y-42656585D01*
X54753621Y-42718449D01*
X54753622Y-42718450D01*
X54983086Y-42871772D01*
X55178228Y-43066914D01*
X55245882Y-43168166D01*
X55331551Y-43296379D01*
X55361767Y-43369327D01*
X55437161Y-43551343D01*
X55491000Y-43822014D01*
X55491000Y-44097986D01*
X55437161Y-44368657D01*
X55393415Y-44474267D01*
X55331551Y-44623621D01*
X55316227Y-44646555D01*
X55178228Y-44853086D01*
X54983086Y-45048228D01*
X54835153Y-45147073D01*
X54753621Y-45201551D01*
X54604267Y-45263415D01*
X54498657Y-45307161D01*
X54408433Y-45325107D01*
X54227988Y-45361000D01*
X53952012Y-45361000D01*
X53771567Y-45325107D01*
X53681343Y-45307161D01*
X53575733Y-45263415D01*
X53426379Y-45201551D01*
X53344847Y-45147073D01*
X53196914Y-45048228D01*
X53001772Y-44853086D01*
X52863773Y-44646555D01*
X52848449Y-44623621D01*
X52786585Y-44474267D01*
X52742839Y-44368657D01*
X52689000Y-44097986D01*
X52689000Y-43822014D01*
X52742839Y-43551343D01*
X52818233Y-43369327D01*
X52848449Y-43296379D01*
X52934118Y-43168166D01*
X53001772Y-43066914D01*
X53196914Y-42871772D01*
X53426378Y-42718450D01*
X53426379Y-42718449D01*
X53575733Y-42656585D01*
X53681343Y-42612839D01*
X53771567Y-42594893D01*
X53952012Y-42559000D01*
X54227988Y-42559000D01*
X54408433Y-42594893D01*
X54408433Y-42594893D01*
G37*
G36*
X57908433Y-42594893D02*
G01*
X57998657Y-42612839D01*
X58104267Y-42656585D01*
X58253621Y-42718449D01*
X58253622Y-42718450D01*
X58483086Y-42871772D01*
X58678228Y-43066914D01*
X58745882Y-43168166D01*
X58831551Y-43296379D01*
X58861767Y-43369327D01*
X58937161Y-43551343D01*
X58991000Y-43822014D01*
X58991000Y-44097986D01*
X58937161Y-44368657D01*
X58893415Y-44474267D01*
X58831551Y-44623621D01*
X58816227Y-44646555D01*
X58678228Y-44853086D01*
X58483086Y-45048228D01*
X58335153Y-45147073D01*
X58253621Y-45201551D01*
X58104267Y-45263415D01*
X57998657Y-45307161D01*
X57908433Y-45325107D01*
X57727988Y-45361000D01*
X57452012Y-45361000D01*
X57271567Y-45325107D01*
X57181343Y-45307161D01*
X57075733Y-45263415D01*
X56926379Y-45201551D01*
X56844847Y-45147073D01*
X56696914Y-45048228D01*
X56501772Y-44853086D01*
X56363773Y-44646555D01*
X56348449Y-44623621D01*
X56286585Y-44474267D01*
X56242839Y-44368657D01*
X56189000Y-44097986D01*
X56189000Y-43822014D01*
X56242839Y-43551343D01*
X56318233Y-43369327D01*
X56348449Y-43296379D01*
X56434118Y-43168166D01*
X56501772Y-43066914D01*
X56696914Y-42871772D01*
X56926378Y-42718450D01*
X56926379Y-42718449D01*
X57075733Y-42656585D01*
X57181343Y-42612839D01*
X57271567Y-42594893D01*
X57452012Y-42559000D01*
X57727988Y-42559000D01*
X57908433Y-42594893D01*
X57908433Y-42594893D01*
G37*
G36*
X93206394Y-43194934D02*
G01*
X93357624Y-43257576D01*
X93357626Y-43257577D01*
X93493732Y-43348520D01*
X93609480Y-43464268D01*
X93667662Y-43551344D01*
X93700424Y-43600376D01*
X93763066Y-43751606D01*
X93795000Y-43912152D01*
X93795000Y-44075848D01*
X93763066Y-44236394D01*
X93708281Y-44368656D01*
X93700423Y-44387626D01*
X93609480Y-44523732D01*
X93493732Y-44639480D01*
X93357626Y-44730423D01*
X93357625Y-44730424D01*
X93357624Y-44730424D01*
X93206394Y-44793066D01*
X93045848Y-44825000D01*
X92882152Y-44825000D01*
X92721606Y-44793066D01*
X92570376Y-44730424D01*
X92570375Y-44730424D01*
X92570374Y-44730423D01*
X92434268Y-44639480D01*
X92318520Y-44523732D01*
X92227577Y-44387626D01*
X92219719Y-44368656D01*
X92164934Y-44236394D01*
X92133000Y-44075848D01*
X92133000Y-43912152D01*
X92164934Y-43751606D01*
X92227576Y-43600376D01*
X92260338Y-43551344D01*
X92318520Y-43464268D01*
X92434268Y-43348520D01*
X92570374Y-43257577D01*
X92570376Y-43257576D01*
X92721606Y-43194934D01*
X92882152Y-43163000D01*
X93045848Y-43163000D01*
X93206394Y-43194934D01*
X93206394Y-43194934D01*
G37*
G36*
X67806394Y-43194934D02*
G01*
X67957624Y-43257576D01*
X67957626Y-43257577D01*
X68093732Y-43348520D01*
X68209480Y-43464268D01*
X68267662Y-43551344D01*
X68300424Y-43600376D01*
X68363066Y-43751606D01*
X68395000Y-43912152D01*
X68395000Y-44075848D01*
X68363066Y-44236394D01*
X68308281Y-44368656D01*
X68300423Y-44387626D01*
X68209480Y-44523732D01*
X68093732Y-44639480D01*
X67957626Y-44730423D01*
X67957625Y-44730424D01*
X67957624Y-44730424D01*
X67806394Y-44793066D01*
X67645848Y-44825000D01*
X67482152Y-44825000D01*
X67321606Y-44793066D01*
X67170376Y-44730424D01*
X67170375Y-44730424D01*
X67170374Y-44730423D01*
X67034268Y-44639480D01*
X66918520Y-44523732D01*
X66827577Y-44387626D01*
X66819719Y-44368656D01*
X66764934Y-44236394D01*
X66733000Y-44075848D01*
X66733000Y-43912152D01*
X66764934Y-43751606D01*
X66827576Y-43600376D01*
X66860338Y-43551344D01*
X66918520Y-43464268D01*
X67034268Y-43348520D01*
X67170374Y-43257577D01*
X67170376Y-43257576D01*
X67321606Y-43194934D01*
X67482152Y-43163000D01*
X67645848Y-43163000D01*
X67806394Y-43194934D01*
X67806394Y-43194934D01*
G37*
G36*
X93206394Y-40654934D02*
G01*
X93357624Y-40717576D01*
X93357626Y-40717577D01*
X93493732Y-40808520D01*
X93609480Y-40924268D01*
X93700423Y-41060374D01*
X93700424Y-41060376D01*
X93763066Y-41211606D01*
X93795000Y-41372152D01*
X93795000Y-41535848D01*
X93763066Y-41696394D01*
X93723174Y-41792700D01*
X93700423Y-41847626D01*
X93609480Y-41983732D01*
X93493732Y-42099480D01*
X93357626Y-42190423D01*
X93357625Y-42190424D01*
X93357624Y-42190424D01*
X93206394Y-42253066D01*
X93045848Y-42285000D01*
X92882152Y-42285000D01*
X92721606Y-42253066D01*
X92570376Y-42190424D01*
X92570375Y-42190424D01*
X92570374Y-42190423D01*
X92434268Y-42099480D01*
X92318520Y-41983732D01*
X92227577Y-41847626D01*
X92204826Y-41792700D01*
X92164934Y-41696394D01*
X92133000Y-41535848D01*
X92133000Y-41372152D01*
X92164934Y-41211606D01*
X92227576Y-41060376D01*
X92227577Y-41060374D01*
X92318520Y-40924268D01*
X92434268Y-40808520D01*
X92570374Y-40717577D01*
X92570376Y-40717576D01*
X92721606Y-40654934D01*
X92882152Y-40623000D01*
X93045848Y-40623000D01*
X93206394Y-40654934D01*
X93206394Y-40654934D01*
G37*
G36*
X67806394Y-40654934D02*
G01*
X67957624Y-40717576D01*
X67957626Y-40717577D01*
X68093732Y-40808520D01*
X68209480Y-40924268D01*
X68300423Y-41060374D01*
X68300424Y-41060376D01*
X68363066Y-41211606D01*
X68395000Y-41372152D01*
X68395000Y-41535848D01*
X68363066Y-41696394D01*
X68323174Y-41792700D01*
X68300423Y-41847626D01*
X68209480Y-41983732D01*
X68093732Y-42099480D01*
X67957626Y-42190423D01*
X67957625Y-42190424D01*
X67957624Y-42190424D01*
X67806394Y-42253066D01*
X67645848Y-42285000D01*
X67482152Y-42285000D01*
X67321606Y-42253066D01*
X67170376Y-42190424D01*
X67170375Y-42190424D01*
X67170374Y-42190423D01*
X67034268Y-42099480D01*
X66918520Y-41983732D01*
X66827577Y-41847626D01*
X66804826Y-41792700D01*
X66764934Y-41696394D01*
X66733000Y-41535848D01*
X66733000Y-41372152D01*
X66764934Y-41211606D01*
X66827576Y-41060376D01*
X66827577Y-41060374D01*
X66918520Y-40924268D01*
X67034268Y-40808520D01*
X67170374Y-40717577D01*
X67170376Y-40717576D01*
X67321606Y-40654934D01*
X67482152Y-40623000D01*
X67645848Y-40623000D01*
X67806394Y-40654934D01*
X67806394Y-40654934D01*
G37*
G36*
X107973000Y-41679000D02*
G01*
X104371000Y-41679000D01*
X104371000Y-38077000D01*
X107973000Y-38077000D01*
X107973000Y-41679000D01*
X107973000Y-41679000D01*
G37*
G36*
X54408433Y-38394893D02*
G01*
X54498657Y-38412839D01*
X54547638Y-38433128D01*
X54753621Y-38518449D01*
X54781787Y-38537269D01*
X54983086Y-38671772D01*
X55178228Y-38866914D01*
X55224603Y-38936320D01*
X55331551Y-39096379D01*
X55364809Y-39176671D01*
X55419053Y-39307626D01*
X55437161Y-39351344D01*
X55491000Y-39622012D01*
X55491000Y-39897988D01*
X55437161Y-40168656D01*
X55331551Y-40423621D01*
X55331550Y-40423622D01*
X55178228Y-40653086D01*
X54983086Y-40848228D01*
X54869283Y-40924268D01*
X54753621Y-41001551D01*
X54611610Y-41060374D01*
X54498657Y-41107161D01*
X54408433Y-41125107D01*
X54227988Y-41161000D01*
X53952012Y-41161000D01*
X53771567Y-41125107D01*
X53681343Y-41107161D01*
X53568390Y-41060374D01*
X53426379Y-41001551D01*
X53310717Y-40924268D01*
X53196914Y-40848228D01*
X53001772Y-40653086D01*
X52848450Y-40423622D01*
X52848449Y-40423621D01*
X52742839Y-40168656D01*
X52689000Y-39897988D01*
X52689000Y-39622012D01*
X52742839Y-39351344D01*
X52760948Y-39307626D01*
X52815191Y-39176671D01*
X52848449Y-39096379D01*
X52955397Y-38936320D01*
X53001772Y-38866914D01*
X53196914Y-38671772D01*
X53398213Y-38537269D01*
X53426379Y-38518449D01*
X53632362Y-38433128D01*
X53681343Y-38412839D01*
X53771567Y-38394893D01*
X53952012Y-38359000D01*
X54227988Y-38359000D01*
X54408433Y-38394893D01*
X54408433Y-38394893D01*
G37*
G36*
X57908433Y-38394893D02*
G01*
X57998657Y-38412839D01*
X58047638Y-38433128D01*
X58253621Y-38518449D01*
X58281787Y-38537269D01*
X58483086Y-38671772D01*
X58678228Y-38866914D01*
X58724603Y-38936320D01*
X58831551Y-39096379D01*
X58864809Y-39176671D01*
X58919053Y-39307626D01*
X58937161Y-39351344D01*
X58991000Y-39622012D01*
X58991000Y-39897988D01*
X58937161Y-40168656D01*
X58831551Y-40423621D01*
X58831550Y-40423622D01*
X58678228Y-40653086D01*
X58483086Y-40848228D01*
X58369283Y-40924268D01*
X58253621Y-41001551D01*
X58111610Y-41060374D01*
X57998657Y-41107161D01*
X57908433Y-41125107D01*
X57727988Y-41161000D01*
X57452012Y-41161000D01*
X57271567Y-41125107D01*
X57181343Y-41107161D01*
X57068390Y-41060374D01*
X56926379Y-41001551D01*
X56810717Y-40924268D01*
X56696914Y-40848228D01*
X56501772Y-40653086D01*
X56348450Y-40423622D01*
X56348449Y-40423621D01*
X56242839Y-40168656D01*
X56189000Y-39897988D01*
X56189000Y-39622012D01*
X56242839Y-39351344D01*
X56260948Y-39307626D01*
X56315191Y-39176671D01*
X56348449Y-39096379D01*
X56455397Y-38936320D01*
X56501772Y-38866914D01*
X56696914Y-38671772D01*
X56898213Y-38537269D01*
X56926379Y-38518449D01*
X57132362Y-38433128D01*
X57181343Y-38412839D01*
X57271567Y-38394893D01*
X57452012Y-38359000D01*
X57727988Y-38359000D01*
X57908433Y-38394893D01*
X57908433Y-38394893D01*
G37*
G36*
X68395000Y-39745000D02*
G01*
X66733000Y-39745000D01*
X66733000Y-38083000D01*
X68395000Y-38083000D01*
X68395000Y-39745000D01*
X68395000Y-39745000D01*
G37*
G36*
X93206394Y-38114934D02*
G01*
X93357624Y-38177576D01*
X93357626Y-38177577D01*
X93493732Y-38268520D01*
X93609480Y-38384268D01*
X93699137Y-38518450D01*
X93700424Y-38520376D01*
X93763066Y-38671606D01*
X93795000Y-38832152D01*
X93795000Y-38995848D01*
X93763066Y-39156394D01*
X93705371Y-39295680D01*
X93700423Y-39307626D01*
X93609480Y-39443732D01*
X93493732Y-39559480D01*
X93357626Y-39650423D01*
X93357625Y-39650424D01*
X93357624Y-39650424D01*
X93206394Y-39713066D01*
X93045848Y-39745000D01*
X92882152Y-39745000D01*
X92721606Y-39713066D01*
X92570376Y-39650424D01*
X92570375Y-39650424D01*
X92570374Y-39650423D01*
X92434268Y-39559480D01*
X92318520Y-39443732D01*
X92227577Y-39307626D01*
X92222629Y-39295680D01*
X92164934Y-39156394D01*
X92133000Y-38995848D01*
X92133000Y-38832152D01*
X92164934Y-38671606D01*
X92227576Y-38520376D01*
X92228863Y-38518450D01*
X92318520Y-38384268D01*
X92434268Y-38268520D01*
X92570374Y-38177577D01*
X92570376Y-38177576D01*
X92721606Y-38114934D01*
X92882152Y-38083000D01*
X93045848Y-38083000D01*
X93206394Y-38114934D01*
X93206394Y-38114934D01*
G37*
G36*
X124982000Y-39732000D02*
G01*
X123750000Y-39732000D01*
X123750000Y-38500000D01*
X124982000Y-38500000D01*
X124982000Y-39732000D01*
X124982000Y-39732000D01*
G37*
G36*
X116605681Y-38523672D02*
G01*
X116717786Y-38570107D01*
X116818677Y-38637521D01*
X116904479Y-38723323D01*
X116971893Y-38824214D01*
X117018328Y-38936319D01*
X117042000Y-39055329D01*
X117042000Y-39176671D01*
X117018328Y-39295681D01*
X116971893Y-39407786D01*
X116904479Y-39508677D01*
X116818677Y-39594479D01*
X116717786Y-39661893D01*
X116605681Y-39708328D01*
X116486671Y-39732000D01*
X116365329Y-39732000D01*
X116246319Y-39708328D01*
X116134214Y-39661893D01*
X116033323Y-39594479D01*
X115947521Y-39508677D01*
X115880107Y-39407786D01*
X115833672Y-39295681D01*
X115810000Y-39176671D01*
X115810000Y-39055329D01*
X115833672Y-38936319D01*
X115880107Y-38824214D01*
X115947521Y-38723323D01*
X116033323Y-38637521D01*
X116134214Y-38570107D01*
X116246319Y-38523672D01*
X116365329Y-38500000D01*
X116486671Y-38500000D01*
X116605681Y-38523672D01*
X116605681Y-38523672D01*
G37*
G36*
X102598366Y-35093695D02*
G01*
X102755460Y-35141349D01*
X102900231Y-35218731D01*
X103027128Y-35322872D01*
X103131269Y-35449769D01*
X103208651Y-35594540D01*
X103256305Y-35751634D01*
X103273000Y-35921140D01*
X103273000Y-37834860D01*
X103256305Y-38004366D01*
X103208651Y-38161460D01*
X103131269Y-38306231D01*
X103027128Y-38433128D01*
X102900231Y-38537269D01*
X102755460Y-38614651D01*
X102598366Y-38662305D01*
X102428860Y-38679000D01*
X100515140Y-38679000D01*
X100345634Y-38662305D01*
X100188540Y-38614651D01*
X100043769Y-38537269D01*
X99916872Y-38433128D01*
X99812731Y-38306231D01*
X99735349Y-38161460D01*
X99687695Y-38004366D01*
X99671000Y-37834860D01*
X99671000Y-35921140D01*
X99687695Y-35751634D01*
X99735349Y-35594540D01*
X99812731Y-35449769D01*
X99916872Y-35322872D01*
X100043769Y-35218731D01*
X100188540Y-35141349D01*
X100345634Y-35093695D01*
X100515140Y-35077000D01*
X102428860Y-35077000D01*
X102598366Y-35093695D01*
X102598366Y-35093695D01*
G37*
G36*
X133606390Y-37107245D02*
G01*
X133740151Y-37162651D01*
X133740153Y-37162652D01*
X133860535Y-37243088D01*
X133962912Y-37345465D01*
X134043348Y-37465847D01*
X134043349Y-37465849D01*
X134098755Y-37599610D01*
X134127000Y-37741608D01*
X134127000Y-37886392D01*
X134098755Y-38028390D01*
X134059522Y-38123106D01*
X134043348Y-38162153D01*
X133962912Y-38282535D01*
X133860535Y-38384912D01*
X133740153Y-38465348D01*
X133740152Y-38465349D01*
X133740151Y-38465349D01*
X133606390Y-38520755D01*
X133464392Y-38549000D01*
X133319608Y-38549000D01*
X133177610Y-38520755D01*
X133043849Y-38465349D01*
X133043848Y-38465349D01*
X133043847Y-38465348D01*
X132923465Y-38384912D01*
X132821088Y-38282535D01*
X132740652Y-38162153D01*
X132724478Y-38123106D01*
X132685245Y-38028390D01*
X132657000Y-37886392D01*
X132657000Y-37741608D01*
X132685245Y-37599610D01*
X132740651Y-37465849D01*
X132740652Y-37465847D01*
X132821088Y-37345465D01*
X132923465Y-37243088D01*
X133043847Y-37162652D01*
X133043849Y-37162651D01*
X133177610Y-37107245D01*
X133319608Y-37079000D01*
X133464392Y-37079000D01*
X133606390Y-37107245D01*
X133606390Y-37107245D01*
G37*
G36*
X124545681Y-35983672D02*
G01*
X124657786Y-36030107D01*
X124758677Y-36097521D01*
X124844479Y-36183323D01*
X124911893Y-36284214D01*
X124958328Y-36396319D01*
X124982000Y-36515329D01*
X124982000Y-36636671D01*
X124958328Y-36755681D01*
X124911893Y-36867786D01*
X124844479Y-36968677D01*
X124758677Y-37054479D01*
X124657786Y-37121893D01*
X124545681Y-37168328D01*
X124426671Y-37192000D01*
X124305329Y-37192000D01*
X124186319Y-37168328D01*
X124074214Y-37121893D01*
X123973323Y-37054479D01*
X123887521Y-36968677D01*
X123820107Y-36867786D01*
X123773672Y-36755681D01*
X123750000Y-36636671D01*
X123750000Y-36515329D01*
X123773672Y-36396319D01*
X123820107Y-36284214D01*
X123887521Y-36183323D01*
X123973323Y-36097521D01*
X124074214Y-36030107D01*
X124186319Y-35983672D01*
X124305329Y-35960000D01*
X124426671Y-35960000D01*
X124545681Y-35983672D01*
X124545681Y-35983672D01*
G37*
G36*
X116605681Y-35983672D02*
G01*
X116717786Y-36030107D01*
X116818677Y-36097521D01*
X116904479Y-36183323D01*
X116971893Y-36284214D01*
X117018328Y-36396319D01*
X117042000Y-36515329D01*
X117042000Y-36636671D01*
X117018328Y-36755681D01*
X116971893Y-36867786D01*
X116904479Y-36968677D01*
X116818677Y-37054479D01*
X116717786Y-37121893D01*
X116605681Y-37168328D01*
X116486671Y-37192000D01*
X116365329Y-37192000D01*
X116246319Y-37168328D01*
X116134214Y-37121893D01*
X116033323Y-37054479D01*
X115947521Y-36968677D01*
X115880107Y-36867786D01*
X115833672Y-36755681D01*
X115810000Y-36636671D01*
X115810000Y-36515329D01*
X115833672Y-36396319D01*
X115880107Y-36284214D01*
X115947521Y-36183323D01*
X116033323Y-36097521D01*
X116134214Y-36030107D01*
X116246319Y-35983672D01*
X116365329Y-35960000D01*
X116486671Y-35960000D01*
X116605681Y-35983672D01*
X116605681Y-35983672D01*
G37*
G36*
X54408433Y-34194893D02*
G01*
X54498657Y-34212839D01*
X54604267Y-34256585D01*
X54753621Y-34318449D01*
X54829763Y-34369325D01*
X54983086Y-34471772D01*
X55178228Y-34666914D01*
X55206923Y-34709860D01*
X55331551Y-34896379D01*
X55393415Y-35045733D01*
X55437161Y-35151343D01*
X55450565Y-35218731D01*
X55468389Y-35308336D01*
X55491000Y-35422014D01*
X55491000Y-35697986D01*
X55437161Y-35968657D01*
X55430941Y-35983673D01*
X55331551Y-36223621D01*
X55331550Y-36223622D01*
X55178228Y-36453086D01*
X54983086Y-36648228D01*
X54829763Y-36750675D01*
X54753621Y-36801551D01*
X54604267Y-36863415D01*
X54498657Y-36907161D01*
X54408433Y-36925107D01*
X54227988Y-36961000D01*
X53952012Y-36961000D01*
X53771567Y-36925107D01*
X53681343Y-36907161D01*
X53575733Y-36863415D01*
X53426379Y-36801551D01*
X53350237Y-36750675D01*
X53196914Y-36648228D01*
X53001772Y-36453086D01*
X52848450Y-36223622D01*
X52848449Y-36223621D01*
X52749059Y-35983673D01*
X52742839Y-35968657D01*
X52689000Y-35697986D01*
X52689000Y-35422014D01*
X52711612Y-35308336D01*
X52729435Y-35218731D01*
X52742839Y-35151343D01*
X52786585Y-35045733D01*
X52848449Y-34896379D01*
X52973077Y-34709860D01*
X53001772Y-34666914D01*
X53196914Y-34471772D01*
X53350237Y-34369325D01*
X53426379Y-34318449D01*
X53575733Y-34256585D01*
X53681343Y-34212839D01*
X53771567Y-34194893D01*
X53952012Y-34159000D01*
X54227988Y-34159000D01*
X54408433Y-34194893D01*
X54408433Y-34194893D01*
G37*
G36*
X57908433Y-34194893D02*
G01*
X57998657Y-34212839D01*
X58104267Y-34256585D01*
X58253621Y-34318449D01*
X58329763Y-34369325D01*
X58483086Y-34471772D01*
X58678228Y-34666914D01*
X58706923Y-34709860D01*
X58831551Y-34896379D01*
X58893415Y-35045733D01*
X58937161Y-35151343D01*
X58950565Y-35218731D01*
X58968389Y-35308336D01*
X58991000Y-35422014D01*
X58991000Y-35697986D01*
X58937161Y-35968657D01*
X58930941Y-35983673D01*
X58831551Y-36223621D01*
X58831550Y-36223622D01*
X58678228Y-36453086D01*
X58483086Y-36648228D01*
X58329763Y-36750675D01*
X58253621Y-36801551D01*
X58104267Y-36863415D01*
X57998657Y-36907161D01*
X57908433Y-36925107D01*
X57727988Y-36961000D01*
X57452012Y-36961000D01*
X57271567Y-36925107D01*
X57181343Y-36907161D01*
X57075733Y-36863415D01*
X56926379Y-36801551D01*
X56850237Y-36750675D01*
X56696914Y-36648228D01*
X56501772Y-36453086D01*
X56348450Y-36223622D01*
X56348449Y-36223621D01*
X56249059Y-35983673D01*
X56242839Y-35968657D01*
X56189000Y-35697986D01*
X56189000Y-35422014D01*
X56211612Y-35308336D01*
X56229435Y-35218731D01*
X56242839Y-35151343D01*
X56286585Y-35045733D01*
X56348449Y-34896379D01*
X56473077Y-34709860D01*
X56501772Y-34666914D01*
X56696914Y-34471772D01*
X56850237Y-34369325D01*
X56926379Y-34318449D01*
X57075733Y-34256585D01*
X57181343Y-34212839D01*
X57271567Y-34194893D01*
X57452012Y-34159000D01*
X57727988Y-34159000D01*
X57908433Y-34194893D01*
X57908433Y-34194893D01*
G37*
G36*
X134127000Y-36549000D02*
G01*
X132657000Y-36549000D01*
X132657000Y-35079000D01*
X134127000Y-35079000D01*
X134127000Y-36549000D01*
X134127000Y-36549000D01*
G37*
G36*
X107398979Y-32341293D02*
G01*
X107532625Y-32381834D01*
X107655784Y-32447664D01*
X107763740Y-32536260D01*
X107852336Y-32644216D01*
X107918166Y-32767375D01*
X107958707Y-32901021D01*
X107973000Y-33046140D01*
X107973000Y-34709860D01*
X107958707Y-34854979D01*
X107918166Y-34988625D01*
X107852336Y-35111784D01*
X107763740Y-35219740D01*
X107655784Y-35308336D01*
X107532625Y-35374166D01*
X107398979Y-35414707D01*
X107253860Y-35429000D01*
X105090140Y-35429000D01*
X104945021Y-35414707D01*
X104811375Y-35374166D01*
X104688216Y-35308336D01*
X104580260Y-35219740D01*
X104491664Y-35111784D01*
X104425834Y-34988625D01*
X104385293Y-34854979D01*
X104371000Y-34709860D01*
X104371000Y-33046140D01*
X104385293Y-32901021D01*
X104425834Y-32767375D01*
X104491664Y-32644216D01*
X104580260Y-32536260D01*
X104688216Y-32447664D01*
X104811375Y-32381834D01*
X104945021Y-32341293D01*
X105090140Y-32327000D01*
X107253860Y-32327000D01*
X107398979Y-32341293D01*
X107398979Y-32341293D01*
G37*
G36*
X124545681Y-33443672D02*
G01*
X124657786Y-33490107D01*
X124758677Y-33557521D01*
X124844479Y-33643323D01*
X124911893Y-33744214D01*
X124958328Y-33856319D01*
X124982000Y-33975329D01*
X124982000Y-34096671D01*
X124958328Y-34215681D01*
X124911893Y-34327786D01*
X124844479Y-34428677D01*
X124758677Y-34514479D01*
X124657786Y-34581893D01*
X124545681Y-34628328D01*
X124426671Y-34652000D01*
X124305329Y-34652000D01*
X124186319Y-34628328D01*
X124074214Y-34581893D01*
X123973323Y-34514479D01*
X123887521Y-34428677D01*
X123820107Y-34327786D01*
X123773672Y-34215681D01*
X123750000Y-34096671D01*
X123750000Y-33975329D01*
X123773672Y-33856319D01*
X123820107Y-33744214D01*
X123887521Y-33643323D01*
X123973323Y-33557521D01*
X124074214Y-33490107D01*
X124186319Y-33443672D01*
X124305329Y-33420000D01*
X124426671Y-33420000D01*
X124545681Y-33443672D01*
X124545681Y-33443672D01*
G37*
G36*
X116605681Y-33443672D02*
G01*
X116717786Y-33490107D01*
X116818677Y-33557521D01*
X116904479Y-33643323D01*
X116971893Y-33744214D01*
X117018328Y-33856319D01*
X117042000Y-33975329D01*
X117042000Y-34096671D01*
X117018328Y-34215681D01*
X116971893Y-34327786D01*
X116904479Y-34428677D01*
X116818677Y-34514479D01*
X116717786Y-34581893D01*
X116605681Y-34628328D01*
X116486671Y-34652000D01*
X116365329Y-34652000D01*
X116246319Y-34628328D01*
X116134214Y-34581893D01*
X116033323Y-34514479D01*
X115947521Y-34428677D01*
X115880107Y-34327786D01*
X115833672Y-34215681D01*
X115810000Y-34096671D01*
X115810000Y-33975329D01*
X115833672Y-33856319D01*
X115880107Y-33744214D01*
X115947521Y-33643323D01*
X116033323Y-33557521D01*
X116134214Y-33490107D01*
X116246319Y-33443672D01*
X116365329Y-33420000D01*
X116486671Y-33420000D01*
X116605681Y-33443672D01*
X116605681Y-33443672D01*
G37*
G36*
X124545681Y-30903672D02*
G01*
X124657786Y-30950107D01*
X124758677Y-31017521D01*
X124844479Y-31103323D01*
X124911893Y-31204214D01*
X124958328Y-31316319D01*
X124982000Y-31435329D01*
X124982000Y-31556671D01*
X124958328Y-31675681D01*
X124911893Y-31787786D01*
X124844479Y-31888677D01*
X124758677Y-31974479D01*
X124657786Y-32041893D01*
X124545681Y-32088328D01*
X124426671Y-32112000D01*
X124305329Y-32112000D01*
X124186319Y-32088328D01*
X124074214Y-32041893D01*
X123973323Y-31974479D01*
X123887521Y-31888677D01*
X123820107Y-31787786D01*
X123773672Y-31675681D01*
X123750000Y-31556671D01*
X123750000Y-31435329D01*
X123773672Y-31316319D01*
X123820107Y-31204214D01*
X123887521Y-31103323D01*
X123973323Y-31017521D01*
X124074214Y-30950107D01*
X124186319Y-30903672D01*
X124305329Y-30880000D01*
X124426671Y-30880000D01*
X124545681Y-30903672D01*
X124545681Y-30903672D01*
G37*
G36*
X116605681Y-30903672D02*
G01*
X116717786Y-30950107D01*
X116818677Y-31017521D01*
X116904479Y-31103323D01*
X116971893Y-31204214D01*
X117018328Y-31316319D01*
X117042000Y-31435329D01*
X117042000Y-31556671D01*
X117018328Y-31675681D01*
X116971893Y-31787786D01*
X116904479Y-31888677D01*
X116818677Y-31974479D01*
X116717786Y-32041893D01*
X116605681Y-32088328D01*
X116486671Y-32112000D01*
X116365329Y-32112000D01*
X116246319Y-32088328D01*
X116134214Y-32041893D01*
X116033323Y-31974479D01*
X115947521Y-31888677D01*
X115880107Y-31787786D01*
X115833672Y-31675681D01*
X115810000Y-31556671D01*
X115810000Y-31435329D01*
X115833672Y-31316319D01*
X115880107Y-31204214D01*
X115947521Y-31103323D01*
X116033323Y-31017521D01*
X116134214Y-30950107D01*
X116246319Y-30903672D01*
X116365329Y-30880000D01*
X116486671Y-30880000D01*
X116605681Y-30903672D01*
X116605681Y-30903672D01*
G37*
G36*
X53564549Y-29351116D02*
G01*
X53675734Y-29373232D01*
X53885203Y-29459997D01*
X54073720Y-29585960D01*
X54234040Y-29746280D01*
X54360003Y-29934797D01*
X54446768Y-30144266D01*
X54491000Y-30366636D01*
X54491000Y-30593364D01*
X54446768Y-30815734D01*
X54420148Y-30880000D01*
X54363186Y-31017520D01*
X54360003Y-31025203D01*
X54234040Y-31213720D01*
X54073720Y-31374040D01*
X53885203Y-31500003D01*
X53675734Y-31586768D01*
X53564549Y-31608884D01*
X53453365Y-31631000D01*
X53226635Y-31631000D01*
X53115451Y-31608884D01*
X53004266Y-31586768D01*
X52794797Y-31500003D01*
X52606280Y-31374040D01*
X52445960Y-31213720D01*
X52319997Y-31025203D01*
X52316815Y-31017520D01*
X52259852Y-30880000D01*
X52233232Y-30815734D01*
X52189000Y-30593364D01*
X52189000Y-30366636D01*
X52233232Y-30144266D01*
X52319997Y-29934797D01*
X52445960Y-29746280D01*
X52606280Y-29585960D01*
X52794797Y-29459997D01*
X53004266Y-29373232D01*
X53115451Y-29351116D01*
X53226635Y-29329000D01*
X53453365Y-29329000D01*
X53564549Y-29351116D01*
X53564549Y-29351116D01*
G37*
G36*
X132304549Y-28843116D02*
G01*
X132415734Y-28865232D01*
X132625203Y-28951997D01*
X132813720Y-29077960D01*
X132974040Y-29238280D01*
X133034657Y-29329000D01*
X133100004Y-29426799D01*
X133113755Y-29459997D01*
X133186768Y-29636266D01*
X133231000Y-29858636D01*
X133231000Y-30085364D01*
X133186768Y-30307734D01*
X133100003Y-30517203D01*
X132974040Y-30705720D01*
X132813720Y-30866040D01*
X132625203Y-30992003D01*
X132415734Y-31078768D01*
X132304549Y-31100884D01*
X132193365Y-31123000D01*
X131966635Y-31123000D01*
X131855451Y-31100884D01*
X131744266Y-31078768D01*
X131534797Y-30992003D01*
X131346280Y-30866040D01*
X131185960Y-30705720D01*
X131059997Y-30517203D01*
X130973232Y-30307734D01*
X130929000Y-30085364D01*
X130929000Y-29858636D01*
X130973232Y-29636266D01*
X131046245Y-29459997D01*
X131059996Y-29426799D01*
X131125343Y-29329000D01*
X131185960Y-29238280D01*
X131346280Y-29077960D01*
X131534797Y-28951997D01*
X131744266Y-28865232D01*
X131855451Y-28843116D01*
X131966635Y-28821000D01*
X132193365Y-28821000D01*
X132304549Y-28843116D01*
X132304549Y-28843116D01*
G37*
M02*
